<svg xmlns="http://www.w3.org/2000/svg" viewBox="0 0 171.65 75.16"><defs><style>.cls-1{fill:#680303;}</style></defs><g id="圖層_2" data-name="圖層 2"><g id="圖層_1-2" data-name="圖層 1"><path class="cls-1" d="M171.61,74c-1.51-5.12-6.51-8.19-11.2-10.06a28.82,28.82,0,0,0-16.15-1.74c-2,.43-4.08,1.68-4.12,4a3.62,3.62,0,0,0,3.73,3.74,3.77,3.77,0,0,0,3.53-4.14c-.16-2.4-1.79-4.84-3.13-6.76a10.94,10.94,0,0,0-6.93-4.71c-3.55-.79-7.15-1.42-10.72-2.12-1.15-.23-1.64,1.53-.48,1.76l7.13,1.41c2.06.4,4.37.62,6.27,1.6a11.11,11.11,0,0,1,4.11,4.48c.88,1.46,2.59,3.85,1.74,5.63a1.81,1.81,0,0,1-3.33-1.41c.65-1.8,3.59-1.87,5.14-2a29.13,29.13,0,0,1,12.53,2c4.13,1.63,8.79,4.34,10.12,8.87a.91.91,0,0,0,1.76-.49Z"/><path class="cls-1" d="M128.38,59.1a17.31,17.31,0,0,0-1.11-3.3,14,14,0,0,0-.77-1.49l-.41-.67c-.08-.12-.41-.56-.41-.58l-.13.46c-.19.08-.19.09,0,0l.26,0,.66-.09,1.45-.2,2.78-.38,5.66-.78a.91.91,0,1,0-.48-1.76l-5.34.73c-1.77.25-3.57.43-5.33.74a1.47,1.47,0,0,0-1.37,1.44c0,.74.72,1.41,1.08,2a15.48,15.48,0,0,1,1.69,4.35c.25,1.15,2,.66,1.76-.48Z"/><path class="cls-1" d="M9.58,63.28a.88.88,0,0,1-.67,1.24l-1.78.53a.87.87,0,0,1-1.23-.67l-3-9.94-.06,0a.73.73,0,0,1-.27,0L1,54.64c-.5,0-.81-.12-.93-.5a1.48,1.48,0,0,1,0-.49L1.37,40.44a1,1,0,0,1,.73-.94,1.14,1.14,0,0,1,.26,0L4,39.31c.51,0,.82.12.94.51a1.68,1.68,0,0,1,0,.48l-.62,6a1.25,1.25,0,0,1,.33.56Zm5.31-1.61a1.07,1.07,0,0,1-.68.67,1.68,1.68,0,0,1-.48,0l-1.13-.1c-.43,0-.69-.21-.77-.49a.92.92,0,0,1,.08-.68l3-7-4.11,1.23c-.64.19-1,0-1.21-.58s.06-1,.69-1.15L15.76,52l-.61-2,0-.09-2.48.74a.87.87,0,0,1-.72.82L10.14,52a.87.87,0,0,1-1.23-.67L5.47,39.78a.88.88,0,0,1,.66-1.24L7.91,38a.91.91,0,0,1,1,.18l11-3.29a.88.88,0,0,1,1.23.67l3.31,11.1a.87.87,0,0,1-.66,1.23L22,48.43a.89.89,0,0,1-1.06-.28l-2.13.64,0,.08.61,2,5.14-1.53c.64-.19,1,0,1.21.57s-.06,1-.69,1.15l-3.62,1.08,5.77,4.32a1.07,1.07,0,0,1,.4.51q.15.48-.42.9l-1,.75-.2.11-.18.07a1.11,1.11,0,0,1-1-.2l-4-3,1.49,5a.87.87,0,0,1-.66,1.23l-1.79.53a.87.87,0,0,1-1.23-.66l-1.56-5.24Zm2.78-24.22L9.51,39.88l2.69,9,8.16-2.44Z"/><path class="cls-1" d="M35.47,34.66c.63-.19,1,0,1.2.58s-.05,1-.69,1.15l-8.16,2.44a.85.85,0,0,1-1.21-.58c-.17-.58.06-1,.7-1.15ZM33,32.28a.85.85,0,0,1,.7.54,1,1,0,0,1-.18.78l-.24.35a1.07,1.07,0,0,1-1.29.48l-3.65-.88a.88.88,0,0,1-.7-.55,1,1,0,0,1,.18-.77l.24-.35a1.06,1.06,0,0,1,.63-.51,1.15,1.15,0,0,1,.66,0ZM36.21,39c.64-.19,1,0,1.21.58s-.06,1-.69,1.15l-7.25,2.16c-.63.19-1,0-1.2-.58s.06-1,.69-1.14Zm1.21,4.34c.63-.19,1,0,1.2.58s-.06,1-.69,1.14l-7,2.11c-.63.19-1,0-1.21-.58s.06-1,.69-1.15Zm3.94,9.84a.88.88,0,0,1-.67,1.24L38.91,55a.9.9,0,0,1-1-.18l-1.67.49a.86.86,0,0,1-.71,1.09l-1.78.53a.87.87,0,0,1-1.23-.66l-1.84-6.15a.88.88,0,0,1,.67-1.23l1.78-.54a.91.91,0,0,1,.92.14l4.42-1.33a.87.87,0,0,1,1.23.67ZM36.3,49.69l-1.55.47,1,3.42,1.55-.46Zm17.14-7A.87.87,0,0,1,52.77,44L51,44.49a1,1,0,0,1-.79,0l-4.52,1.34a1,1,0,0,1-.64.48l-1.78.53A.87.87,0,0,1,42,46.14L40.91,42.4h-.12l-1.51.08A.77.77,0,0,1,38.4,42a1.15,1.15,0,0,1,0-.52l.8-4.44-.08-.07-2.15-2.27a1.13,1.13,0,0,1-.26-.45.77.77,0,0,1,.44-.92l1.31-.76a1.52,1.52,0,0,1,.3-.16,1,1,0,0,1,1.07.34l.1.13.39-2.15-2.07.61c-.63.19-1,0-1.2-.58s0-.95.69-1.14L43.05,28c.54-.16.87,0,1,.39a1.19,1.19,0,0,1,0,.53l-.08.46.9-.55.16-.1a.85.85,0,0,1,.17-.06.78.78,0,0,1,.6,0l.27-1a1.1,1.1,0,0,1,.7-.81,1,1,0,0,1,.18,0l.21,0h1.4c.49,0,.79.2.89.55a1.21,1.21,0,0,1,0,.56l-.6,2.19a1.05,1.05,0,0,1,.58-.46l.18,0h.19l1.39,0c.48,0,.77.14.87.49a1.18,1.18,0,0,1,0,.59l-.77,3c0,.07,0,.13,0,.17l2.48,2.42a1.76,1.76,0,0,1,.3.48.76.76,0,0,1-.45.91l-1.27.79-.13.07ZM48.2,48.86a2.64,2.64,0,0,1,.15.3.81.81,0,0,1-.57,1.05l-1.13.49,3.54-1.05v0a1.78,1.78,0,0,1-.06-.39l.12-3.39a1,1,0,0,1,.94-1l1.72-.23a.8.8,0,0,1,1,.55.84.84,0,0,0,0,.17.8.8,0,0,1,0,.22l-.09,3,2.06-.61c.64-.19,1,0,1.21.58s-.06.95-.69,1.14L43.31,53.58c-.63.19-1,0-1.2-.58s0-1,.69-1.15L45.59,51a1,1,0,0,1-.76-.53l-1.18-2a2,2,0,0,1-.15-.3.79.79,0,0,1,.56-1l1.61-.7A.93.93,0,0,1,47,46.9Zm-5.36-10a.91.91,0,0,1,.88.11l6.15-1.84-1.31-1.26a1.43,1.43,0,0,1-.52.28L43.1,37.67a1.1,1.1,0,0,1-.58,0l-.25,1.36Zm0-3,4.34-1.3-3.5-3.43Zm5.62,3.61L44.41,40.7l1,3.3,4.05-1.21Z"/><path class="cls-1" d="M69,45.64a.88.88,0,0,1-.67,1.24l-1.78.53a.87.87,0,0,1-1.23-.67L62.9,38.55l0-.09-3.4,1.3c-.56.21-.9.12-1-.29a1.15,1.15,0,0,1,0-.63l1.61-5,0,0-3.63-2.49A1,1,0,0,1,56,30.05l3.21-7.6a1.1,1.1,0,0,1,.7-.68,1.48,1.48,0,0,1,.49-.05l1.1.11q.68.08.81.51a1,1,0,0,1-.09.65l-2.83,6.77,1.68,1.12.71-2.21a1,1,0,0,1,.69-.74l.19-.06a.45.45,0,0,1,.23,0h1.32c.47,0,.75.2.85.53a1,1,0,0,1,0,.6l-2.51,7.64,3.07-1.16L64.49,33.6a1.43,1.43,0,0,1-.12-.31.77.77,0,0,1,.53-1l1-.47a.93.93,0,0,1,1.35.41l2.44,4.09a1.43,1.43,0,0,1,.12.31.78.78,0,0,1-.53,1l-1,.47a.93.93,0,0,1-1.35-.41l-.37-.61-.14,0a1.27,1.27,0,0,1,.16.33Zm-5.43.28a.87.87,0,0,1-.75,1.16l-1.22.31a1,1,0,0,1-.78-.1,1,1,0,0,1-.42-.67l-.87-4.47A.88.88,0,0,1,60.31,41l1.22-.31a1.06,1.06,0,0,1,.8.09.91.91,0,0,1,.4.68Zm6-19a1.8,1.8,0,0,1-.44.22,1.09,1.09,0,0,1-1-.18l-.11-.06a1,1,0,0,1-.44-.53c-.09-.29,0-.58.4-.87l3-2.33-.92-3.07a.88.88,0,0,1,.67-1.24l1.78-.53a.87.87,0,0,1,1.23.67l.49,1.64,2-1.58a1.52,1.52,0,0,1,.43-.23,1.1,1.1,0,0,1,1,.19l.11.06a.91.91,0,0,1,.44.52q.14.43-.39.87l-3,2.29,3,10,.57-.18-1.49-5a.87.87,0,0,1,.66-1.23l1.78-.53a.88.88,0,0,1,1.24.66l1.91,6.41a.87.87,0,0,1-.66,1.23l-1.79.54a.87.87,0,0,1-1.1-.36l-.61.18,1.84,6.15,1-.28-.65-2.19A.87.87,0,0,1,81.21,37L83,36.43a.88.88,0,0,1,1.24.66l.88,3a.87.87,0,0,1-.66,1.23L78,43.2a.88.88,0,0,1-1.24-.66l-2.07-6.93-3.33,1a.88.88,0,0,1-1.23-.67l-1.91-6.38a.87.87,0,0,1,.67-1.23l1.78-.53a.87.87,0,0,1,1.23.66l1.67,5.61.61-.18-2.56-8.57Zm3.21,15.47a.87.87,0,0,1-.55,1.3l-1.19.41a.89.89,0,0,1-1.27-.56l-1.44-3.48a.86.86,0,0,1,.55-1.29l1.19-.42a.88.88,0,0,1,1.26.56Z"/><path class="cls-1" d="M93,40a1,1,0,0,1-.49.36.85.85,0,0,1-.5,0l-.44-.12a1.1,1.1,0,0,1-.83-.79,1.08,1.08,0,0,1,.17-1A27.6,27.6,0,0,0,94.15,32a23.53,23.53,0,0,0,1.16-6.9l-6.09,1.82a1.07,1.07,0,0,1-.77,0A.83.83,0,0,1,88,26.3a.85.85,0,0,1,.1-.71,1.1,1.1,0,0,1,.62-.45l6.58-2A35,35,0,0,0,94,15.3l0-.08L84.6,18a1.07,1.07,0,0,1-.77,0,.8.8,0,0,1-.47-.53.85.85,0,0,1,.1-.71,1.15,1.15,0,0,1,.62-.45l22.77-6.8a1.1,1.1,0,0,1,.76,0,.8.8,0,0,1,.47.53.81.81,0,0,1-.1.71,1.07,1.07,0,0,1-.62.45l-9.74,2.91,0,.11a38.74,38.74,0,0,1,.93,4.05A36.55,36.55,0,0,1,99,22.06l8.83-2.64a1,1,0,0,1,.76,0,.83.83,0,0,1,.47.53.85.85,0,0,1-.1.71,1.1,1.1,0,0,1-.62.45L102.18,23l11.87,8.6a1.23,1.23,0,0,1,.47.65,1,1,0,0,1-.46,1.17l-.83.59-.29.15a.85.85,0,0,1-.8-.14L99.35,24.75A1.5,1.5,0,0,1,99,24.4a24.12,24.12,0,0,1-1.64,7.81A36,36,0,0,1,93,40Z"/><path class="cls-1" d="M125.24,20.42a.89.89,0,0,1-.82.94l-1.62.23a1,1,0,0,1-.74-.14.94.94,0,0,1-.44-.57,1.16,1.16,0,0,1,0-.18,1.09,1.09,0,0,1,0-.18l.07-5.44-3.6-.3,0,2.36a.83.83,0,0,1-.22.63,1,1,0,0,1-.59.33l-1.67.28a.92.92,0,0,1-1.14-.69,1.24,1.24,0,0,1-.07-.32l-.27-10.88a.82.82,0,0,1,.21-.65.88.88,0,0,1,.59-.31l1.67-.28a1,1,0,0,1,1,.44L124,3.79a1.16,1.16,0,0,1,.88.07,1,1,0,0,1,.52.64,1.86,1.86,0,0,1,0,.39ZM121.78,6.33l-3.94,1.18,0,1.3,3.84.51ZM118,12.67l3.69.3,0-1.51-3.78-.5Zm4.35,17.2a.82.82,0,0,1-.82.91l-1.57.18a1,1,0,0,1-.72-.14,1,1,0,0,1-.44-.58.85.85,0,0,1,0-.17,1.41,1.41,0,0,1,0-.22l.24-5a1,1,0,0,1,.24-.61.89.89,0,0,1,.58-.3l1.58-.19a1,1,0,0,1,1.15.72c0,.06,0,.12,0,.18a.37.37,0,0,1,0,.21Zm7.75-3.1a1,1,0,0,1-.59,1.37l-1.64.61a1,1,0,0,1-.72,0,1,1,0,0,1-.53-.53L125,24.51a.94.94,0,0,1,0-.8,1,1,0,0,1,.61-.56l1.64-.62a1,1,0,0,1,.75,0,.89.89,0,0,1,.5.54Zm.49-7.16a.81.81,0,0,1-.57.52.86.86,0,0,1-.17,0h-.19l-1-.11a1,1,0,0,1-.95-.75,1.21,1.21,0,0,1,0-.79,20.24,20.24,0,0,0,1.2-4.59,21.26,21.26,0,0,0,0-4.86l-1.47.44a1,1,0,0,1-.76,0,.82.82,0,0,1-.48-.53.8.8,0,0,1,.11-.7,1.07,1.07,0,0,1,.62-.45l1.72-.52a47.45,47.45,0,0,0-1.08-4.75,1,1,0,0,1,.07-.79.94.94,0,0,1,.59-.47L130,.74a.84.84,0,0,1,.85.32,2.81,2.81,0,0,1,.67,1.29c.34,1.36.61,2.64.8,3.83l4.31-1.29a1.1,1.1,0,0,1,.76,0,.84.84,0,0,1,.48.53.82.82,0,0,1-.11.71,1.08,1.08,0,0,1-.61.45l-3.54,1L140.39,15a1.13,1.13,0,0,1,.26.45,1.06,1.06,0,0,1,0,.68,1,1,0,0,1-.49.54l-1.21.67a.76.76,0,0,1-.22.1.86.86,0,0,1-.92-.26l-5.09-5.49a17.17,17.17,0,0,1-.74,4.24A36.24,36.24,0,0,1,130.57,19.61Zm5.91,5.12a1,1,0,0,1,.07.86,1,1,0,0,1-.6.62l-1.65.65a1,1,0,0,1-.71,0,.86.86,0,0,1-.52-.47l-2-3.9a1.1,1.1,0,0,1-.08-.88,1,1,0,0,1,.61-.59l1.65-.65a.93.93,0,0,1,.71-.05.85.85,0,0,1,.52.5Zm.09-22.56a.32.32,0,0,1,.07.13c0,.06,0,.11,0,.14a1,1,0,0,1-.6,1.25l-1.52.67a1.08,1.08,0,0,1-.69,0,.81.81,0,0,1-.54-.4L132.25,2.3a1.68,1.68,0,0,1-.12-.31.93.93,0,0,1,.58-1.21L134.26.1a.9.9,0,0,1,.68-.06.88.88,0,0,1,.55.41ZM143,22.7a.41.41,0,0,1,.08.13,1.55,1.55,0,0,0,0,.15,1,1,0,0,1,0,.72,1.08,1.08,0,0,1-.55.52L141,24.9a1.11,1.11,0,0,1-.67.06.81.81,0,0,1-.53-.42l-2.54-4.09a.26.26,0,0,1-.07-.14,1.21,1.21,0,0,1,0-.14,1,1,0,0,1,0-.72,1.14,1.14,0,0,1,.55-.53l1.55-.68a1,1,0,0,1,.67-.07.9.9,0,0,1,.54.43Z"/></g></g></svg>