<svg xmlns="http://www.w3.org/2000/svg" viewBox="0 0 500.83 71.56"><defs><style>.cls-1{fill:#680303;}</style></defs><g id="圖層_2" data-name="圖層 2"><g id="圖層_1-2" data-name="圖層 1"><path class="cls-1" d="M27.18,13.27s-12,12.54-2.44,25.92C24.74,39.19,36,28.79,27.18,13.27Z"/><path class="cls-1" d="M33.63,26.06s-10.1,14.16,1.34,26C35,52.06,44.58,40.13,33.63,26.06Z"/><path class="cls-1" d="M4,36s8.36,15.25,24,10.1C28,46.09,21.44,32.25,4,36Z"/><path class="cls-1" d="M13.69,49.67S21.83,65,37.54,60.11C37.54,60.11,31.18,46.18,13.69,49.67Z"/><path class="cls-1" d="M9.22.49s-5,16.65,9.63,24.19C18.85,24.68,24.12,10.29,9.22.49Z"/><path class="cls-1" d="M0,17S3,34.15,19.43,34.34C19.43,34.34,17.71,19.12,0,17Z"/><path class="cls-1" d="M35.17,53.44S53.5,64.12,62.54,55.35l2.85,4.2C65.58,60,49,67.85,35.17,53.44Z"/><path class="cls-1" d="M473.7,13.34s11.88,12.7,2.09,26C475.79,39.29,464.7,28.73,473.7,13.34Z"/><path class="cls-1" d="M467.09,26s9.9,14.3-1.71,26C465.38,52,455.94,40,467.09,26Z"/><path class="cls-1" d="M496.57,36.38S488,51.51,472.44,46.14C472.44,46.14,479.19,32.39,496.57,36.38Z"/><path class="cls-1" d="M486.7,49.92s-8.35,15.26-24,10.11C462.7,60,469.26,46.19,486.7,49.92Z"/><path class="cls-1" d="M491.84.8s4.78,16.72-10,24.06C481.88,24.86,476.81,10.4,491.84.8Z"/><path class="cls-1" d="M500.83,17.45s-3.2,17.09-19.66,17.06C481.17,34.51,483.1,19.32,500.83,17.45Z"/><path class="cls-1" d="M465.17,53.39s-18.48,10.42-27.4,1.54l-2.91,4.16C434.66,59.53,451.14,67.61,465.17,53.39Z"/><path class="cls-1" d="M190.84,13.85a.16.16,0,0,0,.07.15l.17.08a3.27,3.27,0,0,0,.46,0l.84,0,.88,0,.59,0,1.49,0a.18.18,0,0,0,.19-.15l.78-2.81c0-.11.12-.15.3-.15H197a.17.17,0,0,1,.19.19l.13,3.36a.17.17,0,0,1-.19.19l-10.93-.13c-.09,0-.14,0-.15-.1s0-.22.2-.25a3.24,3.24,0,0,1,.59-.08,5.67,5.67,0,0,0,.62-.06c.19,0,.29-.1.29-.23V1.12a.2.2,0,0,0-.19-.22,4,4,0,0,0-.72-.06,1.62,1.62,0,0,1-.68-.13.15.15,0,0,1-.08-.17.11.11,0,0,1,.12-.12L196.6.28c.13,0,.19.07.19.2V3.71c0,.13-.06.2-.19.2h-.46a.41.41,0,0,1-.19,0,.23.23,0,0,1-.11-.17c0-.08-.07-.25-.13-.53s-.14-.57-.23-.87-.16-.58-.23-.84a1.3,1.3,0,0,0-.15-.41L195,.9a.26.26,0,0,0-.18-.09H191c-.13,0-.2.06-.2.19Zm.6-6.12a.2.2,0,0,1-.15-.06.13.13,0,0,1,0-.13,2.83,2.83,0,0,1,.08-.52.28.28,0,0,1,.2-.06h2c.09,0,.16-.06.19-.18a2,2,0,0,0,.09-.43c0-.18,0-.37,0-.57a1.61,1.61,0,0,1,.06-.41,1.43,1.43,0,0,1,.2-.45.46.46,0,0,1,.37-.2.28.28,0,0,1,.15,0,.17.17,0,0,1,.05.14V9.62c0,.08,0,.13-.05.15a.28.28,0,0,1-.15,0,.49.49,0,0,1-.4-.26,1.7,1.7,0,0,1-.2-.55,3.39,3.39,0,0,1-.06-.64V8.08a1.77,1.77,0,0,0,0-.22.15.15,0,0,0-.16-.13Z"/><path class="cls-1" d="M200.3,10.75a.14.14,0,0,1,.14.11,1,1,0,0,1,.08.28c0,.11,0,.22,0,.32s0,.18,0,.22a6,6,0,0,0,.14.9,2.45,2.45,0,0,0,.38.84,2,2,0,0,0,.9.7,3.54,3.54,0,0,0,1.22.25,4.09,4.09,0,0,0,1.25-.16,2.91,2.91,0,0,0,1-.5,2.17,2.17,0,0,0,.66-.79,2.32,2.32,0,0,0,.21-.66,2.69,2.69,0,0,0,0-.75,3.08,3.08,0,0,0-.16-.73,2.65,2.65,0,0,0-.34-.62A4.59,4.59,0,0,0,204.52,9c-.51-.28-1-.54-1.58-.79a15.25,15.25,0,0,1-1.57-.88A4.58,4.58,0,0,1,200,6a2.92,2.92,0,0,1-.41-1A4.85,4.85,0,0,1,199.5,4a3.41,3.41,0,0,1,.69-2.21A4.28,4.28,0,0,1,201.93.48,6.42,6.42,0,0,1,204.19,0a8.44,8.44,0,0,1,2.29.23l.87.27a4.14,4.14,0,0,1,.83.35.19.19,0,0,1,.12.18c0,.11,0,.3,0,.57s0,.54,0,.83,0,.56,0,.81a1.79,1.79,0,0,1-.09.5.32.32,0,0,1-.14.14.64.64,0,0,1-.2,0h-.43a.17.17,0,0,1-.12,0l0-.11a4.43,4.43,0,0,1-.19-.76,8.33,8.33,0,0,0-.17-.84,5.49,5.49,0,0,0-.28-.78,1.27,1.27,0,0,0-.49-.58,1.53,1.53,0,0,0-.53-.22A2.76,2.76,0,0,0,205,.53a4,4,0,0,0-1.11.15,2.82,2.82,0,0,0-.92.45,2.51,2.51,0,0,0-.64.77A2.31,2.31,0,0,0,202.1,3a2.45,2.45,0,0,0,.13.83,2.19,2.19,0,0,0,.41.72A5,5,0,0,0,204,5.68a14.69,14.69,0,0,0,1.58.8c.23.11.47.21.71.3a5,5,0,0,1,.7.34,4,4,0,0,1,1.54,1.48,4.07,4.07,0,0,1,.54,2.09,3.73,3.73,0,0,1-.47,1.93,3.81,3.81,0,0,1-1.22,1.3,5.38,5.38,0,0,1-1.71.74,8.52,8.52,0,0,1-2,.23l-1.1,0a11.16,11.16,0,0,1-1.27-.13,5.64,5.64,0,0,1-1.19-.33,2.06,2.06,0,0,1-.86-.61.25.25,0,0,1,0-.16l.09-1.34c0-.45,0-.9,0-1.35a.17.17,0,0,1,.19-.19Z"/><path class="cls-1" d="M213.57,14.49a.14.14,0,0,1-.15-.13.16.16,0,0,1,.11-.17,1.32,1.32,0,0,1,.3-.07l.49-.07.5-.05.34,0a.19.19,0,0,0,.21-.21V1a.17.17,0,0,0-.19-.19h-2.44a.24.24,0,0,0-.18.07.6.6,0,0,0-.11.14,1.94,1.94,0,0,0-.2.53q-.12.42-.24.9c-.08.33-.17.64-.25.95a5.46,5.46,0,0,1-.22.66c-.06.09-.17.13-.35.12a3.51,3.51,0,0,0-.41,0c-.13,0-.19-.07-.19-.2s0-.27,0-.39,0-.26,0-.4c0-.45,0-.9.07-1.35s0-.89,0-1.34a.18.18,0,0,1,.2-.2h12.15a.18.18,0,0,1,.19.2V4a.18.18,0,0,1-.19.2h-.43a.78.78,0,0,1-.22,0,.15.15,0,0,1-.11-.13c0-.11-.1-.33-.19-.64s-.17-.63-.27-1-.18-.64-.26-.92a1.82,1.82,0,0,0-.17-.47l-.15-.13a.26.26,0,0,0-.16-.08h-2.44c-.13,0-.2.06-.2.19V13.77a.21.21,0,0,0,.07.14.19.19,0,0,0,.15.07l.34,0,.5.05.49.07a.88.88,0,0,1,.29.07.18.18,0,0,1,.11.17c0,.08,0,.13-.13.13Z"/><path class="cls-1" d="M225.58,13.26a1.59,1.59,0,0,1,.24-.9,1.5,1.5,0,0,1,.58-.54,1.6,1.6,0,0,1,.75-.18,1.64,1.64,0,0,1,.76.18,1.57,1.57,0,0,1,.58.54,1.67,1.67,0,0,1,.23.9,2.45,2.45,0,0,1-.08.62,1.1,1.1,0,0,1-.34.51,1.51,1.51,0,0,1-.53.29,2,2,0,0,1-1.25,0,1.42,1.42,0,0,1-.51-.29,1,1,0,0,1-.34-.51A2.06,2.06,0,0,1,225.58,13.26Z"/><path class="cls-1" d="M241.2,13.32c-.09-.05-.34-.42-.29-.5s.39-.54.47-.54l13.32,0c.08,0,.18-.12.31-.34l.43-.74c.15-.26-.06,0,.11-.19a.45.45,0,0,1,.47-.19,1.34,1.34,0,0,1,.54.3c.26.2.54.43.82.69s.54.51.76.75.33.39.33.47a.11.11,0,0,1-.08.12l-.16,0q-4.28,0-8.51,0T241.2,13.32ZM253,1.15a3.51,3.51,0,0,0,.35-.44c.15-.21.26-.45.4-.62s.25,0,.34-.06a1.32,1.32,0,0,1,.45.24c.27.18.55.38.85.62a8.59,8.59,0,0,1,.82.72c.24.24.36.42.36.53s0,0-.06.06l-.1,0a3.53,3.53,0,0,1-.65,0l-.65,0h-1.2l-1.2,0-3.93.05h-3.94c-.26,0-.52,0-.79,0l-.8,0c-.14,0-.1-.08-.17-.17-.31-.39.22-1,.32-1h9.5Z"/><path class="cls-1" d="M259.66,5.84a4,4,0,0,1,.74-2.34,7,7,0,0,1,1.92-1.84A9.79,9.79,0,0,1,265,.45,10.32,10.32,0,0,1,267.92,0a9.32,9.32,0,0,1,3.14.5,7.87,7.87,0,0,1,2.41,1.32,7,7,0,0,1,1.66,1.94A7.68,7.68,0,0,1,276,6.08a7.2,7.2,0,0,1-.66,4.76,7,7,0,0,1-1.58,2,7.78,7.78,0,0,1-2.45,1.44,8.13,8.13,0,0,1-1.72.47,11.69,11.69,0,0,1-1.79.13,10.11,10.11,0,0,1-2.9-.44,9.8,9.8,0,0,1-2.63-1.23,7.13,7.13,0,0,1-1.9-1.85,4,4,0,0,1-.73-2.31Zm12.48-.52a5.56,5.56,0,0,0-.26-1.6,5.28,5.28,0,0,0-.79-1.55A4.38,4.38,0,0,0,269.74,1a3.79,3.79,0,0,0-1.92-.47,3.86,3.86,0,0,0-1.71.35,3.65,3.65,0,0,0-1.19.92,4.37,4.37,0,0,0-.76,1.31,9.86,9.86,0,0,0-.43,1.5,8.91,8.91,0,0,0-.19,1.51c0,.5,0,.94,0,1.33s0,.88.05,1.39a11.81,11.81,0,0,0,.2,1.54,9,9,0,0,0,.44,1.48,4,4,0,0,0,2,2.18,3.86,3.86,0,0,0,1.67.33,3.76,3.76,0,0,0,1.91-.47,4.36,4.36,0,0,0,1.34-1.18,5.22,5.22,0,0,0,.81-1.55,5.39,5.39,0,0,0,.26-1.59Z"/><path class="cls-1" d="M295.91,5.84a4,4,0,0,1,.74-2.34,7,7,0,0,1,1.92-1.84A9.79,9.79,0,0,1,301.23.45,10.31,10.31,0,0,1,304.16,0a9.38,9.38,0,0,1,3.15.5,7.87,7.87,0,0,1,2.41,1.32,7,7,0,0,1,1.66,1.94,8,8,0,0,1,.89,2.31,7.33,7.33,0,0,1,.08,2.43,7.05,7.05,0,0,1-.74,2.33,7.2,7.2,0,0,1-1.59,2,7.67,7.67,0,0,1-2.45,1.44,8,8,0,0,1-1.71.47,11.79,11.79,0,0,1-1.79.13,10.11,10.11,0,0,1-2.9-.44,9.8,9.8,0,0,1-2.63-1.23,7.13,7.13,0,0,1-1.9-1.85,4,4,0,0,1-.73-2.31Zm12.48-.52a5.56,5.56,0,0,0-.26-1.6,5.08,5.08,0,0,0-.8-1.55A4.34,4.34,0,0,0,306,1a3.79,3.79,0,0,0-1.92-.47,3.94,3.94,0,0,0-1.72.35,3.72,3.72,0,0,0-1.18.92,4.17,4.17,0,0,0-.76,1.31,8.84,8.84,0,0,0-.43,1.5,10.1,10.1,0,0,0-.2,1.51c0,.5,0,.94,0,1.33s0,.88.05,1.39a11.81,11.81,0,0,0,.2,1.54,9,9,0,0,0,.43,1.48,4.2,4.2,0,0,0,.74,1.23,4,4,0,0,0,1.23.95,3.82,3.82,0,0,0,1.67.33A3.76,3.76,0,0,0,306,13.9a4.47,4.47,0,0,0,1.34-1.18,5.22,5.22,0,0,0,.81-1.55,5.39,5.39,0,0,0,.26-1.59Z"/><path class="cls-1" d="M277.45,13.32a1.31,1.31,0,0,1-.11-.73c.05-.08.29-.36.37-.36l13.14,0c.08,0,.18-.11.31-.34l.43-.74c.15-.26,0,0,.15-.2s.36-.11.53-.11a1.34,1.34,0,0,1,.54.3c.26.2.53.43.82.69a10.59,10.59,0,0,1,.75.75c.22.23.33.39.33.47s0,.1-.07.12l-.16,0q-4.28,0-8.51,0T277.45,13.32ZM289.13,1.15a4.52,4.52,0,0,0,.36-.44c.15-.21.17-.28.31-.45a.72.72,0,0,1,.38-.25,1.76,1.76,0,0,1,.61.26c.27.18.55.38.85.62a8.59,8.59,0,0,1,.82.72c.24.24.36.42.36.53s0,0-.06.06l-.1,0a3.56,3.56,0,0,1-.65,0l-.65,0h-1.2l-1.2,0L285,2.31h-3.94c-.26,0-.52,0-.79,0l-.8,0c-.14,0-.11-.07-.17-.17-.21-.35.28-1,.38-1H289Z"/><rect class="cls-1" x="109.55" y="31.12" width="279.34" height="1.68"/><rect class="cls-1" x="109.55" y="63.42" width="279.34" height="1.68"/><path class="cls-1" d="M199,47l0,0,.17-.07h2.16a.4.4,0,0,1,.15,0c.06,0,.12.15.15.18s-.17.39-.42.42-.52,0-.82.06h-.88a4.32,4.32,0,0,1-.51,0l0,0Zm.42-1.6a3.26,3.26,0,0,1,.3-.67l.51-.86.56-.88a7.42,7.42,0,0,0,.42-.71q.39-.75.75-1.53c.23-.52.45-1,.65-1.57l.23-.66c.08-.23.16-.45.26-.67a.23.23,0,0,1,.23-.16,4.34,4.34,0,0,1,.81.14,12.29,12.29,0,0,1,1.2.35,6.61,6.61,0,0,1,1.1.48c.32.18.47.34.47.5s-.1.14-.32.3-.46.34-.71.56a6.46,6.46,0,0,0-.7.68,1.11,1.11,0,0,0-.31.71l0,5.34c0,.07.06.12.19.15a2.58,2.58,0,0,0,.42,0,1.42,1.42,0,0,0,.42-.06q.18-.06.18-.12l0-4.61a.16.16,0,0,0-.09-.15.67.67,0,0,0-.19-.1l-.24-.07a.52.52,0,0,1-.18-.1c.06-.06,0-.52.09-.56a.88.88,0,0,1,.31-.07h9.61c.15,0,.68.05.83-.16a2.82,2.82,0,0,0,.26-.49c.14-.27.28-.51.41-.72s.24-.33.34-.33a1.3,1.3,0,0,1,.58.29,9.36,9.36,0,0,1,.8.68,7.05,7.05,0,0,1,.71.76,1.17,1.17,0,0,1,.3.6s0,0-.07.07l-.11,0H217a.23.23,0,0,0-.24.21,1.76,1.76,0,0,0,0,.45c0,.15,0,.3,0,.46,0,1.58,0,3.15-.12,4.7a32.27,32.27,0,0,0,.17,4.7l.31,0c.15,0,.06.07.21-.16a8.06,8.06,0,0,0,.43-.72c.14-.25.27-.49.37-.71s.21-.32.28-.32.2.1.42.3.44.43.68.69.44.5.64.74a2.53,2.53,0,0,1,.33.48s.41.48.32.53a2,2,0,0,1-.45,0H199.47c-.08,0-.19-.66-.19-.73a.13.13,0,0,1,.13-.14l.2,0,.58,0,.9.06a4.27,4.27,0,0,0,.83,0q.36-.06.36-.24c0-1.37,0-2.52.05-3.88s0-2.72,0-4.08q0-.21-.24-.21a1,1,0,0,0-.61.23,7,7,0,0,0-.63.51,7.18,7.18,0,0,1-.67.54,1.51,1.51,0,0,1-.72.3Zm3.82,8.59.09.07a1.58,1.58,0,0,1,.13.56c0,.2,0,.4,0,.6a11.1,11.1,0,0,1-.09,1.37,4.6,4.6,0,0,1-.38,1.32,2.6,2.6,0,0,1-.79,1,2.23,2.23,0,0,1-1.35.38,1.67,1.67,0,0,1-1.11-.3,1.4,1.4,0,0,1-.35-1.1c0-.18.16-.44.5-.77s.71-.67,1.14-1l1.24-1.1a3.86,3.86,0,0,0,.82-.9ZM206,47.57a1.34,1.34,0,0,0-.43,0h-.48l-.16.07s0,0,0,0a.31.31,0,0,0-.07.14v4.4c0,.16.07.24.23.24h.77c.09,0,.15,0,.17-.06a.4.4,0,0,0,0-.18v-4.4Zm1.25,11.51a1.6,1.6,0,0,1-.31,0l-.39-.11a1.13,1.13,0,0,1-.32-.19.34.34,0,0,1-.14-.26c0-.69,0-1.4-.09-2.1s-.1-1.41-.1-2.11q0-.21.24-.21a1.57,1.57,0,0,1,1,.37,3.25,3.25,0,0,1,.79.93,5.07,5.07,0,0,1,.51,1.22,3.69,3.69,0,0,1,.12,1.21,1.66,1.66,0,0,1-.34.93A1.15,1.15,0,0,1,207.26,59.08Zm2.73-17a.21.21,0,0,0-.24-.23h-.93a.21.21,0,0,0-.23.23l0,4.5a.25.25,0,0,0,.15.23,1.2,1.2,0,0,0,.36.08,2.81,2.81,0,0,0,.41,0c.13,0,.4-.17.47-.17h0Zm-1.4,10.08a.21.21,0,0,0,.23.24h.93a.21.21,0,0,0,.24-.24V47.76a.21.21,0,0,0-.24-.23h-.93a.21.21,0,0,0-.23.23Zm3.93,6.94a2.58,2.58,0,0,1-.53,0,1,1,0,0,1-.47-.28,4.62,4.62,0,0,1-.25-.68c-.14-.43-.29-.9-.45-1.42s-.29-1-.41-1.46a4.81,4.81,0,0,1-.19-.79c0-.19.09-.28.26-.28a2.44,2.44,0,0,1,1.14.33,4.57,4.57,0,0,1,1.1.82,4.82,4.82,0,0,1,.83,1.1,2.29,2.29,0,0,1,.32,1.13,1.93,1.93,0,0,1-.31,1.11A1.16,1.16,0,0,1,212.52,59.08Zm.07-12.45a.21.21,0,0,0,.24.23h.93a.21.21,0,0,0,.23-.23l0-4.57a.2.2,0,0,0-.23-.23h-.93a.2.2,0,0,0-.23.23Zm0,5.51c0,.16.07.24.23.24h.93c.16,0,.23-.08.23-.24V47.76a.2.2,0,0,0-.23-.23h-.93a.2.2,0,0,0-.23.23Zm5.93,7.08a1.28,1.28,0,0,1-.36,0,.7.7,0,0,1-.31-.19,2.91,2.91,0,0,1-.28-.41c-.09-.16-.19-.34-.28-.52l-.27-.55a5.36,5.36,0,0,0-.24-.48,7.18,7.18,0,0,0-.45-.64l-.72-1-.66-1a2.4,2.4,0,0,1-.29-.5c0-.08,0-.12.1-.13H215a5.31,5.31,0,0,1,1.69.29,6.42,6.42,0,0,1,1.66.82,5,5,0,0,1,1.27,1.27,2.88,2.88,0,0,1,.5,1.64,1.35,1.35,0,0,1-.38,1.11A1.94,1.94,0,0,1,218.55,59.22Zm0-14.22,2,2.29,0,.12-.07.09h-3.14c-.17,0-.31-.49-.27-.7a2.31,2.31,0,0,1,.28-.71,4.76,4.76,0,0,1,.51-.73,1.35,1.35,0,0,1,.5-.41Z"/><path class="cls-1" d="M238.64,43.44q0-.21.21-.21h.33a3.14,3.14,0,0,1,.94.16,3.49,3.49,0,0,1,1,.47,2.94,2.94,0,0,1,.74.71,1.47,1.47,0,0,1,.3.89,1.23,1.23,0,0,1-.41,1,1.47,1.47,0,0,1-1,.37,1.14,1.14,0,0,1-.87-.38,3.48,3.48,0,0,1-.56-.92,8.46,8.46,0,0,1-.36-1.11A7.67,7.67,0,0,0,238.64,43.44Zm5.75-.65a.1.1,0,0,1,.1.07.52.52,0,0,1,0,.11,2.41,2.41,0,0,1-.06.49c0,.19-.08.38-.13.57s-.09.38-.15.57-.1.35-.15.49c-.19.61-.37,1.22-.56,1.85s-.36,1.26-.52,1.9-.3,1.27-.4,1.91a12.36,12.36,0,0,0-.15,1.93,3.75,3.75,0,0,0,.15,1q.15.51.33,1c.11.34.22.68.32,1a3.75,3.75,0,0,1,.15,1,2.19,2.19,0,0,1-.51,1.56,2,2,0,0,1-1.53.54,1.59,1.59,0,0,1-1-.22,1.36,1.36,0,0,1-.25-1,10.56,10.56,0,0,1,.11-1.49,10.76,10.76,0,0,0,.1-1.49,4,4,0,0,0-.25-1.38c-.08-.17-.16-.32-.24-.46a3.19,3.19,0,0,0-.28-.44.14.14,0,0,0,0-.07.09.09,0,0,1,0-.07.32.32,0,0,1,.16-.26l.26-.19a4.38,4.38,0,0,0,1.42-1.68,15.81,15.81,0,0,0,.89-2.22c.25-.78.48-1.56.71-2.35a9.26,9.26,0,0,1,.89-2.13,3.77,3.77,0,0,1,.26-.39A.91.91,0,0,1,244.39,42.79ZM243,41.69a1.34,1.34,0,0,1-.88-.39,4.68,4.68,0,0,1-.8-.95,5.9,5.9,0,0,1-.61-1.13,4.46,4.46,0,0,1-.31-.95.27.27,0,0,1,0-.25c0-.05.1-.08.23-.08a6.42,6.42,0,0,1,1.15.13,5,5,0,0,1,1.21.42,3,3,0,0,1,.95.73,1.59,1.59,0,0,1,.39,1.07,1.44,1.44,0,0,1-.36,1A1.2,1.2,0,0,1,243,41.69Zm16-1.37a4.16,4.16,0,0,1-.69-.12,2.61,2.61,0,0,0-.69-.09c-.15,0-.46,0-.92,0l-1.44.13c-.5.06-1,.12-1.38.19s-.66.14-.72.22a2.71,2.71,0,0,0-.41.73c-.13.32-.25.66-.36,1s-.21.7-.31,1a6.22,6.22,0,0,1-.28.86,7,7,0,0,1-1.15,1.93,11,11,0,0,1-1.71,1.7,14.72,14.72,0,0,1-4.05,2.31l-.24.07c-.13,0-.2,0-.2-.07s.13-.2.38-.47.57-.6.95-1,.78-.91,1.23-1.48a13.51,13.51,0,0,0,1.23-1.85,12.78,12.78,0,0,0,1-2.13,7.35,7.35,0,0,0,.38-2.34c0-.19-.15-.28-.45-.29a8,8,0,0,0-1,0c-.4,0-.78.06-1.15.07a1.08,1.08,0,0,1-.77-.2,1.86,1.86,0,0,1,.42-.14l.78-.2.81-.19.53-.1,2.58-.62a26.32,26.32,0,0,0,2.54-.76c.45-.15.88-.32,1.31-.51l1.29-.56a3.38,3.38,0,0,1,.52.41l.78.76.78.81c.24.27.42.45.53.56l.07.16ZM247.6,50.65a.27.27,0,0,1,.19.2,1,1,0,0,1,.05.29v2.63a1.54,1.54,0,0,1-.54,1.2,2.69,2.69,0,0,1-1.17.63,1.88,1.88,0,0,1-1.18-.07.87.87,0,0,1-.53-.9,1.42,1.42,0,0,1,.4-.93c.28-.31.59-.62.93-.94s.7-.64,1-1a3,3,0,0,0,.72-1Zm-2.47-6.83h3.29l-.26.57-.07.09h-3l-.1-.09Zm2.45,12.7c0-.08.15-.12.36-.13s.44,0,.68,0a2.49,2.49,0,0,0,.65-.14.4.4,0,0,0,.29-.4V48.05c0-.17.07-.26.21-.26l.52.05.85.09.86.1.49.09.12,0a.1.1,0,0,1,.07.1c0,.09-.07.17-.2.23a.3.3,0,0,0-.2.28V57a1.46,1.46,0,0,1-.21.77,2.16,2.16,0,0,1-.53.6,3.35,3.35,0,0,1-.7.45,2.94,2.94,0,0,1-.76.25l-.48.13a1.69,1.69,0,0,1-.48.08.2.2,0,0,1-.18-.09,1,1,0,0,1-.08-.23c0-.1,0-.19,0-.28a.7.7,0,0,0,0-.21,2.9,2.9,0,0,0-.38-1,4.62,4.62,0,0,0-.69-.82l-.08-.08Zm7.4-.4a1.52,1.52,0,0,1-.51-.09.7.7,0,0,1-.39-.35s0-.08,0-.2,0-.25-.07-.4-.05-.31-.07-.45a1.38,1.38,0,0,0-.06-.28c-.11-.49-.23-1-.38-1.49a5.16,5.16,0,0,1-.22-1.51c0-.14.08-.21.23-.21a1.57,1.57,0,0,1,1,.37,4,4,0,0,1,.83.91,5.9,5.9,0,0,1,.61,1.13,3,3,0,0,1,.23,1,2.68,2.68,0,0,1-.2,1.09C255.77,56,255.47,56.12,255,56.12Zm-2.17-11.68a.72.72,0,0,1-.26-.07c-.09,0-.05-.5-.11-.55l.45,0h2.86c.16,0,.32-.11.48-.34a7.79,7.79,0,0,0,.5-.67,5.32,5.32,0,0,0,.41-.55c.13-.23.24-.34.34-.34a1.48,1.48,0,0,1,.41.3c.24.21.49.43.76.69l.77.73c.24.24.28.51.36.58l.05.14-.07.1Zm7,3.3a.72.72,0,0,1,.22.1q.1.06.06.21l-.58.55a3,3,0,0,0-.49.63,2,2,0,0,0-.17.32c-.08.16-.16.33-.26.5s-.18.32-.26.45-.15.2-.18.2a1.3,1.3,0,0,1-.69-.31,7.8,7.8,0,0,1-.9-.81,13.3,13.3,0,0,1-1-1.09c-.31-.41-.6-.8-.86-1.19a8.82,8.82,0,0,1-.61-1.07,1.92,1.92,0,0,1-.24-.77c0-.12,0-.2.06-.22a.43.43,0,0,1,.25,0,7.65,7.65,0,0,1,.89.4l.87.42,1.89.86c.62.28,1.26.53,1.91.77Zm-1,8.38a.89.89,0,0,1-.86-.49,3.61,3.61,0,0,1-.42-1.3,4.7,4.7,0,0,0-.37-1.33,4.31,4.31,0,0,0-.29-.52l-.4-.65c-.13-.23-.25-.44-.35-.64a1.19,1.19,0,0,1-.15-.51s0-.08.09-.09h.14a2,2,0,0,1,.54.18l.54.24a7.5,7.5,0,0,1,1,.62,5.07,5.07,0,0,1,.91.81,4.25,4.25,0,0,1,.64,1,3,3,0,0,1,.25,1.2,1.69,1.69,0,0,1-.33,1A1.12,1.12,0,0,1,258.8,56.12Z"/><path class="cls-1" d="M277.84,59a31.65,31.65,0,0,0,2.49-7.63,43.41,43.41,0,0,0,.72-8,.6.6,0,0,0-.14-.38.33.33,0,0,1,.06-.26.29.29,0,0,0,.08-.22V38a.19.19,0,0,1,.21-.21l.63,0,1,.08,1,.09a1.9,1.9,0,0,1,.51.09c.12.1.17.17.15.24a.57.57,0,0,1-.17.19l-.25.21A.3.3,0,0,0,284,39c0,.46,0,.93,0,1.38s0,.92,0,1.39c0,1.6-.07,3.19-.21,4.78a24.31,24.31,0,0,1-.85,4.62,18.3,18.3,0,0,1-1.83,4.24A14.24,14.24,0,0,1,278,59l-.14.05Zm1.93-15.12c-.2,0-1.14,0-1.34,0a4.34,4.34,0,0,1-.55-.07c-.16,0-.34-1-.34-1.13s.09-.12.27-.13a4,4,0,0,1,.59,0c.22,0,1.85.06,2,.11s-.32,1-.3,1.07A.78.78,0,0,1,279.77,43.87Zm4.79-.22c0-.13-.77-1.43.53-1.12a1.26,1.26,0,0,0,.53,0,1,1,0,0,0,.32-.25c.14-.16.29-.31.43-.48s.29-.31.43-.44a.6.6,0,0,1,.33-.2,1.92,1.92,0,0,1,.38.28l.75.63.77.68.45.41a.28.28,0,0,1,.09.17s0,.07-.09.11a1.39,1.39,0,0,1-.22.15l-.24.16-.17.09v0c0,.22-.05.44-.06.65s0,.44,0,.66c0,.43,0,.86-.07,1.29s0,.86,0,1.29c0,.65-.06,1.3-.08,1.94l-.09,2c0,.71-.11,1.49-.19,2.34a9.54,9.54,0,0,1-.55,2.37,4.62,4.62,0,0,1-1.24,1.85,3.19,3.19,0,0,1-2.25.75c-.21,0-.31-.09-.32-.26s0-.33-.05-.49a4.82,4.82,0,0,0-.3-1,2.82,2.82,0,0,0-.57-.89.79.79,0,0,0-.13-.14.21.21,0,0,1-.08-.16s0-.05.06-.07l.11,0a3.46,3.46,0,0,1,.76-.12,1.43,1.43,0,0,0,.73-.23,2,2,0,0,0,.72-1.07,8.52,8.52,0,0,0,.37-1.6,14.2,14.2,0,0,0,.13-1.7c0-.56,0-1,0-1.37,0-1,0-2,.09-3.07s0-1.5,0-2.52c0-.33-.05-.21-.13-.28a.4.4,0,0,0-.32-.07c-.12,0-.55,0-.55,0S284.69,43.79,284.56,43.65Zm5.81,14.85v-18c0-.15,0-.24.08-.27a.37.37,0,0,1,.26.06c.67.31,1.29.56,1.86.76a6.13,6.13,0,0,0,2,.29h.35l.35,0,.16-.06c.05,0,.15-.15.29-.31l.47-.47a6.42,6.42,0,0,1,.47-.45c.14-.13.24-.19.29-.19a1.63,1.63,0,0,1,.42.27l.76.63.81.68.5.42,0,.11a.29.29,0,0,1-.11.19l-.21.14-.21.14a.21.21,0,0,0-.09.16v14.5l0,.07a.17.17,0,0,0,0,.05v0a1,1,0,0,1-.46.55,2.87,2.87,0,0,1-.74.3,4.6,4.6,0,0,1-.84.14,7.06,7.06,0,0,1-.73,0c-.08,0-.13,0-.15,0a.76.76,0,0,1-.08-.16,2.16,2.16,0,0,1-.07-.51c0-.22,0-.45,0-.69s0-.47,0-.7V42.93a.21.21,0,0,0-.23-.23h-1.87a.21.21,0,0,0-.23.23V55.8q0,.53,0,1.08c0,.36-.07.73-.13,1.08a.63.63,0,0,1-.36.47,2.54,2.54,0,0,1-.72.23,5.69,5.69,0,0,1-.82.08h-.64l-.16-.07,0,0Zm6.48-2.7h-.61c-.12,0-4.34,0-4.44,0s-.15-.82-.15-.88.09,0,.22,0c1.44,0,6.86,0,4.53,0h.42a1,1,0,0,1,.24,0l-.05.83Z"/><path class="cls-1" d="M391.1,71.56H109.5V24.66H391.1ZM111.18,69.88H389.42V26.35H111.18Z"/><polyline class="cls-1" points="141.6 2.09 141.83 24.7 110.34 24.7 141.6 2.09"/><rect class="cls-1" x="66.75" y="8.52" width="66.2" height="1.68"/><rect class="cls-1" x="66.75" y="35.97" width="43.6" height="1.68"/><path class="cls-1" d="M111.18,44.11H60.4L73.82,22.29,60.33,2.06H142L111.18,24.32ZM63.41,42.43H109.5v-19L136.81,3.74H63.47L75.82,22.26Z"/><polyline class="cls-1" points="359.24 2.09 359.01 24.7 390.49 24.7 359.24 2.09"/><rect class="cls-1" x="367.89" y="8.52" width="66.2" height="1.68"/><rect class="cls-1" x="390.49" y="35.97" width="43.6" height="1.68"/><path class="cls-1" d="M440.44,44.11H389.65V24.32L358.83,2.06h81.68L427,22.29Zm-49.11-1.68h46.1L425,22.26,437.36,3.74H364l27.3,19.72Z"/></g></g></svg>