<svg xmlns="http://www.w3.org/2000/svg" viewBox="0 0 146.56 79.77"><defs><style>.cls-1{fill:#680303;}</style></defs><g id="圖層_2" data-name="圖層 2"><g id="圖層_1-2" data-name="圖層 1"><path class="cls-1" d="M1.82,79.14c1.29-3.67,4.86-5.91,8.27-7.39a29,29,0,0,1,13-2.33c1.85.1,4.12.18,5.78,1.12a2.11,2.11,0,0,1,1.25,2.09,1.76,1.76,0,0,1-1.92,1.53c-4.71-.48,1.78-8.68,3.28-9.9,2-1.61,4.59-1.78,7-2.12L46.6,61c1.16-.16.66-1.92-.49-1.76-3.2.46-6.4.9-9.59,1.37-2.78.4-5.21,1.1-7.22,3.17-2.33,2.41-7.83,10-2.26,12a3.57,3.57,0,0,0,4.67-2.2c.7-2.09-.53-3.94-2.41-4.81-2.26-1-5.11-1.17-7.56-1.19a31.31,31.31,0,0,0-8.66,1.19c-5.23,1.5-11.1,4.44-13,9.9-.39,1.12,1.37,1.59,1.76.49Z"/><path class="cls-1" d="M45.78,66.53a15.27,15.27,0,0,1,1.85-4.12,7.11,7.11,0,0,0,1.21-1.85,1.45,1.45,0,0,0-1.23-1.7c-1.72-.43-3.51-.68-5.25-1l-5.4-1c-1.15-.22-1.64,1.54-.49,1.76l5.62,1.08,2.76.54,1.32.25c.24,0,.95.08,1.1.26l-.23-.4c0-.15.07-.17-.07-.07a1.84,1.84,0,0,0-.31.41c-.17.23-.34.46-.5.7a16.86,16.86,0,0,0-.87,1.48A17.72,17.72,0,0,0,44,66.05a.91.91,0,0,0,1.76.48Z"/><path class="cls-1" d="M38.11,18a1.31,1.31,0,0,1-.24-.12,1,1,0,0,1-.46-.74,1.42,1.42,0,0,1,.15-.65,1.07,1.07,0,0,1,1.23-.44,31.55,31.55,0,0,0,4.35.61l10-16.2A.93.93,0,0,1,53.79,0a1,1,0,0,1,.77.12l1.53,1a1,1,0,0,1,.46.63,1,1,0,0,1-.13.77l-8.7,14.09a19.52,19.52,0,0,0,7.71-2.5,18,18,0,0,0,5.81-5.47,1.12,1.12,0,0,1,.64-.43,1,1,0,0,1,.75.13l1.53.94a1.22,1.22,0,0,1,.52.59.64.64,0,0,1-.07.64A18.4,18.4,0,0,1,57,17.06a24.21,24.21,0,0,1-10.78,2l-.59.94L54,25.24l.9-1.45a1,1,0,0,1,.63-.46,1,1,0,0,1,.77.13l1.53.94a1,1,0,0,1,.45.63.94.94,0,0,1-.12.77l-1.31,2.12a1,1,0,0,1-1.4.33L42.24,20.08a1,1,0,0,1-.46-.62.89.89,0,0,1,.1-.73C40.64,18.55,39.39,18.32,38.11,18Zm2.63-3.17a.91.91,0,0,1-.62.38.94.94,0,0,1-.74-.17l-1.49-1a1.07,1.07,0,0,1-.24-1.49L45.84,2.17a1,1,0,0,1,.66-.39.92.92,0,0,1,.7.17l1.51,1a1,1,0,0,1,.44.7,1,1,0,0,1-.22.78Zm16.53-3.69a1,1,0,0,1-1.4.34l-1.54-.95a1,1,0,0,1-.45-.63A1,1,0,0,1,54,9.15l4.55-7.34a1,1,0,0,1,.63-.46,1,1,0,0,1,.77.12l1.53,1a1,1,0,0,1,.33,1.41ZM62.21,23a1,1,0,0,1-.61.56,1.07,1.07,0,0,1-.85-.09l-1.57-.87a.82.82,0,0,1-.45-.56,1.11,1.11,0,0,1,.05-.74L61.71,15a1.11,1.11,0,0,1,.63-.56,1,1,0,0,1,.82.09l1.58.87a1,1,0,0,1,.5.55.88.88,0,0,1-.06.74Z"/><path class="cls-1" d="M66.49,31.12a1,1,0,0,1-1.16.1l-.12-.08a.42.42,0,0,1-.12-.1l-1.17-1.12c-.38-.35-.46-.69-.25-1a1.8,1.8,0,0,1,.33-.36l14.11-9.94-5.23-3.23a.9.9,0,1,1,1-1.53l5.87,3.63,2.54-1.78a1,1,0,0,1,1.16-.1l.12.08a.36.36,0,0,1,.11.1l1.18,1.12c.38.35.46.69.25,1a2.15,2.15,0,0,1-.33.37L83,19.49l11.1,6.86a.85.85,0,0,1,.37,1.29c-.32.51-.75.59-1.32.24L81.41,20.63,78.9,22.4a.71.71,0,0,1,.1.69l10.9,6.74a.88.88,0,0,1,.32,1.36l-8,13a.82.82,0,0,1-1.36.26L76.17,41c-.48-.36-.6-.74-.36-1.13a1,1,0,0,1,.71-.52,1,1,0,0,1,.8.25l2.19,1.6,1.84-3L72.93,33l-2.52,4.09a.88.88,0,0,1-1.37.32l-1.58-1a.87.87,0,0,1-.32-1.36L72,27.25Zm7.39.37L82.3,36.7,84,33.94l-8.42-5.2Zm12.65-1.63L78.1,24.65l-1.57,2.56L85,32.41Z"/><path class="cls-1" d="M91.69,45.29a1.08,1.08,0,0,1-1.06,0l-.15-.1a2.11,2.11,0,0,1-.15-.15l-1-1a.85.85,0,0,1-.17-1,1.06,1.06,0,0,1,.43-.36l10.54-5.34-4.57-2.83c-.56-.35-.69-.77-.37-1.28a.83.83,0,0,1,1.31-.25l7.58,4.69c.48.29.61.62.39,1a1.23,1.23,0,0,1-.46.39l-4.6,2.38a1.2,1.2,0,0,1,.19.43l1,3.38,1-1.68a.88.88,0,0,1,1.37-.33l1.58,1a.92.92,0,0,1,.5.74l8.7,5.37a.88.88,0,0,1,.32,1.37l-5.52,8.93a.87.87,0,0,1-1.36.32l-1.58-1a.84.84,0,0,1-.49-.86l-6.31-3.9a.88.88,0,0,1-1-.07l-1.59-1A.89.89,0,0,1,96,52.71l3.84-6.2-.71,0a1.11,1.11,0,0,1-.63-.18,1.16,1.16,0,0,1-.47-.67l-.34-1.16-4.32,7a.87.87,0,0,1-1.36.32l-1.58-1a.87.87,0,0,1-.33-1.36l3-4.85Zm9.83,9.22,1.73-2.81-1.53-1-1.78,2.88,1.53.95Zm2.31-19.84a1.09,1.09,0,0,1-.13.27.79.79,0,0,1-1.16.27L101,34.48a1,1,0,0,1-.52-1.32L102,28.55a1.35,1.35,0,0,1,.15-.29c.25-.41.63-.49,1.14-.25l1.59.74a.94.94,0,0,1,.53,1.31Zm2,12.84,0-.07-1.54-.95-1.68,2.73,1.53,1Zm9.55,1.32a.88.88,0,0,1-1.36.33l-1.58-1a.86.86,0,0,1-.5-.91L106.67,44a.9.9,0,0,1-1-.11l-1.59-1a.89.89,0,0,1-.32-1.37l3.54-5.71a.84.84,0,0,1,1.33-.34l1.59,1a.9.9,0,0,1,.5.77L118.45,42a.88.88,0,0,1,.32,1.36Zm-10.61,7.69,0,.08,1.33.82,1.78-2.88-1.32-.82Zm4.32-7-1.64,2.66,1.33.82,1.69-2.73-1.33-.82Zm11.83-9.72c.57.35.69.78.37,1.29s-.75.59-1.31.24l-12-7.4a.9.9,0,1,1,1-1.53ZM115.07,42,110,38.89l-2.25,3.65,5.1,3.15Z"/><path class="cls-1" d="M119.7,67.83a.88.88,0,0,1-1.36.32l-1.59-1a.87.87,0,0,1-.32-1.36l2-3.24-1.61-1c-.56-.34-.69-.77-.37-1.28a.84.84,0,0,1,1.31-.25l1.61,1,1.49-2.4a1,1,0,0,1,.54-.48l-2.84-1.75a.84.84,0,0,1-.36-1.29c.31-.51.75-.59,1.31-.24l.92.57a1.11,1.11,0,0,1,.15-.76L122,52a2,2,0,0,1,.23-.32l-.92-.56c-.56-.35-.69-.78-.37-1.29s.75-.59,1.31-.24l3.17,2,0-.08L127.6,48l-2.4-1.48c-.56-.35-.68-.77-.37-1.28a.84.84,0,0,1,1.32-.25l2.4,1.48.93-1.5a.87.87,0,0,1,1.36-.32l1.58,1a.88.88,0,0,1,.33,1.37l-.94,1.5,2.12,1.31c.56.35.69.78.37,1.29s-.75.59-1.31.24L130.87,50l-2.15,3.47,0,.08,2.88,1.78a.9.9,0,1,1-.95,1.53l-.35-.22a1.29,1.29,0,0,1-.23.43l-2.32,2.83.38.24c.56.35.69.78.37,1.29a.84.84,0,0,1-1.31.24L124.31,60a1,1,0,0,1-.18.7l-1.48,2.39,1.61,1a.9.9,0,1,1-1,1.53l-1.61-1ZM124,56.56a.9.9,0,0,1-.83.54l1.38.86a.38.38,0,0,1,.12-.21L127,54.88a.53.53,0,0,0,.12-.14l-1.69-1a.64.64,0,0,1-.08.2Zm3.22,15.32a.87.87,0,0,1-1.36.32l-1.58-1a.88.88,0,0,1-.32-1.37L136,50.24a.87.87,0,0,1,1.36-.32l1.58,1a1.25,1.25,0,0,1,.3.25L146,55.33a.88.88,0,0,1,.33,1.37l-4.14,6.68a.79.79,0,0,1-1.36.22l-3.52-2.88c-.46-.36-.57-.72-.34-1.1a1,1,0,0,1,.21-.22v0a1,1,0,0,1,1.39,0l1.06.86,3-4.84L138.85,53l-5.21,8.42,5.92,3.66c.49.31.62.65.38,1a1.58,1.58,0,0,1-.31.33l-5.3,4,.13,4.52a.91.91,0,0,1-.12.59c-.18.29-.5.39-1,.28l-1.25-.31a1.31,1.31,0,0,1-.43-.16,1.06,1.06,0,0,1-.46-.92l-.05-1.62-.87.66a1,1,0,0,1-1.41-.06l-1.22-1.11a.94.94,0,0,1-.37-.65Zm3.77-6.1-3.14,5.08L131,68.45Zm3.24.13v.15l1.59-1.2L132.69,63l-.94,1.53.29,0,1.25.32a1.1,1.1,0,0,1,.43.16A1,1,0,0,1,134.18,65.91Z"/></g></g></svg>