<svg xmlns="http://www.w3.org/2000/svg" viewBox="0 0 145.91 88.65"><defs><style>.cls-1{fill:#680303;}</style></defs><g id="圖層_2" data-name="圖層 2"><g id="圖層_1-2" data-name="圖層 1"><path class="cls-1" d="M121.91,87.78c.71-5.57-3.15-10.77-7-14.38-3.64-3.42-8.58-6.55-13.59-7.38-2.06-.35-4.44.16-5.19,2.37a3.61,3.61,0,0,0,2.47,4.7,3.81,3.81,0,0,0,4.6-2.88c.63-2.18.17-4.77-.23-7A11.07,11.07,0,0,0,98.39,56c-2.93-2.17-6-4.19-9-6.27-1-.68-1.88.9-.92,1.57l6,4.17c1.82,1.27,4,2.46,5.29,4.34A13.46,13.46,0,0,1,101.51,66c.15,1.47.47,3.57-.6,4.79-1.63,1.85-4.42-.8-2.58-2.49,1.42-1.3,4.07-.16,5.59.4a28.73,28.73,0,0,1,10,6.29c3.4,3.28,6.81,7.83,6.17,12.82-.15,1.16,1.68,1.15,1.83,0Z"/><path class="cls-1" d="M88.36,56.9a17.24,17.24,0,0,0,.34-3.58c0-.56,0-1.12-.11-1.67a7.64,7.64,0,0,1-.23-1.7l-.12.46c-.37.1-.42.16-.17.19l.32.09.63.18,1.38.39L93,52l5.39,1.54a.91.91,0,0,0,.48-1.76l-10-2.87a1.86,1.86,0,0,0-2,.24c-.59.65-.23,1.55-.12,2.3a15.23,15.23,0,0,1-.14,5c-.23,1.15,1.53,1.64,1.76.48Z"/><path class="cls-1" d="M7.72,37.81a.87.87,0,0,1-.87,1.09L5,39.1a.87.87,0,0,1-1.09-.88L2.78,27.9H2.72a1.19,1.19,0,0,1-.27,0L.83,27.75c-.51,0-.78-.26-.82-.66a1.41,1.41,0,0,1,0-.49L3.78,13.85a1.06,1.06,0,0,1,.88-.79h.28l1.61.16c.51,0,.79.26.83.66a1.76,1.76,0,0,1,0,.49l-1.69,5.8a1.27,1.27,0,0,1,.22.61Zm5.52-.64a1,1,0,0,1-.79.54,1.45,1.45,0,0,1-.49,0l-1.09-.3c-.41-.11-.63-.32-.67-.62a1,1,0,0,1,.2-.65l4.2-6.32-4.26.47c-.66.07-1-.19-1.08-.79s.23-.93.89-1l5.69-.62-.23-2.12v-.09L13,25.91a.88.88,0,0,1-.86.67l-1.85.2a.88.88,0,0,1-1.09-.88l-1.3-12a.87.87,0,0,1,.87-1.09l1.85-.2a.9.9,0,0,1,.92.35L23,11.76a.87.87,0,0,1,1.09.87l1.26,11.51a.88.88,0,0,1-.88,1.1l-1.85.2a.88.88,0,0,1-1-.47l-2.2.24v.09l.23,2.12L25,26.84c.65-.07,1,.19,1.08.79s-.23.93-.89,1L21.43,29l4.9,5.29a1.06,1.06,0,0,1,.3.57c0,.34-.15.61-.57.82l-1.15.54-.22.07-.19,0a1.09,1.09,0,0,1-.95-.38l-3.36-3.65.57,5.19a.87.87,0,0,1-.88,1.09l-1.85.2A.87.87,0,0,1,16.94,38l-.59-5.43Zm7.11-23.32-8.47.93,1,9.33,8.47-.92Z"/><path class="cls-1" d="M38.36,14.34c.66-.08,1,.19,1.08.78s-.23.93-.88,1l-8.47.92c-.66.07-1-.19-1.09-.79s.23-.93.89-1Zm-.06,4.44c.66-.07,1,.19,1.08.79s-.23.93-.88,1L31,21.39c-.66.07-1-.19-1.08-.79s.23-.93.88-1Zm.4,4.48c.66-.07,1,.19,1.08.79s-.23.93-.88,1l-7.31.8c-.66.07-1-.19-1.08-.79s.23-.93.88-1Zm2.1,10.4a.88.88,0,0,1-.88,1.09l-1.85.2a.9.9,0,0,1-.91-.35l-1.73.18a.88.88,0,0,1-.89.95l-1.85.2a.87.87,0,0,1-1.09-.88l-.7-6.38a.87.87,0,0,1,.88-1.09l1.85-.2a.88.88,0,0,1,.87.29l4.6-.5a.88.88,0,0,1,1.09.88ZM36.34,11.54a.86.86,0,0,1,.58.66,1,1,0,0,1-.31.73l-.3.3a1.11,1.11,0,0,1-.71.38,1,1,0,0,1-.65-.14l-3.43-1.53a.84.84,0,0,1-.58-.66,1,1,0,0,1,.31-.73l.3-.3a1.07,1.07,0,0,1,.71-.38,1.09,1.09,0,0,1,.65.14Zm.12,17.73-1.61.18L35.24,33l1.6-.18Zm18.12-3.76a.87.87,0,0,1-.88,1.09l-1.85.21a1,1,0,0,1-.77-.19l-4.69.51a1,1,0,0,1-.71.35l-1.85.2a.87.87,0,0,1-1.09-.87l-.42-3.88a.37.37,0,0,1-.13,0l-1.5-.2c-.47-.07-.72-.29-.77-.67a1.15,1.15,0,0,1,.07-.52l1.59-4.21-.07-.09-1.7-2.62a1.08,1.08,0,0,1-.18-.49c0-.38.16-.65.61-.82l1.42-.52a1.71,1.71,0,0,1,.32-.1,1,1,0,0,1,1,.53l.08.14.77-2-2.14.23c-.66.07-1-.19-1.09-.79s.23-.93.89-1L47,9.14c.55-.07.86.12.9.56a1.15,1.15,0,0,1-.06.52l-.16.44,1-.38.18-.06.17,0a.86.86,0,0,1,.59.15l.44-.92a1.12,1.12,0,0,1,.84-.67h.18l.21,0L52.69,9c.47.11.73.35.77.7a1.37,1.37,0,0,1-.12.56l-1,2A1,1,0,0,1,53,12h.18l.18,0,1.38.22c.47.07.73.28.77.64a1.14,1.14,0,0,1-.12.58l-1.29,2.8a1.18,1.18,0,0,0-.08.16l2,2.83a1.45,1.45,0,0,1,.21.52c0,.38-.16.65-.61.82l-1.39.54a.3.3,0,0,1-.14.05ZM48.31,30.6a1.74,1.74,0,0,1,.1.33c.05.49-.2.8-.75.92l-1.2.28,3.66-.4v0a1.87,1.87,0,0,1,0-.39L50.87,28A.94.94,0,0,1,52,27.16l1.73.08c.53,0,.81.28.86.72,0,.06,0,.12,0,.18a.56.56,0,0,1,0,.21l-.65,3,2.15-.23c.66-.08,1,.19,1.08.78s-.23.94-.89,1L42.66,34.36c-.66.07-1-.19-1.09-.79s.23-.93.89-1l2.89-.32a1,1,0,0,1-.64-.65l-.81-2.15a1.05,1.05,0,0,1-.09-.32c-.06-.49.19-.8.74-.92l1.71-.4a.92.92,0,0,1,1.24.65ZM44.85,19.85a.86.86,0,0,1,.84.27l6.38-.7L51,17.94a1.43,1.43,0,0,1-.55.18l-5.13.56a1.28,1.28,0,0,1-.58-.06l-.49,1.29Zm.55-3,4.5-.49-2.82-4Zm4.87,4.57-4.21.46.38,3.43,4.2-.46Z"/><path class="cls-1" d="M62.56,15.41a.92.92,0,0,1-.38.51,1,1,0,0,1-.63.17L60.05,16a1,1,0,0,1-1-.92,1,1,0,0,1,0-.45l2.16-7.33a1,1,0,0,1,.39-.53,1,1,0,0,1,.62-.15l1.49.14a1,1,0,0,1,1,.92,1.45,1.45,0,0,1,0,.45L64.45,9,82.68,7a1.12,1.12,0,0,1,.74.17.83.83,0,0,1,.37.61.82.82,0,0,1-.23.68,1.07,1.07,0,0,1-.69.33l-.39,0,0,.12.62,5.7,1.13-.13a1,1,0,0,1,.74.18.81.81,0,0,1,.37.61.8.8,0,0,1-.23.67,1.07,1.07,0,0,1-.68.33l-1.14.13.5,4.53c0,.06,0,.1,0,.12l1-.12a1.08,1.08,0,0,1,.75.18.84.84,0,0,1,.37.61.83.83,0,0,1-.23.67,1.07,1.07,0,0,1-.69.33L61.62,25.32a1.08,1.08,0,0,1-.75-.18.84.84,0,0,1-.13-1.28,1,1,0,0,1,.68-.33l2.63-.29,0-.12-.49-4.53-2.71.3a1.08,1.08,0,0,1-.75-.18.81.81,0,0,1-.37-.61.84.84,0,0,1,.23-.67,1.07,1.07,0,0,1,.69-.33l2.71-.3-.32-3ZM65,31.83a.82.82,0,0,1-1,.74l-1.58-.1a1,1,0,0,1-.68-.27,1,1,0,0,1-.33-.65,1.08,1.08,0,0,1,0-.18,1.83,1.83,0,0,1,0-.21l1.13-4.83a1,1,0,0,1,.35-.55.91.91,0,0,1,.63-.19l1.58.1a1,1,0,0,1,.69.27,1,1,0,0,1,.31.64,1.1,1.1,0,0,1,0,.18.45.45,0,0,1,0,.22Zm1.53-21.14.62,5.7,1.55-.17-.62-5.7c0-.06,0-.1,0-.12l-1.55.17Zm1.31,12a.68.68,0,0,1,0,.12l1.56-.17,0-.12L68.91,18l-1.55.17Zm5.34,7.47a1,1,0,0,1-.12.8,1,1,0,0,1-.71.44l-1.71.31a1,1,0,0,1-.71-.13,1,1,0,0,1-.43-.62L68.57,27a.93.93,0,0,1,.12-.8,1,1,0,0,1,.71-.44l1.71-.31a1,1,0,0,1,.74.13.89.89,0,0,1,.4.62ZM71.91,10.1l.62,5.7,1.61-.17-.62-5.7a.68.68,0,0,1,0-.12L71.9,10Zm1.31,12a.68.68,0,0,1,0,.12l1.61-.17V22l-.49-4.53-1.61.17Zm6.64,7.22a1,1,0,0,1-.09.85,1.05,1.05,0,0,1-.7.5L77.33,31a1.08,1.08,0,0,1-.71-.1.89.89,0,0,1-.42-.56l-1.3-4.2a1.08,1.08,0,0,1,.08-.89,1,1,0,0,1,.71-.47l1.74-.34a.89.89,0,0,1,.7.08.84.84,0,0,1,.43.58ZM77.34,9.51l.62,5.7,1.34-.15-.62-5.69a.68.68,0,0,1,0-.12l-1.35.14Zm1.31,12c0,.06,0,.1,0,.12L80,21.51v-.12l-.49-4.54L78.15,17Zm8,7a.58.58,0,0,1,0,.14c0,.06,0,.11,0,.15a1,1,0,0,1-.18.7,1.08,1.08,0,0,1-.63.42l-1.65.39a1.27,1.27,0,0,1-.67-.06.82.82,0,0,1-.45-.51l-1.75-4.49a.3.3,0,0,1,0-.15c0-.05,0-.1,0-.14a1,1,0,0,1,.82-1.12l1.64-.39a1,1,0,0,1,.67.05.81.81,0,0,1,.45.52Z"/><path class="cls-1" d="M94.81,7a1,1,0,0,1,.34.6.79.79,0,0,1-.52.78l-1,.53a1.37,1.37,0,0,1-.47.14,1,1,0,0,1-.88-.35L88.91,5.47a.94.94,0,0,1-.34-.59c0-.3.14-.55.52-.75l1-.53a1.69,1.69,0,0,1,.47-.15,1.07,1.07,0,0,1,.88.36Zm.9,9a1,1,0,0,1,.4.62c0,.28-.14.53-.5.75l-.79.48a2,2,0,0,1-.52.21,1.16,1.16,0,0,1-.85-.3l-3.53-2.79a1,1,0,0,1-.4-.62c0-.28.14-.53.49-.75l.8-.48a1.51,1.51,0,0,1,.52-.2,1.14,1.14,0,0,1,.84.3Zm-1.77,6.17a1,1,0,0,1,.78-.57,1.76,1.76,0,0,1,.49,0l1.17.26c.43.1.67.31.7.65a1,1,0,0,1-.17.62L94,28.16a1.08,1.08,0,0,1-.79.57,1.66,1.66,0,0,1-.48,0l-1.18-.26c-.43-.12-.67-.33-.7-.65a1,1,0,0,1,.17-.62ZM100.79,17a1.05,1.05,0,0,1-.83.66,2,2,0,0,1-.4,0l-1.32-.25c-.48-.1-.73-.33-.77-.67a1,1,0,0,1,.12-.55L100,11.33l-2.63.29c-.65.07-1-.19-1.08-.79s.23-.93.89-1l3.73-.41,2-4.11-5,1.24a1,1,0,0,1-1.25-.62l-.06-.16a.35.35,0,0,1,0-.13q-.07-.69.75-.87l14.57-3.64a1,1,0,0,1,1.25.62l.06.16,0,.13q.07.69-.75.87l-5.73,1.44v.09a1.07,1.07,0,0,1-.12.55l-1.95,4,9-1q1-.1,1.08.78c.07.6-.23.93-.88,1l-1.71.18,3.45,4.21a3.16,3.16,0,0,1,.18.27.71.71,0,0,1,.09.28c0,.34-.16.61-.6.82l-1.24.53a2.17,2.17,0,0,1-.38.1,1.1,1.1,0,0,1-1-.44L108.73,11a2.2,2.2,0,0,1-.18-.28.85.85,0,0,1-.09-.27l-4.72.52Zm1,9.06a.91.91,0,0,1-1,1l-1.8.08a.86.86,0,0,1-1-1l.34-6.32a.9.9,0,0,1,1-.95l1.8-.08a.86.86,0,0,1,1,1Zm1.71,1.9c-.68,0-1-.29-.94-.92s.24-.92.44-.93l.34,0-1-9.61a.88.88,0,0,1,.88-1.09l1.85-.2a.88.88,0,0,1,1.09.88l1.17,10.76A.84.84,0,0,1,106.3,28Zm8.71-3.15A.86.86,0,0,1,111.4,26l-1.84.29a.91.91,0,0,1-1.18-.81L107,19.19a.87.87,0,0,1,.78-1.17l1.84-.29a.89.89,0,0,1,1.14.81Zm4.44-.82a.82.82,0,0,1-.75,1.17l-1.77.31a.93.93,0,0,1-1.17-.77l-1.56-6.29a.82.82,0,0,1,.74-1.17l1.78-.31a1,1,0,0,1,1.17.77Z"/><path class="cls-1" d="M125.59,25.26a.91.91,0,0,1-1,.95l-1.8.08a.85.85,0,0,1-1-1l.9-18.06-2.21.24c-.66.08-1-.19-1.08-.78s.23-.93.88-1l2.51-.28L123,1a.9.9,0,0,1,1-.95l1.8-.08a.86.86,0,0,1,1,1l-.2,4,5-.55c.67-.08,1,.23,1,.91l.6,18.19a1,1,0,0,1-.25.75,1,1,0,0,1-.76.27l-4.42-.13c-.58,0-.9-.21-.94-.65a1.12,1.12,0,0,1,0-.3v0a1,1,0,0,1,1.08-.87l1.4.06-.49-16.1-2.42.27ZM133,3.32a.87.87,0,0,1,.88-1.09l1.85-.2a.88.88,0,0,1,.91.35l6-.65a.88.88,0,0,1,1.09.88L145.9,22.5a.88.88,0,0,1-.88,1.09l-1.85.2a.88.88,0,0,1-1.09-.88l-3,.33a.87.87,0,0,1-.88,1.09l-1.85.21a.88.88,0,0,1-1.09-.88Zm7,.51-3,.32,1.88,17.3,3-.33Z"/></g></g></svg>