<svg xmlns="http://www.w3.org/2000/svg" viewBox="0 0 116.3 80.06"><defs><style>.cls-1{fill:#680303;}</style></defs><g id="圖層_2" data-name="圖層 2"><g id="圖層_1-2" data-name="圖層 1"><path class="cls-1" d="M3.43,79.4c.71-4.07,4-7,7.33-9.06A28.86,28.86,0,0,1,22.9,66.09c1.81-.21,4.07-.5,5.82.17a2,2,0,0,1,1.5,1.91,1.77,1.77,0,0,1-2.15,1.72c-3.93-.81.76-8.78,2.12-10.31,1.66-1.86,4.09-2.45,6.38-3.19l7.84-2.51c1.12-.35.64-2.12-.48-1.76l-9.43,3C32,56,29.76,57,28.15,59.22A20.49,20.49,0,0,0,25,66.05c-.49,2-.17,4.45,2,5.38a3.6,3.6,0,0,0,4.94-2.25,3.83,3.83,0,0,0-2.68-4.68c-2.29-.79-5.06-.43-7.4-.1a30.69,30.69,0,0,0-8,2.28C8.65,68.91,2.7,73,1.67,78.92c-.19,1.15,1.57,1.64,1.76.48Z"/><path class="cls-1" d="M44.69,59.35a14.47,14.47,0,0,1,1.19-4.43c.32-.72,1-1.53.77-2.36s-1-1-1.73-1c-3.55-.11-7.11-.15-10.66-.23a.92.92,0,0,0,0,1.83l5.62.12,2.75.06,1.37,0h1c.1,0,.09,0-.05-.12l-.12-.46c0,.2-.21.47-.3.65s-.26.55-.38.83a16.47,16.47,0,0,0-.63,1.65,17.27,17.27,0,0,0-.68,3.42.91.91,0,0,0,.91.91.93.93,0,0,0,.91-.91Z"/><path class="cls-1" d="M3.72,21.59a1,1,0,0,1-1.23.67L.74,21.8a1,1,0,0,1-.64-.45,1,1,0,0,1,0-.79L5.36,4.73A1,1,0,0,1,6.6,4.05l1.74.47A1,1,0,0,1,9,5a1,1,0,0,1,0,.78Zm16.65,2.73a.87.87,0,0,1,1.16-.78l1.82.36a.88.88,0,0,1,.78,1.17l-.47,2.41a.88.88,0,0,1-1.17.78L7.87,25.37a.87.87,0,0,1-.78-1.16L11.7.81A.87.87,0,0,1,12.86,0l1.83.36a.87.87,0,0,1,.78,1.16L11,24.16l9,1.78ZM19,19.77a.88.88,0,0,1-1.16.78L16,20.19A.89.89,0,0,1,15.2,19L17.68,6.48a.88.88,0,0,1,1.16-.78l1.83.36a.88.88,0,0,1,.77,1.17Zm8.24,1a.72.72,0,0,1,0,.24c-.1.51-.45.74-1.05.68l-1.79-.2a.93.93,0,0,1-.92-1.07L23.56,7.8a1.15,1.15,0,0,1,0-.24c.1-.51.45-.74,1.05-.68l1.8.2a.93.93,0,0,1,.92,1.07Z"/><path class="cls-1" d="M33.76,24.64a.9.9,0,0,1-.89.31.89.89,0,0,1-.26-.08l-1.2-.6a1.19,1.19,0,0,1-.51-.51,1.05,1.05,0,0,1-.08-.65,1.24,1.24,0,0,1,.26-.53l4.1-4.84L35.72,15a1,1,0,0,1,.43-.65,1,1,0,0,1,.77-.16L38,14.4l2.27-2.7-6.18-1.22a1,1,0,0,1-.65-.39.78.78,0,0,1-.17-.69.81.81,0,0,1,.42-.57,1,1,0,0,1,.75-.11l7.18,1.41L44.08,7.2A.92.92,0,0,1,45,6.88a1.65,1.65,0,0,1,.26.08l1.19.61a1.14,1.14,0,0,1,.51.51,1.06,1.06,0,0,1,.09.65,1.37,1.37,0,0,1-.26.53L45.4,10.88,57.64,13.3a1,1,0,0,1,.66.39.82.82,0,0,1,.17.69.79.79,0,0,1-.42.57,1,1,0,0,1-.75.11L44.05,12.45l-5.11,6.06L36.53,30.75a1,1,0,0,1-.44.65.94.94,0,0,1-.76.15l-1.77-.34a1,1,0,0,1-.8-1.2l1.08-5.48Zm9.21,8c-.63-.16-.9-.51-.8-1a.89.89,0,0,1,.44-.62,1,1,0,0,1,.77-.09l2.44.67,1-4.95-6.5-1.28a1.14,1.14,0,0,1-.66-.39.83.83,0,0,1-.17-.69.81.81,0,0,1,.42-.58,1.09,1.09,0,0,1,.76-.11l6.5,1.28.14-.7a.7.7,0,0,1,.24-.41l4.29-4.08L43.65,18a1,1,0,0,1-.65-.39.84.84,0,0,1,.25-1.26,1.08,1.08,0,0,1,.75-.12l10.74,2.12a1.34,1.34,0,0,1,.89.55,1.13,1.13,0,0,1,.2.92,1.44,1.44,0,0,1-.42.74l-4.32,4.1-.18.89,4.44.87a1.11,1.11,0,0,1,.66.39.84.84,0,0,1,.17.7.81.81,0,0,1-.42.57,1.08,1.08,0,0,1-.75.11l-4.45-.88L49.41,33.2a1,1,0,0,1-1.3.82Z"/><path class="cls-1" d="M65.93,35l0,.09,4.71.93,0-.09,3.82-19.37,0-.08-9.77-1.93c-.65-.13-.92-.49-.8-1.08s.5-.81,1.15-.69L87,17.09c.65.13.92.49.8,1.08s-.5.82-1.14.69l-8.36-1.65,0,.09L76.52,26l8.24,1.63c.65.12.91.48.8,1.07s-.5.82-1.15.69l-8.24-1.62-1.76,8.91,0,.09,8.77,1.73c.65.13.92.49.8,1.08s-.5.82-1.15.69L60.06,35.76c-.64-.13-.91-.48-.79-1.07s.49-.82,1.14-.69l1.74.34,0-.09,2.18-11.1a.88.88,0,0,1,1.17-.77l1.82.35a.88.88,0,0,1,.78,1.17Z"/><path class="cls-1" d="M92.61,41a.92.92,0,0,1-1.25.61L89.63,41c-.56-.17-.79-.49-.7-1q0-.06,0-.15a.35.35,0,0,1,.06-.14l2-4.71a.92.92,0,0,1,1.27-.57L94,35c.55.17.79.49.69,1a.49.49,0,0,1,0,.15.38.38,0,0,1,0,.14Zm1.27-13.7a1,1,0,0,1-.77.16,1.23,1.23,0,0,1-.61-.33L92,26.62a.9.9,0,0,1-.37-.81.87.87,0,0,1,.52-.57l13-6.7a1,1,0,0,1,.76-.16,1.19,1.19,0,0,1,.61.33l.52.47a2.21,2.21,0,0,1,.25.3,1.16,1.16,0,0,1,.28.27l8.48,10a.87.87,0,0,1,.28.73q-.08.38-.66.6l-.66.24a1.19,1.19,0,0,1-.66.08,1.1,1.1,0,0,1-.68-.44l-8.21-9.69Zm15.26,9.59a1.05,1.05,0,0,1-.91.28,1.81,1.81,0,0,1-.46-.18l-.94-.62c-.38-.25-.54-.53-.48-.82a.93.93,0,0,1,.38-.57l2.48-2L93.67,29.85c-.65-.12-.91-.48-.8-1.07s.5-.82,1.15-.69l19.28,3.8c.55.11.79.35.71.72a1.07,1.07,0,0,1-.38.57Zm-.71,6.1c.06-.34.42-.44,1.07-.31l1.82.36a.87.87,0,0,1,.78,1.16l-.16.83a.89.89,0,0,1-1.17.78L96.15,42.88a.87.87,0,0,1-.78-1.16l1.15-5.86a.88.88,0,0,1,1.17-.78l1.82.36a.87.87,0,0,1,.78,1.16l-1,5.07,9,1.78Zm1.34-15.64c.65.13.91.49.8,1.08s-.5.82-1.15.69l-11-2.17c-.65-.12-.91-.48-.8-1.07s.5-.82,1.15-.69Zm-3.28,13.85a.88.88,0,0,1-1.17.78l-1.82-.36a.87.87,0,0,1-.78-1.16l.57-2.92a.88.88,0,0,1,1.17-.78l1.82.36a.88.88,0,0,1,.78,1.17Zm7.3-.27a1.12,1.12,0,0,1,0,.53c-.07.39-.36.6-.85.62l-1.46.08h-.18l-.18,0a1,1,0,0,1-.77-.76l-.68-2.12a1.24,1.24,0,0,1,0-.56.76.76,0,0,1,.82-.6l1.45-.08a.62.62,0,0,1,.19,0,.55.55,0,0,1,.18,0,1,1,0,0,1,.77.76Z"/></g></g></svg>