<svg xmlns="http://www.w3.org/2000/svg" viewBox="0 0 69.13 68.74"><defs><style>.cls-1{fill:#bcbcbc;}</style></defs><g id="圖層_2" data-name="圖層 2"><g id="圖層_1-2" data-name="圖層 1"><g id="圖層_2-2" data-name="圖層 2"><g id="圖層_1-2-2" data-name="圖層 1-2"><g id="footer-icon-instagram"><path id="パス_974" data-name="パス 974" class="cls-1" d="M34.73,6.25a120.87,120.87,0,0,1,13.72.33,21.5,21.5,0,0,1,6.51,1,10.28,10.28,0,0,1,6.53,6.53,20.17,20.17,0,0,1,1,6.54c0,3.77.36,4.8.36,13.72a116.3,116.3,0,0,1-.36,13.72,21.93,21.93,0,0,1-1,6.54A10.3,10.3,0,0,1,55,61.17a20.29,20.29,0,0,1-6.51,1c-3.77,0-4.8.32-13.72.32A125.81,125.81,0,0,1,21,62.2a22,22,0,0,1-6.53-1A10.33,10.33,0,0,1,8,54.66a20.2,20.2,0,0,1-1-6.54c0-3.77-.35-4.8-.35-13.72a114.25,114.25,0,0,1,.35-13.72,21.82,21.82,0,0,1,1-6.51,10.27,10.27,0,0,1,6.51-6.56,20,20,0,0,1,6.21-1.36H34.76m0-6.18A120.26,120.26,0,0,0,20.68.42a23.68,23.68,0,0,0-8.27,1.71A15.92,15.92,0,0,0,2.13,11.85,33.83,33.83,0,0,0,.42,20.3c0,3.8-.35,4.83-.35,14.07A120.26,120.26,0,0,0,.42,48.45a22.05,22.05,0,0,0,1.71,8.21A18.23,18.23,0,0,0,12.08,67a34.86,34.86,0,0,0,8.6,1.38c3.77,0,4.8.33,14.08.33a131.56,131.56,0,0,0,14-.33,22,22,0,0,0,8.25-1.73,15.85,15.85,0,0,0,10-10,34.28,34.28,0,0,0,1.71-8.21c0-3.77.35-4.8.35-14.08a120.14,120.14,0,0,0-.35-14.07A22.06,22.06,0,0,0,67,12.08,16.56,16.56,0,0,0,57,1.78,35.2,35.2,0,0,0,48.77.07Z"/><path id="パス_975" data-name="パス 975" class="cls-1" d="M34.73,15.5A18.88,18.88,0,1,0,53.6,34.37h0A19.31,19.31,0,0,0,34.73,15.5Zm0,30.89a12,12,0,0,1-12-11.9v-.12a12.16,12.16,0,0,1,12-12,12,12,0,0,1,12,11.89v.12h0A12.2,12.2,0,0,1,34.73,46.39Z"/><circle id="楕円形_3" data-name="楕円形 3" class="cls-1" cx="53.25" cy="15.85" r="3.77"/></g></g></g></g></g></svg>