<svg xmlns="http://www.w3.org/2000/svg" viewBox="0 0 74.92 145.39"><defs><style>.cls-1{fill:#a20c29;}</style></defs><g id="圖層_2" data-name="圖層 2"><g id="圖層_1-2" data-name="圖層 1"><path class="cls-1" d="M70.45,70.17c-.06.51.55.32.66.4C71,69.72,70.29,70.19,70.45,70.17Z"/><polygon class="cls-1" points="69.55 61.84 69 60.55 69.31 61.68 69.55 61.84"/><path class="cls-1" d="M69.07,58.2l.79.7c0-1.75-.44-4-.07-5.26-1.09.71,0,2.93-.47,4.34Z"/><path class="cls-1" d="M72.22,50.27a7.26,7.26,0,0,1,.07-.83c-.42.25-.29-1-.18,1A.82.82,0,0,1,72.22,50.27Z"/><path class="cls-1" d="M72.22,50.27c0,.86.37-.54,0,0Z"/><path class="cls-1" d="M73,46.55c-.15-1.19-.4-.95-.82-.3l.32,1.16C72.73,47.18,72.82,46.16,73,46.55Z"/><path class="cls-1" d="M71.45,45.15l.12.59C71.68,45.64,71.72,45.49,71.45,45.15Z"/><path class="cls-1" d="M71.57,45.74c-.17.16-.51.17.1.58-.31-.11,0,.15.18.69Z"/><path class="cls-1" d="M71.66,47.71c-.25.64-.43,1.45-.74.29C71,50.19,71.72,49.91,71.66,47.71Z"/><path class="cls-1" d="M68.73,53.16l-.35.83.3.74C68.53,54.36,69.06,53.13,68.73,53.16Z"/><path class="cls-1" d="M72.81,39c-.22-.07-.59.4-.88.49l.25.86C72.34,40,72.48,39.11,72.81,39Z"/><path class="cls-1" d="M71.54,38.26c0,1.15.14,1.35.39,1.27Z"/><polygon class="cls-1" points="70.3 44.52 70.3 44.91 71.01 47 70.3 44.52"/><polygon class="cls-1" points="72.33 33.49 72.62 34.05 73.17 34.76 72.33 33.49"/><path class="cls-1" d="M72.21,30.73c.49.5.62-.85,1-.3a6.92,6.92,0,0,0-1.06-2.29A4.41,4.41,0,0,1,72.21,30.73Z"/><path class="cls-1" d="M71.47,27.05a10.44,10.44,0,0,0,.63,1.09A3.39,3.39,0,0,0,71.47,27.05Z"/><path class="cls-1" d="M72.12,35l-.59.55c0,.16,0,.33,0,.51A1.42,1.42,0,0,0,72.12,35Z"/><path class="cls-1" d="M71.51,35.57l0,0c0-.55,0-.93,0-1.1Z"/><path class="cls-1" d="M71.55,36.19v-.13C71.48,36.11,71.46,36.14,71.55,36.19Z"/><path class="cls-1" d="M69.66,40.82c.42.53.73-.33,1.25.79C70.56,40.86,70.19,39.33,69.66,40.82Z"/><path class="cls-1" d="M71.31,38.3l-.51-1.45-.08,1.37C70.89,38.19,71.12,37.93,71.31,38.3Z"/><polygon class="cls-1" points="70.57 36.2 70.8 36.85 70.83 36.35 70.57 36.2"/><path class="cls-1" d="M71.2,29.53a5.74,5.74,0,0,1-.58-1.93A15.76,15.76,0,0,0,70.73,30C70.94,30.08,71.33,30.37,71.2,29.53Z"/><path class="cls-1" d="M71.39,32.48l-.06-.13C71.29,32.44,71.28,32.51,71.39,32.48Z"/><polygon class="cls-1" points="68.88 20.35 68.81 20.5 68.92 20.49 68.88 20.35"/><path class="cls-1" d="M70.63,30.14A1.65,1.65,0,0,0,71,31.39a10.83,10.83,0,0,1-.28-1.4C70.64,30,70.58,30,70.63,30.14Z"/><path class="cls-1" d="M70.78,25a7.65,7.65,0,0,0-.13,1.12C70.78,25.81,71,25.12,70.78,25Z"/><path class="cls-1" d="M71.48,32.13l0,.09C71.63,32,71.57,32,71.48,32.13Z"/><path class="cls-1" d="M71.48,32.13a3.6,3.6,0,0,0-.47-.74,6.74,6.74,0,0,0,.32,1A1.21,1.21,0,0,1,71.48,32.13Z"/><path class="cls-1" d="M69.49,23.09l.22.54a6.73,6.73,0,0,1,.23-2.17c-.52-.86-.82-1-1-1,.06,0,.71,2.77.71,2.77Z"/><path class="cls-1" d="M68.52,25.54c.36,1.59.74,1,1.2,1.93-.67-2.6.5.7.47-1.28a7.45,7.45,0,0,1,.43,1.41c0-.49,0-1,0-1.44l0,.07h0c0,.13-.09.18-.07,0a.11.11,0,0,1,0-.06.59.59,0,0,1-.26-.07c0-.8.14-.15.26.07l.09,0h0s-.85-2.61-.91-2.6a22.71,22.71,0,0,0,.55,2.52C69.55,25.83,69,24.58,68.52,25.54Z"/><path class="cls-1" d="M68.31,39.48a.18.18,0,0,1,.14-.09C68.38,39.23,68.32,39.17,68.31,39.48Z"/><path class="cls-1" d="M69.21,39.51l-.08-.18A7.44,7.44,0,0,1,70,37.19a4.39,4.39,0,0,0-1.33,1.23,1.1,1.1,0,0,1,.28.94c-.19.52-.3,0-.51,0C68.62,39.75,68.9,40.66,69.21,39.51Z"/><path class="cls-1" d="M70,37.19l.13-.08S70.07,37.11,70,37.19Z"/><path class="cls-1" d="M69.55,32.35,69,30.24l-.41,1.15.32-.09C68.91,32.53,69.28,32.22,69.55,32.35Z"/><polygon class="cls-1" points="69.08 19.99 69.82 20.06 68.47 19.11 69.08 19.99"/><polygon class="cls-1" points="68.52 17.05 67.86 16.45 67.94 17.18 68.52 17.05"/><path class="cls-1" d="M2.45,117.15c.16.37.31.52.45.48C2.74,117.25,2.59,117.05,2.45,117.15Z"/><path class="cls-1" d="M74.92,120.09c-.82,1.2-.58-4.61-1.76-2.69,0-1.36.72-.13,1.1-1.19-1.05-3.13,0-7.15-.76-11.06-.26,0-.57.68-1-.11l1-2.23c-.23-.75-1.57-.51-.87-2-.18.23-.47.57-.62.06.13-3.91-.64-7.78-1.21-11.63s-1.16-7.81-.08-11.7c-.44,1.07-.53.39-.59-.4-.09.52-.63,0-1,.16L69.9,74c-1-.54-.26-3.43-1.2-3.74l.22,1c-.68-.77-1.35,0-2.07.8-.06-1.48-.11-3-.12-4.45C66.64,53.4,69.32,39.05,67,25c-.13-.8-.29-1.61-.47-2.41.8-.05,1.8-1,2.25-2.13-.25,0-.48.11-1.27-1.07-.09.58.28,3.12-.56,2.19-.87-1.57-.29-1.43-.31-2.37-.2.47-.63.06-1.1-.37a26.35,26.35,0,0,0-7.33-12,.48.48,0,0,1,.17,0c.42.14.8.31.42-.25,1.27.55,3,1.14,3.92,3l-.48.85c.18-.19-.37-1.34-.92-1.58.84.41.88,3,2.22,3.12l-.2-1.52c1.06.91,2.95,1.93,3.39,3.72.44-1.16-.25-.32.09-2-.52,1.61-2.41-4.07-2.59-1.75.24-1.82-1-2.14-1.36-4.24-.17.25.07.85-1-.37a1.3,1.3,0,0,1-.43,0l-.07-.09,0,.09c-.08,0-.09,0,0,0a1.71,1.71,0,0,1,.27.89,3.6,3.6,0,0,1-1.52-.66h0l-.77-.49c.1-.08.17-.11.21,0,.47-.18-.51-.48-1.13-.53A1.85,1.85,0,0,0,58,5c-.67-.62.5-.08.27-.62L57,4.12c.28-.67-1.62-2.26.51-1.47a5.15,5.15,0,0,0-.88-.52l-.92-.46A5.65,5.65,0,0,0,52.11.16c-.93-.41-2.5.28-1.6-.12H48.92c-.78,0-1.55.13-1.55.13l0-.17c-3.14-.13-6,1.52-9.42,1.53a17.38,17.38,0,0,1-3.3,1.63l-.54-.37c-1,.75-3.63,1.47-3.75,2.32-1-.24-2.35.67-3.58,1.87-.6.63-1.2,1.31-1.71,1.93a12.91,12.91,0,0,1-1.36,1.57l.5.57a15.25,15.25,0,0,0-2.55,4.12l.6.29a8.36,8.36,0,0,1-1.58,2.44,12.54,12.54,0,0,0-2.07,2.93c-.15-.27.2-.8.53-1.12-2.71,1.93-1.79,6-3.73,8a2.15,2.15,0,0,1-.6,1.46.45.45,0,0,0,0-.16l-.11.25c-.21.22-.44.44-.66.7a3.09,3.09,0,0,0,.61-.57,9.35,9.35,0,0,0-.48,2l-.76,0a.94.94,0,0,0,0,.16c-.42.49-.06.63.43.56-.76.57-1.54,1.08-1,1.2l.69,0A2.85,2.85,0,0,1,14,32.06l.1,0a4.06,4.06,0,0,0,.06,1.07c-1.28.14-.31,1.94-1.71,2.26.39.67-.81,3.61.23,4.41-.16,0-.3.14-.18-.23a3.79,3.79,0,0,0-.71,2.23l-1,0,.55,2.08c-.86.84-1.31,1.16-1.61-.09.16,2.81-.3,2.12,0,4.55L9.25,48c-.24.75.11,2.2-.49,2.5C7.17,51.87,5.94,58.79,3.89,63c1.86-.44-1.26,1.87,0,2.38-.45.16-.83.73-1-.08-.16,2.37-1.36,3.34-.61,5.16-.45.19-.48-.61-.76-.42,0,.2.19.8-.09,1s-.27-.41-.36-.81c-.44,2.4.81,2.87,1.92,3.24a2.06,2.06,0,0,0-.11,2.7c-.44.36-.94,1-.85-.49-.09.41-.43,1.66-.6,2.84s-.1,2.3.36,2.38c-.25.24-.16,1.16-.07,1.39a16.5,16.5,0,0,0-.25,3.89l.16-.51c1.12.76.23,1.53.35,3l-.11,0c-.81,3.41.29,1.46-.46,4.83l.69-.21c1.52.22-.73,3,0,4.9l.36-.73c.54,1-1.79,3.12-1.89,4.21-.1.24-.24-.35-.37-.66-.61,2.87,1,.27,1.36,2.31-.45.44-1.3-.36-1.25,1-.35.77,2,3.81,1.33,5.81.32-.47.65-.92,1,0,.3,1.41-.94,4.14.43,5.29-.08.21-.16.29-.26.32.42,1.06,1.16,3.63,1.9,4.15-1.15.78-.29,2.55.46,4.08S7,126.77,6,127.27L6.81,129l1.06,1.58-.24.05a5.23,5.23,0,0,0,1.75,2,3.72,3.72,0,0,0,1.47.62c.28.49-.15.36-.27.41a9.06,9.06,0,0,0,2.51,2.59,7.61,7.61,0,0,0,3.07,1L16,138a13.22,13.22,0,0,1,2.63,1.81,9.75,9.75,0,0,0,4.64,1.86.51.51,0,0,1-.44.2c1.87.2,3.81,1.24,5.61,1.94s3.36,1,4.2-.25l1.21-.16,1.19-.17c-2.93-.62.59-1.09-.57-1.71,1.16,0,2.88,1.17,1.45,1.14l-.21-.16c-.69,1.36,3.62.9,3.46,1.82,5.83.35,11.49,1.56,17.4.79l-.8-1,1-.1,1-.15c.57.15.87.71-.59.94.88.49,2.34-1,2.3-1.26,2.93-.31-.8,1.54.06,1.33l1.19-.39-.31,0a5.41,5.41,0,0,1,2.51-1.78c1.15-.24.81.4,1.25.23,0,.07.19,0,.67-.31a20.74,20.74,0,0,0,2.49-1.43s-1.41-.08-1.41-.08c.83-1,2.09-1.54.56-1.51,1.15.11,3.3-1.58,4.59-3.8a18.79,18.79,0,0,0,1.53-3.16,7.81,7.81,0,0,1,.72-1.88,24.79,24.79,0,0,1,.28-5.31c-.2.47-1.16.67-1-1C74.62,125.16,73.6,121.45,74.92,120.09ZM4.06,75.93a4.72,4.72,0,0,0-.47.53l-.15-2.41c.19-.26.47,0,.8.47-.06-.17-.11-.33-.16-.46a.88.88,0,0,1,.29-.31C4.26,74.47,4.15,75.2,4.06,75.93ZM12,45.31l-.52-1.21a1.93,1.93,0,0,0,.82.34ZM54.11,1.46l-.06,0C53.08.84,53.42,1.08,54.11,1.46Zm-9,.43c2.23-.44,1,.77,1.37.56a7.56,7.56,0,0,0,3.85-.62,3.4,3.4,0,0,1,1.41-.24,3.54,3.54,0,0,1,2,.75c.71.81.28,1.21-.07,1.58A18.57,18.57,0,0,0,42.88,3,8.33,8.33,0,0,1,45.1,1.89ZM43.29,29.17c2.79-1.92,4.4-3.68,4.75-5.36.07-.5.55-.75,1.53-.79s1.61.42,1.61,1.13A3.28,3.28,0,0,1,51,25c3.48.75,5.3,1.92,5.3,3.47A3.7,3.7,0,0,1,53.83,32,20.7,20.7,0,0,0,51,33.77a44.28,44.28,0,0,0,9.13.88c.91.17,1.4.46,1.4.92,0,.76-.7,1.13-2,1.13a49.49,49.49,0,0,1-5.29-.37v3l4.53.58c1.18.17,1.81.5,1.81,1s-.7.92-2,.92l-4.39-.59V44.4l4.53.59c1.18.16,1.81.5,1.81,1,0,.67-.7,1-2,1l-4.39-.58c0,1.17.07,2.34.13,3.55l5.51.47c1.19.16,1.82.5,1.82,1s-.7.92-2,.92L43.57,50.84c-.21,2-.14,7.74-.14,9.83a1.34,1.34,0,0,1-.15.41c4.46,0,7.6.1,9.29.2A2.78,2.78,0,0,1,55,64.12c0,1.63-1.46,2.43-4.32,2.43-4.61.17-7.4.25-8.3.25s-1.33.25-1.4.5v2.56c7.54,0,11.51-.13,12-.42,1-.13,1.46-.59,1.46-1.34,0-.5.49-.84,1.54-1,1.18,0,1.81.34,1.95,1l-.56,1.71c0,1.18-5.51,1.72-16.39,1.72v2.3a38.75,38.75,0,0,1,4.33.34c9.2,1.21,14.15,5.18,15,11.92-.14.59-.63.88-1.53.88-1.26,0-2.1-.84-2.51-2.55a11.78,11.78,0,0,0-3.07-5.15,15,15,0,0,0-8.65-3.43c-1.6-.17-7-.25-16.18-.25-2.86,0-4.39-.92-4.6-2.85a50.64,50.64,0,0,1,.28-5.52c.14-.67.76-1,1.74-1s1.47.3,1.6.88a39.36,39.36,0,0,0-.28,5.48c0,.8.84,1.18,2.38,1.18,3.2,0,6,0,8.23,0v-7c0-1.13,1.53-1.72,4.74-1.72s6.13-.12,8.51-.17c.55-.12.83-.37.83-.71,0-.67-.55-1-1.6-1a39.55,39.55,0,0,0-4.67-.25c-9.42,0-17.23.17-23.51.5-1,0-1.46-.29-1.46-1,.07-.46.49-.8,1.19-1q7.84-.39,18.2-.38h.64a1.28,1.28,0,0,1-.15-.4c.07-8.66,1-18.86,3.27-23.13a19.62,19.62,0,0,1,2.58-3,12.54,12.54,0,0,1-3.2-1.47c-.56.67-1,1.26-1.33,1.76a1.57,1.57,0,0,1-1.6.8c-.84,0-1.26-.3-1.26-.76C38.9,33.61,40.37,31.68,43.29,29.17ZM27.39,43.52a1,1,0,0,1,.35-.42c-4.88-.08-7.32-.92-7.32-2.46s2.3-2.56,7-2.81a3.87,3.87,0,0,1,.07-1c-4.6-.08-6.83-.88-6.83-2.34s2.23-2.3,6.83-2.56a3.22,3.22,0,0,1,.14-1.21,1.72,1.72,0,0,1,1.47-.59c.83,0,1.32.21,1.46.59A3.86,3.86,0,0,1,30.88,32c3.84.09,5.93.88,6.21,2.3,0,1.55-2.16,2.43-6.35,2.6a2.38,2.38,0,0,1,.21,1c4.18.08,6.49,1,6.77,2.68,0,1.59-2.45,2.43-7.19,2.55a1.11,1.11,0,0,1,.21.59v1A15,15,0,0,1,35.48,46c1,.59,2,1.22,2.93,1.88.63.51,1,1,1,1.34,0,.55-.56.84-1.6.88a2,2,0,0,1-1.47-.71,18,18,0,0,0-2.72-2,8,8,0,0,0-2.86-.88v0c0,1.12.7,2.46,1.95,4a24,24,0,0,0,4.47,4.23c1,.54,1.53,1,1.53,1.46,0,.67-.56,1-1.53,1s-2.23-.93-4.33-2.72a20.76,20.76,0,0,1-3.76-4.27,13.18,13.18,0,0,1-3.21,4.64,12.59,12.59,0,0,1-2.16,1.89,2.55,2.55,0,0,1-1.26.71c-1-.13-1.53-.5-1.53-1.09a.91.91,0,0,1,.42-.71,9.21,9.21,0,0,1,1-.8,16.56,16.56,0,0,0,3.56-4.14,8.31,8.31,0,0,0,1.67-3.89v-.25a11,11,0,0,0-4.46,2.09,12.65,12.65,0,0,0-1.19,1.13,1.22,1.22,0,0,1-1,.38c-1,0-1.61-.38-1.74-1s1.11-1.42,3.41-2.88a20.27,20.27,0,0,1,4.88-1.64ZM20.07,99.16c.42.08,1.19.84,2.23,2.26A5.89,5.89,0,0,1,23.56,104c0,.26-.21.42-.49.55a1.92,1.92,0,0,1-.77.08c-.55,0-1.39-.71-2.58-2.13a4.41,4.41,0,0,1-1.39-2.43c.07-.25.35-.46.84-.71A1.61,1.61,0,0,1,20.07,99.16Zm5.34-85.5c.45-.24.92-.47,1.32-.65-.73.89-1.42,1.8-2.07,2.75a2.56,2.56,0,0,1-.82-1.07A13.64,13.64,0,0,1,25.41,13.66ZM28.3,23.81c4.6,0,7.81.09,9.56.25,1.11.09,1.67.38,1.67,1s-.42.75-1.19.75-1.6,0-2.37-.08q.53.69,1.26,1.5a4.32,4.32,0,0,1,.9,1.55c0,.46-.48.71-1.32.75a3.33,3.33,0,0,1-2.16-1.25c-.42-.5-1-1.38-1.89-2.59-1.25,0-2.58-.05-3.83-.09.42.5,1,1.09,1.53,1.76a4.71,4.71,0,0,1,.91,1.59c0,.42-.42.67-1.26.71A3.15,3.15,0,0,1,28,28.38a27.58,27.58,0,0,1-1.95-2.68c-2.37.16-3.56.46-3.56.83s.35.63,1,1.13,1.18,1,1.18,1.38-.48.76-1.32.76a5.26,5.26,0,0,1-3.07-1.51,2.23,2.23,0,0,1-1.11-1.76C19.24,24.73,22.23,23.81,28.3,23.81Zm-10,.12.63-.22.39-2c.17.56.4,1.4.65,2.33-.46,1-.9,2-1.32,3A6.41,6.41,0,0,1,18.3,23.93Zm4.56,97.79a49.39,49.39,0,0,1-1.19,5.73,5.83,5.83,0,0,1-.83,2,3.16,3.16,0,0,1-1.6.41c-.77-.08-1.12-.37-1.12-.88a8.28,8.28,0,0,1,.63-2.38c.28-1,.55-2.18.76-3.43a66.44,66.44,0,0,0,1-11.76,1.47,1.47,0,0,1,1.32-.84c1.05,0,1.61.38,1.75,1.13A78.6,78.6,0,0,1,22.86,121.72Zm12.07,8.07a2.65,2.65,0,0,1-1.68-.5,74.26,74.26,0,0,1-2.44-16.61,7.62,7.62,0,0,1,.14-1.47c.14-.33.56-.54,1.4-.63s1.32.3,1.46.8v1.42A85.17,85.17,0,0,0,36.11,129C36.11,129.5,35.69,129.79,34.93,129.79Zm-6-35.36c0,3.57,0,9.8,0,12.35,1.95,0,3.63.08,5,.16,1.12.09,1.74.38,1.74,1s-.55.87-1.6.87c-.42,0-1.26,0-2.65-.16H28.86c0,1.34-.07,2.59-.07,3.8,0,6,0,11.89.14,17.66,0,.76-.56,1.18-1.67,1.18s-1.47-.68-1.54-1.93V108.66c-1,0-1.88,0-2.86.12-1.46.09-2.37.13-2.72.17-.9,0-1.39-.33-1.46-1,0-.51.69-.8,2.16-.88s3.07-.13,4.88-.21c-.07-3.64-.17-11.48-.31-13.82a1,1,0,0,1,.07-.29c.05-1,.62-3.35,4.91-4.78,1.75-.58,3.29-.54,4.27-1.08a5.35,5.35,0,0,0,1.4-1c-5.37,0-9-.06-9.71-.4-2.09-.37-3.21-1.34-3.35-2.89s1.4-2.67,4.26-3c1.81-.17,4.53-.29,8.15-.34a4.82,4.82,0,0,1-.55-1.75c.07-.46.62-.8,1.67-1a6.36,6.36,0,0,1,1.74.41,9.06,9.06,0,0,1,.63,2.3c4.39,0,7.18.13,8.3.21,3.42.09,5.16,1.09,5.16,3.06,0,1.76-1,2.72-3.07,2.93-1.67.42-5.16.63-10.32.63A4.73,4.73,0,0,1,35,88.79a9.07,9.07,0,0,0-5.74,2.92c-.85,1.52,4.23.49,10.3.49l9.53,0c1.28-.52-2.73-2.16-4.26-2.54-1.33-.17-2.46-.84-2.46-1.09.28-.59.47-.79,1.51-.79a14.39,14.39,0,0,1,4.4,1c1.11.54,6.07,2.49,4.74,4.37s-6.56.9-13.39,1C35.1,94.08,31.38,94.45,28.9,94.43ZM36,100.12a4.88,4.88,0,0,1-1.46,2.35c-1.33,1.42-2.16,2.13-2.58,2.13-.84,0-1.33-.21-1.33-.67a5.65,5.65,0,0,1,1.4-2.51c1-1.42,1.67-2.18,2.09-2.18C35.34,99.24,36,99.54,36,100.12Zm1.75,27.58c-.77,0-1.19-.3-1.19-.8a8.46,8.46,0,0,1,1.6-2.72,14.12,14.12,0,0,0,2-3.64,12.21,12.21,0,0,0,.9-2.84c.14-.38.63-.59,1.47-.59s1.46.38,1.46,1c0,.8-.63,2.43-1.81,4.9a16.31,16.31,0,0,1-2.79,4.18A2.33,2.33,0,0,1,37.72,127.7Zm16.8,3c-1,0-1.81-.75-2.51-2.22a48.45,48.45,0,0,1-3-6.11c-1.53,2.89-2.72,4.94-3.41,6.2-1,1.59-1.75,2.42-2.45,2.42s-1.39-.25-1.53-.75a2.38,2.38,0,0,1,.49-1.34c.42-.67,1-1.47,1.53-2.47a48.07,48.07,0,0,0,4.61-10,.88.88,0,0,1,.9-.46c.56,0,.91.17,1.05.5a53.5,53.5,0,0,0,3.42,9.12c.49,1,1,2,1.46,2.89a3.72,3.72,0,0,1,.56,1.51C55.64,130.42,55.22,130.67,54.52,130.67ZM60,128.2a2,2,0,0,1-1.32-.33,26.83,26.83,0,0,1-3.28-6.45,17.92,17.92,0,0,1-1.11-3.35c.06-.41.55-.71,1.46-.88.84.09,1.25.26,1.32.59a42.72,42.72,0,0,0,3.14,7,5.68,5.68,0,0,1,1.12,2.51C61.29,127.87,60.8,128.16,60,128.2Zm1.26-22.81a5.58,5.58,0,0,1-2.86-.83c-1.68-.76-3.63-1.59-5.72-2.47-.07,0-.07,0-.07,0-.49.42-1,.84-1.46,1.21s-.56.46-.56.63v3.93c1.88,0,4.11.09,6.62.17,1,.08,1.61.34,1.61.75,0,.59-.56.88-1.61.88-2,0-4.18,0-6.62,0v3.56l9.41.12c1.12.13,1.68.38,1.68.8,0,.62-.56.92-1.68.92-3.07,0-6.55,0-10.53-.09-3.07,0-6.62,0-10.6.13-1.11,0-1.74-.29-1.81-.92,0-.29.49-.55,1.46-.75,2-.09,5-.13,9-.21l-.07-3.56-6.49.13c-1.11,0-1.67-.3-1.67-.93,0-.29.42-.54,1.4-.75,1.46-.08,3.69-.12,6.76-.21L47.34,104c0-.25-.21-.5-.63-.71a7.83,7.83,0,0,1-1.11-1c-1.68.84-3.28,1.59-4.68,2.26a6.63,6.63,0,0,1-2.44,1c-.9,0-1.46-.33-1.6-1,0-.25,1.11-.92,3.42-2a39.58,39.58,0,0,1,3.83-1.67c-1.53-1.47-2.23-2.47-2.23-3,.07-.68.7-1,2-1.13.42.08,1.47,1.13,3.14,3.13,1,1.43,1.74,2.14,2.09,2.14s1.33-.88,2.72-2.68c1.54-1.93,2.51-2.93,2.93-2.93,1.05.08,1.61.42,1.61.92,0,.75-.77,1.8-2.16,3.18a12.3,12.3,0,0,1,2.43.8c2.1,1,3.84,1.8,5.3,2.55.35.29.56.54.56.79C62.47,105.19,62.06,105.39,61.22,105.39Zm3.08,37.16-.46,0C64.62,142,64.46,142.24,64.3,142.55Z"/><path class="cls-1" d="M43.78,49l7.19.63c.07-1.17.14-2.38.14-3.68l-6.63-.88A35,35,0,0,0,43.78,49Z"/><path class="cls-1" d="M34.09,40.68c0-.84-1.6-1.3-4.81-1.3s-5,.42-5,1.26c0,.58,1.53.83,4.67.83C32.35,41.47,34.09,41.22,34.09,40.68Z"/><path class="cls-1" d="M46.92,83.83c1.4,0,2.09-.5,2.09-1.34,0-1-.69-1.5-2.09-1.5-1.67-.09-4.25-.17-7.81-.17A23.44,23.44,0,0,1,39.32,84,68,68,0,0,0,46.92,83.83Z"/><path class="cls-1" d="M35.83,80.86c-2.79,0-5.16.13-7,.25-1.54,0-2.37.5-2.65,1.42a1.69,1.69,0,0,0,1.53,1.09c.63.25,3.42.42,8.44.42C36.11,83,36,81.87,35.83,80.86Z"/><path class="cls-1" d="M34,34.44c0-.58-1.6-.92-4.67-.92-3.49,0-5.23.34-5.3,1s1.6.79,4.95.79S34,35,34,34.44Z"/><path class="cls-1" d="M44.9,43.23l6.28.79V42.81c0-.67-.07-1.3-.07-2l-5.23-.71A22.38,22.38,0,0,0,44.9,43.23Z"/><path class="cls-1" d="M50,31.51c2.09-1,3.14-1.92,3.14-2.84,0-.76-1-1.34-2.93-1.76a1.17,1.17,0,0,1-.28,0c-.56.58-1.19,1.21-1.88,1.8-1.4,1.13-2.58,2.13-3.56,3A19.56,19.56,0,0,0,48,33,24.14,24.14,0,0,1,50,31.51Z"/><path class="cls-1" d="M48.94,35.41a12.45,12.45,0,0,0-2.3,2.92l4.4.59c0-1.05-.07-2.09-.14-3.1A19.68,19.68,0,0,1,48.94,35.41Z"/><path class="cls-1" d="M64.49,14.27c-.47.42.21,1,.67,1.79a1,1,0,0,1-.07-.15C66,15.76,65.28,15,64.49,14.27Z"/><path class="cls-1" d="M65.27,16.24a4.59,4.59,0,0,1,.38.77C66,17,65.56,16.66,65.27,16.24Z"/><polygon class="cls-1" points="70.64 73.72 70.89 72.57 70.43 73.32 70.64 73.72"/><path class="cls-1" d="M70.35,71.26l-.9-.67c.06.26.17.76,0,1Z"/></g></g></svg>