<svg xmlns="http://www.w3.org/2000/svg" viewBox="0 0 141.76 185.88"><defs><style>.cls-1{fill:#fff;}</style></defs><g id="圖層_2" data-name="圖層 2"><g id="圖層_1-2" data-name="圖層 1"><path class="cls-1" d="M59.69,46.25H82.28a4.49,4.49,0,0,1,4.29,3.17L98.81,89.05a11.09,11.09,0,0,1,0,6.65L86.14,135.27a4.48,4.48,0,0,1-4.28,3.12h-21a4.46,4.46,0,0,1-4.19-2.9L43,98.89a16.19,16.19,0,0,1-.23-10.71l12.7-38.83A4.48,4.48,0,0,1,59.69,46.25Z"/><path class="cls-1" d="M49.34,42.63,25,17a2.19,2.19,0,0,0-3-.12,51.19,51.19,0,0,0-4.13,4.28A2.18,2.18,0,0,0,18,24.31L40.51,43.25a2.18,2.18,0,0,1,.57,2.6L26.64,78.76a3.12,3.12,0,0,1-2.82,1.79l-21.31.27A2.17,2.17,0,0,0,.33,83l0,3.52A3.33,3.33,0,0,0,3.7,89.83H31a4.47,4.47,0,0,0,4.23-3l14.61-42A2.16,2.16,0,0,0,49.34,42.63Z"/><path class="cls-1" d="M57.75,40l25.86-.62a4.7,4.7,0,0,0,3.58-1.76L107.94,12a2.19,2.19,0,0,0-.26-3,19.21,19.21,0,0,0-6.35-3.55,2.19,2.19,0,0,0-2.57,1L84.58,30.21a2.17,2.17,0,0,1-1.76,1.06l-24.68,1.2a2.16,2.16,0,0,1-1.88-.92C53.53,27.67,43.42,13.25,40.3,8a2.15,2.15,0,0,0-2.43-1,18.72,18.72,0,0,0-7,3.76,2.19,2.19,0,0,0-.23,3.14l21,23.46A7.92,7.92,0,0,0,57.75,40Z"/><path class="cls-1" d="M49.56,3.09a78.3,78.3,0,0,1,40.06-.9A2.2,2.2,0,0,1,91,5.42L79,25.79a2.16,2.16,0,0,1-1.81,1.08L60,27.46a2.16,2.16,0,0,1-2-1.23L48.21,6.13A2.18,2.18,0,0,1,49.56,3.09Z"/><path class="cls-1" d="M113,17.32,92.55,41.41a4.49,4.49,0,0,0-.82,4.34l13.63,40.09a4.47,4.47,0,0,0,4.11,3l27.68.83c4.55,0,4.61-2,4.61-4.49h0c0-2.5,0-4.43-4.56-4.47l-21.48.41a4.48,4.48,0,0,1-4.33-3.06l-10.2-30.62a4.45,4.45,0,0,1,1.38-4.85l19.74-16.45a4.47,4.47,0,0,0,.34-6.57,23.81,23.81,0,0,0-3.86-3.18A4.46,4.46,0,0,0,113,17.32Z"/><path class="cls-1" d="M139.58,75.22l-21.05.58a2.16,2.16,0,0,1-2.14-1.52l-8.47-26.95a3.18,3.18,0,0,1,1.15-3.5l18.52-13.69a2.17,2.17,0,0,1,2.73.1c5.83,5.19,8.71,14,9.76,19.24C141,54,141.52,67.62,141.7,73A2.18,2.18,0,0,1,139.58,75.22Z"/><path class="cls-1" d="M13.84,29.14,31.06,43a4.68,4.68,0,0,1,1.44,5.31L23.09,73.16a2.59,2.59,0,0,1-2.43,1.68L3.5,74.91A2.6,2.6,0,0,1,.88,72.29c0-5.19.25-16.8,1.43-23.46,1.37-7.74,3.8-13.91,7.81-19.24A2.62,2.62,0,0,1,13.84,29.14Z"/><path class="cls-1" d="M94.09,144.68l21.11,22.19a4.85,4.85,0,0,0,7,0h0a4.89,4.89,0,0,0-.37-7.13l-20.45-17.24a2,2,0,0,1-.51-2.33l16.08-34a1.94,1.94,0,0,1,1.77-1.12h21a2,2,0,0,0,2-2l-.06-4.81a2.25,2.25,0,0,0-2.25-2.22H110.76a4,4,0,0,0-3.79,2.7L92.9,139.17A5.4,5.4,0,0,0,94.09,144.68Z"/><path class="cls-1" d="M86.86,145.85l-27.52.65a6.67,6.67,0,0,0-5,2.46L34.25,173.75a2.4,2.4,0,0,0,.29,3.3,16.9,16.9,0,0,0,3.12,2.09,5.31,5.31,0,0,0,7.05-2c3.64-6.11,10.57-17.77,12.72-21.39a2.4,2.4,0,0,1,1.93-1.16l24.45-1.19a2.4,2.4,0,0,1,2.07,1c2.5,3.56,10.6,15.12,14.57,21.36a5.31,5.31,0,0,0,6.87,1.9,1.51,1.51,0,0,0,.22-.11,5.3,5.3,0,0,0,1.48-8.24L88.69,146.64A2.35,2.35,0,0,0,86.86,145.85Z"/><path class="cls-1" d="M88.64,183.82a79,79,0,0,1-31.74.83,5.32,5.32,0,0,1-3.61-7.93l8.87-15.14A5.35,5.35,0,0,1,66.57,159l15.32-.52a2.43,2.43,0,0,1,2.25,1.35l8,16.53A5.32,5.32,0,0,1,88.64,183.82Z"/><path class="cls-1" d="M28,169.48l21.73-25.62a3.08,3.08,0,0,0,.57-3L36,98.15a3.06,3.06,0,0,0-2.91-2.1h-30A3.07,3.07,0,0,0,0,99.13H0c0,3.29.39,5.94,5.82,5.93.19,0,.39,0,.58,0l18.52-.35a6,6,0,0,1,5.8,4.1l10.16,30.47a3.07,3.07,0,0,1-1,3.33l-19.15,16a6,6,0,0,0,0,9.22,21.79,21.79,0,0,0,3.37,2.35A3.09,3.09,0,0,0,28,169.48Z"/><path class="cls-1" d="M3.24,110.64,23,110.1a2.92,2.92,0,0,1,2.87,2l8.35,26.58A2.94,2.94,0,0,1,33.15,142L15,155.38a2.94,2.94,0,0,1-3.78-.25C5.74,149.9,3,141.5,2,136.4c-.87-4.31-1.39-17-1.6-22.74A2.93,2.93,0,0,1,3.24,110.64Z"/><path class="cls-1" d="M128.69,157.11,111.4,143.17a5.4,5.4,0,0,1-1.66-6.1l9.38-24.71A2,2,0,0,1,121,111l15.18-.06a5,5,0,0,1,5,5c-.09,5.81-.39,15.28-1.41,21-1.41,8-3.95,14.27-8.17,19.7A2,2,0,0,1,128.69,157.11Z"/></g></g></svg>