<svg xmlns="http://www.w3.org/2000/svg" viewBox="0 0 502.49 146.09"><defs><style>.cls-1{fill:#fff;}</style></defs><g id="圖層_2" data-name="圖層 2"><g id="圖層_1-2" data-name="圖層 1"><path class="cls-1" d="M259.39,69c3,1.74,6.26,3.13,8.73,5.72a3.35,3.35,0,0,0,4.16.31c1.19-.73.9-1.86.63-2.88a23.53,23.53,0,0,0-3.57-8c-1.68-2.3-3.37-4.59-5.09-6.87a2,2,0,0,1-.14-2.64c1.08-1.53,1.92-3.21,3-4.72,1.23-1.7,2.64-3.28,4.39-5.43a11.27,11.27,0,0,0-3.61-8.69c-1.6,2-3,3.68-4.36,5.42s-2.75,3.71-4.22,5.5a14.22,14.22,0,0,1-2.09,1.73c-2.11-2-4-3.76-5.84-5.56s-3.1-4-5.12-5.72c-1.37,1.73-2.12,3.22-1.64,5.16a4,4,0,0,1-.85,3.77c-1.92,2.06-1.34,4.08,0,6.07a38.64,38.64,0,0,0,2.62,3.38,1.92,1.92,0,0,1,0,2.85c-.36.39-.63.87-1,1.24a77.51,77.51,0,0,0-12.65,16.14,5.26,5.26,0,0,0-.3.7l.8,1.67c1.49.81,2.61.34,3.87-.68,2.05-1.64,3.82-3.75,6.52-4.47.31-.08.56-.44.79-.71a23.59,23.59,0,0,1,7.54-5.41c1.81-.91,3.73-1.13,5.41.55A9.53,9.53,0,0,0,259.39,69Z"/><path class="cls-1" d="M143.67,97c.32-1-.54-1.46-1.36-1.57a3.32,3.32,0,0,0-1.81.29,61.88,61.88,0,0,0-7.33,3.79,36.23,36.23,0,0,1-12.6,5.63,10.24,10.24,0,0,0-3,1.1c-2.66,1.54-5.64,1.61-8.53,2a7.37,7.37,0,0,1-3.36-.73,2,2,0,0,1-.9-1.44c-.05-.35.43-.91.82-1.15a4.4,4.4,0,0,1,1.43-.32c.36.77.65,1.38.93,2,1.29-.27,2.34-.46,2.43-2.08,0-.6.89-1.34,1.55-1.67q8.08-4.12,16.26-8.1A2.92,2.92,0,0,0,130,93a17.58,17.58,0,0,1,2.38-4.33,21.48,21.48,0,0,0,3.81-8.41,113.81,113.81,0,0,1,3.06-12.16c1.32-3.89,1.14-7.73.58-11.61-.31-2.14-1.48-3-3.71-3-.87,0-1.75.32-2.62.29a20.07,20.07,0,0,0-9.78,2.34c-3.33,1.69-6.54,3.61-9.82,5.4a12.38,12.38,0,0,1-1.72.63,23.91,23.91,0,0,1,.6-7.49,14.44,14.44,0,0,1,.66,1.5c.6,2.15,1.38,2.49,3.07,1.1A14.6,14.6,0,0,0,119,54.5c3.76-5.29,7.43-10.57,9.39-16.94.8-2.58,1.19-4.67-.16-7-.08-.15-.1-.34-.17-.51-.7-1.8-1.57-2.4-3.45-2.1a12.75,12.75,0,0,0-2.77.94c-2.22.93-4.4,2-6.64,2.84a13.6,13.6,0,0,1-6.93,1c1-1.83,1.88-3.42,2.71-5a9.79,9.79,0,0,0,1.27-2.88c.33-2.52.41-5.07.6-7.7-2.36-.77-4.18.41-6,1.52-2.35,1.45-4.63,3-7,4.45A28,28,0,0,1,97.4,24.3a8.86,8.86,0,0,1-.1-1.87,14.5,14.5,0,0,0-.45-6c-.56-2.5-2.1-3.49-4.12-4.1-1.13,1.09-2.43,1.88-3,3a2.48,2.48,0,0,1-3.23,1.49c-.86-.21-1.7-.42-2.37.41a2.8,2.8,0,0,0,.32.53,4.3,4.3,0,0,0,.61.52c2.89,2,3,2.3,2.16,5.61a25.19,25.19,0,0,1-1,3c-.19.47-.49,1.09-.89,1.24-2.37.88-1.7,2.77-1.63,4.49,0,1.12.49,2.48,0,3.31-2,3.56-1.82,7.57-2.66,11.36a2.34,2.34,0,0,0,1.08,2.73,2.53,2.53,0,0,1,1,2c-.28,2-.86,3.91-1.37,6.11a10.81,10.81,0,0,0,1.25,3.36,3.52,3.52,0,0,1,.73,2.67,19.23,19.23,0,0,0-.08,3.47c.22,1.6-.62,2.44-1.75,3.28-1.49,1.12-2.94,2.31-4.31,3.56-1,.89-3.89,2.17-3.27,3.5s6-.42,4.35,3.84c-2.53,1.54-5.5,2.37-6.16,5.87l2,.36c-.09.66,5-.06,5,.6.16,2.06-6.25,4.95-4.53,5.62,2,.76,10.94-4.64,6,3.85a5.22,5.22,0,0,1-1.08,1.07c-2.71,1.45-3.89,4-5,6.66a3.1,3.1,0,0,1-.26.47c-.92,1.34-.83,2.6.39,4,1.14-1.25,2.26-2.38,3.27-3.6,1.46-1.76,3.42-2.29,5.72-2.34-1.29,2.06-2.14,4.46-4.4,5.55a12.52,12.52,0,0,0-5.08,4.77c1.47,2.13-.78,3.87-1,6.39,2.65-2.26,4.93-4.2,7.29-6.23,1.1,1.3,2.94,1.39,3.49,3.54-.9,1.22-2.28,2.49-2.88,4.06-.76,2-.89,4.23-1.34,6.65l4.5.66a23.91,23.91,0,0,1,2.28-4.18,11.71,11.71,0,0,0,2.71-6.85c.42-4.89,3.73-7.32,7.62-9.8a14.59,14.59,0,0,0,.47,2.07,8.8,8.8,0,0,0,1.49,3,10.29,10.29,0,0,1,2.76,4.45c1.21,3.9,6.4,6.67,10.47,6,1-.14,2,0,2.92-.08,4.49-.62,9.25-.4,12.86-3.93a3.57,3.57,0,0,1,1-.43,39.33,39.33,0,0,0,4.77-2.39c2.35-1.58,4.77-3.15,6.34-5.61,1.09-1.73,2.13-3.49,3.1-5.29a3.3,3.3,0,0,0,.32-1.76C143.53,102.38,142.82,99.72,143.67,97ZM112.75,40.14l7.19-4.91a5.24,5.24,0,0,1,.44,5.83,37.69,37.69,0,0,1-2.9,4.45,3,3,0,0,1-3.08,1.12,1.67,1.67,0,0,1-1.69-1.94C112.78,43.2,112.74,41.7,112.75,40.14ZM131.1,67.85c-.32,1.07-1.78,7.37-2.23,8.89C128,74.68,122.2,72.29,131.1,67.85Zm-4.16-7.26c0,1.47-1.39,3.76-3.9,6.23-.12-1.44-3.93-1.94-4-3.2C120.42,62.81,125.53,61.39,126.94,60.59Zm-6.07,21.18c1.45-1.7,1.91-1.72,4-.25-1.37,3.89-6.26,5.53-11.65,7.17,1.59-1.49,2.6-3.49,5.08-4C119.29,84.44,120,82.78,120.87,81.77Zm-9-10.18c0-1.78,1.16-2.73,3.25-3.6a22.53,22.53,0,0,0,1.17,2c2.09,2.84,1.95,5.51-.51,8.09-.84.89-1.74,1.73-3,2.95A27,27,0,0,1,111.87,71.59ZM85.46,51.48c-.09.12-.3.16-.45.23-1.35-1.72-1.4-3-.06-4.4a11.12,11.12,0,0,1,2.44-2.06c3.44-1.93,5.14-5.08,6-8.69a5.42,5.42,0,0,1,3.19-3.81A32.64,32.64,0,0,1,97,36a7,7,0,0,1-2.14,5.73A52.27,52.27,0,0,0,85.46,51.48Zm9.9,3.42c-1.62,1.38-3.37,2.61-5.08,3.88-.19.14-.49.11-1,.21-.45-4.79,1.79-7.61,5.72-9.4C96.21,51,96.46,54,95.36,54.9Zm-2,18a23,23,0,0,0-2.42,1.73L87.81,71.2l6.78-7.58.53.35c.16,1.32.35,2.64.48,4C95.8,70,95.41,71.8,93.35,72.89ZM91.41,99.7c-.87-2-1.61-4-4.31-3.78.92-4.62,4.05-8.55,3.84-13.57l4.41-2.8c1.13,6.07.81,11.57,1.79,17.16ZM101.8,67.54c-.08-.59-.15-1.16-.22-1.73a43.85,43.85,0,0,0-.59-4.46,6.69,6.69,0,0,1,.87-5.84,2.93,2.93,0,0,0,.48-3L100,51.88a41.75,41.75,0,0,1-.72-4.41,2.82,2.82,0,0,1,.79-2.08c1.68-1.4,3.51-2.6,5.29-3.87l.38.5c-1.15,1.91-2,3.78-1.42,6.21a22.39,22.39,0,0,1,.16,5.56c-.05,3.81-.2,7.63-.22,11.45C104.2,66.81,103.54,67.52,101.8,67.54ZM104.09,94a6.07,6.07,0,0,1-1.29.27c-.19-2.28-.46-4.45-.52-6.63-.08-3.19,0-6.39,0-9.59,0-1.06-.06-2.23,1.69-2.44a126.39,126.39,0,0,1,1.71,17.44C105.15,93.38,104.64,93.73,104.09,94Z"/><path class="cls-1" d="M223.54,40.59c-.71,0-1.42,0-2.13,0S220,40.24,220,39.38c0-1.67-.2-3.33.67-5,1.28-2.42,2.38-5,3.44-7.48.77-1.83,1.34-4,.18-5.65-1.4-2-1.29-4-.83-6.08a2.43,2.43,0,0,0-.6-2.4c-1.76-2.08-3.58-3.92-6.51-4.19-.58,0-1.11-.53-1.7-.72a4.65,4.65,0,0,0-2-.49c-2.87.47-5.86.5-8.47,2.13-1.87,1.17-3.82,2.21-5.81,3.36l-2.15-2.43a1.87,1.87,0,0,0-.15,1.48c.4,1.43.3,2.52-1.29,3.28a11.81,11.81,0,0,0-2.67,2.21C190,19.36,188,21.3,186,23.21c-1.07-.82-1.12-2.51-2.89-3-.32,1.31-.68,2.55-.93,3.81-.57,3-1.62,5.94-1.51,8.88.16,4.5,1.12,9,1.76,13.46A1.74,1.74,0,0,0,184,47.89c.24,0,.44.27.65.42-.41.81-.71,1.39-1,1.91.22.28.3.49.44.55a4.39,4.39,0,0,1,3,3.59c.3,1.82,1.4,2.11,3.28,1.5s3.18-2.21,4.39-3.76c.32-.42.71-.79,1.06-1.19.26.55,0,.87.06,1.13.44,2.11-.76,3.19-2.28,4.34-2.19,1.65-4.19,3.56-6.23,5.4-1.18,1.06-2.29,2.2-3.37,3.25-2.46-.93-2.42-1-3.57-3-.32-.55-.94-1.25-1.48-1.3-1.43-.12-2.21-1-3.07-1.93-1.95-2.08-4.19-3.57-7.19-3.59a6.57,6.57,0,0,1-1.44-.32c-.73-3.77-.54-4.36,2.51-6,2-1,4.05-1.82,6.1-2.67,1.32-.54,2.73-.92,3.28-2.68-.87-1.21-1.78-2.5-2.77-3.89.59-.94,1.16-1.86,1.52-2.45l-3.7-3.1c-2.65-.36-4.68,2.78-7.93,2.56.25-1.49.51-2.79.66-4.1s.2-2.49.31-4l1.88,3.55c.47,0,.69.12.82,0,2.2-1.28,4.49-2.46,5.75-4.88.28-.52.73-1.25,1.21-1.33,2.39-.44,2.66-2.65,3.72-4.19.64-.93,1.17-1.93,1.83-2.84a10.78,10.78,0,0,1,1.26-1.31c.15-2.24-1.7-2.76-2.61-3.81.42-1.32,1.28-2.61,1-3.63s-1.65-1.62-2.54-2.42c-.19-.18-.29-.49-.51-.61s-.81-.51-1.15-.44c-1.73.34-2.61-.65-3.47-1.9-.67-1-1.15-2.21-2.77-2.43,0,.54-.11,1-.1,1.37.13,3.46.19,6.83-1.31,10.15a64.85,64.85,0,0,0-2.53,8.12c-.22.73-.41,1.48-.64,2.27-.33-.18-.56-.23-.62-.35-1-2.06-2-4.11-3-6.21-.78-1.73-2.73-2.3-4-1a6.24,6.24,0,0,0-.85,1.4c.34,1.12,1.07,2.2.8,2.91-.45,1.2.1,2.06.29,3.06a24.8,24.8,0,0,1,.6,3.14c.26,3.82.47,7.65.6,11.48a2.55,2.55,0,0,1-.7,1.83,15.54,15.54,0,0,1-2.64,1.64c-.6-3.38.21-6.86-2.67-9.63-2.56-2.45-4.61-5.44-8.88-5.54a9.06,9.06,0,0,0,1.73,8.34c1.3,1.58,2.87,2.91,3,5.18,0,.51.58,1,1,1.47,2.16,2.26,2.16,3.64-.16,5.64a8,8,0,0,0-2.66,5c-.49,2.88.16,5.59.36,8.57l5.36.38c0,1.93-1.13,3.27-2.18,4.67-2.26,3-4.6,5.91-6.7,9a7,7,0,0,0-1.26,3.93A44.88,44.88,0,0,0,146,85.92c1.41-.9,2.95-1.53,4-2.63a43.47,43.47,0,0,0,4.14-5.57,15.78,15.78,0,0,0,2.54-10.43c-.23-2.29-.25-4.52-.26-6.77,1.37-.51,2.69-.61,3.44-2.05a8.08,8.08,0,0,1,2.74-3.22c.22,4.33.43,8.4.6,12.46,0,.42,0,1.07-.27,1.24-1.67,1.1-1.25,2.7-.87,4.08,1.3,4.66.64,9.8,3.43,14.1.09.13,0,.35.08.52a2.85,2.85,0,0,0,3,2.47c.31-.48.79-.89.86-1.36a8.76,8.76,0,0,1,2.37-4.92,2.63,2.63,0,0,0,.26-3.24c-.21-.36-.57-1-.44-1.13,1-1.31.13-3.14,1.3-4.21a34.3,34.3,0,0,0-3.42-4.49,5.59,5.59,0,0,1-2-3.66c-.2-2.47-.27-5-.39-7.43,1.38.14,1.26,1.49,1.77,2.31,1.24,2,2.12,4.3,4.78,5,.58.15,1,.91,1.49,1.44a22.85,22.85,0,0,0,2.15,2.6c1.9,1.64,3.38,1,3.94-1.42a16.67,16.67,0,0,1,1-2.51l.7.07c.32,1.18.63,2.36,1,3.76l6.79-1.77c-.62,1-1.19,2.21-1.94,3.24-3.46,4.75-7,9.42-10.44,14.21a75.18,75.18,0,0,0-4,6.65c-.28.5-.6,1.35-.37,1.72,1,1.63,1.69,3.52,3.49,4.4,4.92-3.08,7.17-8.58,11.57-12.06,1.23,1.32,2.4,2.4,3.35,3.64,1.37,1.78,3.6,2.92,4,5.39a.69.69,0,0,0,.36.39c1.49.68,1.78,1.85,1.21,3.32,2.87,1.49,3.08,4.86,5.43,7.3.57-3.58,4-5.37,3.46-8.87,2.9-.33.16-2.66,2-4-1.44-1.21,1.44-.61.06-1.85-.5-.45-1.28-1.2-1.17-1.61.41-1.53-.73-2.28-1.3-3.33s-.88-1.89-1.29-2.85c-.25-.57-.34-3.33-.74-3.7.74-1.74.37-5-.39-6.77-1.95-4.45-1.68-9-.51-13.59a9.6,9.6,0,0,1,4.22-5.9,24.7,24.7,0,0,1,9.05-3.77c4.43-.87,8.8-2.1,13.14-3.17.16-2.28.3-4.21.44-6.17a16.94,16.94,0,0,0-3.2-1.22A19.87,19.87,0,0,0,223.54,40.59Zm-56.38,19c.05-.68.1-1.35.16-2.25C168.25,58.41,168,59.07,167.16,59.64Zm22.52-34.13a5.77,5.77,0,0,1,5.23-3.25,1.58,1.58,0,0,1,1.83,1.49c.47,3.81,1,3.8-3,5.15-.59.2-1.21.29-2,.47Zm1.83,18c-.29-1-.52-1.85-.84-3l5.91-4C197.3,40.61,196.22,42.06,191.51,43.48Zm4.08,22.14c0,1.29-.05,5.36,0,6.67-1.76-1-3.05-1.79-3-3.36C192.69,68,194.32,65.4,195.59,65.62Zm-2.41,17.21a11.54,11.54,0,0,1-1-.78c1.48-.75,5.63-3.08,5.63,5.81C197.31,87.61,193.51,83.05,193.18,82.83Zm11.91-34a49.34,49.34,0,0,1-.2-5.53c.05-.68.86-1.31,1.43-2.12,1.89,2,1.12,4,1.41,6Zm3.09-12.38a11.17,11.17,0,0,1-1.51.51l-3,.82c.12-1.68.11-2.9.32-4.08.3-1.72,1.69-2.29,3.32-1.48a10,10,0,0,1,1.2.55C210.17,33.9,210,35.66,208.18,36.49Zm-4.82-12.28c-1.44-2.77-1.19-3.61,1.26-4.63s4.7-1.92,7.2-2.94c.05,1.85.1,3.58.16,5.78C208.52,21.45,206,23.29,203.36,24.21Z"/><path class="cls-1" d="M220.23,71.52c.78-1.57,1.7-2.38,3.75-2.08.1-1.31.5-2.4.17-3.17a10.18,10.18,0,0,0-5.06-5.18,40.35,40.35,0,0,0-6.3-1.94,11.05,11.05,0,0,0-2.34-.48,5.18,5.18,0,0,0-4.87,2.08c-.15.21,0,.63,0,1L207,61.7c1.86,2.54,3.53,4.78,5.14,7.07a5.31,5.31,0,0,1,.67,1.71c.55,2,1.57,3,3.28,3.32A3.79,3.79,0,0,0,220.23,71.52Z"/><path class="cls-1" d="M34.62,80.47a5.45,5.45,0,0,0-3.87,2.18,5.56,5.56,0,0,1-4.64,3.17c2.4-6,5.72-11.52,6.67-18C29,66.19,26.41,69.34,23,70a28.22,28.22,0,0,1,5.08-10.94c-.75-2.76-1.38-5-1.94-7.15-.22-.84-.53-1.45-1.47-1.67-1.62-.38-3.22-.84-4.8-1.26-1.09,1.27-.91,3.58-2.81,3.41-.39,1.46-.71,2.67-1,3.89-.12.42-.29.84-.4,1.27a15.76,15.76,0,0,1-4.26,7.59,24.8,24.8,0,0,0-5.25,7.69c-1.31,3-2.09,6.25-3.72,9s.22,4.89.77,7.2c.28,1.18,1.56,2.11,2.38,3.16C7,94,7.57,94,9.08,92.36q4-4.47,8.1-8.85a7.45,7.45,0,0,1,1.53-1c-1.07,2.88-2.06,5.62-3.12,8.33a18,18,0,0,1-1.72,3.59,45.23,45.23,0,0,1-4.08,5.25,4,4,0,0,0-1,4.56A8.75,8.75,0,0,1,9,106.61c.17,3,.33,6,.48,9,2.74,1.65,4.81-1.18,7.51-.72.13,2.51.22,5.07.4,7.61.33,4.35.41,8.74,1.84,12.93.36,1,.58,2.19,2.22,2.62-.24-2.6-.51-4.93-.65-7.27a11.26,11.26,0,0,1,.32-2.63c.21-1.22.59-2.43.7-3.66.26-3,.32-6,.63-9.06.27-2.73-.3-4.93-2.94-6.23-.13-.06-.17-.3-.31-.59,2.63-6.17,8-9.79,13.22-14,.53,2.86,1,5.27,1.4,7.67l.59.16a14.61,14.61,0,0,0,1.28-2c.36-.8.47-1.71.81-2.53C38.57,93,38,88,37,83A2.78,2.78,0,0,0,34.62,80.47Z"/><path class="cls-1" d="M69.25,79.24a3.08,3.08,0,0,0-2.08-.8c-2.48.58-5.05,1.09-6.74,3.35-.23.31-.71.44-1.16.71-1.11-2.12-.69-4.25-.2-6.12a10.94,10.94,0,0,0-.7-8,2.61,2.61,0,0,1,.22-3c1.48-2,3-3.94,4.39-6,1.13-1.66,2.84-3.08,2.06-5.58A4.84,4.84,0,0,1,65.81,50c.39-.66.59-2,.21-2.42a3,3,0,0,0-2.59-.75A88.7,88.7,0,0,0,53,50.89a74,74,0,0,0-7.87,5c-4,2.7-8,5.44-12.38,8.38a19.43,19.43,0,0,0,2.13,1.87c1.5,1,2,1.69,1.18,3.21s-.28,2.57.69,3.74A5.53,5.53,0,0,0,40.47,75a7.57,7.57,0,0,1,2,.48c2.19,1,3.18.72,4.21-1.46.47-1,.89-1.92,2.23-2.1a4.74,4.74,0,0,1,.31,1c.29,3.63.5,7.28.84,10.91a6.26,6.26,0,0,1-3.37,6.64c-3.39,2-4.9,5.42-5.7,9-.62,2.74-.89,5.81,1.68,8.4a22.8,22.8,0,0,0,2.42-1.29c2-1.37,3.82-2.93,5.86-4.17a26.73,26.73,0,0,1,4.14-1.61A35.67,35.67,0,0,0,59,99.09a15.69,15.69,0,0,0,2.78-2,14.41,14.41,0,0,0,2.31-2.44c1.09-1.57,1.84-3.42,3.09-4.84a8,8,0,0,0,1.75-3.48c.46-1.71.92-3.4,1.48-5.51A6,6,0,0,0,69.25,79.24Z"/><path class="cls-1" d="M11,120.66c-.63-2.3-2.58-3.59-3.74-5.46a1.67,1.67,0,0,0-1.37-.48c-.26,0-.54.62-.68,1-.47,1.32-.89,2.66-1.31,4-1.16,3.65-2.69,7.23-3.36,11s-.92,7.82.75,11.57a16.32,16.32,0,0,0,1.49,2.17c1.08-1.8,1.59-3.33,2.62-4.28C8.86,137,11.22,133,13.51,129c1.39-2.41,1.19-3.34-.6-5.54A8.92,8.92,0,0,1,11,120.66Z"/><path class="cls-1" d="M36.35,120.09a5.15,5.15,0,0,0-1-2.27,5.81,5.81,0,0,1-2-4.7,69.76,69.76,0,0,0-.91-7c-2.31,0-4.15-.32-5.41-2.19-.29-.43-1.36-.32-2.08-.46l-.54.59a5.31,5.31,0,0,1,.81,5,2,2,0,0,0,.48,1.69c1.18,1.06,1.13,2.31,1,3.67a3.48,3.48,0,0,0,.05,1.44c.64,2,1.39,3.86,2,5.81.57,1.79,1.21,3.45,3.27,4a4.28,4.28,0,0,0,4.15-1c1.23-1,.79-2,.35-3.08C36.34,121.18,36.5,120.58,36.35,120.09Z"/><path class="cls-1" d="M415.31,95c-1.36-.36-3-1.21-4.08-.74-2.5,1.1-5.66-.26-7.72,2.24-.25.3-1,.31-1.53.27-3.51-.3-6.91.47-10.34,1.06a21.3,21.3,0,0,1-2.22.16c1.14-3.14,2.88-5.2,5.89-6,1.12-.31,2.22-.67,3.3-1.07a11,11,0,0,1,7.59-.46,4.91,4.91,0,0,0,1.58.21c2,0,2.79-.82,2.93-2.88a4.45,4.45,0,0,1,.29-1.51,1.53,1.53,0,0,0-.66-2.07c-.48-.35-1-.61-1.83-1.06,2.74-1.69,2.36-4.85,3.82-7.26,2.47,1.12,4.81,1.92,6.65,3.72,1.47,1.44,3,1,3.78-1,.67-1.85.71-1.88,2.64-1.67l1.75.13c-.64-1-1.11-1.58-1.45-2.25-.52-1-1.46-2.13-1.33-3.09.4-2.87-1.28-4.24-3.29-5.53-1.57-1-3.21-1.91-4.73-3-1.91-1.36-3.72-2.86-5.63-4.35a5.33,5.33,0,0,1,5.81-.74A25.07,25.07,0,0,0,419,59,2.83,2.83,0,0,0,422.82,57c.55-1.66,1-3.36,1.47-4.94-1.12-3.41-4.09-2.44-6.56-2.7,0-.22-.06-.44-.1-.65,1.66-.52,3.31-1.06,5-1.53,4.08-1.16,8.34-1.75,11.84-3.8.09-1.17.17-2.08.21-3a2.57,2.57,0,0,0-.08-1.28,6.28,6.28,0,0,1-.56-3.88,4,4,0,0,0-1.92-4.11,22,22,0,0,0-5.29-2.33,33.57,33.57,0,0,0-8.15-1c-7.84.22-15.67.71-23.5,1.12a3.67,3.67,0,0,1-3.17-.83c-.74-.7-2.07-.78-3.27-1.17-.2.66-.52,1.13-.41,1.45.72,2.09-.15,4-.64,5.94a3.2,3.2,0,0,0,.26,2.5,7.38,7.38,0,0,0,7,3.77c3.51-.59,7-1.19,10.25-2.89a6.4,6.4,0,0,1,1.55-.39c-.21,1-.4,2-.57,2.94a10.75,10.75,0,0,1-.28,1.83c-1.33,3.55-2.71,7.09-4.18,10.93-3.16-1.53-6-3-7.73-5.57a7,7,0,0,0-4.72-3c-.18,0-.42.23-.71.4l.92,2.3c-2.59,2.12-6,3-7.85,6-1.74,2.72-3.72,5.29-5.87,8.31-1.46.44-1.88.76-1.78,2.36s.52,3.43.79,5.17a4.64,4.64,0,0,0,1.39,0c2.61-1.13,5.25-2.22,7.79-3.5a9.57,9.57,0,0,0,2.87-2.35c1.35-1.63,2.49-3.42,3.84-5.32,1.91,1.78,3.76,3.44,5.5,5.2a2.3,2.3,0,0,1,.4,1.71c-.2,1.49-.57,3-.83,4.46A1.82,1.82,0,0,1,393.82,71c-.95,0-1.89.15-3.08.26.22-1.14.38-2,.56-2.85l-3.13-1.17a77.41,77.41,0,0,0-4.26,6.67,68.66,68.66,0,0,0-2.65,6.78c-2.17,1.3-2-2.29-4.12-.76.41,1.25.46,2.62,1.94,3.26s1.54,1.76.7,2.93c1.93,1.52,2,1.77,1,3.5-.79,1.35-1.49,2.76-2.29,4.26,6,.16,7.39,2.2,4.63,6.89-4.42-.65-9.19-.35-12.78-4.29.21,1.58.14,3.41,1,4.46,1.37,1.64,1.39,3.28,1.38,5.15a5.8,5.8,0,0,0,1.62,4.36l2.87-2.22c2.42.8,4.65,2,6.95,2.15a24.57,24.57,0,0,0,7.35-1.09c3.45-.85,6.83-2,10.24-3a5,5,0,0,1,4.42.77c-.21,6.94-1.31,13.87.22,20.84a9.62,9.62,0,0,0,2.11-3.06c.53-1.31.74-2.74,1.21-4.08.78-2.25,1.34-4.58,2.8-6.58a14,14,0,0,0,2-4c.91-2.87,1.45-5.87,2.42-8.72.7-2.07-.46-3.72-.72-5.57A1.44,1.44,0,0,0,415.31,95ZM411,47.2c0-1.51.29-3,.41-4.52.17-2.11.31-4.22.47-6.5,2.71-.67,5.44-1.19,8.47-.13a8.15,8.15,0,0,1-.63,1.69c-1.42,2.16-3,4.23-4.34,6.42-.93,1.49-1.67,3.12-2.53,4.77C411.23,48.89,411,48.76,411,47.2Zm-11.3,18.38,6.31,3.8c-.05.19-.09.37-.13.55l-6.77,0C399.38,68.25,399.52,67.18,399.74,65.58Zm2.11,13.94c-.91,2.54-1.72,3-4.67,2.7C397.68,79.65,398.24,79.32,401.85,79.52Zm-13.63,5.94c-2.36.49-3,.11-4.08-2.66,1.22-.31,2.25-.52,3.26-.84s2-.74,3-1.15C390.59,83.57,389.81,85.13,388.22,85.46Z"/><path class="cls-1" d="M473.36,56.4h0l-.08.07c1.26-2.33,2.14-5,3.9-6.87a8.27,8.27,0,0,0,2.12-5.23c.29-2.64-1-4.78-3-6.52-.85-.73-2.12-1.74-2.08-2.57.09-1.72-.58-2.41-2.21-2.67.64-1.08,1.15-1.93,1.67-2.78-1.09-.22-2.23-.27-2.63.26-1.11,1.47-2.61,3.15-2.69,4.81-.11,2.36-1.29,4-2.31,5.76q-4.12,7.17-8.52,14.19c-1.4,2.23-3,4.31-4.69,6.63-.51-2.06-.84-3.86-1.41-5.59a6.82,6.82,0,0,1,.66-5.89l1-1.56c-3.92.65-3.6.9-4.93,2.75L445.33,64.1c-2.75-2.9-4.89-6-5.23-10.06-2.26-.5-2.28-.51-3.05,1.31a8.49,8.49,0,0,0-.7,5c-.62,1.63-1.48,2.78-1.32,3.77a12.89,12.89,0,0,0,1.88,4.62c1.9,3,1.53,6,.69,9.23a19.84,19.84,0,0,1-2,.19c-1.68,0-3.57.75-4.81-1.2-.09-.13-.76.1-1.36.19.79,2.21,0,3.95-1.2,5.54a4.59,4.59,0,0,0-.54,4.31c.54,1.87,1.27,3.52,3.32,4.19.28.1.47.44.69.65-.17.26-.24.47-.36.52a19.09,19.09,0,0,0-9.05,7.92c-1.27,2.11-2.38,4.32-3.51,6.52-.15.3,0,.74,0,1.43,2.88-1.67,4.73-3.92,6.64-6.11,1.48-1.71,2.82-3.64,5.43-4.35A9.81,9.81,0,0,1,431,100q-.75,5.82-1.64,11.61c-.35,2.29-.9,4.54-1.24,6.83a16,16,0,0,0,.34,3.2c1.14-1.14,1.83-1.75,2.42-2.45.39-.46.51-1.32,1-1.52,1.23-.54,1.16-1.49,1.39-2.57.61-2.84,1-5.9,3.29-8a13.2,13.2,0,0,0,3-4c.91-1.8,2.13-3.45,3.32-5.33.36,2.21.73,4,.89,5.76a8.82,8.82,0,0,1-.4,2.62c-.18.77-.46,1.51-.67,2.19,2.8,2.3,4.42,2,5.48-1.14.37-1.09.75-2,2-2.24a1.27,1.27,0,0,0,.77-1c-.2-2.17.32-4.58-1.4-6.32a36.76,36.76,0,0,0-4.11-3.11c.16-.33.24-1,.6-1.22,1.85-1,3.7-2.16,5.69-2.54a4,4,0,0,0,3.44-2.75,19.22,19.22,0,0,1,1.29-2.23,4.83,4.83,0,0,0,.6-1.31c.56-2.53-.34-4-2.81-4.73-.88-.25-2-.17-2.25-1.61.53-.18,1-.33,1.49-.52,1.46-.57,3.27-.79,4.31-1.79,3.25-3.15,6.21-6.6,9.28-9.94a5.11,5.11,0,0,0,.45-.66l5.82-8.79h.07s0,0,0-.08Z"/><path class="cls-1" d="M441.5,124.86a17,17,0,0,0-2,3.7l-2.73-1.93c-2.43,2.77-4.84,5.27-6.95,8a13.18,13.18,0,0,0-3.21,8.82c.09,1.77,1.47,2.52,2.94,1.54a17.31,17.31,0,0,1,8.11-3c1.8-.18,4.39-2.44,4-3.69-.46-1.64.64-2.18,1.53-3.13-.73-2.23-1.45-4.4-2.16-6.54,1.22-.6,2.11-1,2.94-1.48a3.33,3.33,0,0,1,3-.31,8.8,8.8,0,0,0,7-.38h0c-2.54,5.1-5.5,9.81-7.54,15.5,1.23-.3,2-.26,2.45-.64,2.84-2.51,6-4.81,7.25-8.63a6.82,6.82,0,0,1,.94-1.89c1-1.3,2.19-2.45,3.06-3.83.53-.84,1.33-.92,1.64-1.91.81,0,1.06-.73,1.87,0,1-.9,2-2,3-2.23-.51,1.19-1,2.33-1.49,3.48a23.51,23.51,0,0,0-1.46,4c-.76,3.38-1.37,6.79-2,10.2a4.33,4.33,0,0,0-.18,1.58c.12.64.33,1.53.78,1.76s1.28-.18,1.82-.52.79-1,1.25-1.37.89-.81,1.3-.76c3.06.34,4.42-2.07,5.35-4,1.35-2.84,1.92-6.06,2.67-9.16.34-1.41,1-2.91-.17-4.35-.16-.21,0-.91.26-1.24l1.65,0c2.22,1.17,4.08,2.75,4.77,5.28a10.92,10.92,0,0,1-.15,7.07A28.33,28.33,0,0,0,479.19,146a2.91,2.91,0,0,0,3.5-1.33A2.59,2.59,0,0,1,485,143.2c3.06-.48,4.34-2.55,4.75-5.41.23-1.58.64-3.13.87-4.71.75-5.2-.76-9-6.62-10.28-.89-.2-1.8-.38-2.67-.66a5.25,5.25,0,0,0,2.56-2.36,27.47,27.47,0,0,0,1.38-3l-14.77-3c.48-1.39.87-2.65,1.35-3.87a2.48,2.48,0,0,1,.92-1.27c2.53-1.32,5.13-2.44,8.1-1.8.94.2,1.85.54,2.94.86l3.87-4.54a5.93,5.93,0,0,0-4.81-2c-1.69,0-3.39.12-5.08.1-2.06,0-3-.78-3.51-2.89,2.87-.89,5.74-1.27,8.53.12,1.8.89,2.27.5,3.5-1.09a10.48,10.48,0,0,1,2.14-1.75c.47-.36,1-.64,1.53-1-.35-.89-.93-1.63-.87-2.32.17-2-.88-3.37-2-4.77-.54-.67-1-1.4-1.65-2.3,1.64-.34,3-.69,4.39-.87s3-.18,4.46-.31a5.55,5.55,0,0,0,1.76-.44c1.29-.58,2.54-1.26,3.69-1.84a16.5,16.5,0,0,1,1-2.86c1.88-3.45,1.95-3.44,1.71-7.08a3.6,3.6,0,0,0-.82-2.11c-1.91-2-4-5.64-6-7.57a1.73,1.73,0,0,0-2.61.12c-.71.66-1.42,2.46-2.4,2a5.63,5.63,0,0,0-2.3-.38c-1.51,0-3,.07-4.54,0a3.22,3.22,0,0,1-1.92-.68c-1.47-1.43-2.12-3.75-4.57-4.1a.27.27,0,0,1-.18-.18c-.29-2.25-2.06-2.25-3.68-2.48a20.67,20.67,0,0,0,1,4.28,9.37,9.37,0,0,1,.51,6.23c-.25,1.13-.49,2.26-.79,3.38A21,21,0,0,0,474.5,82a31.71,31.71,0,0,1,.6,3.23c-2.43.32-4.59.61-6.76.87-.23,0-.48-.27-.73-.29a8.83,8.83,0,0,0-3.06-.11,21.84,21.84,0,0,0-3.69,1.83c.62,3.16-2.47,4.29-3.17,6.63,2.1,3.42,2.64,4.22,9.62,5.05-2.49-.17-3.49,1.74-5,3.47,2.08.9,3.54-1.63,5.73.13l-7.31,1.52a31.63,31.63,0,0,0-.34,4.13c0,.44.84.86,1.58,1.56l-6.71,3.45c-.46.23-1.19.41-1.31.77-.56,1.69-1.78,2-3.83,1.43,1,1.3,1.55,2.11,2.18,3M458.7,126c-.31-.27-1.13-.52-1.43-.78.34-.12.68-.24,1-.38a22.22,22.22,0,0,1,2.39-.35C460.05,125.11,459.39,125.41,458.7,126Zm7.55-12.47c-1,1.51-2.4.36-3.87.58.69-1.64,2.06-2.09,3.2-2.92C467,111.92,466.77,112.79,466.25,113.57Zm12.42-29.09c.58-.21,1.92-3,2.66-3.31C482.36,84.83,479.75,85.33,478.67,84.48ZM482.41,80c-.55-2.1-1.51-2.74-1.12-4.53.29-1.35.71-2.56-.09-4-.46-.88.12-2.38.42-3.56a1.52,1.52,0,0,1,1.2-.82c1.35,0,5.82-3,6,.38C487.89,72.88,486.79,76.2,482.41,80Z"/><path class="cls-1" d="M361,53.41c1.15-.53,2.35-.95,3.69-1.48.05,1,.09,1.58.13,2.48A15.72,15.72,0,0,0,368,53.8a3.94,3.94,0,0,1,3.34.12c.81.37,1.64.72,2.41,1.16a1.79,1.79,0,0,0,2.31-.11,40.9,40.9,0,0,0,.72-5,3.4,3.4,0,0,0-.84-2.56c-3.42-2.29-7-4.44-11.37-3.8-2.46.36-4.89.93-7.33,1.43a16,16,0,0,0-3.49.83,3.11,3.11,0,0,1-3.26,0,2.29,2.29,0,0,0-1.91-.3c-.78.51-1.29.17-2,0-1.75-.52-3.53-.94-5.82-1.54,2.1-2.32,4.16-4.62,6.26-6.9a2.52,2.52,0,0,1,.94-.47,15.25,15.25,0,0,0,2.39-1,2.32,2.32,0,0,1,2.47-.32,3.56,3.56,0,0,0,2,.35,2.94,2.94,0,0,0,1.95-1.06,3.18,3.18,0,0,0-.25-2.18c-.28-.81-.88-1.51-1.16-2.32-.6-1.72-1.08-2.11-2.82-2a21.54,21.54,0,0,1-3.4.14c-.75-.08-1.44-.72-2.19-.84a24.25,24.25,0,0,0-3.11-.1,40.82,40.82,0,0,1-4,5.32c-3.18,3.05-5.37,6.82-7.81,10.39-1.17,1.69-2.45,3.79-.89,6.5A24.88,24.88,0,0,0,334,47.07a2,2,0,0,1,2.79-.63c.74-.74,1.33-1.32,1.91-1.91a6.27,6.27,0,0,1,0,3.25c-.37,1.45-.84,2.88-1.3,4.3-1,3.05-2,6.1-3,9.12-1.32,3.77-2.74,7.49-3.2,11.54A46.42,46.42,0,0,1,329.3,80c-.84,3-1.77,5.89-2.65,8.84a.77.77,0,0,0,0,.52c.71,1.42,0,2.78-.09,4.17a10.2,10.2,0,0,0,.37,3.66c.46,1.37,1.68,1.48,2.68.41.67-.7,1.23-1.5,1.73-2.12l3.39.25c-1.11,2.1-2.19,4.16-3.58,6.82,1.91-.29,3.19-.44,4.45-.69s2.58-.68,3.89-.88c3.69-.56,7.4-1,11.1-1.55a5.87,5.87,0,0,1,2.37-.16c2.87.89,6.05.23,8.77,1.9a1.56,1.56,0,0,0,2.5-1c.24-1.12.84-1.35,1.79-1.59,1.35-.34,1.57-.93,1.16-2.34-.12-.41-.28-.81-.46-1.32l1.91-1.11c-.44-.39-.67-.78-.95-.81-1.69-.21-2.86-1.37-4.1-2.32a7.85,7.85,0,0,0-4.68-1.72c-3.15-.08-6.3-.12-9.51-.18a1.83,1.83,0,0,1,.06-.62c.79-1.93,1.58-3.87,2.46-5.77a1.62,1.62,0,0,1,1-.73,27.84,27.84,0,0,0,6.55-2c1.36-.6,2.79-1,4.21-1.55,0-1.32,0-2.38,0-3.31a4.92,4.92,0,0,0-5.39-1.65,8.6,8.6,0,0,1-2.7-.15c.4-1.24.71-2.07.92-2.93s.25-1.75.48-2.6a3.26,3.26,0,0,1,3.78-2.64c2.08.53,3.18,0,3.77-2a5,5,0,0,1,.75-1.18c-.8-2.14-2-3-4.2-2.4a10.86,10.86,0,0,1-3.12,0C358.11,55.5,358.62,54.5,361,53.41ZM344.36,89.16a11.36,11.36,0,0,1-3.6,2.55,19.19,19.19,0,0,1-4.31.78c.74-2.28,3.7-3.21,3-5.93l5.6-1.28A3.49,3.49,0,0,1,344.36,89.16Zm4.43-15.36c-2.05.61-3.51.21-4.64-1.46l5.71-.88C350.41,72.83,349.91,73.46,348.79,73.8Zm1-12.37a42.24,42.24,0,0,1-5.33.2c.48-2,.51-3.64,2.84-3.71.57,0,1.11-1.13,1.89-2l3.12.46a4.24,4.24,0,0,1,.42,1.05C353,60.25,352.55,61,349.83,61.43Z"/><path class="cls-1" d="M315,99.45c.51-2.44-.09-4.74-.73-7a8.15,8.15,0,0,0-3.79-4.88c-1.47-.94-2.56-2.47-4.26-4.19a9.41,9.41,0,0,0,1.43-.58c3.73-2.45,8-3,12.26-3a5.89,5.89,0,0,0,4.78-1.79c-.18-.74-.36-1.49-.53-2.22L319.25,73c1.46-1.58,2.43-3.38,4.59-4.54a9.08,9.08,0,0,0,4.66-5.84c.56-2.23.12-4.51.94-6.68.38-1-.25-1.85-1.52-2a11.45,11.45,0,0,1-2.59-.59c-1.6-.56-2.88-.75-4.25.82-.95,1.09-2.43,1.69-3,3.21a2,2,0,0,1-1.24.91,17.26,17.26,0,0,1-7.58.37c1.24-1,2.12-1.53,2.84-2.24s1.25-1.72,2-2.44c2-1.85,2.21-3.88.65-6-.34-.47-.65-1-1.12-1.66,1.21-.75,2.27-1.38,3.28-2.07,1.18-.8,1.38-1.68.72-2.65s-1.39-2.12-2.34-3.57a12.89,12.89,0,0,0-2.61.71c-3.74,1.86-7.41,3.85-11.14,5.71a14.35,14.35,0,0,0-4.81,3.88,9.4,9.4,0,0,0-2.38,7.28c.19,2.2.66,2.88,2.85,2.84.69,0,1.37-.32,2.07-.4a9.55,9.55,0,0,1,1.6.1c.05.18.11.35.16.53l-5.33,3.71c-.07.25-.05,1.18-.49,1.57-1.82,1.58-1.29,3.91-2,5.83a4.85,4.85,0,0,0,.13,2.63,1.5,1.5,0,0,0,2.24,1.08,26,26,0,0,0,3.23-1.87c1.71-1.11,1.53-1.73,3.6-2,.22,3.47-.66,5.4-3.14,6.17A26.64,26.64,0,0,1,294.45,77c-1.36.24-2.78.17-4.13.47s-2.82,1-4.26,1.34-2.45.91-2.79,2.48a8.17,8.17,0,0,1-1,2.13c-1.81,3.12-.29,6.22,3.27,6.61.48.06,1,.16,1.79.3L286,91.71c-1.61,1.78-3.34,3.45-4.78,5.35-1.25,1.66-.62,2.7,1.51,2.93.35,0,.71,0,1,0A37.28,37.28,0,0,1,304.58,88.7c.7,3.36,1.45,6.71,2.07,10.09A35.3,35.3,0,0,1,307,103c.07,1.09.08,2.33,1.39,2.55,1.1.18,1.78-.72,2.08-1.73a2,2,0,0,1,1.87-1.61C314.09,102.12,314.72,101,315,99.45Zm-5.77-32.34c2.16-.28,4.35-.4,6.72-.61-.46,2.31-.59,4.36-1.35,6.14-.37.87-1.85,1.48-2.95,1.79a21.79,21.79,0,0,1-4.15.38c0-1.93,0-3.67,0-5.41A2,2,0,0,1,309.27,67.11Z"/><path class="cls-1" d="M318.94,2.77c-1.14.48-2.35.81-3.52,1.2a41.15,41.15,0,0,0-11,5.82c-2.29,1.67-4.43,3.57-7.05,5.7a15.3,15.3,0,0,0,7.48.62,77,77,0,0,1,11.31-1.23,12.45,12.45,0,0,0,6.48-2c2.24-1.54,4.55-3.13,7.41-3.45,1.95-.22,2.53-1,2-2.75a7.72,7.72,0,0,0-1.41-2.19,18.91,18.91,0,0,1-2.1-2.61A3,3,0,0,0,325.37,0a5,5,0,0,0-2.91,1A17.81,17.81,0,0,1,318.94,2.77Z"/><path class="cls-1" d="M362.34,16.72c-.2,0-.47.14-.83.27,0,.35-.07.81.11,1,1.27,1.27.74,2.52.19,3.9a16.25,16.25,0,0,0-.73,3.35c-.2,1.2-.24,2.43-.5,3.61-.46,2.07-1.19,4.1-1.52,6.18a13.54,13.54,0,0,0,.69,6.93,49.86,49.86,0,0,0,4.91-3.89A28.56,28.56,0,0,0,367.54,34l.53.22c0,.61,0,1.22,0,1.93,1,.41,1.5.28,1.94-.53a12.86,12.86,0,0,0,1.52-8.92,20.89,20.89,0,0,1-.54-4.44c0-2.14-.45-3.06-2.54-3.73S364.38,17.29,362.34,16.72Z"/><path class="cls-1" d="M317,36.63c1.67-.57,3.28-1.35,5-1.81,5.19-1.39,8.29-5.24,11.11-9.37A4.43,4.43,0,0,0,333,20a8.85,8.85,0,0,1-1.75-3.8A7.72,7.72,0,0,0,330.3,14c-.72-1.2-1.47-1.34-3.05-.76l2.25,2.4-2,0c-.41,1.11-.77,2-1.06,2.94-.23.75-.69,1.61-.51,2.27.65,2.39-.49,3.95-2.14,5.33-2.38,2-4.86,3.87-7.21,5.91-1.3,1.14-2.41,2.5-3.71,3.87A3.91,3.91,0,0,0,317,36.63Z"/><path class="cls-1" d="M310.17,22.64q-2.3,5.82-4.55,11.67a17.44,17.44,0,0,0-.49,2.07c2,1.19,3.25.18,4.39-1.48,2.31,1.22,3.47-.41,4.52-2a28.07,28.07,0,0,0,3.84-9.75l-2.48-3c-.91-1.09-1.77-2.22-2.74-3.25a1.84,1.84,0,0,0-2.81-.05,8.8,8.8,0,0,0,.78.72c1.78,1.17,1.76,1.22.57,2.93A10.38,10.38,0,0,0,310.17,22.64Z"/><path class="cls-1" d="M300.83,22.38c-.44,1-.59,2-1.2,2.47-2.35,1.69-3.24,4.23-4,6.75s-.52,5.37-.09,8.54l3.92-2.42a8.93,8.93,0,0,0,4.26-6.93c.11-.93.21-1.72-.67-2.37s-.78-1.37-.4-2.36C303.44,24,303.3,23.81,300.83,22.38Z"/></g></g></svg>