<svg xmlns="http://www.w3.org/2000/svg" viewBox="0 0 452.6 65.09"><defs><style>.cls-1{fill:#fff;}</style></defs><g id="圖層_2" data-name="圖層 2"><g id="圖層_1-2" data-name="圖層 1"><path class="cls-1" d="M294.84,16.39a5.46,5.46,0,0,0,0,1,2.89,2.89,0,0,0,.22.92.87.87,0,0,0,.7.54h.08a.48.48,0,0,0,.22-.05c.17-.08.19-.3.2-.38l.59-7a.45.45,0,0,0-.13-.4.52.52,0,0,0-.31-.1.83.83,0,0,0-.71.32,2.87,2.87,0,0,0-.36.7,4.66,4.66,0,0,0-.19.89l0,.15a3.31,3.31,0,0,1-.12.7l-.12.12-.07.08-.06.08-2.88-.27a.52.52,0,0,0-.42.11.62.62,0,0,0-.18.3,2.69,2.69,0,0,0,.1.94.48.48,0,0,0,.35.18l3.17.32v.15Z"/><path class="cls-1" d="M.49,44.54A1.61,1.61,0,0,0,1,44.43c.2-.06.41-.14.63-.23L2.28,44l.44-.17h.19l0,.06L12.4,62.51c0,.09,0,.11-.06.16l-.52.28-.68.42a3.5,3.5,0,0,0-.61.51.85.85,0,0,0-.28.66c0,.33.23.38.32.39h0a.6.6,0,0,0,.29-.08l6.68-3.34a.51.51,0,0,0,.31-.41.91.91,0,0,0-.1-.4l-.18-.32-.12-.2-4.82-9.09a.35.35,0,0,1,0-.18.41.41,0,0,1,0-.14l1.23-.61a10.69,10.69,0,0,1,1.36-.54,7.37,7.37,0,0,1,1.39-.32,4,4,0,0,1,1.38.06,3.91,3.91,0,0,1,2,1,6.9,6.9,0,0,1,1.35,1.87A4.86,4.86,0,0,1,20,58.76l-.51.38c-.18.13-.36.26-.49.37l-.29.13a.94.94,0,0,0-.35.24c-.38.35-.24.65-.16.76a.52.52,0,0,0,.72.14l2.52-1.27a12.91,12.91,0,0,0,2.45-1.66,10.13,10.13,0,0,0,2-2.33,6.86,6.86,0,0,0,1-2.77,5.06,5.06,0,0,0-.56-3,5.43,5.43,0,0,0-2.09-2.34,5.21,5.21,0,0,0-3.13-.51l-.78.14-1.19.23c-.42.08-.79.14-1.14.18s-.43,0-.44,0,0,0,0-.13A1.59,1.59,0,0,1,17.7,47a1.7,1.7,0,0,1,.33-.38,3.25,3.25,0,0,0,.41-.43A7.54,7.54,0,0,0,19.26,45a7.66,7.66,0,0,0,.62-1.25,4.52,4.52,0,0,0-.16-3.84A4.87,4.87,0,0,0,18.13,38a5.64,5.64,0,0,0-2.08-.86,6.41,6.41,0,0,0-2.31,0,8.31,8.31,0,0,0-2.24.74L.26,43.64a.43.43,0,0,0-.24.52A.55.55,0,0,0,.49,44.54Zm11.89,5s-.08,0-.3,0a0,0,0,0,0,0,0L7.88,41.22s0-.12,0-.16.18-.21.22-.22a10,10,0,0,1,2.09-.8,4.67,4.67,0,0,1,1.92-.1,3.83,3.83,0,0,1,1.68.74,5,5,0,0,1,1.36,1.75,4.74,4.74,0,0,1,.41,4,5.68,5.68,0,0,1-2.88,2.88Z"/><path class="cls-1" d="M50.3,36.81A15,15,0,0,0,48.78,33,15.55,15.55,0,0,0,46.3,29.8a11.6,11.6,0,0,0-3.25-2.28,10.55,10.55,0,0,0-3.87-1,10.3,10.3,0,0,0-4.31.71,11.43,11.43,0,0,0-3.5,2.08,12.18,12.18,0,0,0-2.68,3.16,10.93,10.93,0,0,0-1.37,3.83,8,8,0,0,0,.42,4.1l1.85,5a8,8,0,0,0,2.31,3.33,10.92,10.92,0,0,0,3.51,2,12.36,12.36,0,0,0,4.08.71h.07a11.1,11.1,0,0,0,3.9-.68,13.08,13.08,0,0,0,2.2-1,9.5,9.5,0,0,0,1.93-1.56,10.22,10.22,0,0,0,2.28-3.45,11.83,11.83,0,0,0,.85-3.92A13.83,13.83,0,0,0,50.3,36.81Zm-9.46,13a5.42,5.42,0,0,1-2-.86,7.32,7.32,0,0,1-1.58-1.53,17.27,17.27,0,0,1-1.37-2.07,22.83,22.83,0,0,1-1.13-2.27c-.32-.74-.61-1.46-.85-2.12s-.46-1.26-.72-2.06a21.27,21.27,0,0,1-.62-2.41,19.43,19.43,0,0,1-.32-2.5,7.55,7.55,0,0,1,.19-2.31,4.81,4.81,0,0,1,.92-1.9,4.06,4.06,0,0,1,1.84-1.26,4.33,4.33,0,0,1,1.55-.29,3.74,3.74,0,0,1,1,.13A6,6,0,0,1,40,29.54a9,9,0,0,1,1.84,2,10.74,10.74,0,0,1,1.23,2.3l2.44,6.62A10,10,0,0,1,46.1,43,9.43,9.43,0,0,1,46,45.69a6.27,6.27,0,0,1-1,2.37,4.15,4.15,0,0,1-2,1.53A4.07,4.07,0,0,1,40.84,49.84Z"/><path class="cls-1" d="M78.58,15.82a1.55,1.55,0,0,0,.56.06,5.35,5.35,0,0,0,.65-.07l.66-.09c.22,0,.39,0,.53,0s.12,0,.14.09l4.29,20.5s0,.08-.16.14-.52.16-.82.24a7.81,7.81,0,0,0-.93.29,1.12,1.12,0,0,0-.7.74c-.06.33.14.43.21.45a.48.48,0,0,0,.18,0l.16,0L93.54,36a.69.69,0,0,0,.31-.15c.06-.06.18-.22,0-.5A.88.88,0,0,0,93.2,35a4,4,0,0,0-.78,0,6.82,6.82,0,0,0-.79.1l-.61.11h-.11a.7.7,0,0,1,0-.11c-.22-.82-.4-1.64-.56-2.44S90,31,89.78,30.21c-.71-3.2-1.4-6.49-2-9.79-.21-1-.42-2.05-.61-3.06s-.38-2-.59-3l0-.07c.35-.07.73-.14,1.12-.19A11.57,11.57,0,0,1,89,14a8,8,0,0,1,1.29.05,4.35,4.35,0,0,1,1.13.27,4.25,4.25,0,0,1,.88.52,4.07,4.07,0,0,1,.74.7A5,5,0,0,1,93.86,17a6.18,6.18,0,0,1,.35,1.77A5.38,5.38,0,0,1,94,20.57a4.07,4.07,0,0,1-.71,1.48,4.81,4.81,0,0,1-1.27,1.16,7.42,7.42,0,0,1-1.62.73A2.11,2.11,0,0,1,90,24a1.6,1.6,0,0,0-.55.15.69.69,0,0,0-.44.34.65.65,0,0,0,.21.79.6.6,0,0,0,.41.14,1,1,0,0,0,.34-.05,1.66,1.66,0,0,1,.21-.06,6.19,6.19,0,0,1,1.27-.08,2.61,2.61,0,0,1,1.16.36,4.24,4.24,0,0,1,1.72,1.84,17.84,17.84,0,0,1,1,2.48,15.75,15.75,0,0,0,1,2.31,5.31,5.31,0,0,0,1.32,1.67,4.22,4.22,0,0,0,1.88.86,6.68,6.68,0,0,0,2.59-.12c.2,0,.43-.08.69-.11s.54-.07.81-.12a6,6,0,0,0,.79-.18,2.09,2.09,0,0,0,.67-.32.85.85,0,0,0,.26-.22,1.12,1.12,0,0,0,.2-.33.63.63,0,0,0,0-.38.48.48,0,0,0-.36-.34,1.56,1.56,0,0,0-.6,0l-.79.13c-.28,0-.55.08-.81.11s-.38,0-.41-.06a3.24,3.24,0,0,1-1-1.09,8.39,8.39,0,0,1-.6-1.44c-.16-.5-.31-1-.45-1.59a10.49,10.49,0,0,0-.54-1.64,6.1,6.1,0,0,0-.92-1.54,5.13,5.13,0,0,0-1.58-1.28,2.53,2.53,0,0,0-.75-.21c-.3,0-.6-.1-.91-.17a4.19,4.19,0,0,1-.8-.24.58.58,0,0,1-.27-.18h0L95,23.3l.26-.18.18-.14a10.82,10.82,0,0,0,1.82-1.6,9.15,9.15,0,0,0,1.41-2A4,4,0,0,0,99,16.65a5.25,5.25,0,0,0-1.11-2.34A5.83,5.83,0,0,0,96,12.82a7,7,0,0,0-2.38-.67,8.27,8.27,0,0,0-2.53.12L78.58,14.89a.43.43,0,0,0-.38.47A.56.56,0,0,0,78.58,15.82Z"/><path class="cls-1" d="M105.52,10.34a1.32,1.32,0,0,0,.55.1,4.17,4.17,0,0,0,.71,0l.66-.05c.22,0,.38,0,.53,0s.12,0,.13.11l3.19,20.69c0,.06,0,.09,0,.1a.19.19,0,0,1-.1,0l-.59.11-.76.18a3.5,3.5,0,0,0-.71.28,1,1,0,0,0-.5.52.44.44,0,0,0,0,.35.32.32,0,0,0,.18.16.76.76,0,0,0,.21,0h.13l7.28-1.15a.61.61,0,0,0,.47-.32,1,1,0,0,0,.07-.48,2.33,2.33,0,0,0-.08-.46,1.7,1.7,0,0,1-.08-.3L113.61,9.49c0-.07,0-.15,0-.17a1.08,1.08,0,0,1,.32-.11,8.79,8.79,0,0,1,4.13.22A7,7,0,0,1,121,11.26a9.42,9.42,0,0,1,1.87,3.09,20.35,20.35,0,0,1,1,4,23.18,23.18,0,0,1,.26,2.87,13.73,13.73,0,0,1-.19,2.88,9.93,9.93,0,0,1-.86,2.67A6.63,6.63,0,0,1,121.31,29a4.92,4.92,0,0,1-1,.7,7.42,7.42,0,0,1-1.19.49,2,2,0,0,1-.55.14,2,2,0,0,0-.62.17c-.31.17-.47.33-.5.5a.36.36,0,0,0,.09.31.65.65,0,0,0,.65.22l2-.31a10.3,10.3,0,0,0,5-2.1,11.16,11.16,0,0,0,3.11-3.88,13,13,0,0,0,1.22-4.86,13.64,13.64,0,0,0-.68-5.05,12.71,12.71,0,0,0-2.58-4.41,10.72,10.72,0,0,0-4.49-2.95,7.31,7.31,0,0,0-2.26-.44,12.37,12.37,0,0,0-2.28.14l-11.6,1.78a.44.44,0,0,0-.4.47A.52.52,0,0,0,105.52,10.34Z"/><path class="cls-1" d="M133.41,6.29a1.89,1.89,0,0,0,.58.1h.64l.65,0a5.12,5.12,0,0,1,.54,0c.1,0,.12,0,.13.11l2.41,20.8a.13.13,0,0,1,0,.1.14.14,0,0,1-.1,0l-.62.07a6.58,6.58,0,0,0-.75.14,3.27,3.27,0,0,0-.72.28,1,1,0,0,0-.5.51.38.38,0,0,0,0,.34.28.28,0,0,0,.18.17.61.61,0,0,0,.24,0h.09l10.35-1.21a.68.68,0,0,0,.32-.11.35.35,0,0,0,.14-.2.44.44,0,0,0-.11-.33,1.06,1.06,0,0,0-.61-.38,3.17,3.17,0,0,0-.76-.11,6.51,6.51,0,0,0-.77,0l-.59.07s-.05,0-.1-.08a.44.44,0,0,1-.12-.18L141.5,5.85s0-.09.15-.14a8.5,8.5,0,0,1,1.1-.24,3.12,3.12,0,0,0,1.16-.39.51.51,0,0,0,.27-.5.41.41,0,0,0-.14-.31.42.42,0,0,0-.35-.09L133.5,5.36a.53.53,0,0,0-.35.17.41.41,0,0,0-.08.32A.48.48,0,0,0,133.41,6.29Z"/><path class="cls-1" d="M180.32,18.15a11.42,11.42,0,0,0,6.87,6.23,13.53,13.53,0,0,0,4.43.7h.72a25.34,25.34,0,0,0,2.75-.27,8.64,8.64,0,0,0,2.66-.86c.32-.18.66-.34,1-.5a5.2,5.2,0,0,0,1-.59.54.54,0,0,0,.25-.5l-.37-8.45s0-.05.08-.07a5.52,5.52,0,0,1,.58-.14c.25,0,.48-.1.72-.16a1.07,1.07,0,0,0,.67-.51.43.43,0,0,0,.06-.34.33.33,0,0,0-.17-.18.92.92,0,0,0-.33-.06l-9.9.43a.48.48,0,0,0-.33.14.4.4,0,0,0-.1.3.48.48,0,0,0,.32.49,2.82,2.82,0,0,0,.58.12l.8.08.81,0h.6s.07,0,.13,0a1.42,1.42,0,0,1,.2.22s0,0,0,.06l.4,9.13a.06.06,0,0,1,0,0,1.23,1.23,0,0,1-.6.16l-.76.05a7.69,7.69,0,0,1-3.78-.77,6.83,6.83,0,0,1-2.81-2.58,12.93,12.93,0,0,1-1.51-3.51,18.88,18.88,0,0,1-.62-4A19.17,19.17,0,0,1,185,8.78a13,13,0,0,1,1.15-3.65,6.8,6.8,0,0,1,2.45-2.78,7.18,7.18,0,0,1,3.57-1c.38,0,.78-.06,1.2-.11a1.5,1.5,0,0,1,1,.21,3.11,3.11,0,0,1,.24.22,2.19,2.19,0,0,1,.16.29,6.55,6.55,0,0,1,.35.93l.3,1c.15.48.32,1,.52,1.47a8.4,8.4,0,0,1,.44,1.43,2.8,2.8,0,0,1,.06.28c0,.08.07.36.48.32l1.19,0a.51.51,0,0,0,.52-.57l-.23-5.25c0-.44-.63-.65-1.09-.77a19.37,19.37,0,0,0-2.1-.39c-.77-.11-1.52-.18-2.26-.23s-1.21-.06-1.45,0a14.82,14.82,0,0,0-5.15,1.11,11.67,11.67,0,0,0-4,2.69,11.44,11.44,0,0,0-2.47,4.07,13.58,13.58,0,0,0-.72,5.22A13.61,13.61,0,0,0,180.32,18.15Z"/><path class="cls-1" d="M224.36,15.61l7.92,0h0a.52.52,0,0,0,.55-.55V13.69a.51.51,0,0,0-.55-.54l-7.92-.05h0a.51.51,0,0,0-.55.55v1.41A.5.5,0,0,0,224.36,15.61Z"/><path class="cls-1" d="M263.17,24.41a14.12,14.12,0,0,0,5.06,1.18c.47,0,.94,0,1.41,0s.91,0,1.36,0a8.57,8.57,0,0,0,2.73-.6c.33-.14.69-.28,1.06-.4a5.34,5.34,0,0,0,1.09-.49.55.55,0,0,0,.3-.46l.45-8.45s0,0,.08-.07l.59-.08c.25,0,.49,0,.74-.09a1.09,1.09,0,0,0,.71-.43.5.5,0,0,0,.09-.34.37.37,0,0,0-.15-.2.9.9,0,0,0-.33-.09l-9.89-.53a.42.42,0,0,0-.47.4.5.5,0,0,0,.27.52,3.43,3.43,0,0,0,.57.17c.25.05.51.11.79.15l.8.13c.27,0,.47.06.6.06a.15.15,0,0,1,.12.07,2,2,0,0,1,.18.23.08.08,0,0,1,0,.07l-.49,9.11a.07.07,0,0,1,0,.05,1.12,1.12,0,0,1-.61.1l-.76,0a7.72,7.72,0,0,1-3.69-1.13,6.85,6.85,0,0,1-2.55-2.85,12.63,12.63,0,0,1-1.16-3.64,18.41,18.41,0,0,1-.23-4.07,19.36,19.36,0,0,1,.65-4A13,13,0,0,1,264,5.15a6.91,6.91,0,0,1,2.72-2.53,7.31,7.31,0,0,1,3.65-.71c.39,0,.79,0,1.2,0h0a1.48,1.48,0,0,1,.91.3,1.65,1.65,0,0,1,.22.24,2.39,2.39,0,0,1,.13.3,8.16,8.16,0,0,1,.26,1c.06.28.11.55.17.83l0,.16c.11.49.23,1,.38,1.51a9.59,9.59,0,0,1,.3,1.47L274,8c0,.08,0,.35.45.37l1.18.07a.51.51,0,0,0,.58-.52l.28-5.25c0-.44-.53-.69-1-.87a19.12,19.12,0,0,0-2.05-.6C272.7,1,272,.86,271.24.75S270,.57,269.8.56a14.87,14.87,0,0,0-5.24.6,11.82,11.82,0,0,0-4.2,2.3,11.49,11.49,0,0,0-2.85,3.81,13.77,13.77,0,0,0-1.23,5.13,13.84,13.84,0,0,0,.66,5.14,11.59,11.59,0,0,0,2.39,4.09A11.89,11.89,0,0,0,263.17,24.41Z"/><path class="cls-1" d="M282.09,25.77l18,1.82h.06a.51.51,0,0,0,.53-.51l.27-5.54a.54.54,0,0,0-.11-.41.52.52,0,0,0-.39-.18l-.61-.07c-.54-.07-.71.18-.76.34l-1.69,4.52c0,.07-.05.08-.12.07l-2.45-.15-1-.06-1.46-.06c-.5,0-1-.05-1.39-.09a5.61,5.61,0,0,1-.68-.08l-.22-.12a.12.12,0,0,1,0-.07L292,4c0-.06,0-.07,0-.07h.08l6.17.55s.08,0,.12.1l.21.26a4.29,4.29,0,0,1,.15.63c.08.42.16.89.26,1.4s.17,1,.23,1.46.11.74.15.89a.56.56,0,0,0,.25.45.76.76,0,0,0,.42.15l.4,0,.35,0a.51.51,0,0,0,.6-.5L301.86,4a.54.54,0,0,0-.11-.42.55.55,0,0,0-.39-.18l-17.17-1.3a.4.4,0,0,0-.46.38A.45.45,0,0,0,284,3a3,3,0,0,0,1.19.35,5.87,5.87,0,0,1,1.15.2c.11,0,.12,0,.11.13l-1.85,20.86s0,.12-.3.13-.65,0-1,0a6.44,6.44,0,0,0-1,.05.7.7,0,0,0-.5.24.57.57,0,0,0-.08.4A.45.45,0,0,0,282.09,25.77Z"/><path class="cls-1" d="M305,27.85a.68.68,0,0,0,.32.11l10.34,1.24h.1a1,1,0,0,0,.24,0,.3.3,0,0,0,.18-.17.42.42,0,0,0,0-.34,1,1,0,0,0-.5-.52,3.27,3.27,0,0,0-.72-.28,7,7,0,0,0-.75-.14l-.59-.07s-.05,0-.09-.1-.07-.19-.06-.2l2.47-20.6s0-.09.17-.11a7.26,7.26,0,0,1,1.13,0,3.28,3.28,0,0,0,1.22-.11.52.52,0,0,0,.37-.43.36.36,0,0,0-.06-.33.42.42,0,0,0-.32-.17L308.2,4.41a.42.42,0,0,0-.53.37.49.49,0,0,0,.22.51,1.79,1.79,0,0,0,.54.23l.63.16.64.13a4.66,4.66,0,0,1,.52.11c.1,0,.11,0,.1.14l-2.49,20.78a.23.23,0,0,1,0,.1s0,0-.11,0l-.62-.07a4.9,4.9,0,0,0-.77,0,2.73,2.73,0,0,0-.76.1,1.1,1.1,0,0,0-.61.37.51.51,0,0,0-.11.33A.34.34,0,0,0,305,27.85Z"/><path class="cls-1" d="M320.56,29.75,328.44,31a.5.5,0,0,0,.43-.09.35.35,0,0,0,.1-.3.69.69,0,0,0-.25-.49,2.47,2.47,0,0,0-.61-.26l-1-.32c-.35-.11-.69-.21-1-.29l-.65-.18a1.17,1.17,0,0,0-.36-.08.42.42,0,0,1-.22-.08.66.66,0,0,1-.16-.11s0,0,0-.08l2.46-15.46c0-.16.16-1.34.16-1.71a7.66,7.66,0,0,1,.06-1,1.83,1.83,0,0,0,0-.33,2.39,2.39,0,0,0,.13.21,4.37,4.37,0,0,1,.39.78q.17.45.36.87.42.88.81,1.74l.11.23c.23.5.47,1,.71,1.51l.08.16q1.94,4,3.85,8c1.29,2.65,2.63,5.37,4,8.1a2.35,2.35,0,0,1,.18.35.87.87,0,0,0,.34.4,1.08,1.08,0,0,0,.39.16l.63.16L340,33l.4.08.16,0a.46.46,0,0,0,.21,0,.45.45,0,0,0,.26-.39l.84-4.53a.57.57,0,0,0,.06-.32l3-16.94s.07-.05.25-.06a5.7,5.7,0,0,1,.95.09,8,8,0,0,0,1,.1c.38,0,.66-.13.78-.41a.49.49,0,0,0,0-.4.5.5,0,0,0-.35-.21l-7.89-1.25c-.42-.07-.49.22-.5.28l0,.29c0,.12,0,.34.42.45a1.91,1.91,0,0,0,.37.09l.74.15c.37.08.75.18,1.15.3l.28.07.24.1c.11,0,.12.11.11.26v.06a8.77,8.77,0,0,1-.16,1.24c-.09.42-.17.84-.24,1.27,0,.22-.06.44-.07.66s0,.41-.07.62c-.2,1.53-.39,2.91-.59,4.22s-.41,2.85-.59,4.24a5,5,0,0,1-.12.79c0,.16-.09,1-.12,1.76a1,1,0,0,1-.18-.31,5.88,5.88,0,0,1-.28-.94,5,5,0,0,0-.33-1c-1.18-2.42-2.38-4.83-3.59-7.18L332.45,9c0-.07-.09-.19-.18-.35L332,8.19a2.37,2.37,0,0,0-.3-.47.67.67,0,0,0-.41-.29l-6.84-1.09a.45.45,0,0,0-.39.08.37.37,0,0,0-.13.3.62.62,0,0,0,.24.5,1.66,1.66,0,0,0,.36.16,1.37,1.37,0,0,1,.3.13c.2.07.4.16.61.25a3.16,3.16,0,0,1,.5.29,2.22,2.22,0,0,1,0,.62,1.79,1.79,0,0,0,0,.23,2.74,2.74,0,0,1-.1.74q-.09.42-.15.81l-.3,1.75c-.1.58-.2,1.16-.3,1.76l-1,6.39c-.07.42-.15.85-.24,1.28l-.27,1.3c-.35,1.8-.68,3.64-1,5.47a.33.33,0,0,1-.1.17c-.05,0-.08,0-.11,0-.29,0-.55-.07-.81-.08a3.24,3.24,0,0,0-.78.07.83.83,0,0,0-.61.5.46.46,0,0,0,0,.41A.49.49,0,0,0,320.56,29.75Z"/><path class="cls-1" d="M352.35,33a12.51,12.51,0,0,0,3,2.79,11.09,11.09,0,0,0,3.71,1.57,12.52,12.52,0,0,0,2.43.3h.22a9.59,9.59,0,0,0,2.24-.27,10.35,10.35,0,0,0,3.78-1.68,11.78,11.78,0,0,0,2.83-2.85,14,14,0,0,0,1.82-3.62,14.58,14.58,0,0,0,.76-4,15.71,15.71,0,0,0-.35-4,11.56,11.56,0,0,0-1.51-3.67,10.28,10.28,0,0,0-6.76-4.62,11.53,11.53,0,0,0-4.07-.14,12.44,12.44,0,0,0-4,1.23,10.85,10.85,0,0,0-3.22,2.48,8.12,8.12,0,0,0-1.85,3.69l-1.13,5.2a7.89,7.89,0,0,0,.15,4A11,11,0,0,0,352.35,33Zm3.32-4.3a23,23,0,0,1,.27-2.53c.13-.78.27-1.53.42-2.24s.31-1.32.51-2.13a22.44,22.44,0,0,1,.78-2.36,19.76,19.76,0,0,1,1.08-2.28,8,8,0,0,1,1.4-1.84,5,5,0,0,1,1.79-1.1,3.54,3.54,0,0,1,1.19-.19,5,5,0,0,1,1.05.12,4.16,4.16,0,0,1,2.23,1.23,6.13,6.13,0,0,1,1.29,2.19,9.07,9.07,0,0,1,.48,2.67,10.84,10.84,0,0,1-.21,2.6l-1.5,6.9a10.52,10.52,0,0,1-.89,2.44A9.4,9.4,0,0,1,364,34.35a6.58,6.58,0,0,1-2.1,1.48,4.11,4.11,0,0,1-2.52.19,4,4,0,0,1-1.95-1,5.45,5.45,0,0,1-1.23-1.81,7.16,7.16,0,0,1-.5-2.13A17,17,0,0,1,355.67,28.65Z"/><path class="cls-1" d="M374.62,40.09l7.66,2.24a.49.49,0,0,0,.43,0,.33.33,0,0,0,.15-.29.71.71,0,0,0-.19-.51,3.06,3.06,0,0,0-.57-.34l-.92-.43c-.33-.16-.66-.3-1-.42l-.62-.26a1.25,1.25,0,0,0-.35-.13.55.55,0,0,1-.21-.1.79.79,0,0,1-.14-.13.09.09,0,0,1,0-.09l4.39-15a3.32,3.32,0,0,0,.12-.64,3.06,3.06,0,0,1,.1-.41,2.54,2.54,0,0,0,.12-.51,11,11,0,0,1,.24-1.14,1.18,1.18,0,0,1,.07-.2.77.77,0,0,1,.07.16,4.35,4.35,0,0,1,.3.83c.07.3.15.61.24.91l.59,1.82c.18.57.36,1.14.55,1.71l2.91,8.66c.95,2.81,1.93,5.68,2.93,8.54a2.08,2.08,0,0,1,.13.37.83.83,0,0,0,.29.44,1.13,1.13,0,0,0,.37.21l.61.24c.22.09.42.17.62.23l.39.14.24,0h.12a.46.46,0,0,0,.31-.36l1.5-4.65a.81.81,0,0,0,0-.35l5.09-16.12s.12,0,.26,0a6.26,6.26,0,0,1,.92.21,6.16,6.16,0,0,0,1,.22.72.72,0,0,0,.82-.3.46.46,0,0,0,0-.41.48.48,0,0,0-.32-.24l-7.66-2.24c-.41-.13-.52.15-.53.21l-.09.28c0,.12,0,.34.37.51l.35.14.72.24c.35.12.72.27,1.1.44l.18.07c.36.15.35.17.34.25a6.57,6.57,0,0,1-.27,1c-.15.41-.28.82-.4,1.23-.06.21-.11.43-.15.65s-.09.4-.15.61c-.35,1.35-.73,2.73-1.12,4.11s-.76,2.75-1.12,4.13a4.78,4.78,0,0,1-.23.76c-.06.16-.31.94-.53,1.66a5.93,5.93,0,0,1-.1-.72,5.81,5.81,0,0,0-.2-1.06c-.86-2.55-1.75-5.09-2.65-7.58s-1.81-5-2.71-7.54c0-.08-.07-.2-.14-.38s-.12-.32-.18-.5a3.31,3.31,0,0,0-.24-.5.69.69,0,0,0-.37-.34l-6.65-1.95a.48.48,0,0,0-.4,0,.37.37,0,0,0-.16.27.62.62,0,0,0,.17.53,1.44,1.44,0,0,0,.34.21,1.46,1.46,0,0,1,.24.13l0,0,.57.33c.17.1.17.18,0,.63a3.67,3.67,0,0,0-.14.55,3.83,3.83,0,0,1-.19.74c-.1.27-.19.53-.26.78-.16.57-.34,1.14-.51,1.7s-.35,1.13-.52,1.7l-1.82,6.22c-.12.41-.25.82-.39,1.24l-.43,1.25c-.58,1.74-1.13,3.52-1.66,5.3,0,.07,0,.08-.15.07a2.32,2.32,0,0,1-.39-.07h0a.88.88,0,0,0-.29-.07h-.2v0c-.12,0-.25,0-.37,0a.8.8,0,0,0-.66.42.45.45,0,0,0-.08.41A.52.52,0,0,0,374.62,40.09Z"/><path class="cls-1" d="M408.5,50.65a14.05,14.05,0,0,0,4.43,2.73c.86.33,1.74.63,2.63.88a8.71,8.71,0,0,0,2.28.31l.49,0a10.48,10.48,0,0,1,1.13,0,5.79,5.79,0,0,0,1.19-.12.54.54,0,0,0,.43-.35l3.11-7.88s0,0,.1,0a4.41,4.41,0,0,1,.59.12c.23.06.47.1.72.14a1,1,0,0,0,.81-.19.39.39,0,0,0,.19-.29.29.29,0,0,0-.08-.23.7.7,0,0,0-.28-.19L417,41.85a.5.5,0,0,0-.36,0,.44.44,0,0,0-.22.24.5.5,0,0,0,.1.58A3.94,3.94,0,0,0,417,43l.7.4.73.37L419,44s.06,0,.1.1.06.18.09.28a.09.09,0,0,1,0,.07L415.84,53s0,0,0,0a1.39,1.39,0,0,1-.62-.1l-.72-.27a7.71,7.71,0,0,1-3.13-2.24,6.77,6.77,0,0,1-1.52-3.5,13,13,0,0,1,.05-3.83A18.52,18.52,0,0,1,411,39.14a19.24,19.24,0,0,1,1.89-3.63,13.31,13.31,0,0,1,2.53-2.86,6.87,6.87,0,0,1,3.38-1.54,7.21,7.21,0,0,1,3.68.48c.36.14.74.28,1.14.4a1.45,1.45,0,0,1,.8.59,1.09,1.09,0,0,1,.13.29,1.5,1.5,0,0,1,0,.33,8.14,8.14,0,0,1-.06,1l0,.18-.09.82c-.06.51-.11,1-.13,1.56a9.07,9.07,0,0,1-.18,1.48c0,.1,0,.2-.06.28s-.06.35.31.5l1.1.43a.5.5,0,0,0,.71-.31l1.93-4.89c.16-.41-.32-.85-.69-1.14a18.18,18.18,0,0,0-1.75-1.22c-.66-.4-1.32-.78-2-1.12s-1.08-.55-1.31-.64A14.79,14.79,0,0,0,417.19,29a12.06,12.06,0,0,0-4.71.85,11.52,11.52,0,0,0-3.92,2.71,14.58,14.58,0,0,0-3.79,9.56,11.48,11.48,0,0,0,3.73,8.49Z"/><path class="cls-1" d="M431.7,61.09a11.36,11.36,0,0,0,3.11,2.56,12.24,12.24,0,0,0,2.24,1,9.47,9.47,0,0,0,2.44.44l.74,0a10.27,10.27,0,0,0,3.37-.56,11.88,11.88,0,0,0,3.51-1.92,14,14,0,0,0,2.78-3A14.7,14.7,0,0,0,451.76,56a15.82,15.82,0,0,0,.81-4,11.56,11.56,0,0,0-.41-3.95,10.46,10.46,0,0,0-1.8-3.55A10.65,10.65,0,0,0,447,41.73a12,12,0,0,0-3.86-1.28,12.55,12.55,0,0,0-4.15,0A10.77,10.77,0,0,0,435.2,42a7.91,7.91,0,0,0-2.82,3l-2.56,4.67a7.85,7.85,0,0,0-1,3.92,10.92,10.92,0,0,0,.76,4A12.75,12.75,0,0,0,431.7,61.09Zm1.61-4.33a15.83,15.83,0,0,1,.66-2.39A22.67,22.67,0,0,1,435,52c.36-.74.71-1.42,1-2s.66-1.16,1.1-1.89a20.1,20.1,0,0,1,3.09-3.92,7.59,7.59,0,0,1,1.87-1.37,5,5,0,0,1,2-.55h.15A4.55,4.55,0,0,1,448,44.64a6.21,6.21,0,0,1,.61,2.48,8.93,8.93,0,0,1-.3,2.69,10.88,10.88,0,0,1-.94,2.43L444,58.42a10.67,10.67,0,0,1-1.54,2.09,9.06,9.06,0,0,1-2.13,1.69,6.38,6.38,0,0,1-2.42.82,4.1,4.1,0,0,1-2.47-.52,4,4,0,0,1-1.6-1.47,5.1,5.1,0,0,1-.66-2.08A6.88,6.88,0,0,1,433.31,56.76Z"/><path class="cls-1" d="M57.22,45.18l.2,0,6.27-1.74a.56.56,0,0,0,.38-.29.45.45,0,0,0-.07-.4.9.9,0,0,0-.83-.38,4.49,4.49,0,0,0-1,.13c-.34.09-.65.18-.92.27a2.49,2.49,0,0,1-.31.1l-.05,0a.88.88,0,0,0,0-.15c0-.08-.06-.15-.07-.19a1.39,1.39,0,0,1,0-.27c0-.19,0-.41.05-.65l.06-.68c0-.22,0-.37,0-.44,0-.44,0-.88,0-1.3s0-.86,0-1.31a5.35,5.35,0,0,0-.05-.55,1.21,1.21,0,0,1,0-.46.93.93,0,0,1,.13-.3.4.4,0,0,1,.15-.18l6.74-1.86a.06.06,0,0,1,.07,0,2.11,2.11,0,0,1,.52.6c.26.35.53.76.82,1.23l.83,1.35a10.56,10.56,0,0,0,.6.93,4.48,4.48,0,0,0,.44.56,1.17,1.17,0,0,1,.29.41l.07.23v.05l-.08,0c-.11.06-.28.12-.49.21l-.7.27-.67.29a1.25,1.25,0,0,0-.46.27.77.77,0,0,0-.2.49.34.34,0,0,0,.12.3.52.52,0,0,0,.46.05L79.2,39.1a.56.56,0,0,0,.36-.27.38.38,0,0,0-.12-.51h0a1.18,1.18,0,0,0-.75-.24,4.13,4.13,0,0,0-.78.08,5.16,5.16,0,0,0-.67.15.49.49,0,0,1-.24,0,1.08,1.08,0,0,1-.41-.36l-13-19-.16-.17a.43.43,0,0,0-.41,0l-2.44.67c-.11,0-.65.3-1,.46l-.12.06L58.13,43.7l-.27.11a3.82,3.82,0,0,0-.67.34.7.7,0,0,0-.38.56.41.41,0,0,0,.15.38A.39.39,0,0,0,57.22,45.18Zm3.69-11.06.65-10.32.15.2q.38.53.72,1.05c.32.49.62,1,.9,1.45s.58,1,.87,1.45c.38.64.74,1.3,1.08,2a21.37,21.37,0,0,0,1.16,2l.52.75,0,0-5.92,1.64-.08,0,0-.11A1,1,0,0,0,60.91,34.12ZM79.3,38.5Z"/><path class="cls-1" d="M149.66,4.39a1.13,1.13,0,0,0,.39.07,1.81,1.81,0,0,1,.32,0c.21,0,.43.06.65.11a3.15,3.15,0,0,1,.59.17l0,0,1.72,20.72-.41.06a6.88,6.88,0,0,0-.81.11,3.48,3.48,0,0,0-.75.25.81.81,0,0,0-.46.63A.44.44,0,0,0,151,27a.45.45,0,0,0,.37.14h.08l7.95-.65a.49.49,0,0,0,.39-.19.32.32,0,0,0,0-.32.69.69,0,0,0-.36-.41,2.32,2.32,0,0,0-.65-.11l-1-.08c-.37,0-.72,0-1.06-.05l-.67,0a1.58,1.58,0,0,0-.38,0h-.05L154.15,7.27l.1.15c.18.25.36.51.56.75L163,18.11c1.87,2.27,3.82,4.59,5.79,6.92a3.29,3.29,0,0,1,.26.31.88.88,0,0,0,.43.3,1.13,1.13,0,0,0,.41.06h1.73a.61.61,0,0,0,.33-.1c.06,0,.54-.19,1-.32l.17-.05-1.84-22V3l.21-.07a2.06,2.06,0,0,1,.44-.13,6.91,6.91,0,0,0,1-.15c.49-.11.63-.36.66-.57a.49.49,0,0,0-.13-.39.47.47,0,0,0-.39-.11l-8,.65c-.43,0-.43.33-.42.39l0,.29c0,.12.09.33.52.34h.38l.76,0c.38,0,.78,0,1.19,0a8.68,8.68,0,0,1,1.11.11,1,1,0,0,1,.33.1l1.27,15.23-.19-.13a1.78,1.78,0,0,1-.44-.4,5.55,5.55,0,0,1-.49-.84,4.67,4.67,0,0,0-.57-.92c-1.73-2.09-3.47-4.15-5.19-6.13s-3.48-4-5.23-6.08l-.26-.29-.35-.4a2.44,2.44,0,0,0-.4-.39.67.67,0,0,0-.48-.18l-6.9.56a.45.45,0,0,0-.36.18.37.37,0,0,0-.05.32A.66.66,0,0,0,149.66,4.39Z"/></g></g></svg>