<svg xmlns="http://www.w3.org/2000/svg" viewBox="0 0 157.74 128.82"><defs><style>.cls-1{fill:#fff;}</style></defs><g id="圖層_2" data-name="圖層 2"><g id="圖層_1-2" data-name="圖層 1"><path class="cls-1" d="M27.77,45.88a15.7,15.7,0,0,0-7.93,19c.41,1.28,2.45.73,2-.57a13.77,13.77,0,0,1,.58-10.13,14,14,0,0,1,6.39-6.45c1.21-.6.15-2.43-1.07-1.82Z"/><path class="cls-1" d="M20.4,64.49c-.36,3.11-1.17,6.1-.89,9.25.21,2.51.73,6.18,2.1,8.33a6.34,6.34,0,0,0,3,2.6c.84.33,1.31-2,.47-2.37a5.55,5.55,0,0,1-2.65-2.85,15.7,15.7,0,0,1-1.33-4.39A18.36,18.36,0,0,1,21,70c.2-1.86.63-3.69.84-5.55.11-.89-1.3-.89-1.4,0Z"/><path class="cls-1" d="M24.76,83.15c-1.3,4,1.93,8.43,4.12,11.26a12.6,12.6,0,0,0,6.27,4.77c1.67.61,2,.39,3.79.59.9.11.89-1.3,0-1.4C35.45,98,33.55,96.54,31.12,94a24.14,24.14,0,0,1-5-10.42c-.21-.88-1.2-1.27-1.35-.38Z"/><path class="cls-1" d="M38,99c-.13,3.2,3.49,5.12,5.73,7a25.06,25.06,0,0,0,4.54,2.47,43.54,43.54,0,0,0,5.43,1c2.17.31,4.34.53,6.53.66.9.05.9-1.36,0-1.41-2.29-.14-4.57-.36-6.83-.7a21.88,21.88,0,0,1-10.81-4.9S39.33,100.9,39.41,99c0-.9-1.37-.9-1.41,0Z"/><path class="cls-1" d="M59.73,109.73a12.07,12.07,0,0,0,8.64,4.93,32.83,32.83,0,0,0,6.11.15,36.81,36.81,0,0,0,5.14-.5,8.66,8.66,0,0,0,4.76-2.43c.62-.66-.38-1.66-1-1a8.13,8.13,0,0,1-4.93,2.2,46.26,46.26,0,0,1-6.45.39c-4,0-8.69-.82-11.06-4.46-.5-.76-1.72-.06-1.22.71Z"/><path class="cls-1" d="M84.16,112a10,10,0,0,1,3,1,19.29,19.29,0,0,0,3,.87,20.39,20.39,0,0,0,6.23.33,20.11,20.11,0,0,0,14.84-9.14c.5-.77-1.65-1.38-2.14-.62-4.13,6.39-11,9.61-18.45,8.09a19.11,19.11,0,0,1-3.16-.93,10.45,10.45,0,0,0-3.25-1c-.91,0-.91,1.36,0,1.41Z"/><path class="cls-1" d="M110.53,105.39a24.72,24.72,0,0,0,6-2,43,43,0,0,0,4.36-2,15.25,15.25,0,0,0,6-6.34A39.32,39.32,0,0,1,130,89.68c.52-.74-.7-1.44-1.22-.71A34.21,34.21,0,0,0,126,93.65a15.23,15.23,0,0,1-2.2,3.49,13.88,13.88,0,0,1-3.2,2.77,30.07,30.07,0,0,1-3.92,1.89,27.17,27.17,0,0,1-6.54,2.23c-.9.13-.52,1.49.37,1.36Z"/><path class="cls-1" d="M129.56,90c3.54-.52,5.92-3.11,8.11-5.72a12.36,12.36,0,0,0,1.57-2.1,12.27,12.27,0,0,0,.88-2.3c.55-1.84,2.29-4.43,2.21-6.38,0-.9-1.73-.92-1.7,0,.06,1.57-1,3.2-1.84,5.93a11.47,11.47,0,0,1-.76,2,12.23,12.23,0,0,1-1.47,2c-2,2.38-4.13,4.74-7.38,5.21-.89.13-.51,1.49.38,1.36Z"/><path class="cls-1" d="M141.38,74.5c4.09.93,7.63-3.21,9.25-6.48a16.13,16.13,0,0,0,1.24-11.11,1.06,1.06,0,0,0-2,.56,13.89,13.89,0,0,1-3.49,13c-1.11,1.12-2.71,2.39-4.4,2-1.32-.3-1.89,1.73-.56,2Z"/><path class="cls-1" d="M148.11,40a16.2,16.2,0,0,1,3.21,8.16,15.59,15.59,0,0,1-.17,4.42c-.13.7-.29,1.39-.43,2.09a4.75,4.75,0,0,1-.79,2,1.05,1.05,0,0,0,.37,1.44,1.08,1.08,0,0,0,1.45-.38c1-1.25,1.15-3.05,1.44-4.57a18,18,0,0,0,.25-5,18.23,18.23,0,0,0-3.51-9.23c-.34-.45-1.44-1-2-.73s-.19,1.34.15,1.8Z"/><path class="cls-1" d="M140.66,26.51c1.73,1.12,4.11,1.8,5.28,3.59,1.31,2,2.37,4.79,1.77,7.2a1.05,1.05,0,0,0,2,.56c.74-3-.35-6.15-1.88-8.67-1.4-2.3-4-3.11-6.13-4.5-1.15-.74-2.21,1.09-1.07,1.82Z"/><path class="cls-1" d="M150.29,63.58c-1,6.38-1.86,12.58-3.75,18.69-.41,1.3,1.63,1.85,2,.56,1.9-6.11,3.78-12,3.78-18.56,0-3.72-.26-1.29-.76-1.43a1.08,1.08,0,0,0-1.3.74Z"/><path class="cls-1" d="M139.13,89.6a11.23,11.23,0,0,0,5.28-2.41c1.48-1.07,3.29-2.42,4.05-4.15a1.08,1.08,0,0,0-.37-1.44,1.06,1.06,0,0,0-1.45.38,5,5,0,0,1-1.21,1.61,16.94,16.94,0,0,1-2.09,1.78A20.15,20.15,0,0,1,141,86.84a7.15,7.15,0,0,1-1,.45l-.47.14-.24,0c-.23,0,.16,0-.08,0a1.09,1.09,0,0,0-1.06,1.06,1.06,1.06,0,0,0,1.06,1Z"/><path class="cls-1" d="M140.63,73.48a49.6,49.6,0,0,1-2.41,13.26q-.84,2.94-1.85,5.84A23,23,0,0,1,133,99.52a7.84,7.84,0,0,1-6.82,3.21,1.06,1.06,0,0,0,0,2.11,9.37,9.37,0,0,0,7.22-2.67,18.23,18.23,0,0,0,4.35-7.12,89.44,89.44,0,0,0,4-13.59,39.8,39.8,0,0,0,1-8,1.06,1.06,0,0,0-2.11,0Z"/><path class="cls-1" d="M128.35,91.14c-1.33,4.37-2.5,8.79-3.79,13.18a23.47,23.47,0,0,1-2.66,6.76,12.94,12.94,0,0,1-4.71,4.07,17.87,17.87,0,0,1-7.12,2,1.08,1.08,0,0,0-1,1,1.07,1.07,0,0,0,1,1.06c4.7-.34,9.55-2.16,12.67-5.82a19.37,19.37,0,0,0,3.45-7.2c.68-2.25,1.32-4.5,1.95-6.76.74-2.6,1.87-5.11,2.25-7.78.64-4.55-1.64-1.86-2-.56Z"/><path class="cls-1" d="M83.61,111.71c.57,4.16,1.42,8.83,1.75,13a1.07,1.07,0,0,0,1,1c.54,0,1.26.35,1.21-.22q-.51-6.57-1.42-13.08a1.07,1.07,0,0,0-1.3-.74c-.61.17-1.37-.6-1.29,0Z"/><path class="cls-1" d="M86.4,126.37A22.78,22.78,0,0,0,106.25,123a21.31,21.31,0,0,0,4.22-4,1.09,1.09,0,0,0,0-1.49,1.07,1.07,0,0,0-1.5,0,20.76,20.76,0,0,1-16.7,7.8,19.17,19.17,0,0,1-5.31-.88c-1.3-.4-1.85,1.64-.56,2Z"/><path class="cls-1" d="M109.71,104.89c0,1.77.23,5.91,0,7.67a41.87,41.87,0,0,1-1,5.09c-.3,1.33,1.73,1.89,2,.56a51,51,0,0,0,1-5.49c.21-1.81,0-6,0-7.83,0-1.36-1.95,1-1.92,2.37Z"/><path class="cls-1" d="M58.56,109.7a118.47,118.47,0,0,0,1.64,14.78,1.06,1.06,0,0,0,1.3.74,1.07,1.07,0,0,0,.73-1.3,117.1,117.1,0,0,1-1.56-14.22,1.06,1.06,0,0,0-2.11,0Z"/><path class="cls-1" d="M60.58,124.87a23.7,23.7,0,0,0,4.32,2.91,12.1,12.1,0,0,0,5.41,1c1.92,0,3.84,0,5.77,0a14.2,14.2,0,0,0,5.29-.86,23.72,23.72,0,0,0,5.09-2.4,1.08,1.08,0,0,0,.37-1.44,1.06,1.06,0,0,0-1.44-.38,19.61,19.61,0,0,1-5.14,2.39c-2.06.72-4.27.58-6.43.6l-3.4,0a11.62,11.62,0,0,1-3.22-.3,15.3,15.3,0,0,1-5.12-3,1.1,1.1,0,0,0-1.5,0,1.07,1.07,0,0,0,0,1.49Z"/><path class="cls-1" d="M36.94,100.1c.23,5.14,1.53,10.11,2.68,15.1.3,1.32,2.34.76,2-.57-1.11-4.8-2.38-9.58-2.61-14.53-.06-1.35-2.11-2.75-2.11,0Z"/><path class="cls-1" d="M39.81,115.7c5.43,5.54,13.24,9.42,21,9.16,1.36,0,1.36-2.16,0-2.11-7.22.24-14.44-3.38-19.51-8.55-.95-1-2.44.53-1.49,1.5Z"/><path class="cls-1" d="M24.42,85.72c.58,3.2,1,6.42,1.46,9.63A54.53,54.53,0,0,0,28,104.81c.45,1.28,2.49.73,2-.56a53.63,53.63,0,0,1-2.09-9.46c-.5-3.21-.88-6.43-1.46-9.63a1.07,1.07,0,0,0-1.3-.74,1.09,1.09,0,0,0-.74,1.3Z"/><path class="cls-1" d="M27.88,104.84a10.4,10.4,0,0,0,4.27,5.46c2.18,1.57,4.61,2.81,6.93,4.16a1.06,1.06,0,0,0,1.07-1.83c-2.17-1.26-4.43-2.44-6.5-3.86a8.5,8.5,0,0,1-3.74-4.49,1.05,1.05,0,0,0-2,.56Z"/><path class="cls-1" d="M19.63,64.14c-1.95,6.39-2.21,8.78-1.86,13.28a63.89,63.89,0,0,0,1.14,7.67c.46,2.25.89,4.51,1.37,6.75.59,2.76,3.33,3.92,5.46,5.32,1.14.74,2.2-1.08,1.06-1.82-1.49-1-3.85-1.86-4.41-3.74-.29-1-.39-2-.6-3s-.47-2.23-.7-3.34c-.86-4-1.82-8.89-1-13,.42-2.2.07-1.11.65-3.74,0,0,.67-4.89-.31-4Z"/><path class="cls-1" d="M29.21,46.63a42.71,42.71,0,0,1,3.73-5.39C34,40,35.43,37.78,37.31,37.89c1.36.08,1.35-2,0-2.11-2.44-.14-4.18,1.94-5.59,3.63a46,46,0,0,0-4.33,6.15,1.06,1.06,0,0,0,1.82,1.07Z"/><path class="cls-1" d="M37.63,36.73c.38-2.9,2.38-5.31,4.51-7.17a31.1,31.1,0,0,1,8.5-5.13,1.08,1.08,0,0,0,.74-1.29,1.06,1.06,0,0,0-1.3-.74,33.63,33.63,0,0,0-9.57,5.79,14,14,0,0,0-5,8.54,1.06,1.06,0,0,0,1.06,1.05,1.07,1.07,0,0,0,1.05-1.05Z"/><path class="cls-1" d="M51.49,23.4c.38-2.13,2.14-3.46,3.91-4.49,1-.59,2.11-1.12,3.19-1.61a10.57,10.57,0,0,1,4.06-1.12c1.36-.05,1.36-2.16,0-2.12a12.81,12.81,0,0,0-4.73,1.24,35.18,35.18,0,0,0-3.73,1.88c-2.16,1.27-4.27,3.07-4.74,5.66a1.06,1.06,0,1,0,2,.56Z"/><path class="cls-1" d="M63.05,14.87c1.6-4.82,7.51-5.78,11.84-6.46a1.05,1.05,0,0,0,.73-1.29,1.07,1.07,0,0,0-1.3-.74A25.3,25.3,0,0,0,66,8.71,10.16,10.16,0,0,0,61,14.31c-.43,1.29,1.61,1.85,2,.56Z"/><path class="cls-1" d="M75.63,8.09a49.36,49.36,0,0,1,11.8-4.46c1.32-.32.76-2.36-.56-2a51.56,51.56,0,0,0-12.3,4.67c-1.2.64-.14,2.47,1.06,1.83Z"/><path class="cls-1" d="M87.7,3.59a98.09,98.09,0,0,1,26.17-1.06,1.06,1.06,0,0,0,1.06-1A1.08,1.08,0,0,0,113.87.42,99.78,99.78,0,0,0,87.14,1.56a1,1,0,0,0-.74,1.29,1.07,1.07,0,0,0,1.3.74Z"/><path class="cls-1" d="M113.5,2.68a58,58,0,0,1,5.92,3c.94.56,1.86,1.14,2.77,1.75.57.38,1.46.89,1.43,1.68-.05,1.35,2.06,1.35,2.12,0a3.47,3.47,0,0,0-1.44-2.74,25.7,25.7,0,0,0-3.07-2.06A57.11,57.11,0,0,0,114.56.86a1.07,1.07,0,0,0-1.44.37,1.06,1.06,0,0,0,.38,1.45Z"/><path class="cls-1" d="M125.05,10.37a11.42,11.42,0,0,1,8.78,7.31c.45,1.27,2.49.72,2-.57a13.53,13.53,0,0,0-10.26-8.77,1.08,1.08,0,0,0-1.3.74,1.05,1.05,0,0,0,.74,1.29Z"/><path class="cls-1" d="M134.57,18.9s.29.11.09,0l.24.12a6.37,6.37,0,0,1,.55.35,12.1,12.1,0,0,1,1.06.83c.34.3.67.61,1,.92.16.16.37.48.57.58s-.11-.25-.1-.13a.78.78,0,0,0,.16.24c.21.33.41.66.59,1a5.57,5.57,0,0,1,.88,2.55,1.06,1.06,0,0,0,2.11,0A7.27,7.27,0,0,0,140.64,22a8.75,8.75,0,0,0-1-1.7,16.08,16.08,0,0,0-1.69-1.61,8,8,0,0,0-2.76-1.77,1.05,1.05,0,0,0-.57,2Z"/><path class="cls-1" d="M51.05,32.1c9.06-7.94,18.63-15.26,28.31-22.41l8.31-6.1c.73-.53,0-1.75-.71-1.22-9.81,7.19-19.62,14.38-29,22.08q-4,3.26-7.86,6.65c-.69.6.31,1.59,1,1Z"/><path class="cls-1" d="M49.46,32.4a219.68,219.68,0,0,0,2.89,23.84c.15.89,1.51.51,1.35-.38A217.63,217.63,0,0,1,50.87,32.4c-.06-.9-1.47-.91-1.41,0Z"/><path class="cls-1" d="M52.86,57c7.79-1,15.64-1.32,23.47-1.83l6.78-.44c.9-.06.9-1.47,0-1.41-7.85.51-15.71.92-23.54,1.59-2.24.19-4.47.41-6.71.69-.88.11-.89,1.51,0,1.4Z"/><path class="cls-1" d="M83.59,53.82Q97.78,41.73,111,28.53q3.71-3.72,7.33-7.51c.63-.66-.37-1.66-1-1Q104.43,33.51,90.5,45.93q-3.91,3.49-7.91,6.9c-.69.59.31,1.58,1,1Z"/><path class="cls-1" d="M113.13,2.56a36.92,36.92,0,0,1,4.17,17.29.71.71,0,0,0,1.41,0,38.41,38.41,0,0,0-4.37-18c-.42-.8-1.63-.09-1.21.71Z"/><path class="cls-1" d="M82.55,54.36c6.21,12.28,11.65,25.07,15.14,38.4,1,3.65,1.75,7.33,2.34,11,.14.89,1.5.51,1.36-.37-2.17-13.66-7-26.82-12.64-39.38q-2.37-5.27-5-10.41c-.41-.81-1.62-.1-1.21.71Z"/><path class="cls-1" d="M118,18.84a65.88,65.88,0,0,1,24.62,23.84A64,64,0,0,1,147,51.37c.34.83,1.7.47,1.36-.37a67.34,67.34,0,0,0-21.18-27.85,66,66,0,0,0-8.42-5.52c-.8-.44-1.51.77-.71,1.21Z"/><path class="cls-1" d="M148.23,51.44a54,54,0,0,0-.09-14.08.7.7,0,0,0-1.35.37,52.87,52.87,0,0,1,0,13.71c-.11.89,1.3.88,1.41,0Z"/><path class="cls-1" d="M124.91,18.25A65,65,0,0,1,142.55,32.7a64.25,64.25,0,0,1,4,5.18c.51.74,1.73,0,1.22-.71a66.6,66.6,0,0,0-16.53-16.62A65.1,65.1,0,0,0,125.62,17c-.79-.44-1.5.78-.71,1.22Z"/><path class="cls-1" d="M125.87,17.28c-1.52-3-1.43-6.64-2.15-9.89-.2-.88-1.55-.51-1.36.38.76,3.39.7,7.06,2.3,10.23.41.8,1.62.09,1.21-.72Z"/><path class="cls-1" d="M124.68,15.06a9.82,9.82,0,0,1,1.89.53,14.88,14.88,0,0,1,1.94.79c2.23,1.15,4.44,2.32,6.66,3.48.81.42,1.52-.79.72-1.21-2.3-1.2-4.56-2.46-6.89-3.59a13.53,13.53,0,0,0-4.32-1.41c-.9-.09-.9,1.32,0,1.41Z"/><path class="cls-1" d="M89.14,102.33c3.82.17,7.48,1.55,11.18,2.42.88.21,1.26-1.15.37-1.36-3.83-.9-7.59-2.29-11.55-2.47-.91,0-.91,1.37,0,1.41Z"/><path class="cls-1" d="M101.25,104.48a44.68,44.68,0,0,1,7.48-8.3c.68-.59-.32-1.58-1-1a45.46,45.46,0,0,0-7.69,8.58c-.52.74.7,1.45,1.21.71Z"/><path class="cls-1" d="M108.14,96a104.34,104.34,0,0,1,10.9.32c.9.07.89-1.33,0-1.41a104.34,104.34,0,0,0-10.9-.32.71.71,0,0,0,0,1.41Z"/><path class="cls-1" d="M120,95.39c.37-1.1,1.47-3.55,2-5.39s-.07-4.36,0-6.4c0-.91-1.38-.91-1.41,0-.07,2.14.29,4.34-.31,6.4s-2,3.73-1.6,5.77c.18.88,1.53.51,1.36-.38Z"/><path class="cls-1" d="M121.18,83.63a60.74,60.74,0,0,1,11.2-1.84c.9-.06.91-1.47,0-1.41a64,64,0,0,0-11.58,1.89.71.71,0,0,0,.38,1.36Z"/><path class="cls-1" d="M132.82,81.31c1.4-5,1.72-10.21,2.18-15.34.08-.9-1.32-.9-1.41,0-.45,5-.77,10.1-2.13,15a.71.71,0,0,0,1.36.37Z"/><path class="cls-1" d="M134.41,67.26c3-.19,5.62-.11,8.58-.31.9,0,.91-1.46,0-1.4-3,.19-5.62.11-8.58.3-.89.06-.9,1.47,0,1.41Z"/><path class="cls-1" d="M143.72,66.73A24.69,24.69,0,0,0,144,53.85c-.21-.88-1.57-.51-1.35.37a23.36,23.36,0,0,1-.28,12.14.71.71,0,0,0,1.36.37Z"/><path class="cls-1" d="M143.77,54.17a7.37,7.37,0,0,0,4.43-2.66c.56-.7-.43-1.7-1-1a6.22,6.22,0,0,1-3.82,2.29c-.89.16-.51,1.52.38,1.36Z"/><path class="cls-1" d="M28,47a42.15,42.15,0,0,1-.71,6.45c-.14.88,1.22,1.26,1.36.37A44.21,44.21,0,0,0,29.43,47c0-.91-1.07-1.71-1.06-.81Z"/><path class="cls-1" d="M28.05,54.34a.71.71,0,0,0,0-1.41.71.71,0,0,0,0,1.41Z"/><path class="cls-1" d="M25.21,65A20.1,20.1,0,0,1,28.4,54.84a30.27,30.27,0,0,1,4-4.34A22.32,22.32,0,0,1,37.05,47a10.26,10.26,0,0,1,6.59-1.25c.89.16,1.27-1.2.37-1.36-4.4-.8-8.44,1.42-11.64,4.24a36.58,36.58,0,0,0-4.47,4.59,16.6,16.6,0,0,0-2.81,5.24A26.61,26.61,0,0,0,23.8,65c-.06.9,1.35.9,1.41,0Z"/><path class="cls-1" d="M43.06,44.92a55.7,55.7,0,0,0,3.52,15.22c.32.83,1.68.47,1.35-.38a54.08,54.08,0,0,1-3.46-14.84c-.08-.89-1.49-.9-1.41,0Z"/><path class="cls-1" d="M47.55,59.32l-7.84-1.64c-.88-.19-1.26,1.17-.37,1.35l7.84,1.65c.88.19,1.26-1.17.37-1.36Z"/><path class="cls-1" d="M39.81,58.42c.39-1.06.79-2.12,1.19-3.18s1-2,.49-3-1.17-2-1.76-2.91-1.25-2.07-1.88-3.11a.7.7,0,0,0-1.21.71q1.66,2.76,3.34,5.52c.09.15.3.37.32.55a1.75,1.75,0,0,1-.18.56c-.18.49-.37,1-.56,1.48l-1.11,3c-.32.85,1,1.21,1.36.37Z"/><path class="cls-1" d="M38.64,58c-2.79,2.44-4.39,5.86-5.62,9.3a66.33,66.33,0,0,0-3.24,12.32,42.06,42.06,0,0,0-.49,7.26.71.71,0,0,0,1.41,0,45.36,45.36,0,0,1,1.56-12.32A51.62,51.62,0,0,1,36,63.73,15.77,15.77,0,0,1,39.63,59c.69-.6-.31-1.59-1-1Z"/><path class="cls-1" d="M29.78,87.45c2.62.44,4.77,2.11,7.32,2.78a.71.71,0,0,0,.38-1.36c-2.55-.67-4.7-2.33-7.32-2.77-.89-.15-1.27,1.2-.38,1.35Z"/><path class="cls-1" d="M47.22,59.65C44.91,63,42,65.93,40.73,69.73c-1.35,4.12-1.63,4.88-2.74,9.08-.62,2.33-.68,8.92-.6,11.34,0,.9,1.44.91,1.41,0a45.87,45.87,0,0,1,1.06-11.89c1.11-4,1.29-5.61,2.83-9.42.84-2.06,4.47-6.66,5.75-8.48.52-.74-.7-1.45-1.22-.71Z"/><path class="cls-1" d="M37.39,89.74l2.7,5.32c.41.81,1.62.1,1.21-.71L38.6,89c-.41-.8-1.62-.09-1.21.71Z"/><path class="cls-1" d="M40.85,95.78a27.39,27.39,0,0,1,8.83,1,.7.7,0,0,0,.37-1.35,28.29,28.29,0,0,0-9.2-1c-.9,0-.9,1.46,0,1.41Z"/><path class="cls-1" d="M49.31,96.34a30.36,30.36,0,0,0,2.71,8c.4.81,1.61.1,1.21-.71A29.29,29.29,0,0,1,50.67,96c-.17-.89-1.53-.52-1.36.37Z"/><path class="cls-1" d="M52.84,105.07A15,15,0,0,0,61,102.35c.73-.52,0-1.74-.71-1.22a13.53,13.53,0,0,1-7.46,2.53c-.9,0-.91,1.44,0,1.41Z"/><path class="cls-1" d="M60.13,102.21a33.8,33.8,0,0,0,6,6.79c.68.59,1.68-.4,1-1a32.31,32.31,0,0,1-5.8-6.5c-.5-.75-1.72,0-1.21.71Z"/><path class="cls-1" d="M67.13,109.06l7.63-5.72c.72-.53,0-1.76-.71-1.21l-7.63,5.71c-.72.54,0,1.76.71,1.22Z"/><path class="cls-1" d="M74.23,103.38c2.73,1.72,5.09,4.11,8.15,5.26.85.32,1.22-1,.37-1.36-2.91-1.1-5.2-3.47-7.81-5.12-.76-.48-1.47.74-.71,1.22Z"/><path class="cls-1" d="M82.86,108.49a30.87,30.87,0,0,1,6.59-6.27c.74-.52,0-1.74-.71-1.21a32.26,32.26,0,0,0-6.87,6.48c-.55.71.44,1.71,1,1Z"/><path class="cls-1" d="M56.48,68.54a10,10,0,0,0,3.38,4.74.71.71,0,1,0,.71-1.22,8.25,8.25,0,0,1-2.73-3.89c-.28-.86-1.64-.49-1.36.37Z"/><path class="cls-1" d="M60.34,73.16a44.09,44.09,0,0,1,7.1-2.86c.86-.27.49-1.63-.38-1.36a47.32,47.32,0,0,0-7.43,3c-.81.41-.1,1.62.71,1.22Z"/><path class="cls-1" d="M67.14,70.24a17.88,17.88,0,0,1,5.58,3.29c.69.59,1.69-.4,1-1a19.72,19.72,0,0,0-6.21-3.64c-.85-.32-1.21,1-.37,1.35Z"/><path class="cls-1" d="M74.07,73.28l4.73-7c.51-.75-.71-1.46-1.21-.71l-4.73,7c-.51.75.71,1.46,1.21.71Z"/><path class="cls-1" d="M77.47,65.62c0,4.73,1.88,9.11,3.63,13.43A72.69,72.69,0,0,1,83.56,86c.72,2.45,1.33,4.94,2,7.42l2.23,8.68a.71.71,0,0,0,1.36-.37c-1.29-5-2.49-10-3.88-15a67.41,67.41,0,0,0-2.35-6.94c-.86-2.16-1.77-4.3-2.52-6.5a24.59,24.59,0,0,1-1.48-7.62.71.71,0,0,0-1.41,0Z"/><path class="cls-1" d="M57.44,68.43a68,68,0,0,1,20.2-2c.9,0,.9-1.36,0-1.4a68.85,68.85,0,0,0-20.57,2,.71.71,0,0,0,.37,1.36Z"/><path class="cls-1" d="M72.71,72.89a8.93,8.93,0,0,0,.75,2.82c.43,1,.82,2.05,1.19,3.1.81,2.26,1.55,4.55,2.24,6.85q2,6.81,3.38,13.79c.51,2.66.94,5.32,1.3,8a.7.7,0,0,0,.86.49.73.73,0,0,0,.5-.87,143.12,143.12,0,0,0-6.48-27.38C76,78.45,75.61,77.2,75.1,76a10.63,10.63,0,0,1-1-3.11c-.08-.9-1.49-.9-1.41,0Z"/><path class="cls-1" d="M56.05,67.41c-3.61,6.74-5.17,14.28-6.13,21.81-.28,2.14-.51,4.28-.72,6.42-.1.91,1.31.9,1.4,0,.74-7.33,1.62-14.75,4.11-21.74a43.16,43.16,0,0,1,2.55-5.78c.43-.8-.78-1.51-1.21-.71Z"/><path class="cls-1" d="M53.64,104.3a92.63,92.63,0,0,1,4.22-24.84,55.85,55.85,0,0,1,2.68-6.57c.39-.81-.82-1.52-1.22-.71C55.56,79.94,53.71,88.46,52.79,97c-.26,2.42-.44,4.86-.56,7.3,0,.9,1.36.9,1.41,0Z"/><path class="cls-1" d="M63.73,77.07c.61.7,1.22,3.59,1.83,4.3.45.51,1,1.26,1.79.88.58-.28.9-1.54,1.26-2.06s1-3.06,1.31-3.78a.72.72,0,0,0-.61-1.06l-5-.42c-.91-.07-.9,1.34,0,1.41l5,.42c-.2-.36-.41-.71-.61-1.06-.49,1-1.1,4.26-1.86,5.15-.06.07-.33.32,0,.12s.11-.14-.06-.33a16.6,16.6,0,0,1-.92-2,17.49,17.49,0,0,0-1.15-2.57c-.59-.68-1.59.32-1,1Z"/><path class="cls-1" d="M63.55,75.94c-1,9.06-3.89,16.62-2.93,25.78.09.89,1.5.9,1.4,0C61.07,92.56,63.94,85,65,75.94c.1-.9-1.31-.89-1.41,0Z"/><path class="cls-1" d="M66.09,81.65c-1,7.45-1.74,12.62-1.22,20.15a50.43,50.43,0,0,0,.83,6.25c.18.89,1.53.51,1.36-.37-1.44-7.2-1-14.65-.18-21.89.22-2.05.29-1.72.57-3.77a.73.73,0,0,0-.5-.86c-.32-.1-.52-.38-.57,0Z"/><path class="cls-1" d="M68.61,76.06c-.33,9,1.62,18,4.51,26.53.3.85,1.66.48,1.36-.38C71.62,93.84,69.69,84.94,70,76.06c0-.91-1.38-.91-1.41,0Z"/><path class="cls-1" d="M96.21,57.62A6,6,0,0,1,98,55.27l2.42-2.39q2.46-2.41,5-4.8,5-4.76,10.14-9.37,3-2.64,6-5.24c.68-.59-.32-1.58-1-1q-10.72,9.3-20.9,19.25L96.8,54.51a6.65,6.65,0,0,0-2,2.74.71.71,0,0,0,1.36.37Z"/><path class="cls-1" d="M121.22,33.91a10.35,10.35,0,0,1,7,3.77c.58.7,1.57-.3,1-1a11.72,11.72,0,0,0-8-4.17c-.9-.09-.9,1.32,0,1.4Z"/><path class="cls-1" d="M128.57,36.5l-7.08.31c-.9,0-.91,1.45,0,1.41l7.08-.32c.9,0,.91-1.44,0-1.4Z"/><path class="cls-1" d="M120.74,37c-5,5.92-11.92,10-16.06,16.68-.48.78.74,1.48,1.21.71C110,47.86,116.82,43.82,121.73,38c.58-.69-.41-1.69-1-1Z"/><path class="cls-1" d="M104.38,53.91l.27,7.47,1.06-.61a46.24,46.24,0,0,0-10.14-3.91.71.71,0,0,0-.37,1.36A43.65,43.65,0,0,1,105,62a.71.71,0,0,0,1-.61q-.12-3.74-.26-7.47c0-.91-1.44-.91-1.41,0Z"/><path class="cls-1" d="M94.16,57.17a121.65,121.65,0,0,1,10.33,30.64c.57,3,1,5.91,1.36,8.89.1.89,1.51.9,1.41,0a121.13,121.13,0,0,0-8.14-31.88q-1.71-4.24-3.75-8.36c-.4-.81-1.61-.1-1.21.71Z"/><path class="cls-1" d="M104.61,60.81c2.16,4.23,5,9.87,7.18,14.1a50.61,50.61,0,0,1,3,6.4,37.73,37.73,0,0,1,1.41,6.49q.62,4,1.25,8c.14.9,1.5.52,1.36-.37l-1.11-7.07a50.48,50.48,0,0,0-1.34-6.78,40.37,40.37,0,0,0-2.86-6.32l-3.3-6.45c-1.24-2.43-3.17-6.26-4.41-8.69-.42-.8-.94,1.31-.53,2.12Z"/><path class="cls-1" d="M104.9,54.9a56.42,56.42,0,0,1,7.59,10.64c1,1.83,1.84,3.72,2.69,5.6s1.73,3.79,2.48,5.73c.83,2.15,2.18,4.14,2.49,6.42a.7.7,0,0,0,.86.49.72.72,0,0,0,.5-.86c-.56-4.16-3-7.78-4.71-11.58a71.41,71.41,0,0,0-5.92-11.25,65.75,65.75,0,0,0-5-6.18c-.61-.68-.91,1-.31,1.71Z"/><path class="cls-1" d="M112.82,55a128.59,128.59,0,0,0,11.63-9.32c.67-.61-.33-1.6-1-1a125.44,125.44,0,0,1-11.34,9.1c-.73.52,0,1.74.71,1.22Z"/><path class="cls-1" d="M124.21,45.56a16.14,16.14,0,0,1-.62,4.78c-.19.75-.39,1.5-.56,2.26-.1.41-.18.82-.25,1.23a2.56,2.56,0,0,1,0,.27c.2,0,.23-.07.1-.1s-.44-.12-.57-.16c-3.18-.85-6.55-.57-9.78-.19-.89.11-.9,1.52,0,1.41a40.55,40.55,0,0,1,5.61-.36,17.38,17.38,0,0,1,2.7.25c.41.08.8.17,1.2.28a2.56,2.56,0,0,0,1.22.18c.9-.22.91-1.2,1.06-1.93s.41-1.72.63-2.57a18.32,18.32,0,0,0,.72-5.35c-.05-.9-1.46-.91-1.41,0Z"/><path class="cls-1" d="M111.87,54.71a75.16,75.16,0,0,1,10.18,20.8c.63,2.13,1.16,4.3,1.6,6.48.18.89,1.53.51,1.36-.37a71.86,71.86,0,0,0-8.3-21.88c-1.13-2-2.35-3.87-3.62-5.74-.51-.74-1.73,0-1.22.71Z"/><path class="cls-1" d="M122.66,55.21c2.54,2.17,4,5.54,5.09,8.63a39.47,39.47,0,0,1,1.36,4.78c.4,1.86.85,3.67,1.41,5.48a18.72,18.72,0,0,1,1,6.3c0,.9,1.38.9,1.41,0a18.81,18.81,0,0,0-.77-5.87c-.55-1.91-1.15-3.78-1.54-5.73a36.34,36.34,0,0,0-3.53-10.07,15.24,15.24,0,0,0-3.4-4.52c-.68-.59-1.68.41-1,1Z"/><path class="cls-1" d="M123.79,45.39c5.08,5.47,11.16,12.22,9.78,20.33-.15.89,1.21,1.27,1.36.38,1.48-8.71-4.66-15.8-10.15-21.71-.62-.66-1.61.33-1,1Z"/><path class="cls-1" d="M128.24,37.86c1.68,1.3,3.44,2.55,5,3.94a18.74,18.74,0,0,1,3.23,3.25c1,1.45,2.07,2.79,3.2,4.14a14.18,14.18,0,0,1,3,4.86c.27.87,1.63.5,1.36-.37a15.08,15.08,0,0,0-3-5c-.6-.73-1.22-1.43-1.82-2.16s-1-1.41-1.53-2.13a19.66,19.66,0,0,0-3.33-3.43c-1.63-1.44-3.43-2.71-5.15-4-.71-.55-1.71.44-1,1Z"/><path class="cls-1" d="M121.25,32.79a24.38,24.38,0,0,0-2.71-12.74.7.7,0,0,0-1.21.71,23,23,0,0,1,2.51,12c0,.9,1.45.22,1.5-.68Z"/><path class="cls-1" d="M83.48,54.08a68.87,68.87,0,0,1,11.06,3.38c.84.33,1.21-1,.38-1.36a70.22,70.22,0,0,0-11.06-3.38c-.89-.19-1.27,1.17-.38,1.36Z"/><path class="cls-1" d="M79.09,66.45a7.7,7.7,0,0,1,.75-2.93c.4-1,.81-1.89,1.22-2.84l2.49-5.81c.36-.82-.86-1.54-1.21-.71Q81,57.28,79.66,60.4c-.82,1.9-2,3.92-2,6.05a.71.71,0,0,0,1.41,0Z"/><path class="cls-1" d="M41.45,93.9C43.28,83.59,45.17,73,50.6,63.84a38.32,38.32,0,0,1,4.94-6.61c.62-.66-.38-1.66-1-1C47.36,63.9,44,74.11,41.86,84.19c-.66,3.1-1.21,6.22-1.76,9.34-.16.89,1.2,1.27,1.35.37Z"/><path class="cls-1" d="M53.91,56.87c1.3,3.66,1,7.67,2.71,11.21.39.82,1.61.11,1.22-.71C56.2,64,56.53,60,55.27,56.5c-.3-.85-1.66-.48-1.36.37Z"/><path class="cls-1" d="M48.56,60a18.44,18.44,0,0,1,5.56-2.63A.71.71,0,0,0,53.74,56a19.89,19.89,0,0,0-5.89,2.78c-.74.51,0,1.73.71,1.21Z"/><path class="cls-1" d="M44.57,45.51c-.26-5,3.85-8.83,6-13,.41-.81-.81-1.52-1.22-.71-2.26,4.45-6.45,8.36-6.18,13.73.05.9,1.45.9,1.41,0Z"/><path class="cls-1" d="M37.78,37.82A33.43,33.43,0,0,1,49.47,33c.89-.16.52-1.51-.37-1.36a34.27,34.27,0,0,0-12,5c-.77.48-.06,1.7.71,1.21Z"/><path class="cls-1" d="M51.22,31.41a52.75,52.75,0,0,1-1-7.19c-.11-.89-1.52-.9-1.41,0a58.46,58.46,0,0,0,1.08,7.57.71.71,0,0,0,1.36-.38Z"/><path class="cls-1" d="M49.57,24.91a.7.7,0,0,0,0-1.4.7.7,0,0,0,0,1.4Z"/><path class="cls-1" d="M49.78,25Q55,24,60.12,22.74c.88-.21.5-1.57-.38-1.35q-5.15,1.24-10.33,2.27c-.89.17-.52,1.53.37,1.35Z"/><path class="cls-1" d="M60.73,21.92a15.77,15.77,0,0,1,2.49-6.46c.52-.75-.7-1.45-1.22-.71a16.4,16.4,0,0,0-2.63,6.8c-.15.88,1.21,1.27,1.36.37Z"/><path class="cls-1" d="M62.77,16c3.36-.89,7.76-2.11,11.22-2.63.9-.13.52-1.49-.37-1.35A111.44,111.44,0,0,0,62.4,14.64c-.88.24-.61,1.22.27,1Z"/><path class="cls-1" d="M74.47,12.67c.43-1.74.12-3.53,1.38-4.81.63-.65-.36-1.65-1-1-1.42,1.46-1.25,3.46-1.74,5.44a.71.71,0,0,0,1.36.37Z"/><path class="cls-1" d="M24.51,65.76a9.71,9.71,0,0,1,2.74.18.7.7,0,0,0,.37-1.35,10.49,10.49,0,0,0-3.11-.23.7.7,0,0,0,0,1.4Z"/><path class="cls-1" d="M26,75.7c-.08-4.11,1.69-7.91,3.51-11.5q1.44-2.84,2.89-5.65a15.77,15.77,0,0,1,3.22-4.75c.67-.61-.32-1.6-1-1a16.54,16.54,0,0,0-3.35,4.86c-1,2-2.06,4-3.07,6-1.9,3.75-3.69,7.73-3.6,12a.7.7,0,0,0,1.4,0Z"/><path class="cls-1" d="M35,53.91a4.88,4.88,0,0,1,3,3.19.71.71,0,0,0,1.36-.37,6.41,6.41,0,0,0-4-4.18c-.85-.31-1.22,1.05-.37,1.36Z"/><path class="cls-1" d="M38.67,57.88a.71.71,0,0,0,0-1.41.71.71,0,0,0,0,1.41Z"/><path class="cls-1" d="M38.66,56.52c-2.07-.25-5.19,1.64-7.28,1.67a.71.71,0,0,0,0,1.41c2.09,0,5.21-1.93,7.28-1.67.9.11.89-1.3,0-1.41Z"/><path class="cls-1" d="M25.33,76.9a7.23,7.23,0,0,1,4.31,2.23c.61.68,1.6-.32,1-1a8.65,8.65,0,0,0-5.3-2.65c-.91-.09-.9,1.32,0,1.41Z"/><path class="cls-1" d="M89.42,5.21a3.71,3.71,0,0,1-.36,2.73c-.36.64-1.9,1.25-1.93.5a20.54,20.54,0,0,1-.07-2.16c0-.07-.18-.46-.15-.52l-.07.14s.1-.46.07-.23,0-.14,0-.18,0-.08,0,.11c0-.07,0-.14,0-.21-.18-.72,0-1,.8-1.17a1.44,1.44,0,0,1,1.73,1Z"/><path class="cls-1" d="M93.67,9.85a.92.92,0,0,0-.33.19,5.15,5.15,0,0,1-1.22.83,1.17,1.17,0,0,0,1.39,1.29h0a8.62,8.62,0,0,0,3.95-1.11c.73-.52.26-1.49-.39-2s-.93-.8-1.71-.25c-.07.05-1,.47-1,.51"/><path class="cls-1" d="M93.91,4.88A201.73,201.73,0,0,0,75.88,20c-1.32,1.24.68,3.23,2,2A197.3,197.3,0,0,1,95.33,7.31a1.46,1.46,0,0,0,.51-1.93,1.42,1.42,0,0,0-1.93-.5Z"/><path class="cls-1" d="M82.44,10a19.88,19.88,0,0,1,8.87,4.87c1.31,1.25,3.3-.73,2-2A22.78,22.78,0,0,0,83.19,7.3c-1.76-.44-2.51,2.27-.75,2.72Z"/><path class="cls-1" d="M74,18.23a23.52,23.52,0,0,0,8.54-5.61c1.3-1.27-.7-3.24-2-2-2.33,2.25-2.1,3.15-5.13,4.31-.71.27-3.39,1.79-3.17,2.58s.2,1.31.91,1Z"/><path class="cls-1" d="M84.41,21.52c1.37-1.08,2.38-4.44,3.75-5.52.6-.47,1.61-1,1.12-1.54a1.44,1.44,0,0,0-2,0c-1.38,1.08-3.77,3.36-5.14,4.43-.6.48-.28,2.17.21,2.66a1.52,1.52,0,0,0,2,0Z"/><path class="cls-1" d="M111.62,15.6c-2.09,2.4-5.13.1-7.58-2.19A5,5,0,0,0,98.93,12a15.5,15.5,0,0,0-4.87,3.13c-5.51,4.46-10.14,9.83-15.27,14.69a53.06,53.06,0,0,1-9,7.05,1.41,1.41,0,0,0,1.42,2.43C77.08,35.75,81.86,30.83,86.59,26c2.4-2.46,4.82-4.9,7.4-7.16a40.74,40.74,0,0,1,4.25-3.39,4.8,4.8,0,0,1,2-.88,2,2,0,0,1,1.6.65,29.5,29.5,0,0,0,4.55,3.56A6.93,6.93,0,0,0,110.05,20c1.82,0,8.3-3.58,6.08-5.89S113.71,13.21,111.62,15.6Z"/><path class="cls-1" d="M98.28,18.47c0,1.6,1.27,2.33,2.47,3.08,0,0,.39.27.28.18s.2.19.23.22c-.18-.18,0,0,.06.11-.1-.21,0,0,0,0a1.46,1.46,0,0,1-.2.33,2.3,2.3,0,0,1-1.07.41,25.35,25.35,0,0,1-6,.09,10.67,10.67,0,0,1-4.65-1.33A1.41,1.41,0,0,0,88,24,13.75,13.75,0,0,0,94,25.71a33.93,33.93,0,0,0,4,.14,15,15,0,0,0,3.06-.42,4.17,4.17,0,0,0,2.54-1.86,3,3,0,0,0,0-3.14,5.2,5.2,0,0,0-1.78-1.51c-.15-.09-.3-.17-.44-.27s-.47-.33-.21-.13a1.21,1.21,0,0,1-.16-.16q.15.23,0,0c.06.18.06.19,0,0,0,.2.12.18,0,0-1.23-1.67-2.81-1.82-2.81,0Z"/><path class="cls-1" d="M92.69,19.53l5,4.07,1.26,1a4.83,4.83,0,0,1,.81.71c.16.22.15.3,0,.59a2.4,2.4,0,0,1-.64.81c-.66.61-1.38,1.13-2,1.77a14.7,14.7,0,0,0-1.73,2.2,13.51,13.51,0,0,0-2,5.11,1.46,1.46,0,0,0,1,1.74,1.42,1.42,0,0,0,1.73-1,11.62,11.62,0,0,1,2.05-5,11.35,11.35,0,0,1,1.81-1.92,8.33,8.33,0,0,0,2.15-2.24,3.49,3.49,0,0,0,.14-3.29A7.61,7.61,0,0,0,100.17,22l-5.49-4.44a1.44,1.44,0,0,0-2,0,1.42,1.42,0,0,0,0,2Z"/><path class="cls-1" d="M76.77,31.86c2,2.44,7.24,5.28,10.4,5.36,1.81,0,1.81-2.78,0-2.82-2.44-.06-6.84-2.64-8.41-4.53a1.41,1.41,0,0,0-2,2Z"/><path class="cls-1" d="M54.85,32.58,67.35,39a56.49,56.49,0,0,1,9.73,5.86,22.91,22.91,0,0,1,4.42,4.54,1.45,1.45,0,0,0,1.93.5A1.42,1.42,0,0,0,83.94,48c-4.91-6.87-13-10.31-20.3-14l-7.37-3.77a1.44,1.44,0,0,0-1.92.51,1.41,1.41,0,0,0,.5,1.92Z"/><path class="cls-1" d="M53.73,36.12A80.34,80.34,0,0,1,54.55,52c0,.9,1.85,1,1.89.08a82.61,82.61,0,0,0-.87-16.25c-.14-.89-2-.6-1.84.29Z"/><path class="cls-1" d="M55.51,53.07A56.62,56.62,0,0,1,77.09,51c.9.09,1-2.22.09-2.3a57.56,57.56,0,0,0-22,2.14c-.87.26-.59,2.51.28,2.25Z"/><path class="cls-1" d="M59.57,29.34a88.9,88.9,0,0,0,9.6-7.59c.67-.62-.33-1.61-1-1a85.93,85.93,0,0,1-9.31,7.38c-.74.5,0,1.72.71,1.21Z"/><path class="cls-1" d="M98.33,5.45h11.72c.9,0,.91-1.83,0-1.83H98.33c-.9,0-.9,1.83,0,1.83Z"/><path class="cls-1" d="M108.72,4.55c.61,4.11.86,4,2,8,.25.87,2,.49,1.8-.39-1.15-4-1.4-3.91-2-8-.13-.9-1.49-.52-1.36.37Z"/><path class="cls-1" d="M86.55,45.65a9,9,0,0,0,5-3.95c.46-.77-1-2.19-1.5-1.41a7.15,7.15,0,0,1-4,3.27c-.86.27-.38,2.37.48,2.09Z"/><path class="cls-1" d="M151.94,19.22a1.21,1.21,0,0,0-1.76.12,1.11,1.11,0,0,0,.07,1.63,8.8,8.8,0,0,1,2.94,5.45,1.25,1.25,0,0,0,.79,1,1.4,1.4,0,0,0,.53.11,1.16,1.16,0,0,0,.73-.24,1,1,0,0,0,.38-1A11.34,11.34,0,0,0,151.94,19.22Z"/><path class="cls-1" d="M157.71,19.85l-.93-4.44a1.1,1.1,0,0,0-.74-.84,1.29,1.29,0,0,0-1.25.28,1.17,1.17,0,0,0-.37,1.16l.93,4.44a1.1,1.1,0,0,0,.73.85,1.15,1.15,0,0,0,.37.06,1.36,1.36,0,0,0,.89-.34A1.22,1.22,0,0,0,157.71,19.85Z"/><path class="cls-1" d="M8.94,54.88a10.33,10.33,0,0,0-3,9.07,1,1,0,0,0,.64.86,1.2,1.2,0,0,0,.42.08,1.41,1.41,0,0,0,.84-.3,1.25,1.25,0,0,0,.47-1.19,7.8,7.8,0,0,1,2.37-6.79,1.15,1.15,0,0,0,0-1.68A1.21,1.21,0,0,0,8.94,54.88Z"/><path class="cls-1" d="M3.12,57.49A1.18,1.18,0,0,0,2,58,11.15,11.15,0,0,0,.09,65.84a1.25,1.25,0,0,0,.77,1A1.31,1.31,0,0,0,1.4,67a1.22,1.22,0,0,0,.73-.23,1.05,1.05,0,0,0,.39-1,9,9,0,0,1,1.56-6.43,1.09,1.09,0,0,0,.11-1.11A1.33,1.33,0,0,0,3.12,57.49Z"/></g></g></svg>