<svg xmlns="http://www.w3.org/2000/svg" viewBox="0 0 507.81 220.23"><defs><style>.cls-1{fill:#fff;}</style></defs><g id="圖層_2" data-name="圖層 2"><g id="圖層_1-2" data-name="圖層 1"><path class="cls-1" d="M308.37,9.75,291.6,24.51c-2.45,2.15-5.67,4.36-6.78,7.44A8,8,0,0,0,286,39.18c3.45,5.07,10.19,5.85,16.08,4.77a42.75,42.75,0,0,0,17.28-7.48c5.54-4,10.85-9.84,11.07-16.67.08-2.47-4.08-2.76-4.16-.27-.17,5.09-3.87,9.35-7.82,12.6a38,38,0,0,1-14.18,7.35c-4.36,1.18-10.5,2.2-13.94-1.35a5.08,5.08,0,0,1-1.63-4.66A7.06,7.06,0,0,1,291,30.36c1.19-1.08,2.42-2.13,3.63-3.2L311.06,12.7C313,11,310.32,8,308.37,9.75Z"/><path class="cls-1" d="M322.38,34.11a134.48,134.48,0,0,0,20.55,1.38c6.06,0,13.38-1.81,15.18-8,.69-2.38-3.25-3.66-3.95-1.25-1.49,5.1-8.18,5.47-12.88,5.34a150.11,150.11,0,0,1-18.6-1.35,2.06,2.06,0,0,0-2.23,1.79,2,2,0,0,0,1.93,2.06Z"/><path class="cls-1" d="M349.51,33.7a19.15,19.15,0,0,0,3.77,9.86c2.37,3.22,5.7,5.66,8.57,8.46,2.29,2.24,4.46,4.87,4.95,8,.45,2.88-.89,5.74-2,8.37-1.36,3.26-2.6,6.61-2,10.15.45,2.45,4.55,1.74,4.11-.71-.52-2.84.71-5.59,1.8-8.19,1.18-2.83,2.41-5.79,2.28-8.88-.34-7.66-7.48-12.05-12.5-17.26A16.82,16.82,0,0,1,353.61,33c-.08-1-1.42-1.71-2.44-1.54a2,2,0,0,0-1.66,2.25Z"/><path class="cls-1" d="M310.19,13.08c11.61-1.79,22.73-5.57,34.25-7.73,5.46-1,11.15-1.86,16.73-1.36a18.69,18.69,0,0,1,7.24,2,12.31,12.31,0,0,1,5.07,5.34,52.8,52.8,0,0,0,4,7,34.88,34.88,0,0,0,6.05,6c4.38,3.58,9.21,6.62,13.32,10.48,8.56,8.07,14.87,17.87,22.65,26.54A152.87,152.87,0,0,0,451,88c2.21,1.41,4.58-1.77,2.36-3.18A149.31,149.31,0,0,1,424.8,61.2c-8.16-8.71-14.61-18.69-23.05-27.17-4.18-4.2-9-7.59-13.75-11.19a41.22,41.22,0,0,1-6.06-5.42,29.68,29.68,0,0,1-4.17-6.78A18.42,18.42,0,0,0,372.68,4,18.35,18.35,0,0,0,365.37.75c-5.58-1.22-11.42-.76-17,0-13.2,1.88-25.74,6.47-38.91,8.5-2.65.41-1.88,4.2.77,3.79Z"/><path class="cls-1" d="M250.33,100.65a34.77,34.77,0,0,1,16.84,0c6,1.32,11.79,3.22,17.67,4.84,6.71,1.85,13.4,4.1,18.94,8.16A35.41,35.41,0,0,1,314.22,126a32.33,32.33,0,0,1,3.62,17.36c-.19,2.48,4,2.76,4.17.28.9-11.49-4.17-23.27-13.34-31.08-5.4-4.6-12-7.51-18.9-9.62-3.38-1-6.83-1.89-10.23-2.88-3-.88-6.06-1.79-9.13-2.55-6.83-1.68-14-2.51-20.85-.61a2,2,0,0,0-1.66,2.25,2.1,2.1,0,0,0,2.43,1.54Z"/><path class="cls-1" d="M248.6,97.28c-1.77,1.56-2.08,4.09-2.25,6.23a40.46,40.46,0,0,0,.19,7.78,9.17,9.17,0,0,0,.83,3.32,10,10,0,0,0,3,3.19c2,1.51,5.1,2.68,6.1,5s.66,5.32,1.45,7.88a8.45,8.45,0,0,0,2.16,3.73c.67.64,1.51,1.11,2.2,1.73a3.22,3.22,0,0,1,.93,2c.71,3.93,1.16,7.92,1.74,11.88.14,1,.09,2.24.94,3a21.7,21.7,0,0,1,1.81,1.34,6.6,6.6,0,0,1,1.8,3.4c.3,1.63-.28,2.93-.84,4.44a7.16,7.16,0,0,0-.52,2.66,11.13,11.13,0,0,0,.79,3,11.41,11.41,0,0,1-1.28,9.1,2,2,0,0,0,2.1,3c2-.26,4.15-1.47,6.16-.88l-1.37-1.47a13.94,13.94,0,0,1,.15,8.43c-.45,1.5.77,2.63,2.36,2.52a44.82,44.82,0,0,0,22.4-7.77c2.15-1.49-.55-4.43-2.7-2.95a40.74,40.74,0,0,1-20.47,6.93l2.36,2.52a17.16,17.16,0,0,0,0-10.23c-.64-2-3.08-2.17-5-1.93-1.6.19-3.09.83-4.68,1l2.1,3a15.5,15.5,0,0,0,2.36-7.64,13.68,13.68,0,0,0-.28-3.88c-.31-1.26-1.11-2.38-.72-3.69a28.61,28.61,0,0,0,1.22-3.81,8.79,8.79,0,0,0-.25-3.78,10.46,10.46,0,0,0-5-6.31l.87,1.24-1.17-8c-.36-2.49-.41-5.26-1.37-7.62a6.79,6.79,0,0,0-2.35-2.79,6.55,6.55,0,0,1-2.06-2,13.87,13.87,0,0,1-1.06-5.05,12.41,12.41,0,0,0-1.54-5.41,14.41,14.41,0,0,0-4.51-4c-1.37-.89-3.07-1.77-3.95-3.13-.73-1.12-.68-2.8-.77-4.07a35.8,35.8,0,0,1,0-5.48,13.22,13.22,0,0,1,.36-2.34,9.11,9.11,0,0,1,.33-.92c.22-.52-.13.22,0,0s.47-.48.06-.11c1.93-1.71-.76-4.67-2.7-3Z"/><path class="cls-1" d="M257.59,99.82c4.33,2.5,9.06,4.38,13.31,7,2,1.26,4.56,2.75,4.57,5.23a8.48,8.48,0,0,0,.3,3.13,6.89,6.89,0,0,0,2.23,2.75c1.63,1.32,3.68,2.36,5,4a2.82,2.82,0,0,1,.64,2.38c-.27,1.28-1,2.29-.55,3.62a6.94,6.94,0,0,0,1.67,2.4,17.21,17.21,0,0,1,2.29,3.23,16.72,16.72,0,0,1,2,6.61,20.85,20.85,0,0,1-1.18,7.58c-.66,2.25-1.12,4.63.08,6.8.62,1.1,2.51.28,1.89-.83-1.15-2.07-.29-4.39.35-6.49a19.55,19.55,0,0,0,1-6.69,18,18,0,0,0-3.33-9.67c-.7-1-1.64-1.85-2.34-2.86s0-2.21.26-3.39a4.24,4.24,0,0,0-.39-2.88c-.92-1.78-2.81-3-4.45-4.17a11.72,11.72,0,0,1-2.6-2.19c-.84-1.08-.66-2.26-.68-3.51-.05-2.53-1.82-4.11-3.87-5.58-4.58-3.26-10-5.25-14.91-8.07-1.14-.65-2.32.93-1.18,1.59Z"/><path class="cls-1" d="M257.92,100.05c7.28-2.48,14.65-4.73,22-7,3.66-1.15,7.33-2.31,11-3.51a110.24,110.24,0,0,0,10.88-4,42.54,42.54,0,0,0,5.18-2.84,14.44,14.44,0,0,1,4.7-2.19c3.39-.68,7.05-.08,10.49-.26,6.84-.35,13.5-1.82,20.17-3.15,7.4-1.47,14.92-2.73,22.5-1.77,2.66.34,2.95-3.51.3-3.85-13.93-1.77-27.24,3.54-40.93,4.78-3.52.32-7,0-10.53.16a15.53,15.53,0,0,0-5.61,1.2,48,48,0,0,0-4.92,2.84,58.79,58.79,0,0,1-11,4.55c-3.6,1.23-7.23,2.39-10.87,3.54-8.37,2.65-16.78,5.2-25.09,8a1.88,1.88,0,0,0-1,2.57,2.22,2.22,0,0,0,2.78.92Z"/><path class="cls-1" d="M306.65,112.83c4.32-4.26,11.46-3.33,17.15-3a172.64,172.64,0,0,0,24.49-.8c4.58-.43,9.16-1,13.73-1.48,2.67-.3,1.89-4.09-.77-3.79-8.25,1-16.53,1.92-24.85,2.25-4.1.17-8.2.18-12.3,0a72.35,72.35,0,0,0-10.2-.09c-3.67.34-7.37,1.49-9.94,4a1.88,1.88,0,0,0-.25,2.72,2.21,2.21,0,0,0,2.94.23Z"/><path class="cls-1" d="M362.09,87l-1.53,5.79a30.26,30.26,0,0,0-1.19,5,11.24,11.24,0,0,0,1.06,4.88,15.54,15.54,0,0,1,.88,4c.45,5.73-2.1,11.39-4.39,16.58-1,2.3,2.93,3.55,3.95,1.26,2.38-5.41,4.83-11.18,4.63-17.11a18.52,18.52,0,0,0-.62-4.38c-.39-1.42-1.2-2.82-1.35-4.29s.58-3.24,1-4.73l1.53-5.8a2,2,0,0,0-1.3-2.45,2.14,2.14,0,0,0-2.65,1.2Z"/><path class="cls-1" d="M361.24,108.66c-1.67,2.29-4.3,3.64-7,4.71-3.05,1.23-6.24,2.09-9.34,3.16-6.1,2.1-11.11,5.86-16.46,9.18A33.77,33.77,0,0,1,319,130a2,2,0,0,0-1.67,2.25,2.1,2.1,0,0,0,2.44,1.54c6.67-1.66,12-5.63,17.63-9.17a43.75,43.75,0,0,1,8.63-4.38c3.2-1.14,6.5-2,9.65-3.24,3.47-1.36,6.84-3.21,9-6.16,1.5-2.06-1.94-4.24-3.44-2.18Z"/><path class="cls-1" d="M266.81,152.7,256.14,157c-1.58.63-3.36,1.18-4.29,2.62a5.43,5.43,0,0,0-.38,4.49,19.85,19.85,0,0,0,9.92,11.48,17.45,17.45,0,0,0,9.51,2,2,2,0,0,0,1.67-2.25,2.12,2.12,0,0,0-2.43-1.54c-5.35.43-10.53-3.32-13.1-7.38a12.13,12.13,0,0,1-1.46-3,2.92,2.92,0,0,1-.22-1.64c.19-.49,1-.66,1.52-.86l11.71-4.69c2.47-1,.68-4.47-1.78-3.49Z"/><path class="cls-1" d="M352.78,138.21c-5.16-.86-10.55-.35-15.7.31a129.94,129.94,0,0,0-15.2,3c-5,1.26-9.92,2.73-14.83,4.25s-9.82,2.83-14.31,5-8.42,5.55-9.44,10.33a14.3,14.3,0,0,0,2.95,11.36c6.08,8.15,18.5,9.9,28.37,10.52,6.16.38,12.34.4,18.5.54l19.74.43c2.68.06,3-3.78.3-3.84-10.76-.24-21.53-.42-32.29-.73a106,106,0,0,1-14.79-1.22c-4.85-.82-9.77-2.28-13.64-5.18a12.47,12.47,0,0,1-5.22-8.91c-.22-4,2.5-7.17,6.08-9.17,4.12-2.3,8.87-3.57,13.4-5s9-2.79,13.58-4a141.15,141.15,0,0,1,16-3.35c5.32-.76,10.9-1.37,16.25-.47a2.06,2.06,0,0,0,2.23-1.79,2,2,0,0,0-1.93-2.06Z"/><path class="cls-1" d="M351.9,141.89a94.08,94.08,0,0,0,56.78-3.16c5.39-2,11.33-4.48,14.47-9.26,1.39-2.11-2-4.3-3.44-2.18-2.58,3.92-7.42,5.85-11.81,7.57a89.2,89.2,0,0,1-12.58,3.85,91.35,91.35,0,0,1-27.15,2,81.76,81.76,0,0,1-14.92-2.52c-2.56-.69-3.94,2.95-1.35,3.65Z"/><path class="cls-1" d="M352.36,183.73c5.16,1.18,10.38.62,15.58,0,5-.62,10.17-1.34,15.13-.25,6.26,1.37,12.51,2.75,18.77,4.1a110.76,110.76,0,0,1,16.61,4.65,52,52,0,0,1,16.87,10.52,2.27,2.27,0,0,0,2.94.23,1.84,1.84,0,0,0,.25-2.72A57,57,0,0,0,422.8,189.8a89.35,89.35,0,0,0-16.64-5.23c-6.18-1.41-12.42-2.56-18.59-4a46,46,0,0,0-8.66-1.47,56.77,56.77,0,0,0-8.14.4c-5.58.61-11.47,1.87-17,.59a2.21,2.21,0,0,0-2.66,1.2,1.91,1.91,0,0,0,1.3,2.45Z"/><path class="cls-1" d="M451,88.07a217,217,0,0,1,43,35.36q5.36,5.79,10.2,11.95c1.59,2,4.76-.5,3.19-2.49A207.32,207.32,0,0,0,466.8,94q-6.56-4.79-13.44-9.15c-2.21-1.41-4.58,1.77-2.36,3.18Z"/><path class="cls-1" d="M349.5,181.75c-3.87,5.17-2.79,11.39-4,17.23-.64,3-2,5.77-2.37,8.84-.33,2.91,0,6.3,2,8.69a11.48,11.48,0,0,0,8.08,3.69,16.08,16.08,0,0,0,9.52-2.8,43.29,43.29,0,0,0,7.86-6.85,26.71,26.71,0,0,0,6.16-8.92,19.94,19.94,0,0,0,1.12-5.86,32.72,32.72,0,0,1,.38-5c.75-3.26,3.57-5.79,6.72-7.19,2.42-1.09.64-4.57-1.79-3.49a16.45,16.45,0,0,0-7.43,6.19c-1.55,2.54-1.84,5.07-2,7.93-.15,3.22-.58,6.17-2.37,9a39.94,39.94,0,0,1-6.51,7.39c-3.68,3.46-9.37,7.83-14.86,4.87-2.3-1.25-2.89-3.58-2.85-5.92,0-2.76,1-5.26,1.87-7.87a43.71,43.71,0,0,0,1.36-9.44c.26-2.92.72-5.82,2.55-8.27,1.53-2-1.91-4.22-3.44-2.18Z"/><path class="cls-1" d="M366.65,128.29c4.87,4.26,9.56,8.82,12,14.7a2.18,2.18,0,0,0,2.78.92,1.91,1.91,0,0,0,1-2.57c-2.55-6.18-7.46-11.06-12.58-15.54a2.29,2.29,0,0,0-2.94-.23,1.84,1.84,0,0,0-.25,2.72Z"/><path class="cls-1" d="M377.54,134.62a18.89,18.89,0,0,0-8.86,1.92c-2.19,1-4.21,2.42-6.15,3.45a1.92,1.92,0,0,0-1,2.57,2.19,2.19,0,0,0,2.78.92c4-2.17,7.92-5.25,12.92-5a1.93,1.93,0,1,0,.3-3.85Z"/><path class="cls-1" d="M435.32,202.73c2.43,3.13,4.08,6.66,6.38,9.85a15.84,15.84,0,0,0,9.13,5.93c2.57.69,3.95-2.95,1.36-3.64a12.07,12.07,0,0,1-7.45-5c-2.15-3.19-3.85-6.57-6.23-9.63a2.23,2.23,0,0,0-2.94-.23,1.87,1.87,0,0,0-.25,2.72Z"/><path class="cls-1" d="M403.18,91.91a21.49,21.49,0,0,0-.13,10.51c.87,3.5,2.5,6.73,2.83,10.35.59,6.36-1.74,12.72-5,18.23a63.79,63.79,0,0,1-6.74,9.11c-.85,1,.88,2,1.72,1.09,4.42-5,8.28-10.69,10.47-16.9a29.09,29.09,0,0,0,1.75-9.34,27.85,27.85,0,0,0-1.92-9.68,21.15,21.15,0,0,1-1-12.74c.3-1.2-1.67-1.84-2-.63Z"/><path class="cls-1" d="M377,93c3.93,1.9,5.6,5.8,6.6,9.57s1.69,7.25,3.42,10.67A31,31,0,0,0,393.7,122c2.4,2.21,6.44,4.17,7,7.53.2,1.23,2.25.87,2.05-.36-.42-2.63-2.52-4.46-4.62-6.1a35.84,35.84,0,0,1-6.55-6.41,27.75,27.75,0,0,1-4.34-8.4c-.94-3-1.41-6.08-2.49-9a13.6,13.6,0,0,0-6.55-7.84c-1.18-.56-2.37,1-1.18,1.59Z"/><path class="cls-1" d="M314.49,90.69c1.84,2.83,5,4.63,6.8,7.45.68,1,2.58.24,1.88-.83-1.83-2.83-5-4.63-6.79-7.45-.69-1-2.58-.24-1.89.83Z"/><path class="cls-1" d="M295.73,156.58h13.53a17.58,17.58,0,0,1,2.72.11,6.17,6.17,0,0,1,2.73,1.29,7.51,7.51,0,0,1,2.62,3.92,9,9,0,0,1-.54,7.75,11.67,11.67,0,0,1-4.41,3.94,19.57,19.57,0,0,1-2.33,1.06l-.71.24c-.27.09.17,0-.09,0-1.29.34-.91,2.24.38,1.89a15.5,15.5,0,0,0,8.69-5.79,10.28,10.28,0,0,0,1.39-8.31c-.81-3.44-3-7.09-7.07-7.86-2.56-.49-5.38-.2-8-.2h-8.79c-1.34,0-1.5,1.92-.15,1.92Z"/><path class="cls-1" d="M347.76,160.7c-.57,2.47.42,4.67,1.32,7a12.35,12.35,0,0,1,.33,9.16c-.43,1.17,1.54,1.81,2,.63a13.57,13.57,0,0,0,0-9.38c-.73-2.09-2.23-4.46-1.7-6.73.28-1.2-1.69-1.84-2-.63Z"/><path class="cls-1" d="M341.73,150.93a50.28,50.28,0,0,1,1.57,16.6c-.09,1.24,2,1.38,2.08.14a52,52,0,0,0-1.6-17.1c-.32-1.2-2.37-.85-2,.36Z"/><path class="cls-1" d="M353.73,157.93c.62,2.66-.12,5.43.49,8.1.28,1.22,2.33.86,2-.35-.61-2.67.13-5.44-.48-8.11-.28-1.21-2.33-.86-2.06.36Z"/><path class="cls-1" d="M369.62,65.35a44,44,0,0,1,9.26-6.79,1,1,0,1,0-.89-1.74,45.8,45.8,0,0,0-9.72,7.06c-.92.88.42,2.37,1.35,1.47Z"/><path class="cls-1" d="M326.9,134.51c1.72,1.73,1.07,5.11.46,7.16-.35,1.19,1.62,1.83,2,.62.8-2.71,1.42-6.74-.85-9-.91-.92-2.5.33-1.59,1.24Z"/><path class="cls-1" d="M296.81,22.84c1.49,4.54-1.49,9.88-6.53,11.13a1,1,0,1,0,.38,1.9c6.06-1.51,10-7.78,8.2-13.39-.39-1.18-2.44-.83-2.05.36Z"/><path class="cls-1" d="M98.7,111.49c7,3.13,14.09,6.25,21.7,7.88a45.06,45.06,0,0,0,11.47,1,63.22,63.22,0,0,0,12.88-2.34,105.32,105.32,0,0,1,23.92-3.49A96.45,96.45,0,0,1,192.34,117c7.34,1.69,15.33,4.37,19.47,10.63a12,12,0,0,1,2.07,8.64c-.59,3.25-2.88,5.86-5.72,7.73a36.42,36.42,0,0,1-10,4.27c-4,1.14-8.08,2-12.17,2.84A170.81,170.81,0,0,1,160.5,154q-6.44.25-12.87,0c-4.3-.15-8.62-.65-12.93-.53A36.81,36.81,0,0,0,123,155.91c-3.59,1.32-7.08,2.9-10.78,3.94a23.25,23.25,0,0,1-5.11.87c-2.69.12-2.36,4,.32,3.84,8-.38,14.81-5,22.5-6.68,4.16-.91,8.54-.54,12.77-.27,4.45.28,8.92.41,13.39.36a171.53,171.53,0,0,0,26.39-2.35q6.5-1.08,12.89-2.64a60,60,0,0,0,11.49-3.81,21.82,21.82,0,0,0,8.94-7A13.42,13.42,0,0,0,218,132c-1.46-7.64-7.88-13-15.33-16s-16-4.46-24.22-5.07a101.28,101.28,0,0,0-24.84,1.15c-8.41,1.46-16.61,4.83-25.29,4.41-7.9-.37-15.41-3.17-22.5-6.21-1.79-.76-3.56-1.55-5.33-2.35-2.41-1.08-4.19,2.41-1.76,3.5Z"/><path class="cls-1" d="M147.64,52.9c-2.78,7.8-.83,15.88,1.92,23.44,1.48,4.09,3.16,8.13,4.28,12.32a41.75,41.75,0,0,1,1.1,11.89c-.09,4.45-.28,9.08,1.16,13.38.8,2.38,4.74,1.1,3.94-1.27-1.17-3.52-1-7.39-1-11a50.65,50.65,0,0,0-.66-11.6c-1.69-7.93-5.78-15.22-7.37-23.16-.81-4.06-1-8.36.38-12.34a1.93,1.93,0,0,0-1-2.56,2.18,2.18,0,0,0-2.78.93Z"/><path class="cls-1" d="M129.31,57.64c5.63,3.1,12.63,2,18.17-.66a34.71,34.71,0,0,0,8.8-6.59c1.46-1.42,2.83-2.91,4.2-4.4,1.22-1.32,2.56-2.58,3.69-4,1.86-2.25,2.74-5.06,4.2-7.51,1.3-2.18-2.49-3.81-3.78-1.64-1.19,2-2,4.18-3.25,6.15A24.4,24.4,0,0,1,158.7,42c-1.23,1.34-2.45,2.69-3.71,4-4.09,4.3-9,8.59-15.33,9.52a13.39,13.39,0,0,1-8.59-1.35,2.19,2.19,0,0,0-2.77.93,1.91,1.91,0,0,0,1,2.57Z"/><path class="cls-1" d="M160.41,28.1c1.13,4.45,6.15,7.21,10.71,8,5,.91,10-1,15.07-.39,2.66.34,3.42-3.45.75-3.79a30.63,30.63,0,0,0-7.16.1,36.1,36.1,0,0,1-6.65.45c-3.61-.28-7.89-2.19-8.78-5.69a2.14,2.14,0,0,0-2.66-1.19,1.94,1.94,0,0,0-1.28,2.46Z"/><path class="cls-1" d="M183.82,30.08c2.21-1.41-.16-4.59-2.37-3.17s.16,4.58,2.37,3.17Z"/><path class="cls-1" d="M221.05,33.49a19.29,19.29,0,0,0-2.23-2.29,8.34,8.34,0,0,0-2.13-1.42,3,3,0,0,0-.4-.25c-4.83-2.42-7.44-7.29-10.49-11.29s-6.82-7.33-12-8.8c-8.5-2.4-17.48.34-26.1-1.07-4.7-.77-8.8-3.8-13.68-3.65-3.06.08-5.67,1.66-7.87,3.5-2.46,2.06-4.76,4.29-7.11,6.45L110.25,41.06q-7.89,7.23-15.9,14.36C89,60.2,83.6,65.05,78.71,70.28c-1.76,1.88,1.44,4.36,3.2,2.48,8.44-9,18.15-16.94,27.29-25.33l28.11-25.78,7.19-6.6c2.07-1.9,4.07-4.07,6.55-5.52,4.34-2.54,9.08.9,13.28,2.07,8.38,2.32,17.13-.23,25.63,1a18,18,0,0,1,6.23,2,20.18,20.18,0,0,1,5.95,5.57c3.58,4.62,6.54,9.79,12.05,12.69a1.4,1.4,0,0,0,.47.24,2.42,2.42,0,0,0,.55.16l.19.12a9.44,9.44,0,0,1,1,.78l.4.37a1.88,1.88,0,0,1,.2.2c.27.29.53.58.78.88s.49.6.72.91c.1.13.19.27.28.41s.13.29.14.31c.06.17.11.35.16.53s0,.18.05.28,0,.13,0,.2a3.13,3.13,0,0,0,0,.44c0,1.1-1.11,1.95-2.11,2.33a14.82,14.82,0,0,1-4.83.63c-3.76.11-7.17-.06-10.64-1.52A50.22,50.22,0,0,1,184,27.68a2.24,2.24,0,0,0-2.9-.49,1.85,1.85,0,0,0-.53,2.68,55.6,55.6,0,0,0,16,12.26,27.51,27.51,0,0,0,9.95,3.26,37.3,37.3,0,0,0,10.07-.29c3.59-.69,6.69-3.13,6.65-6.72a1.8,1.8,0,0,0-.22-.84,7.34,7.34,0,0,0-.28-1.28A8.7,8.7,0,0,0,221.05,33.49Z"/><path class="cls-1" d="M171.73,112.86C181.32,96,201.22,85.23,221.6,84.32A59.14,59.14,0,0,1,238.69,86c-.13-.58-.27-1.16-.4-1.75-3.13,1.74-4.17,5-5.19,8.08-.93,2.76-2.84,7-6.7,6.44-1.54-.2-3-.17-3.91,1.15-1.05,1.51-1.11,3.77-1.45,5.49q-1.22,6.27-2.44,12.54a1,1,0,0,0,.59,1,7.73,7.73,0,0,1,5.05,4.34c.89,2.13.33,4.31-.09,6.48a9.24,9.24,0,0,0,.31,5.81,5.29,5.29,0,0,0,4.27,3.26c-.14-.58-.27-1.16-.41-1.74a11.8,11.8,0,0,0-4.24,15.23,17.27,17.27,0,0,0,2.57,3.29,4,4,0,0,1,1.14,1.78c.16,1-.83,1.48-1.57,2q-5.28,3.6-10.58,7.18a.93.93,0,0,0-.07,1.53c1.76,1.63,4.19,2.78,6.28,4s4.52,2.39,6.28,4c.2-.57.4-1.13.59-1.7a74.37,74.37,0,0,1-23.09-2.89,91.17,91.17,0,0,1-22.2-9.2,59.82,59.82,0,0,1-10.09-7.33,1,1,0,0,0-1.34,1.48,71.27,71.27,0,0,0,19.79,12.26,95.49,95.49,0,0,0,24.09,6.91,67.29,67.29,0,0,0,13,.69,1,1,0,0,0,.59-1.7c-1.76-1.62-4.2-2.78-6.28-4s-4.52-2.38-6.28-4c0,.51-.06,1-.08,1.54l10.57-7.18c1.33-.9,2.66-1.91,2.5-3.6a6,6,0,0,0-1.94-3.28,9.8,9.8,0,0,1,1.55-15.4,1,1,0,0,0-.41-1.74c-2.12-.2-3.08-2.26-3.19-4-.14-2.17.75-4.3.88-6.45a9.19,9.19,0,0,0-6.72-9.28l.58,1,2.28-11.71.57-2.92a7,7,0,0,1,.7-2.65c.53-.76,1.5-.36,2.29-.3a6.21,6.21,0,0,0,2.31-.21c3-.88,4.93-3.87,5.89-6.49,1.07-2.9,1.71-6.47,4.79-8.18.84-.47.39-1.54-.41-1.74-20.59-5.16-43.48,1.16-58.62,14.8a53.1,53.1,0,0,0-10.61,13.12c-.63,1.09,1.26,1.91,1.89.81Z"/><path class="cls-1" d="M227.81,173.54A73.8,73.8,0,0,1,205,170.67a89.3,89.3,0,0,1-22-9.13,59.07,59.07,0,0,1-9.86-7.2,2.23,2.23,0,0,0-2.94.24,1.88,1.88,0,0,0,.26,2.72,72,72,0,0,0,20,12.39,96.31,96.31,0,0,0,24.35,7,68.39,68.39,0,0,0,13.26.71,1.93,1.93,0,1,0-.31-3.85Z"/><path class="cls-1" d="M171.84,113.28c9.42-16.51,29-27.09,49-28A58.37,58.37,0,0,1,237.67,87a2.1,2.1,0,0,0,2.43-1.55,2,2,0,0,0-1.68-2.25c-21-5.25-44.21,1.26-59.61,15.13a54,54,0,0,0-10.75,13.33c-1.26,2.2,2.53,3.83,3.78,1.63Z"/><path class="cls-1" d="M224.72,174.35c2.55,0,3.86-1.72,4.27-3.85a30.2,30.2,0,0,1,1.7-5.86,7.25,7.25,0,0,1,1.55-2.54,21.93,21.93,0,0,1,3.06-1.87,5,5,0,0,0,2.24-5.57c-.68-2.68-4.11-5.45-2.66-8.18,1.61-3,5.2-5,5.1-8.81,0-.82-.78-2.22-.4-3,.16-.33.7-.61,1-.81.64-.43,1.3-.84,1.95-1.25l8.38-5.35a1.88,1.88,0,0,0,.53-2.68,20.41,20.41,0,0,1-2.95-7.35,6.54,6.54,0,0,1,.37-3.39c.66-1.51,2-2.69,2.71-4.16a8.86,8.86,0,0,0-.17-8.18,9.2,9.2,0,0,0-2.89-3.32c-1.43-1-2.95-1.32-3.64-2.95-1.48-3.52-2.65-7.23-3.89-10.83-.81-2.37-4.75-1.09-3.94,1.27,1.1,3.19,2.31,6.33,3.41,9.51a8.29,8.29,0,0,0,3.2,4.74c1.26.79,2.61,1.28,3.5,2.46a5.45,5.45,0,0,1,0,6.66,15.43,15.43,0,0,0-2.56,4.46,10.1,10.1,0,0,0-.29,4c.41,3.31,2,6.34,3.68,9.25l.53-2.68-7.25,4.63c-2.06,1.31-5,2.62-5.74,5-.52,1.67.66,3.5.1,4.94a15,15,0,0,1-2.77,3.66,9.61,9.61,0,0,0-2.5,4.64,8.3,8.3,0,0,0,1.45,5.36c.65,1.15,1.76,2.55,1.76,3.73,0,.36-.36.8-1,1.17a19.15,19.15,0,0,0-3.32,2.13c-1.94,1.81-2.63,4.32-3.47,6.67a20.73,20.73,0,0,0-.87,3.47c-.06.31-.21.79-.23,1-.07.52-.17.09,0,.08.32,0-.28-.12-.26-.12a2,2,0,0,0-1.93,2.07,2.08,2.08,0,0,0,2.24,1.78Z"/><path class="cls-1" d="M151.06,74.18c9.51,1.91,19.24,2.46,28.94,2.68,4.86.12,9.73.06,14.57.44a72.89,72.89,0,0,1,13.93,2.56c5.05,1.41,9.94,3.26,14.83,5.09,2.48.93,4.26-2.56,1.76-3.49-8.85-3.31-17.87-6.66-27.43-7.73-5-.56-10-.56-15-.65-4.8-.09-9.61-.22-14.4-.56a131.22,131.22,0,0,1-16.42-2.13,1.93,1.93,0,1,0-.75,3.79Z"/><path class="cls-1" d="M237.84,135a61.93,61.93,0,0,0,12.72,3c3,.37,8,.07,8.83,3.62.75,3.2-1,6.74-3.23,9.12a17.4,17.4,0,0,1-8.8,5c-3.63.87-7.31.11-10.8-.91a2.09,2.09,0,0,0-2.43,1.55c-.22,1.13.6,1.92,1.68,2.24a24.94,24.94,0,0,0,11.47,1.06A22,22,0,0,0,258.54,154a15.94,15.94,0,0,0,5.14-10.74,8,8,0,0,0-2.4-6.27,10.79,10.79,0,0,0-5.91-2.39c-2.58-.37-5.17-.53-7.73-1a56.09,56.09,0,0,1-8-2.11,2.21,2.21,0,0,0-2.77.93,1.88,1.88,0,0,0,1,2.56Z"/><path class="cls-1" d="M136.5,157.5c4.34,6.5,12.24,9.41,19.48,12.32a55.58,55.58,0,0,1,10.85,5.43c3.94,2.7,7.6,5.59,11.88,7.86a121.52,121.52,0,0,0,13,5.7c3.8,1.48,7.7,3.05,11.83,3.51,3.73.41,7.68-.06,10.68-2.3,2.7-2,4.66-5,4.62-8.27-.06-3.65-3.05-6.44-6.64-7.51-1.43-.43-3.1-.66-4.43-1.08a4.76,4.76,0,0,1-3.05-2.39,2.2,2.2,0,0,0-2.9-.49,1.87,1.87,0,0,0-.53,2.68c1.48,2.57,4.15,3.68,7.09,4.33,2.31.51,4.75.88,5.91,3s-.23,4.53-1.9,6.08c-2.19,2-5.31,2.46-8.28,2.1-3.72-.44-7.19-1.85-10.63-3.18-4.1-1.6-8.19-3.24-12.09-5.23A86.38,86.38,0,0,1,170.54,173a53.53,53.53,0,0,0-10.49-5.74c-7.19-3-15.74-5.4-20.12-12-1.41-2.11-4.84.09-3.43,2.2Z"/><path class="cls-1" d="M3.27,159.76c5.56-4.52,8.8-10.59,11.93-16.68a82.47,82.47,0,0,1,5-8.81,53.61,53.61,0,0,1,7.4-8.42c5.7-5.43,12.14-10.16,18-15.39,6.2-5.48,12.05-11.28,17.71-17.23,6.35-6.69,12.46-13.58,18.54-20.47,1.7-1.92-1.5-4.41-3.2-2.48C68,82.46,57.14,94.63,45,105.68c-5.84,5.32-12.17,10.13-18.09,15.37a68.46,68.46,0,0,0-8,8.17,55.92,55.92,0,0,0-5.79,8.91c-3.45,6.4-6.3,13.61-12.27,18.46a1.9,1.9,0,0,0-.53,2.68,2.22,2.22,0,0,0,2.91.49Z"/><path class="cls-1" d="M68.16,208.56c11.23,1.64,21.87-4.83,30.51-10.67a41.76,41.76,0,0,0,7.24-6,44.76,44.76,0,0,0,5.34-7.26c2.89-4.74,5.1-9.81,8.1-14.49,3.26-5.08,7.46-10.09,13.2-12.9a1.85,1.85,0,0,0,.53-2.69,2.25,2.25,0,0,0-2.9-.49c-10.42,5.11-15.48,15.84-20.5,25.07C107,184,104,188.79,99.46,192.4a81.45,81.45,0,0,1-14.6,9.07c-4.87,2.39-10.39,4.11-16,3.29-2.66-.39-3.41,3.41-.75,3.8Z"/><path class="cls-1" d="M157,100.8a26.57,26.57,0,0,0,9.62,3.66,34.2,34.2,0,0,0,10.3-.09,2,2,0,0,0,1.92-2.07,2.06,2.06,0,0,0-2.24-1.78c-5.93.86-11.78.43-16.91-2.67a2.29,2.29,0,0,0-3,.24,1.85,1.85,0,0,0,.26,2.71Z"/><path class="cls-1" d="M156.65,107c5.17.52,10.33,1.16,15.5,1.68,2.66.27,3.43-3.52.75-3.79-5.17-.52-10.33-1.17-15.5-1.69-2.66-.26-3.43,3.53-.75,3.8Z"/><path class="cls-1" d="M56.55,199.11q15.74-5.38,30.9-12.05c9.06-4,19.19-8.05,25.46-15.61,3.22-3.88,4.67-9.43,9.33-12.14,1.14-.66,0-2.24-1.19-1.58-4,2.35-5.74,6.59-8.09,10.23a32,32,0,0,1-10.72,9.7,124.52,124.52,0,0,1-13.84,6.86q-7.45,3.31-15.06,6.33-8.66,3.42-17.48,6.44a1,1,0,1,0,.69,1.82Z"/><path class="cls-1" d="M112.94,79.08a12.72,12.72,0,0,1,1.23,5.78c.1,2.41,0,4.83,0,7.24a36.5,36.5,0,0,0,.89,7.86,26.08,26.08,0,0,0,3.76,8.25c2,3,4.22,6,4.71,9.6.17,1.23,2.25,1.08,2.08-.15-.87-6.37-6.45-11-8.24-17-1.51-5.18-.94-10.48-1.12-15.77a14.94,14.94,0,0,0-1.6-6.87c-.61-1.1-2.32,0-1.72,1.1Z"/><path class="cls-1" d="M152.25,24.88c2.91,4.55,8.25,8.81,14,9.82a1,1,0,1,0,.37-1.9c-5.2-.92-10-4.9-12.62-9-.69-1.07-2.4,0-1.72,1.09Z"/><path class="cls-1" d="M162,170.31c.19-1.93.39-3.85.58-5.78.12-1.23-1.93-1.58-2-.35q-.3,2.9-.58,5.78c-.13,1.23,1.93,1.59,2.05.35Z"/><path class="cls-1" d="M180,180.54a8.19,8.19,0,0,1,2.48-9.38c1-.81-.18-2.41-1.19-1.59a10.08,10.08,0,0,0-3.26,11.6c.47,1.17,2.44.53,2-.63Z"/><path class="cls-1" d="M197.1,88.44a3.38,3.38,0,0,1,.39-4c.85-1-.75-2.21-1.6-1.24a5.15,5.15,0,0,0-.76,5.86,1.1,1.1,0,0,0,1.33.59,1,1,0,0,0,.64-1.23Z"/><path class="cls-1" d="M164.52,98.6a43.07,43.07,0,0,1,.52-5.54,13,13,0,0,0-1.43-6.77c-.55-1.13-2.52-.5-2,.63a11.53,11.53,0,0,1,1.29,6.47,31.17,31.17,0,0,0-.5,5.36c.08,1.24,2.16,1.09,2.09-.15Z"/><path class="cls-1" d="M131.81,109.11c0-5,1.56-10.08,3.14-14.84a131.15,131.15,0,0,1,5.15-13.12c.3-.67.61-1.34.94-2l.29-.55c.18-.38-.06.07-.42.21l-.78,0h0l-.54-.56-.06-.22c0,1.24,2.07,1.08,2.09-.15,0-1-1.34-1.12-1.91-.51a5.37,5.37,0,0,0-.65,1.17c-.82,1.66-1.55,3.36-2.27,5.07A115.37,115.37,0,0,0,131,100.23a37.8,37.8,0,0,0-1.31,9c0,1.25,2.08,1.09,2.08-.14Z"/><path class="cls-1" d="M190.69,145.52a151.68,151.68,0,0,0,16.43-3c1.3-.32.6-2.14-.69-1.82a144.76,144.76,0,0,1-15.9,2.9,1,1,0,1,0,.16,1.93Z"/><path class="cls-1" d="M191.77,144.22l-2.13-10.43-1-5c-.27-1.35-.83-3-.12-4.3,1.33-2.45,5.65-2.38,8.17-2.45,2.87-.07,5.94.13,8.11,2.08a1,1,0,0,0,1.34-1.48c-2.38-2.14-5.73-2.56-8.91-2.53s-7.29.1-9.68,2.35c-2.66,2.51-.95,6.65-.35,9.6q1.24,6.15,2.51,12.31c.24,1.21,2.33,1.07,2.08-.15Z"/><path class="cls-1" d="M166.36,147.28c.15-6.58-1.47-13.12-2.89-19.53-.27-1.21-2.35-1.07-2.08.14,1.42,6.41,3,13,2.89,19.54,0,1.24,2.05,1.08,2.08-.15Z"/><path class="cls-1" d="M160.63,145.87c-1.38-1.71-2.94-4.4-2.75-6.61.11-1.23-1.94-1.59-2-.35-.24,2.77,1.32,5.88,3.08,8.06.81,1,2.53-.1,1.72-1.1Z"/></g></g></svg>