<svg xmlns="http://www.w3.org/2000/svg" viewBox="0 0 507.81 220.01"><defs><style>.cls-1{fill:#fff;}</style></defs><g id="圖層_2" data-name="圖層 2"><g id="圖層_1-2" data-name="圖層 1"><path class="cls-1" d="M260.52,41.64q-2.4,11.36-4.81,22.71c-.71,3.32-2,7.12-1.05,10.5a9.32,9.32,0,0,0,5.39,5.82c6,2.59,12-.53,16.23-4.84A41.12,41.12,0,0,0,286,59.34c2.1-6.75,2.95-15-1.06-21.19-1.45-2.26-5.07-.16-3.61,2.12,3,4.65,2.54,10.56,1.26,15.71a37.18,37.18,0,0,1-7.22,14.61c-2.88,3.53-7.34,7.92-12.36,6.69a5.76,5.76,0,0,1-4.2-3.26,7.58,7.58,0,0,1,0-4.09c.32-1.64.69-3.28,1-4.92q2.36-11.13,4.72-22.26c.56-2.63-3.48-3.75-4-1.11Z"/><path class="cls-1" d="M287.06,55.51A124.6,124.6,0,0,0,304.89,45.1c5-3.45,10-9.2,7.67-15.72-.88-2.53-4.93-1.44-4,1.11,1.89,5.41-3.41,9.53-7.38,12.07a138.68,138.68,0,0,1-16.21,9.34,2.11,2.11,0,0,0-.75,2.86,2.15,2.15,0,0,0,2.87.75Z"/><path class="cls-1" d="M309.24,39.78a21.74,21.74,0,0,0,9.17,6.69c3.93,1.54,8.17,1.83,12.27,2.72,3.27.71,6.67,1.83,9,4.36,2.14,2.33,2.77,5.64,3.48,8.62.87,3.69,1.9,7.39,4.61,10.2,1.87,1.94,4.83-1,3-3-2.16-2.25-2.83-5.41-3.53-8.35-.76-3.21-1.55-6.56-3.55-9.24-5-6.67-13.59-6.56-20.93-8.38a18.89,18.89,0,0,1-10.52-6.62,2.11,2.11,0,0,0-3,0,2.13,2.13,0,0,0,0,3Z"/><path class="cls-1" d="M264.08,43.59c8.5-8.18,15.38-17.86,23.58-26.33,3.89-4,8.09-8,13-10.69a17.49,17.49,0,0,1,7.18-2.35,13,13,0,0,1,7.47,1.9,55.6,55.6,0,0,0,7.58,4,36.49,36.49,0,0,0,8.7,2c5.81.72,11.67.7,17.44,1.84,12,2.36,23.25,7.56,35,10.92a157.05,157.05,0,0,0,42.4,6c2.69,0,2.7-4.18,0-4.19a152.46,152.46,0,0,1-38.08-5c-12.09-3.17-23.54-8.45-35.73-11.27-6-1.39-12.09-1.69-18.22-2.22a43.55,43.55,0,0,1-8.34-1.42,32.25,32.25,0,0,1-7.6-3.71A19.84,19.84,0,0,0,310.2.07a17.89,17.89,0,0,0-8.05,1.22c-5.36,2.07-9.91,5.79-14.07,9.69-9.76,9.16-17.32,20.37-27,29.65-1.95,1.88,1,4.83,3,3Z"/><path class="cls-1" d="M268.26,155.9c3.66-4.52,8.58-7.46,13.95-9.52,5.74-2.19,11.73-3.79,17.58-5.67,6.68-2.15,13.59-3.93,20.67-3.43a38,38,0,0,1,16.17,5.08,37.51,37.51,0,0,1,13.63,13.49c1.36,2.33,5,.22,3.62-2.11a42.46,42.46,0,0,0-30.08-20.27c-7.3-1.05-14.5.06-21.54,2.1-3.43,1-6.81,2.18-10.23,3.22-3,.93-6.1,1.83-9.11,2.89-6.68,2.36-13.08,5.65-17.62,11.26a2.15,2.15,0,0,0,0,3,2.12,2.12,0,0,0,3,0Z"/><path class="cls-1" d="M264.76,153.86c-.5,2.4.79,4.84,2,6.85a47.46,47.46,0,0,0,4.93,6.86,8.66,8.66,0,0,0,7.13,3.68c2.57.22,5.86-.49,8.13,1.05s3.8,4.39,6,6.23a9.52,9.52,0,0,0,4.08,2.12c.95.19,1.93.14,2.88.3a3.61,3.61,0,0,1,2,1.27c3,3.12,5.82,6.44,8.72,9.65.73.8,1.46,1.95,2.6,2.12a22.83,22.83,0,0,1,2.32.17,7.44,7.44,0,0,1,3.57,2c1.25,1.29,1.57,2.78,2,4.44a8.2,8.2,0,0,0,1.2,2.68,12.48,12.48,0,0,0,2.48,2.22,13.31,13.31,0,0,1,4.52,8.87,2.12,2.12,0,0,0,3.57,1.48c1.48-1.36,2.53-3.66,4.55-4.27l-2-.54a16.27,16.27,0,0,1,5.3,7.46,2.13,2.13,0,0,0,3.5.92A42.72,42.72,0,0,0,358,199.8c.88-2.55-3.16-3.65-4-1.11a38.93,38.93,0,0,1-12.68,17.8l3.5.92a20.22,20.22,0,0,0-6.23-9.19c-1.76-1.42-3.88-.2-5.34,1.11-1.21,1.08-2.05,2.5-3.24,3.59l3.57,1.48a17.84,17.84,0,0,0-2.73-8.17,15.49,15.49,0,0,0-2.61-3.31c-1-.95-2.38-1.5-2.86-2.9a34.35,34.35,0,0,0-1.32-4.1,10.53,10.53,0,0,0-2.53-3.25,11.29,11.29,0,0,0-8-2.83l1.48.61-5.88-6.51c-1.82-2-3.57-4.46-5.8-6a7.32,7.32,0,0,0-3.66-1.16,6.91,6.91,0,0,1-2.95-.65,16.32,16.32,0,0,1-4-3.93,14.31,14.31,0,0,0-4.58-4,15.18,15.18,0,0,0-6.19-1c-1.68,0-3.63.17-5.19-.56-1.29-.59-2.27-2.12-3.13-3.2a42.21,42.21,0,0,1-3.35-4.92,15.3,15.3,0,0,1-1.14-2.3,8.78,8.78,0,0,1-.29-1c-.14-.59,0,.27,0-.07,0-.18.1-.7,0-.13.55-2.63-3.48-3.75-4-1.11Z"/><path class="cls-1" d="M273.76,151c5.11-.21,10.17-1.21,15.3-1.26,2.45,0,5.46-.12,7,2.09a9.87,9.87,0,0,0,2.18,2.63,7.3,7.3,0,0,0,3.53,1.2c2.16.26,4.49,0,6.57.76a3.23,3.23,0,0,1,2,1.77c.56,1.3.59,2.6,1.77,3.55a7.46,7.46,0,0,0,2.84,1.2,18.54,18.54,0,0,1,3.88,1.6,19.42,19.42,0,0,1,5.67,4.81,24.37,24.37,0,0,1,3.67,7.46c.83,2.38,1.91,4.77,4.24,6,1.18.65,2.24-1.16,1.05-1.8-2.22-1.21-2.93-3.78-3.69-6a22.9,22.9,0,0,0-3.31-6.54,21.19,21.19,0,0,0-5.39-5,20.22,20.22,0,0,0-3.29-1.73c-1.2-.5-2.5-.73-3.69-1.23-1.38-.57-1.35-2-1.87-3.19A4.93,4.93,0,0,0,310.1,155c-1.85-1.08-4.15-1.1-6.23-1.22a12.12,12.12,0,0,1-3.5-.48c-1.35-.49-1.92-1.65-2.71-2.76-1.59-2.24-4-2.65-6.63-2.8-5.78-.33-11.51,1-17.27,1.22-1.34.06-1.35,2.15,0,2.09Z"/><path class="cls-1" d="M274.17,151.05c4.5-6.33,9.21-12.52,13.87-18.75,2.33-3.11,4.65-6.22,6.92-9.36a107.37,107.37,0,0,0,6.57-9.71,44,44,0,0,0,2.55-5.48,13.78,13.78,0,0,1,2.54-4.63c2.38-2.53,5.77-4.06,8.51-6.17,5.44-4.19,10.05-9.28,14.76-14.25,5.21-5.5,10.66-10.9,17.52-14.32,2.4-1.21.29-4.82-2.12-3.62-12.61,6.3-20.36,18.6-30.92,27.47-2.71,2.28-5.79,4-8.61,6.1a14.68,14.68,0,0,0-3.91,4.25,49.34,49.34,0,0,0-2.32,5.33,56.4,56.4,0,0,1-6.31,10.31c-2.24,3.14-4.52,6.24-6.82,9.33-5.3,7.12-10.7,14.16-15.84,21.39a2.1,2.1,0,0,0,.75,2.86,2.12,2.12,0,0,0,2.86-.75Z"/><path class="cls-1" d="M264.92,160c0,1.9-1,3.69-2.05,5.24a55,55,0,0,1-3.81,4.67c-3.08,3.7-5.1,9-1.16,12.93,2.9,2.87,7.52,4.21,11.47,4.71a23.11,23.11,0,0,0,11.43-1.46,31.33,31.33,0,0,0,12.34-9.27,2.15,2.15,0,0,0,0-3,2.12,2.12,0,0,0-3,0c-4.82,5.77-11.39,10.09-19.16,9.66a18.66,18.66,0,0,1-9.39-3c-3.74-2.63-.58-6.6,1.65-9.06,2.77-3.06,5.9-7.12,5.83-11.46,0-2.69-4.23-2.7-4.19,0Z"/><path class="cls-1" d="M322.31,134.9c1-6.26,7.44-9.48,12.32-12.45a159.83,159.83,0,0,0,19.76-14.59c3.53-3,7-6,10.45-9.1,2-1.79-.95-4.74-3-3-6.25,5.53-12.49,11.08-19.17,16.09-3.29,2.47-6.68,4.81-10.19,7a66.59,66.59,0,0,0-8.49,5.7c-2.83,2.38-5.18,5.51-5.75,9.24a2.17,2.17,0,0,0,1.46,2.58,2.11,2.11,0,0,0,2.57-1.46Z"/><path class="cls-1" d="M352.31,80.34l2.29,6.06a35,35,0,0,0,2.09,5.16,13.12,13.12,0,0,0,3.87,3.77,17.83,17.83,0,0,1,3.2,3.12c3.89,4.87,5.24,11.38,6.54,17.32.57,2.64,4.6,1.52,4-1.11-1.34-6.19-2.86-12.74-6.66-17.94a22.13,22.13,0,0,0-3.19-3.57c-1.2-1.05-2.72-1.84-3.75-3.07s-1.51-3.23-2.1-4.79l-2.28-6.06a2.15,2.15,0,0,0-2.58-1.46,2.11,2.11,0,0,0-1.46,2.57Z"/><path class="cls-1" d="M364.9,100.24c0,3-1.32,5.69-2.88,8.17-1.77,2.82-3.88,5.4-5.79,8.12-3.75,5.33-5.59,11.54-8,17.54a32.66,32.66,0,0,1-5.17,9.19,2.09,2.09,0,1,0,3,3c4.5-5.27,6.5-11.86,9-18.21a42.32,42.32,0,0,1,4.46-8.8c1.93-2.83,4.13-5.48,6-8.37,2-3.18,3.69-6.75,3.65-10.6,0-2.69-4.21-2.7-4.19,0Z"/><path class="cls-1" d="M313.81,193.16q-3.1,4.93-6.2,9.87c-.92,1.46-2.06,3-1.94,4.78A6.32,6.32,0,0,0,308.1,212a21.15,21.15,0,0,0,15.24,4.66,16.33,16.33,0,0,0,9.1-3.61,2.12,2.12,0,0,0,0-3,2.14,2.14,0,0,0-3,0c-4.16,3.42-10.74,3-15.36.82a13.86,13.86,0,0,1-3.06-1.87c-.39-.33-1-.82-1.18-1.34s.45-1.18.73-1.63l6.81-10.84c1.44-2.28-2.18-4.38-3.61-2.11Z"/><path class="cls-1" d="M376,131.48c-4.79,2.15-8.94,5.67-12.79,9.18a121.63,121.63,0,0,0-10.75,11.26c-3.37,4-6.54,8.06-9.66,12.2s-6.39,8.09-8.75,12.61-3.57,9.74-1.47,14.6a16.38,16.38,0,0,0,9.4,8.49c10,3.86,21.37-1.61,29.91-6.65,5.32-3.15,10.45-6.63,15.63-10l16.6-10.79c2.25-1.46.15-5.09-2.11-3.61-9,5.88-18.07,11.82-27.15,17.64a98.46,98.46,0,0,1-13,7.28c-4.51,2-9.48,3.5-14.46,3.1a13.8,13.8,0,0,1-9.78-5c-2.65-3.48-2.32-7.84-.59-11.66,2-4.39,5.15-8.22,8-12.06s5.74-7.61,8.77-11.28a130.83,130.83,0,0,1,11.14-12c3.93-3.7,8.17-7.4,13.15-9.63a2.11,2.11,0,0,0,.75-2.86,2.15,2.15,0,0,0-2.87-.76Z"/><path class="cls-1" d="M377.55,135.28c18.43-6.07,34.38-18.85,45-35,3.21-4.87,6.63-10.43,6.29-16.48-.15-2.68-4.33-2.7-4.18,0,.27,5-2.55,9.43-5.13,13.46a84.12,84.12,0,0,1-8,10.57,85.06,85.06,0,0,1-21.2,17.22,75.64,75.64,0,0,1-13.88,6.19c-2.55.84-1.46,4.88,1.11,4Z"/><path class="cls-1" d="M403.59,172.48c5-1.87,9-5.33,12.88-8.85,3.73-3.37,7.58-7,12.35-8.8,6-2.32,12-4.62,18.05-7a104.7,104.7,0,0,1,16.58-5.25,51.94,51.94,0,0,1,20.41-.14,2.14,2.14,0,0,0,2.57-1.46,2.11,2.11,0,0,0-1.46-2.57,56.69,56.69,0,0,0-19.4-.44,84.21,84.21,0,0,0-17,4.74c-6,2.23-11.84,4.74-17.83,6.94a42.15,42.15,0,0,0-8.06,3.59,52.12,52.12,0,0,0-6.49,5c-4.25,3.7-8.34,8.17-13.74,10.19A2.15,2.15,0,0,0,401,171a2.11,2.11,0,0,0,2.57,1.46Z"/><path class="cls-1" d="M426.52,31a222.38,222.38,0,0,1,57.24,7.3q8,2.14,15.76,4.92c2.54.9,3.64-3.14,1.11-4a216,216,0,0,0-57.39-11.79c-5.56-.39-11.14-.57-16.72-.58-2.7,0-2.7,4.18,0,4.18Z"/><path class="cls-1" d="M400,172.32c0,6.82,4.67,11.78,7.23,17.72,1.3,3,1.86,6.31,3.45,9.26,1.51,2.79,3.89,5.61,7,6.63a11.19,11.19,0,0,0,8.95-1.27,15.31,15.31,0,0,0,6.16-7.9,44.51,44.51,0,0,0,2.3-10.59,29.33,29.33,0,0,0-.37-11.47,23.19,23.19,0,0,0-2.67-5.89,38,38,0,0,1-2.78-4.72c-1.38-3.35-.59-7.2,1.15-10.25,1.34-2.34-2.28-4.45-3.62-2.11a16.89,16.89,0,0,0-2.35,9.76c.28,3.15,1.59,5.57,3.23,8.22,1.85,3,3.31,5.84,3.56,9.39a42.44,42.44,0,0,1-.85,10.3c-.92,5.19-2.95,12.33-9.3,12.78-2.68.19-4.58-1.56-6-3.68-1.66-2.49-2.36-5.31-3.28-8.11-1.08-3.3-2.95-6.23-4.66-9.22-1.58-2.76-3-5.61-3-8.85,0-2.69-4.18-2.7-4.19,0Z"/><path class="cls-1" d="M381.41,114.75c6.65,1,13.32,2.47,18.94,6.36a2.1,2.1,0,0,0,2.86-.75,2.13,2.13,0,0,0-.75-2.86c-5.9-4.09-12.95-5.68-19.93-6.79a2.18,2.18,0,0,0-2.58,1.46,2.12,2.12,0,0,0,1.46,2.58Z"/><path class="cls-1" d="M394.3,114.24a17.7,17.7,0,0,0-6.14,6.74c-1.19,2.16-2,4.55-3,6.57a2.15,2.15,0,0,0,.75,2.86,2.11,2.11,0,0,0,2.87-.75c2-4.22,3.33-9.18,7.62-11.8,2.29-1.4.19-5-2.12-3.62Z"/><path class="cls-1" d="M110.58,73.16c3.83,6.78,7.77,13.61,13,19.4a42.21,42.21,0,0,0,8.82,7.45,58.82,58.82,0,0,0,12.07,5.25,98.07,98.07,0,0,1,21.89,10.52,89.71,89.71,0,0,1,18,15.67c5,5.68,10,12.64,9.5,20.58a13.84,13.84,0,0,1-3.62,8.89,13.18,13.18,0,0,1-9.49,3.64,35.07,35.07,0,0,1-10.92-1.91c-4-1.26-7.93-2.77-11.79-4.41a158,158,0,0,1-22.77-11.91c-3.63-2.29-7.18-4.73-10.62-7.31s-6.7-5.5-10.34-7.85a34.08,34.08,0,0,0-11.12-4.48c-3.77-.88-7.62-1.45-11.32-2.63a21.52,21.52,0,0,1-4.74-2.14c-2.3-1.42-4.4,2.2-2.11,3.61,6.87,4.24,15.3,4,22.68,6.85,4,1.57,7.37,4.4,10.69,7.05q5.25,4.19,10.82,7.95a160.24,160.24,0,0,0,23.22,12.94q6,2.73,12.26,5a56.9,56.9,0,0,0,11.83,3.15,22.09,22.09,0,0,0,11.72-1.21,15.44,15.44,0,0,0,8-7.77c3.51-7.66,1.53-16.11-2.79-23S183,123.35,176.64,118.15A93.89,93.89,0,0,0,155.44,105c-7.84-3.49-16.68-5.16-23.58-10.48-6.28-4.83-10.75-11.61-14.73-18.37-1-1.69-2-3.41-2.94-5.13-1.32-2.34-4.94-.23-3.61,2.12Z"/><path class="cls-1" d="M187.09,48.75c-7.11,5.38-10.49,13.7-12.89,22-1.29,4.5-2.4,9.06-4.06,13.44a49,49,0,0,1-6.43,11.24c-2.82,3.92-5.83,7.94-7.3,12.6-.8,2.58,3.23,3.68,4,1.12,1.2-3.81,3.71-7.19,6-10.4A58.94,58.94,0,0,0,173.07,88c3.49-8,4.63-16.87,8.21-24.87,1.83-4.08,4.3-8.06,7.92-10.8A2.15,2.15,0,0,0,190,49.5a2.11,2.11,0,0,0-2.86-.75Z"/><path class="cls-1" d="M169,42.53c2.73,6,9.16,9,15.4,9.77a35.11,35.11,0,0,0,11.32-.86c2.07-.44,4.13-1,6.18-1.54,1.81-.48,3.7-.85,5.48-1.43,2.92-.95,5.38-3,8.1-4.32,2.41-1.2.3-4.81-2.11-3.61-2.21,1.1-4.22,2.59-6.47,3.64a26.65,26.65,0,0,1-4,1.12c-1.84.49-3.68,1-5.53,1.46-6,1.5-12.68,2.56-18.52-.24a12.58,12.58,0,0,1-6.25-6.1,2.1,2.1,0,0,0-2.86-.75,2.14,2.14,0,0,0-.75,2.86Z"/><path class="cls-1" d="M212.92,33.88c-1.82,4.63.62,9.95,3.87,13.3,3.57,3.68,8.91,4.81,12.66,8.24,2,1.82,5-1.14,3-3a28.47,28.47,0,0,0-6-4,33.92,33.92,0,0,1-5.77-3.38c-2.81-2.31-5.15-6.46-3.73-10.09a2.11,2.11,0,0,0-1.46-2.58,2.14,2.14,0,0,0-2.57,1.46Z"/><path class="cls-1" d="M120.62,29C133.14,25.77,146,24.24,158.75,22l39.09-7,10-1.79c2.88-.52,5.87-1.32,8.81-1.2,5.14.21,6.93,6,9.67,9.42,5.49,6.85,14.28,9.56,20.53,15.49a16.9,16.9,0,0,1,3.92,5.33,21.26,21.26,0,0,1,1.47,8.36c.1,6.29-.69,12.73,2.26,18.55,1.22,2.4,4.83.29,3.62-2.11-2.5-4.91-1.64-10.75-1.69-16.06s-1.1-10.43-4.49-14.71c-5.54-7-14.63-9.66-20.87-15.83-3.4-3.36-4.92-8.41-9-11.06-2.58-1.66-5.7-1.74-8.65-1.35-3.3.43-6.57,1.12-9.85,1.7l-40,7.17q-11,2-22,3.75c-7.41,1.2-14.8,2.48-22.07,4.36-2.6.68-1.5,4.72,1.11,4Z"/><path class="cls-1" d="M231,49c2.69,0,2.7-4.18,0-4.18S228.3,49,231,49Z"/><path class="cls-1" d="M228.43,46.94A56.64,56.64,0,0,0,234.1,67a26.26,26.26,0,0,0,6.19,8.58,34.64,34.64,0,0,0,8.49,5.48c3.39,1.43,7.45,1,9.62-2.21,1.51-2.24-2.11-4.34-3.61-2.11a3.09,3.09,0,0,1-3.18.88,13.73,13.73,0,0,1-4.37-2.2c-3.17-2-5.87-4.14-7.84-7.42a50.36,50.36,0,0,1-6.78-21.09,2.16,2.16,0,0,0-2.1-2.09,2.11,2.11,0,0,0-2.09,2.09Z"/><path class="cls-1" d="M170,116c18.29-9.55,41.37-7.87,58.75,2.94a55.06,55.06,0,0,1,13,11.26c.24-.59.49-1.19.74-1.78-3.65-.23-6.55,2.13-9.26,4.25-2.47,1.93-6.63,4.58-9.51,1.93-1.14-1.06-2.34-1.85-3.92-1.2-1.8.75-3.25,2.73-4.59,4.07l-9.74,9.81a1,1,0,0,0-.17,1.26,8,8,0,0,1,1.5,6.76c-.59,2.42-2.4,4-4.08,5.73a11,11,0,0,0-3.33,5.37,5.37,5.37,0,0,0,1.51,5.34c.24-.59.49-1.19.74-1.78a13.41,13.41,0,0,0-12.89,11.18,18.51,18.51,0,0,0,.08,4.4,4.42,4.42,0,0,1-.15,2.23c-.47,1-1.6.85-2.52.88L173,189a1.07,1.07,0,0,0-1,1.32c.45,2.46,1.75,4.88,2.71,7.16s2.26,4.71,2.71,7.16L179,203.5a69.35,69.35,0,0,1-17.27-15.73,88,88,0,0,1-12.64-20.87,60.79,60.79,0,0,1-3.79-12.3c-.25-1.32-2.27-.76-2,.56A70.6,70.6,0,0,0,152,177.38a90.11,90.11,0,0,0,15.6,19.9,62.93,62.93,0,0,0,10.3,8,1.06,1.06,0,0,0,1.54-1.18c-.46-2.46-1.75-4.88-2.71-7.16s-2.26-4.71-2.71-7.16l-1,1.32q6.57-.18,13.15-.38c1.65-.05,3.37-.19,4.27-1.79a6.57,6.57,0,0,0,.43-4,11.17,11.17,0,0,1,2.46-8.84,10.89,10.89,0,0,1,8.32-4,1.06,1.06,0,0,0,.74-1.79c-1.63-1.38-1.15-3.77-.16-5.4,1.22-2,3.27-3.41,4.71-5.25a10,10,0,0,0,.18-12.12l-.16,1.27,9.09-9.15,2.28-2.29a8.29,8.29,0,0,1,2.21-2c.9-.37,1.46.53,2.06,1a6,6,0,0,0,2,1.13c3.05.95,6.45-.64,8.86-2.44,2.67-2,5.4-4.8,9-4.57,1,.06,1.28-1.15.74-1.79-13.8-16.34-36.58-23.74-57.48-20.19a56.74,56.74,0,0,0-16.84,5.66c-1.2.62-.14,2.43,1.05,1.81Z"/><path class="cls-1" d="M178.79,202.13a68.32,68.32,0,0,1-17-15.57,86,86,0,0,1-12.48-20.65,59.92,59.92,0,0,1-3.69-12A2.11,2.11,0,0,0,143,152.4a2.14,2.14,0,0,0-1.47,2.57,71.68,71.68,0,0,0,8.87,22.48,91.63,91.63,0,0,0,15.76,20.11,64.15,64.15,0,0,0,10.52,8.19c2.3,1.41,4.4-2.21,2.11-3.62Z"/><path class="cls-1" d="M169.79,116.44c18-9.37,40.64-7.66,57.69,3a54,54,0,0,1,12.83,11.1,2.09,2.09,0,0,0,3-3c-14.05-16.64-37.24-24.07-58.49-20.47a58.15,58.15,0,0,0-17.1,5.77c-2.39,1.25-.27,4.86,2.11,3.61Z"/><path class="cls-1" d="M175.74,201.1c2.1,1.44,4.25.66,5.9-1a34.44,34.44,0,0,1,5-4.25,8.16,8.16,0,0,1,2.85-1.4,21.57,21.57,0,0,1,3.68.08,5.65,5.65,0,0,0,5.28-3.69c1.09-2.78,0-7.21,2.85-8.82,3.21-1.8,7.4-1.54,9.64-5,.49-.74.73-2.42,1.51-2.87a3.08,3.08,0,0,1,1.32-.16c.79,0,1.59,0,2.38,0h10.21a2.16,2.16,0,0,0,2.09-2.09,23.25,23.25,0,0,1,2.1-8.25,7.55,7.55,0,0,1,2.4-2.8c1.47-1,3.27-1.3,4.8-2.18a10.33,10.33,0,0,0,4.91-7.4,9.87,9.87,0,0,0-.35-4.61c-.57-1.68-1.61-2.85-1.17-4.7.94-4,2.27-8,3.47-11.89.79-2.58-3.25-3.68-4-1.11-1.06,3.47-2,7-3.05,10.43-.61,2-1.06,4-.28,6.06.54,1.42,1.36,2.62,1.37,4.19a6.3,6.3,0,0,1-4.09,6,16.93,16.93,0,0,0-4.86,2.53,11.43,11.43,0,0,0-2.72,3.42c-1.71,3.19-2.25,6.81-2.68,10.36l2.1-2.1h-8.85c-2.5,0-5.74-.51-7.82,1.2-1.46,1.2-1.61,3.51-3,4.47a15.9,15.9,0,0,1-4.54,1.69,10.81,10.81,0,0,0-4.93,2.72,9.58,9.58,0,0,0-2.11,5.61c-.17,1.4-.12,3.28-.85,4.33a1.82,1.82,0,0,1-1.53.49,18.91,18.91,0,0,0-4.05,0c-2.71.51-4.84,2.36-7,4a25.22,25.22,0,0,0-2.86,2.6c-.24.26-.65.59-.81.78-.38.43-.2,0-.08.05.29.15-.16-.27-.14-.26a2.13,2.13,0,0,0-2.87.75,2.15,2.15,0,0,0,.75,2.87Z"/><path class="cls-1" d="M176.78,69.7c6.66,7.11,14.35,13.15,22.21,18.88,3.94,2.87,8,5.6,11.75,8.7a67.93,67.93,0,0,1,9.91,10.22c3.29,4.14,6.18,8.58,9.09,13,1.47,2.24,5.1.15,3.61-2.11-5.26-8-10.64-16.13-17.86-22.53a149.94,149.94,0,0,0-12-9.15C199.59,83.89,195.71,81,192,78a123.07,123.07,0,0,1-12.24-11.26c-1.84-2-4.8,1-2.95,3Z"/><path class="cls-1" d="M241.71,134.39c4.69,2.57,6.93,7.78,9.69,12.1a57.43,57.43,0,0,0,12.37,13.83,2.15,2.15,0,0,0,3,0,2.09,2.09,0,0,0,0-2.95,55,55,0,0,1-12.31-13.93c-2.89-4.71-5.56-9.9-10.6-12.67-2.36-1.3-4.48,2.32-2.11,3.62Z"/><path class="cls-1" d="M233.14,159.39c1.67,4.8,5.5,8.87,9.17,12.26,4.19,3.86,9.36,6.78,15.24,5.49,2.63-.57,1.52-4.61-1.11-4a10.24,10.24,0,0,1-7.1-1.32,18,18,0,0,1-1.6-1,7.83,7.83,0,0,1-.8-.62c-.72-.59-1.42-1.22-2.1-1.86-2.93-2.76-6.31-6.12-7.66-10-.88-2.53-4.93-1.44-4,1.11Z"/><path class="cls-1" d="M210.86,173.42a57.8,57.8,0,0,0,8.64,9.9c2.28,2.07,6.56,4.62,5.06,8.28-1.36,3.28-5,5.41-8.29,6.29a17.19,17.19,0,0,1-10.35-.55c-3.53-1.29-6.1-4.07-8.34-7a2.11,2.11,0,0,0-3,0,2.15,2.15,0,0,0,0,3,23.2,23.2,0,0,0,8.8,7.48,21.53,21.53,0,0,0,12.77,1.4,17.86,17.86,0,0,0,10.86-6.67,9,9,0,0,0,1.89-7,10.45,10.45,0,0,0-3.4-5.5c-1.9-1.8-3.94-3.42-5.76-5.31a53,53,0,0,1-5.31-6.46,2.13,2.13,0,0,0-2.86-.75,2.1,2.1,0,0,0-.75,2.86Z"/><path class="cls-1" d="M113.38,135.77c-.44,8.28,4.28,15.38,8.46,22.11a54,54,0,0,1,5.6,11c1.58,4.65,2.82,9.32,4.95,13.78a116.84,116.84,0,0,0,7.21,12.51c2.22,3.47,4.47,7.11,7.59,9.86,2.82,2.5,6.37,4.33,10.23,4a11.65,11.65,0,0,0,8.91-4.75c2.2-3.29,1.45-7.49-.84-10.48-.92-1.2-2.15-2.36-3-3.49a4.86,4.86,0,0,1-1-3.88,2.12,2.12,0,0,0-2.1-2.09,2.14,2.14,0,0,0-2.09,2.09c-.36,3.15,1.16,5.66,3.18,7.91,1.59,1.77,3.37,3.49,3,6.07-.34,2.41-3,3.91-5.31,4.34-3.06.57-5.89-.82-8.13-2.83-2.79-2.52-4.79-5.76-6.8-8.91a123.32,123.32,0,0,1-6.74-11.55A86.73,86.73,0,0,1,131.88,169a52.58,52.58,0,0,0-5.11-11.09c-4.07-6.8-9.65-13.79-9.21-22.16.14-2.69-4-2.68-4.18,0Z"/><path class="cls-1" d="M2.09,61.87c7.38-.87,13.8-4.44,20.14-8.09a90.66,90.66,0,0,1,9.57-5,56.89,56.89,0,0,1,11.29-3.31c8-1.59,16.28-2.14,24.38-3.44,8.49-1.36,16.9-3.2,25.23-5.29,9.37-2.35,18.65-5,27.92-7.71,2.59-.75,1.49-4.79-1.11-4C103.14,29.73,86.7,34.43,69.9,37.39c-8.1,1.42-16.29,2.1-24.4,3.41a72.52,72.52,0,0,0-11.63,2.74A61.73,61.73,0,0,0,23.59,48.2C16.8,52,10,56.76,2.09,57.68A2.16,2.16,0,0,0,0,59.78a2.11,2.11,0,0,0,2.09,2.09Z"/><path class="cls-1" d="M25.51,142.41c8.25,7.87,21,8.16,31.75,7.86A42.76,42.76,0,0,0,67,149a48.66,48.66,0,0,0,8.89-3.44c5.31-2.58,10.25-5.85,15.62-8.31,5.82-2.68,12.37-4.76,18.84-4a2.11,2.11,0,0,0,2.1-2.1,2.14,2.14,0,0,0-2.1-2.09c-11.74-1.38-22.53,5.32-32.36,10.7-5.21,2.85-10.67,5.42-16.65,6.06a81.2,81.2,0,0,1-17.63-.23c-5.49-.64-11.1-2.25-15.19-6.15-1.94-1.86-4.91,1.09-3,3Z"/><path class="cls-1" d="M483.86,142.48c3.92,1.43,7.45,3.66,11.32,5.21a15.83,15.83,0,0,0,11.18.14c2.54-.84,1.45-4.89-1.11-4a12.14,12.14,0,0,1-9.23-.25c-3.73-1.64-7.21-3.7-11-5.09a2.12,2.12,0,0,0-2.58,1.46,2.14,2.14,0,0,0,1.47,2.57Z"/><path class="cls-1" d="M165.25,96.84a25.37,25.37,0,0,0,5.68,8.75,31.38,31.38,0,0,0,8.54,5.78,2.16,2.16,0,0,0,2.87-.75,2.12,2.12,0,0,0-.75-2.86c-5.42-2.61-10-6.33-12.3-12a2.18,2.18,0,0,0-2.58-1.46,2.1,2.1,0,0,0-1.46,2.57Z"/><path class="cls-1" d="M161.14,102.19c3.94,3.41,7.8,6.92,11.74,10.33,2,1.76,5-1.19,3-3-3.94-3.41-7.8-6.92-11.74-10.33-2-1.76-5,1.19-3,3Z"/><path class="cls-1" d="M389.32,61.48A25.06,25.06,0,0,0,395.66,71c2.86,2.65,6.19,4.62,8.69,7.67,4.39,5.36,6.36,12.37,7,19.17a67.51,67.51,0,0,1,0,12c-.1,1.34,2,1.33,2.1,0a58.66,58.66,0,0,0-1.7-21.07,33.89,33.89,0,0,0-4.29-9.35A32.4,32.4,0,0,0,400,71.78a24.75,24.75,0,0,1-8.62-10.86c-.48-1.24-2.5-.7-2,.56Z"/><path class="cls-1" d="M368.32,77.27c4.41-.54,8.19,2,11.33,4.82s5.84,5.54,9.36,7.62a33.62,33.62,0,0,0,10.92,4.08c3.34.62,7.88.08,10.39,2.78.92,1,2.39-.49,1.48-1.48-2-2.11-4.82-2.56-7.56-2.84a36.84,36.84,0,0,1-9.35-2,31,31,0,0,1-8.74-5c-2.61-2.15-4.9-4.66-7.6-6.69-2.92-2.19-6.52-3.75-10.23-3.31-1.32.16-1.33,2.26,0,2.1Z"/><path class="cls-1" d="M315.22,110.63c3.26,1.49,6.95,1.33,10.19,2.82,1.21.56,2.28-1.25,1-1.81-3.25-1.49-6.94-1.33-10.18-2.82-1.22-.56-2.28,1.25-1.06,1.81Z"/><path class="cls-1" d="M21.76,127.36q16.3,4.15,32.93,6.86c9.93,1.6,20.79,3.74,30.62.57,5-1.63,9.67-5.76,15.18-5.52,1.35.06,1.35-2,0-2.09-4.79-.21-8.8,2.61-13,4.52a33.27,33.27,0,0,1-14.83,2.55A119.21,119.21,0,0,1,57,132.48q-8.19-1.28-16.33-2.93-9.24-1.86-18.39-4.2a1,1,0,0,0-.56,2Z"/><path class="cls-1" d="M142.32,52.34a15,15,0,0,1-2.55,5.87c-1.42,2.21-3,4.29-4.46,6.46a42.67,42.67,0,0,0-4.12,7.53,30,30,0,0,0-2,9.51c-.24,3.81-.23,7.78-2,11.25-.62,1.19,1.19,2.25,1.81,1.05,3.2-6.18,1.43-13.45,3.72-19.91,1.94-5.49,5.68-9.89,8.8-14.72a17.12,17.12,0,0,0,2.91-7c.18-1.33-1.92-1.31-2.09,0Z"/><path class="cls-1" d="M208.17,26.37c-.41,5.71,1.37,12.56,5.46,16.72a1,1,0,0,0,1.48-1.48c-3.72-3.78-5.22-10.07-4.85-15.24.1-1.35-2-1.34-2.09,0Z"/><path class="cls-1" d="M126.52,161.76l4-4.83c.86-1-.61-2.51-1.48-1.48l-4,4.83c-.86,1,.61,2.51,1.48,1.48Z"/><path class="cls-1" d="M135,181.11a9.37,9.37,0,0,1,7.82-7c1.33-.15,1.34-2.25,0-2.09a11.49,11.49,0,0,0-9.84,8.5,1,1,0,0,0,2,.55Z"/><path class="cls-1" d="M206,108.67a3.93,3.93,0,0,1,2.78-3.34,1,1,0,0,0-.55-2,6,6,0,0,0-4.25,4.8,1.1,1.1,0,0,0,.73,1.29,1.05,1.05,0,0,0,1.29-.73Z"/><path class="cls-1" d="M172.81,99.16a51.76,51.76,0,0,1,3.85-4.64,15.23,15.23,0,0,0,3-6.87c.24-1.31-1.77-1.88-2-.55a13.43,13.43,0,0,1-2.93,6.51,36.27,36.27,0,0,0-3.7,4.5c-.71,1.15,1.1,2.2,1.8,1Z"/><path class="cls-1" d="M139.36,89.9c3.09-4.47,7.5-8.1,11.74-11.46a148.11,148.11,0,0,1,12.34-8.77c.66-.43,1.33-.85,2-1.25l.57-.33c.39-.23-.09,0-.47,0l-.62-.48h0c0-.27-.07-.54-.11-.81l.1-.23c-.78,1.1,1,2.15,1.81,1.06.61-.86-.41-1.77-1.26-1.54a5.44,5.44,0,0,0-1.26.67c-1.7,1-3.36,2.12-5,3.23a131.59,131.59,0,0,0-15,11.59,43.93,43.93,0,0,0-6.65,7.31c-.77,1.11,1,2.16,1.81,1.05Z"/><path class="cls-1" d="M340.1,180.25l11.2-7.66a18,18,0,0,1,2.32-1.45,6.09,6.09,0,0,1,3.05-.38,8.2,8.2,0,0,1,4.57,2,10.52,10.52,0,0,1,4.3,7.25,12,12,0,0,1-1.23,6,17.41,17.41,0,0,1-1.28,2.27l-.43.62c-.17.23.11-.14-.07.08-.85,1,.63,2.52,1.48,1.48a15.59,15.59,0,0,0,3.65-10.11,12,12,0,0,0-4-8.23c-2.78-2.62-6.85-4.63-10.68-3-2.4,1-4.56,2.87-6.7,4.33l-7.28,5c-1.11.76-.06,2.57,1.05,1.81Z"/><path class="cls-1" d="M385.66,154.47c1,2.52,3.22,3.93,5.36,5.47a14.36,14.36,0,0,1,5.89,8,1,1,0,0,0,2-.56,15.73,15.73,0,0,0-5.72-8.41c-1.89-1.47-4.57-2.74-5.53-5.07-.5-1.23-2.53-.69-2,.56Z"/><path class="cls-1" d="M374.68,149.13a58.93,58.93,0,0,1,11.49,14,1,1,0,0,0,1.8-1,60.4,60.4,0,0,0-11.81-14.4c-1-.9-2.48.58-1.48,1.48Z"/><path class="cls-1" d="M388.91,148.59c2.13,2,3.22,4.94,5.37,7,1,.92,2.45-.55,1.47-1.48-2.13-2-3.22-4.94-5.36-7-1-.93-2.46.55-1.48,1.48Z"/><path class="cls-1" d="M345.28,56.72a44.17,44.17,0,0,1,3.5-11.33c.56-1.21-1.24-2.27-1.81-1a46.29,46.29,0,0,0-3.71,11.82c-.22,1.32,1.79,1.89,2,.56Z"/><path class="cls-1" d="M352.35,142.83c2.49.58,4,4,4.77,6.15.44,1.26,2.46.72,2-.56-1-2.88-3-6.85-6.23-7.6-1.31-.31-1.87,1.71-.56,2Z"/><path class="cls-1" d="M259,59.91a9.82,9.82,0,0,1,1.42,13.66c-.87,1,.61,2.51,1.48,1.48,4.09-4.77,3.54-12.65-1.42-16.62-1.05-.84-2.54.63-1.48,1.48Z"/><path class="cls-1" d="M165.46,156a141.78,141.78,0,0,0,15.4,6.68c1.27.46,1.82-1.56.56-2a139.47,139.47,0,0,1-14.91-6.46c-1.19-.61-2.25,1.19-1,1.8Z"/><path class="cls-1" d="M167.15,155.42l4.68-10.52,2.24-5.05c.61-1.36,1.17-3.15,2.56-3.91,2.6-1.42,6.12,1.1,8.24,2.47,2.41,1.57,4.83,3.5,5.41,6.48.26,1.32,2.28.76,2-.56-.64-3.26-3.15-5.55-5.79-7.34s-6.07-4.06-9.44-3.41c-3.74.72-4.88,5.39-6.21,8.37l-5.52,12.41c-.54,1.22,1.26,2.29,1.81,1.06Z"/><path class="cls-1" d="M144.3,143.67c4.19-5.79,6.89-12.55,9.67-19.09.52-1.22-1.28-2.29-1.81-1-2.78,6.53-5.48,13.3-9.66,19.09-.79,1.09,1,2.14,1.8,1Z"/><path class="cls-1" d="M140.45,139.15c-.09-2.32.29-5.61,1.81-7.47.85-1-.62-2.53-1.47-1.48-1.91,2.33-2.54,6-2.43,9,0,1.34,2.14,1.35,2.09,0Z"/></g></g></svg>