<svg xmlns="http://www.w3.org/2000/svg" viewBox="0 0 199.2 26.5"><defs><style>.cls-1{fill:#fff;}</style></defs><g id="圖層_2" data-name="圖層 2"><g id="圖層_1-2" data-name="圖層 1"><path class="cls-1" d="M11,16.8h0a8.09,8.09,0,0,0-1.27-1.64A6,6,0,0,0,8.09,14a5.54,5.54,0,0,0-2-.48,5.52,5.52,0,0,0-2.21.37A6,6,0,0,0,2.1,15,6.6,6.6,0,0,0,.74,16.59a5.6,5.6,0,0,0-.69,2,4.18,4.18,0,0,0,.23,2.12l.94,2.5a4.07,4.07,0,0,0,1.2,1.71,5.5,5.5,0,0,0,1.8,1,6.31,6.31,0,0,0,2.08.35h0a5.67,5.67,0,0,0,2-.36,6.42,6.42,0,0,0,1.12-.54,5,5,0,0,0,1-.8,5.21,5.21,0,0,0,1.16-1.78,6,6,0,0,0,.42-2,6.82,6.82,0,0,0-.22-2.05A7.73,7.73,0,0,0,11,16.8ZM7,25.21a2.65,2.65,0,0,1-1-.41,3.34,3.34,0,0,1-.77-.74,8.28,8.28,0,0,1-.69-1A11.84,11.84,0,0,1,4,21.91c-.17-.39-.32-.74-.44-1.06s-.23-.64-.36-1a10.34,10.34,0,0,1-.31-1.19,10.85,10.85,0,0,1-.17-1.24,4.15,4.15,0,0,1,.09-1.13,2.27,2.27,0,0,1,.44-.91,1.88,1.88,0,0,1,.87-.6,2.09,2.09,0,0,1,.75-.15,1.88,1.88,0,0,1,.46.06,3,3,0,0,1,1.1.56,4.4,4.4,0,0,1,.9,1A5,5,0,0,1,8,17.32l1.25,3.31a5.61,5.61,0,0,1,.28,1.25,4.48,4.48,0,0,1-.05,1.32h0A3.1,3.1,0,0,1,9,24.36a1.94,1.94,0,0,1-1,.72A2,2,0,0,1,7,25.21Z"/><path class="cls-1" d="M24.81,15.86h0c0-.24-.11-.48-.18-.73L24,12.75l-.51-1.86c-.08-.29-.15-.55-.21-.79s-.11-.44-.16-.6a1.63,1.63,0,0,1,0-.18V9.25a1,1,0,0,1,.25-.12l.43-.19.41-.21a.71.71,0,0,0,.33-.31.29.29,0,0,0,0-.27l-.07-.09-.06,0a.42.42,0,0,0-.29,0L20.37,9a.34.34,0,0,0-.25.21.32.32,0,0,0,.05.31.58.58,0,0,0,.48.18,4.43,4.43,0,0,0,.57-.06.27.27,0,0,1,.12,0s0,0,.06.08a6.4,6.4,0,0,1,.2.62c.06.22.13.44.2.66.15.46.29.91.41,1.35s.27.9.4,1.36.22.77.35,1.21.22.86.31,1.29a7,7,0,0,1,.12,1.28,3.3,3.3,0,0,1-.17,1.15,2.29,2.29,0,0,1-.58.9,2.68,2.68,0,0,0-.19.2c0,.06-.05.06-.34.15A2.84,2.84,0,0,1,21,20a2.57,2.57,0,0,1-1-.35,2.52,2.52,0,0,1-.76-.7,2.9,2.9,0,0,1-.48-1l-1.94-7,.08,0,.4-.17.42-.17a.72.72,0,0,0,.33-.19.44.44,0,0,0,.08-.35A.32.32,0,0,0,18,9.77a.34.34,0,0,0-.26,0l-5.08,1.41a.34.34,0,0,0-.23.17.31.31,0,0,0,0,.25.41.41,0,0,0,.25.25.75.75,0,0,0,.38,0l.4-.06.38-.06H14l2,7.21a5.15,5.15,0,0,0,.33.87,2.91,2.91,0,0,0,.57.77,3.79,3.79,0,0,0,1.06.77,4.71,4.71,0,0,0,1.2.4,4.47,4.47,0,0,0,1,.1h.32a6,6,0,0,0,1.28-.22,4.43,4.43,0,0,0,2.17-1.26,4.19,4.19,0,0,0,1-2.29,5.32,5.32,0,0,0,.06-.78,4.17,4.17,0,0,0,0-.71A6,6,0,0,0,24.81,15.86Z"/><path class="cls-1" d="M37.59,5.42a.36.36,0,0,0-.46-.3l-9.88,2a.36.36,0,0,0-.3.46c.07.36.14.73.2,1.09s.12.73.17,1.1c0,.12,0,.23,0,.33l.06.34a.37.37,0,0,0,.47.3l.31,0c.31,0,.42-.19.46-.32a4.14,4.14,0,0,0,.08-.62c0-.27,0-.54,0-.81l0-.77c0-.09.13-.16.15-.17l1.92-.39L33,17.6l-.24.07-.41.12-.4.15a1.33,1.33,0,0,0-.26.12.35.35,0,0,0-.16.42.32.32,0,0,0,.32.24h.08l5.48-1.13a.35.35,0,0,0,.22-.15.34.34,0,0,0,0-.26.35.35,0,0,0-.25-.26.8.8,0,0,0-.35,0l-.42,0-.42,0-.25,0L33.86,7l1.92-.39s.18,0,.2,0l.05.08c.09.19.2.4.32.62s.26.5.38.74L37,8.6a.34.34,0,0,0,.3.22.65.65,0,0,0,.24,0l.21-.05.14,0a.34.34,0,0,0,.25-.16.36.36,0,0,0,0-.3Z"/><path class="cls-1" d="M50.87,5.43a5.49,5.49,0,0,0-2.3-1.52,3.92,3.92,0,0,0-1.17-.23,6.57,6.57,0,0,0-1.17.07l-5.82.89a.33.33,0,0,0-.3.35.35.35,0,0,0,.21.32,1.37,1.37,0,0,0,.7.05l.33,0h.22l1.57,10.3-.25.05a2.74,2.74,0,0,0-.39.09,1.88,1.88,0,0,0-.38.15.62.62,0,0,0-.3.32.3.3,0,0,0,0,.26l.07.11.09,0,.14,0h.08l3.66-.57a.44.44,0,0,0,.32-.23.56.56,0,0,0,0-.3,1.11,1.11,0,0,0,0-.25.39.39,0,0,1,0-.13L44.56,4.78h.07a4.27,4.27,0,0,1,2,.1A3.37,3.37,0,0,1,48,5.76,4.72,4.72,0,0,1,49,7.28a9.32,9.32,0,0,1,.5,2,11,11,0,0,1,.13,1.43,6.75,6.75,0,0,1-.09,1.43,5.16,5.16,0,0,1-.43,1.31,3.2,3.2,0,0,1-.85,1.07,2,2,0,0,1-.49.34,4.69,4.69,0,0,1-.6.24.69.69,0,0,1-.24.06,1.15,1.15,0,0,0-.35.1.53.53,0,0,0-.31.33.29.29,0,0,0,.07.25.44.44,0,0,0,.43.15l1-.16a5.21,5.21,0,0,0,2.55-1.07,5.68,5.68,0,0,0,1.6-2,6.66,6.66,0,0,0,.62-2.48,6.77,6.77,0,0,0-.34-2.58A6.64,6.64,0,0,0,50.87,5.43Z"/><path class="cls-1" d="M65.55,4.34A6,6,0,0,0,64.23,2.8a5.41,5.41,0,0,0-1.8-1,5.48,5.48,0,0,0-2.24-.2,5.9,5.9,0,0,0-2,.59,6.47,6.47,0,0,0-1.73,1.23A5.51,5.51,0,0,0,55.3,5.18,4.14,4.14,0,0,0,55,7.28l.28,2.66a4.14,4.14,0,0,0,.73,2,5.67,5.67,0,0,0,1.48,1.45,6.49,6.49,0,0,0,1.93.87,6,6,0,0,0,1.5.19,5.15,5.15,0,0,0,.56,0,6.94,6.94,0,0,0,1.22-.25,4.51,4.51,0,0,0,1.16-.53,5.37,5.37,0,0,0,1.57-1.42,6.11,6.11,0,0,0,.92-1.84,7,7,0,0,0,.3-2,7.54,7.54,0,0,0-.27-2.07A8,8,0,0,0,65.55,4.34Zm-5.2,9a2.55,2.55,0,0,1-.83-.64,3.6,3.6,0,0,1-.55-.9,8.49,8.49,0,0,1-.41-1.17,10.34,10.34,0,0,1-.26-1.23c-.07-.41-.12-.79-.15-1.13s-.07-.68-.1-1.09,0-.83,0-1.23a10,10,0,0,1,.16-1.24,3.46,3.46,0,0,1,.36-1.07,2.45,2.45,0,0,1,.65-.77,2,2,0,0,1,1-.37h.26a1.84,1.84,0,0,1,.93.24,3,3,0,0,1,.93.81A4.53,4.53,0,0,1,63,4.73,4.86,4.86,0,0,1,63.27,6l.37,3.52a5.06,5.06,0,0,1,0,1.28A4.33,4.33,0,0,1,63.22,12a3,3,0,0,1-.74,1,2,2,0,0,1-1.1.46A1.89,1.89,0,0,1,60.35,13.36Z"/><path class="cls-1" d="M79.81,3.35h0a5.79,5.79,0,0,0-1.26-1.59,5.46,5.46,0,0,0-1.76-1A5.49,5.49,0,0,0,74.57.42a6.13,6.13,0,0,0-2,.51,6.29,6.29,0,0,0-1.78,1.16,5.82,5.82,0,0,0-1.24,1.67,4.14,4.14,0,0,0-.39,2.09l.17,2.67a4,4,0,0,0,.65,2A5.37,5.37,0,0,0,71.38,12a6.34,6.34,0,0,0,1.89,1,6.14,6.14,0,0,0,1.72.26h.33A7.16,7.16,0,0,0,76.55,13a5.22,5.22,0,0,0,1.18-.48,5.43,5.43,0,0,0,1.63-1.36,6.21,6.21,0,0,0,1-1.8,7,7,0,0,0,.39-2,7.58,7.58,0,0,0-.19-2.08A7.94,7.94,0,0,0,79.81,3.35Zm-5.56,8.8a2.5,2.5,0,0,1-.81-.67,3.75,3.75,0,0,1-.52-.93,7.78,7.78,0,0,1-.35-1.18,10,10,0,0,1-.22-1.24c0-.42-.08-.8-.1-1.14s0-.68,0-1.09a10,10,0,0,1,0-1.23,9.45,9.45,0,0,1,.21-1.24,3.77,3.77,0,0,1,.41-1.05,2.2,2.2,0,0,1,.68-.74,1.89,1.89,0,0,1,1-.32h.16a1.86,1.86,0,0,1,1,.28,2.88,2.88,0,0,1,.89.85,4.39,4.39,0,0,1,.58,1.19,5.55,5.55,0,0,1,.26,1.26l.22,3.53a5.59,5.59,0,0,1-.09,1.27A4.19,4.19,0,0,1,77.16,11a3,3,0,0,1-.77,1,1.94,1.94,0,0,1-1.13.41A1.82,1.82,0,0,1,74.25,12.15Z"/><path class="cls-1" d="M95,11.44a1,1,0,0,0-.35,0h-.4a2.61,2.61,0,0,1-.4,0c-.1,0-.13,0-.13,0a1.32,1.32,0,0,1-.36-.58,3.78,3.78,0,0,1-.17-.74c0-.27-.06-.54-.08-.82A5.46,5.46,0,0,0,93,8.31a3.7,3.7,0,0,0-.33-.87,2.65,2.65,0,0,0-.7-.82,1.7,1.7,0,0,0-.38-.18l-.43-.16-.35-.18L91,6l.09,0a5.86,5.86,0,0,0,1.06-.64,4.7,4.7,0,0,0,.9-.88,2.16,2.16,0,0,0,.45-1.4,2.74,2.74,0,0,0-.36-1.3,3,3,0,0,0-.84-.95A4,4,0,0,0,91.13.26,4.32,4.32,0,0,0,89.84.09L83.42.27a.32.32,0,0,0-.34.3.38.38,0,0,0,.2.37,1,1,0,0,0,.31.09c.11,0,.22,0,.34,0h.33l.22,0,.28,10.41-.4,0a4.18,4.18,0,0,0-.51.06.65.65,0,0,0-.49.38.3.3,0,0,0,.11.38.46.46,0,0,0,.21.05h0l5.23-.14a.56.56,0,0,0,.23-.07.3.3,0,0,0,.08-.39.54.54,0,0,0-.36-.29,2.5,2.5,0,0,0-.41-.07c-.13,0-.27,0-.4,0h-.27c0-.4-.05-.8-.05-1.21s0-.85,0-1.27c0-.8-.06-1.61-.08-2.42l0,0a.38.38,0,0,0,.25.14.5.5,0,0,0,.21,0h.09a2.84,2.84,0,0,1,.61.07,1.27,1.27,0,0,1,.5.26A2.13,2.13,0,0,1,90,8a9.39,9.39,0,0,1,.28,1.3,9.27,9.27,0,0,0,.28,1.24,2.76,2.76,0,0,0,.53,1,2.2,2.2,0,0,0,.89.62,3.35,3.35,0,0,0,1.34.18H94a2,2,0,0,0,.42,0,.91.91,0,0,0,.38-.1.54.54,0,0,0,.18-.1.55.55,0,0,0,.16-.18.4.4,0,0,0,.07-.24A.35.35,0,0,0,95,11.44ZM87.6,6h0c0-.7,0-1.39,0-2.09,0-.53,0-1.05,0-1.57s0-1,0-1.44H88c.22,0,.43,0,.65.06a3.18,3.18,0,0,1,.61.14,1.76,1.76,0,0,1,.5.22,1.9,1.9,0,0,1,.37.31,1.85,1.85,0,0,1,.29.4,2.14,2.14,0,0,1,.25.75,2.89,2.89,0,0,1,0,.88,2.94,2.94,0,0,1-.24.83,1.74,1.74,0,0,1-.46.63,2.19,2.19,0,0,1-.69.44,3.69,3.69,0,0,1-.84.21.67.67,0,0,1-.2,0,1.08,1.08,0,0,0-.32,0A.49.49,0,0,0,87.6,6Z"/><path class="cls-1" d="M115.27,6.44h0l-.39-.13-.58-.18-.54-.19-.07,0,.06,0a.47.47,0,0,1,.2-.08l.31-.1a4.36,4.36,0,0,0,.65-.32,4.13,4.13,0,0,0,.59-.41,2.38,2.38,0,0,0,.89-1.82,2.59,2.59,0,0,0-.27-1.26,3.12,3.12,0,0,0-.74-.91,3.28,3.28,0,0,0-1.06-.57,4.15,4.15,0,0,0-1.2-.21L106.79,0a.34.34,0,0,0-.35.27.4.4,0,0,0,.17.4,1.16,1.16,0,0,0,.29.08l.34.06.34,0,.2,0h0l-.29,10.41h-.25c-.14,0-.28,0-.41,0a1.42,1.42,0,0,0-.42.08.52.52,0,0,0-.35.29.29.29,0,0,0,.1.39.65.65,0,0,0,.21.06l3.75.12a.37.37,0,0,0,.33-.16.5.5,0,0,0,0-.13.4.4,0,0,0,.39.3l1.42,0h.15a6.42,6.42,0,0,0,1.35-.15,5.09,5.09,0,0,0,1.48-.56,3.58,3.58,0,0,0,1.14-1,2.67,2.67,0,0,0,.5-1.54,2.74,2.74,0,0,0-.38-1.59A2.74,2.74,0,0,0,115.27,6.44Zm-1.72-3.28a2.21,2.21,0,0,1-.74,1.78h0a2.76,2.76,0,0,1-1.88.56h-.22l.13-4.56a.19.19,0,0,1,.09,0A4.63,4.63,0,0,1,112,1a2.2,2.2,0,0,1,.83.39,1.75,1.75,0,0,1,.53.69A2.36,2.36,0,0,1,113.55,3.16Zm-3,8.6v-.11a.45.45,0,0,1,0-.11l0-5.15,0,0,.62,0a5.87,5.87,0,0,1,.72.08,5.12,5.12,0,0,1,.67.19,1.86,1.86,0,0,1,.55.34,1.91,1.91,0,0,1,.61.87A3.62,3.62,0,0,1,113.92,9a2.57,2.57,0,0,1-.55,1.63,2.58,2.58,0,0,1-1.51.81l-.31,0-.29.05h-.15a.49.49,0,0,0-.25,0A.41.41,0,0,0,110.54,11.76Z"/><path class="cls-1" d="M128.2,9.32h0l-.27,0a.44.44,0,0,0-.46.24,1.68,1.68,0,0,0-.17.41l-.12.38c-.11.3-.21.62-.31.94a2,2,0,0,1-.14.32c0,.09-.08.17-.13.3h-.38l-.63,0-.74,0-.71,0-.54,0h-.17l-.05,0L124,1.56h.24l.45,0c.15,0,.3,0,.42,0a.79.79,0,0,0,.32-.07.43.43,0,0,0,.22-.32.29.29,0,0,0-.07-.24.32.32,0,0,0-.24-.12L120,.44a.35.35,0,0,0-.36.27.35.35,0,0,0,.16.39,1.49,1.49,0,0,0,.67.18l.52.07-.63,10.4h0l-.38,0-.42,0a.72.72,0,0,0-.36.08.42.42,0,0,0-.22.31.31.31,0,0,0,.07.25.27.27,0,0,0,.24.11l8.74.65h0a.37.37,0,0,0,.38-.36l.19-3.1A.38.38,0,0,0,128.2,9.32Zm0,.23Z"/><path class="cls-1" d="M140.54,1.92l-8.62-.7a.31.31,0,0,0-.36.28.32.32,0,0,0,.17.37,1.42,1.42,0,0,0,.64.2,3.74,3.74,0,0,1,.52.09l-1,10.38h-.54a2.93,2.93,0,0,0-.53,0,.44.44,0,0,0-.33.16.39.39,0,0,0-.06.28.32.32,0,0,0,.32.29l9,1h.05a.39.39,0,0,0,.25-.08.46.46,0,0,0,.13-.28l.15-2.78a.44.44,0,0,0-.08-.29.38.38,0,0,0-.27-.13l-.3,0a.43.43,0,0,0-.51.24l-.81,2-1.19-.09-.49,0-.73,0-.69-.05-.31,0,0,0L135.39,8a.38.38,0,0,0,.23.11l1.8.17,0,.33a2.71,2.71,0,0,0,0,.57,1.53,1.53,0,0,0,.13.55.64.64,0,0,0,.51.37h.06a.48.48,0,0,0,.18,0,.36.36,0,0,0,.18-.3l.37-3.91a.33.33,0,0,0-.12-.33.44.44,0,0,0-.25-.08.61.61,0,0,0-.51.22,1.69,1.69,0,0,0-.23.42,2.19,2.19,0,0,0-.12.52c0,.16-.05.31-.08.45a.75.75,0,0,1-.06.22l-1.65-.15a.44.44,0,0,0-.33.08h0l.46-4.82,3,.32s.06.08.07.08h0l.06.29.13.71c0,.25.08.49.11.73a3.93,3.93,0,0,0,.07.43.41.41,0,0,0,.17.32.62.62,0,0,0,.27.09l.21,0h.17a.33.33,0,0,0,.29-.08.38.38,0,0,0,.13-.27l.26-2.67A.39.39,0,0,0,140.54,1.92Z"/><path class="cls-1" d="M151,3.44c-.24-.12-.47-.22-.7-.32a7.2,7.2,0,0,0-1.92-.46,5.53,5.53,0,0,0-2,.15,3.75,3.75,0,0,0-1.67.91,3.1,3.1,0,0,0-.87,1.88,4.82,4.82,0,0,0,0,.93,2.74,2.74,0,0,0,.26.94,4,4,0,0,0,1,1.34,10.44,10.44,0,0,0,1.22.91c.41.26.82.54,1.21.82a3.6,3.6,0,0,1,.93,1,2,2,0,0,1,.18.48,2.16,2.16,0,0,1,.05.56,1.73,1.73,0,0,1-.09.56,1.55,1.55,0,0,1-.21.45,1.74,1.74,0,0,1-.56.52,2.46,2.46,0,0,1-.83.27,3.16,3.16,0,0,1-1,0,2.83,2.83,0,0,1-.9-.31,1.44,1.44,0,0,1-.57-.58,1.82,1.82,0,0,1-.2-.65,5.72,5.72,0,0,1,0-.71s0-.1,0-.19a2.8,2.8,0,0,0,0-.29,1.36,1.36,0,0,0,0-.3.35.35,0,0,0-.3-.27l-.57-.08a.47.47,0,0,0-.3.07.45.45,0,0,0-.14.27c0,.36-.11.73-.18,1.09s-.15.73-.22,1.1a.41.41,0,0,0,0,.29,1.93,1.93,0,0,0,.73.68,4.91,4.91,0,0,0,1,.42,9.64,9.64,0,0,0,1.06.26l.9.14a7.54,7.54,0,0,0,.94.06,6.28,6.28,0,0,0,.75,0,4.58,4.58,0,0,0,1.57-.44,3.33,3.33,0,0,0,1.87-2.65,3.72,3.72,0,0,0-.23-1.89,3.6,3.6,0,0,0-1.18-1.49,5.57,5.57,0,0,0-.57-.37c-.19-.1-.37-.21-.55-.32-.37-.23-.77-.51-1.19-.82a3.8,3.8,0,0,1-.94-1,1.69,1.69,0,0,1-.24-.56,2.13,2.13,0,0,1,0-.62,1.57,1.57,0,0,1,.28-.77,1.72,1.72,0,0,1,.54-.5,2,2,0,0,1,.72-.24,3.17,3.17,0,0,1,.87,0,1.84,1.84,0,0,1,.42.1,1.14,1.14,0,0,1,.34.19.85.85,0,0,1,.27.42,3.63,3.63,0,0,1,.13.64,5.34,5.34,0,0,1,0,.69,4.06,4.06,0,0,0,.08.71l0,.1a.34.34,0,0,0,.28.19l.14,0,.21,0a.54.54,0,0,0,.53-.22,1.35,1.35,0,0,0,.15-.47c.05-.2.09-.43.13-.67l.09-.7c0-.21,0-.37.05-.46a.36.36,0,0,0-.17-.37A3.51,3.51,0,0,0,151,3.44Z"/><path class="cls-1" d="M162.3,5.27c-.23-.12-.46-.24-.69-.34a6.65,6.65,0,0,0-1.9-.53,5.57,5.57,0,0,0-2,.06,3.65,3.65,0,0,0-1.7.85,3,3,0,0,0-.95,1.84,3.64,3.64,0,0,0-.06.93,2.52,2.52,0,0,0,.21.94,4.15,4.15,0,0,0,1,1.38,10.86,10.86,0,0,0,1.19,1q.62.44,1.17.87a3.65,3.65,0,0,1,.89,1,1.57,1.57,0,0,1,.16.49,1.75,1.75,0,0,1,0,.56,2.07,2.07,0,0,1-.11.55,1.61,1.61,0,0,1-.24.45,1.71,1.71,0,0,1-.57.49,2.59,2.59,0,0,1-.84.24,3.52,3.52,0,0,1-1,0,2.67,2.67,0,0,1-.89-.35,1.58,1.58,0,0,1-.55-.6,1.69,1.69,0,0,1-.16-.66,4.09,4.09,0,0,1,0-.7,1.23,1.23,0,0,0,0-.13V13.5a2.71,2.71,0,0,0,0-.29,1.36,1.36,0,0,0,0-.29.35.35,0,0,0-.28-.29l-.58-.1a.37.37,0,0,0-.45.32c0,.35-.13.7-.22,1.08s-.18.72-.27,1.1a.4.4,0,0,0,0,.28,1.87,1.87,0,0,0,.69.71,5.18,5.18,0,0,0,1,.46c.35.12.7.22,1,.3l.91.18a7,7,0,0,0,1.21.1h.47a4.76,4.76,0,0,0,1.58-.38,3.25,3.25,0,0,0,2-2.58,3.57,3.57,0,0,0-.15-1.9,3.49,3.49,0,0,0-1.11-1.52,5.12,5.12,0,0,0-.55-.4c-.19-.11-.37-.23-.54-.35a12.76,12.76,0,0,1-1.16-.86A4.08,4.08,0,0,1,158,8a1.78,1.78,0,0,1-.21-.58,2.18,2.18,0,0,1,0-.62,1.69,1.69,0,0,1,.31-.76,1.82,1.82,0,0,1,.56-.47,1.94,1.94,0,0,1,.73-.22,3.14,3.14,0,0,1,.86,0,2,2,0,0,1,.42.11,1.15,1.15,0,0,1,.33.21.89.89,0,0,1,.26.44,3.29,3.29,0,0,1,.1.64q0,.34,0,.69a3.3,3.3,0,0,0,0,.71.6.6,0,0,0,0,.11.32.32,0,0,0,.27.19l.14,0,.21.05a.75.75,0,0,0,.26,0,.49.49,0,0,0,.28-.19,1.57,1.57,0,0,0,.17-.47q.08-.3.15-.66t.12-.69l.07-.47a.37.37,0,0,0-.15-.37A4.3,4.3,0,0,0,162.3,5.27Z"/><path class="cls-1" d="M172.17,7.57a.34.34,0,0,0,0-.26.29.29,0,0,0-.23-.15l-5-1.09a.36.36,0,0,0-.29,0,.28.28,0,0,0-.13.2.35.35,0,0,0,.13.38,1.3,1.3,0,0,0,.29.16l.31.11.32.09.21.06-2.19,10.19-.26-.06-.39-.05a1.46,1.46,0,0,0-.42,0,.73.73,0,0,0-.39.2.3.3,0,0,0-.09.24l0,.13.08.06a.34.34,0,0,0,.2.09l5.11,1.1.11,0,.12,0,.12-.05,0-.08a.35.35,0,0,0,0-.26.7.7,0,0,0-.28-.34,1.43,1.43,0,0,0-.37-.19l-.38-.11-.25-.05,0,0,2.18-10.13.53.06a1.83,1.83,0,0,0,.66,0A.38.38,0,0,0,172.17,7.57Z"/><path class="cls-1" d="M186.65,11l-3.87-1.06a.35.35,0,0,0-.27,0l-.12.14,0,.17c0,.06-.05.27.25.39l.2.07.35.11.55.21.39.18-1.86,6.85a1,1,0,0,1,0-.24,3,3,0,0,0-.12-.55c-.46-1.3-.94-2.57-1.4-3.78L179.24,9.7a1.1,1.1,0,0,1-.07-.17l-.09-.24a2.43,2.43,0,0,0-.14-.28.48.48,0,0,0-.25-.21l-3.36-.92a.32.32,0,0,0-.29,0,.28.28,0,0,0-.13.21.42.42,0,0,0,.13.37.53.53,0,0,0,.19.11l.1.05,0,0,.28.16,0,0-2.58,10h0a3.15,3.15,0,0,0-.42-.09,2,2,0,0,0-.42,0,.49.49,0,0,0-.41.27.34.34,0,0,0,0,.31.39.39,0,0,0,.26.21l3.87,1.06a.35.35,0,0,0,.32-.05.28.28,0,0,0,.11-.23.45.45,0,0,0-.14-.34,1.31,1.31,0,0,0-.31-.19l-.47-.21-.5-.2-.3-.12-.18-.07,2.21-8.59v0a4.75,4.75,0,0,0,.14.46l2.14,6.09c.5,1.41,1,2.83,1.55,4.27a1.15,1.15,0,0,1,.06.17.59.59,0,0,0,.18.27,1,1,0,0,0,.22.12l.26.09.05,0,.32.12a1.08,1.08,0,0,1,.21.11.75.75,0,0,0,.26.11h.09a.6.6,0,0,0,.23,0c.16,0,.19-.18.24-.43l.29-1.25,2.53-9.29.41.09a3.76,3.76,0,0,0,.53.1.46.46,0,0,0,.53-.23.34.34,0,0,0-.24-.47Zm-2.33.11Zm-10,8.35h0v-.06h0Zm8.36-9.3Z"/><path class="cls-1" d="M197.12,16.59c0,.26,0,.52-.05.79a4.73,4.73,0,0,1-.07.73,1,1,0,0,1,0,.12.33.33,0,0,0,.23.39l.56.21a.41.41,0,0,0,.3,0,.36.36,0,0,0,.2-.23l.92-2.47c.1-.28-.16-.52-.4-.7h0a9,9,0,0,0-.91-.6c-.33-.19-.67-.38-1-.54s-.57-.27-.68-.31a7.54,7.54,0,0,0-2.62-.5h0a6,6,0,0,0-2.4.49,5.79,5.79,0,0,0-2,1.43,6.78,6.78,0,0,0-1.37,2.31,7,7,0,0,0-.46,2.61,6,6,0,0,0,.55,2.36,6,6,0,0,0,1.46,1.94A7.23,7.23,0,0,0,191.64,26a11.49,11.49,0,0,0,1.34.42,4.43,4.43,0,0,0,1.08.13h.36a5.12,5.12,0,0,1,.56,0,3,3,0,0,0,.61-.08.38.38,0,0,0,.3-.25l1.37-3.73.24.05c.12,0,.24.05.37.06a.59.59,0,0,0,.49-.13.79.79,0,0,0,.21-.43v-.13l-.07-.07a.57.57,0,0,0-.18-.12l-4.67-1.72c-.24-.09-.41.18-.51.43a.36.36,0,0,0,.09.42l.26.18.36.19.37.18.27.12c0,.06,0,.08,0,.08l-1.48,4a.63.63,0,0,1-.2,0l-.36-.13A3.72,3.72,0,0,1,191,24.3a3.42,3.42,0,0,1-.78-1.69,6.29,6.29,0,0,1,0-1.89,9.08,9.08,0,0,1,.49-2,9.94,9.94,0,0,1,.9-1.82,6.16,6.16,0,0,1,1.22-1.44,3.26,3.26,0,0,1,1.62-.78,3.53,3.53,0,0,1,1.8.19,4.92,4.92,0,0,0,.58.19.61.61,0,0,1,.34.24l.06.12s0,.06,0,.13,0,.33,0,.49S197.13,16.42,197.12,16.59Z"/></g></g></svg>