<svg xmlns="http://www.w3.org/2000/svg" viewBox="0 0 99.06 99.06"><defs><style>.cls-1{fill:#fff;}</style></defs><g id="圖層_2" data-name="圖層 2"><g id="圖層_1-2" data-name="圖層 1"><path class="cls-1" d="M49.53,99.06A49.53,49.53,0,1,1,99.06,49.53,49.59,49.59,0,0,1,49.53,99.06Zm0-96.62A47.09,47.09,0,1,0,96.62,49.53,47.14,47.14,0,0,0,49.53,2.44Z"/><path class="cls-1" d="M24,75.76v-26a.74.74,0,0,1,.11-.38.39.39,0,0,1,.36-.21,2.72,2.72,0,0,1,.56.15c.29.1.61.22,1,.38s.69.31,1,.44l.68.27c1.1.43,2.22.81,3.38,1.15a12.78,12.78,0,0,0,3.51.5h2.59a1.57,1.57,0,0,0,1-.44,7.2,7.2,0,0,0,.94-1L40,49.4a2.8,2.8,0,0,1,.7-.74,1.11,1.11,0,0,1,.56-.18,1.45,1.45,0,0,1,.56.12,3.23,3.23,0,0,1,.86.56l1.35,1.09c.49.39,1,.78,1.39,1.15s.72.64.88.79l.26.24.45.41.38.41a.57.57,0,0,1,.15.24.68.68,0,0,1-.33.41,6.11,6.11,0,0,1-.59.36,3,3,0,0,0-.59.41.67.67,0,0,0-.26.47V73.22c0,.32-.29.59-.88.83a15.1,15.1,0,0,1-2,.62c-.76.17-1.5.31-2.21.41a12.21,12.21,0,0,1-1.47.15.93.93,0,0,1-.41-.12.38.38,0,0,1-.24-.35V54a.51.51,0,0,0-.58-.59H32.07l-.42.17-.41.42-.18.41V68.33a1,1,0,0,0,.21.59,1.12,1.12,0,0,1,.21.65.59.59,0,0,1-.15.41,1.12,1.12,0,0,0-.21.36,3.23,3.23,0,0,0-.12.91,8.39,8.39,0,0,0,.06,1,8.27,8.27,0,0,1,.06,1,2.39,2.39,0,0,1-.17.89,2.23,2.23,0,0,1-1.12,1,10.79,10.79,0,0,1-2.06.82,9.73,9.73,0,0,1-2.18.39,2.17,2.17,0,0,1-1.48-.3ZM39.53,68.6c0,.11.2,1.42,0,1.44l-.38,0-.74,0c-.3,0-5.85,0-6.18,0a6.22,6.22,0,0,1-.91-.06c-.28,0-.77-1.35-.89-1.47s.07-.13.21-.17a1.16,1.16,0,0,1,.32-.06l.71,0a9.37,9.37,0,0,1,1.06,0c.35,0,5.91,0,6.21.09A1.08,1.08,0,0,1,39.53,68.6ZM33,23.86c0-.35.19-.53.59-.53a4.09,4.09,0,0,1,1.85.5c.65.34,1.31.69,2,1.06s1.35.73,2.06,1.06a4.93,4.93,0,0,0,2.18.5H54.92A1.66,1.66,0,0,0,55.8,26,11.78,11.78,0,0,0,57,24.89a15.6,15.6,0,0,0,1.12-1.23,11,11,0,0,0,.68-.92l.35-.17a6.55,6.55,0,0,1,1.39.82c.6.43,1.24.93,1.91,1.5s1.3,1.13,1.88,1.68a15.54,15.54,0,0,1,1.24,1.24.61.61,0,0,1-.26.53c-.18.12-.38.23-.59.35a4.31,4.31,0,0,0-.59.39.59.59,0,0,0-.27.49V45.3c0,.36-.3.63-.91.83a14.63,14.63,0,0,1-2.06.47,19.79,19.79,0,0,1-2.24.23q-1.09.06-1.5.06c-.32,0-.51-.19-.59-.59a11.5,11.5,0,0,1-.32-2.15c-.06-.8-.1-1.62-.12-2.47s0-1.68,0-2.5V36.94c0-.28,0-.91,0-1.92s0-2.06,0-3.18,0-1.08,0-2A4.63,4.63,0,0,0,56,28.43a6.09,6.09,0,0,0-1.09-.11c-.65,0-1.47-.06-2.45-.06H49.28q-1.74,0-3.33,0l-2.79,0H41.54a.51.51,0,0,0-.59.58L40.9,40.11a.52.52,0,0,0,.59.59H54.68a.33.33,0,0,1,.24.11c-.08.32-.28,1.37-.59,1.37H41.25a.58.58,0,0,0-.56.47,3.89,3.89,0,0,0-.14,1.06,11.66,11.66,0,0,0,.06,1.18c0,.39,0,.67,0,.83,0,.31-.36.6-1.08.88a16.3,16.3,0,0,1-2.45.68,19,19,0,0,1-2.53.32c-.79,0-1.24,0-1.36-.12a2.51,2.51,0,0,1-.23-.35Zm32,28,.74-.76c.37-.4.76-.8,1.18-1.21s.8-.79,1.18-1.12.61-.5.73-.5a2.52,2.52,0,0,1,1.12.65q.82.65,1.8,1.44c.65.53,1.26,1.06,1.85,1.59a9,9,0,0,0,1.3,1l.17.24a.78.78,0,0,1-.26.67,2.66,2.66,0,0,1-.62.36,4,4,0,0,0-.62.32.68.68,0,0,0-.26.59V73.81l-.18.3a9.5,9.5,0,0,1-3.18.94,26,26,0,0,1-3.36.24A.52.52,0,0,1,66,74.7V53.37a.52.52,0,0,0-.59-.59H58.81L58.4,53l-.06.06-.18.41c0,.47,0,1.29,0,2.45s0,2.47,0,3.94,0,3,0,4.66,0,3.13,0,4.5-.09,2.56-.15,3.54a5.75,5.75,0,0,1-.26,1.76,4.19,4.19,0,0,1-1.3,1,11.41,11.41,0,0,1-2.27.94,7.19,7.19,0,0,1-2.18.32c-.64,0-1-.3-1-.85q0-6.6-.2-13.14t-.21-13.13c0-.36.19-.53.59-.53a7.43,7.43,0,0,1,2.68.5c.88.33,1.77.7,2.68,1.12s1.81.78,2.74,1.12a8.38,8.38,0,0,0,2.85.5c.4,0,.79,0,1.18,0s.79,0,1.18,0Zm2.86,17.1c0,.12.45,1.18.23,1.2l-.44,0c-.2,0-4.47,0-4.78,0s-2.49,0-2.84,0-3.55,0-3.84,0S58,69,57.87,68.88s.15-.19.44-.21l.56,0h1.65c.32,0,6.48.08,6.77.12A1.08,1.08,0,0,1,67.85,68.94Z"/></g></g></svg>