<svg xmlns="http://www.w3.org/2000/svg" viewBox="0 0 99.06 99.06"><defs><style>.cls-1{fill:#fff;}</style></defs><g id="圖層_2" data-name="圖層 2"><g id="圖層_1-2" data-name="圖層 1"><path class="cls-1" d="M49.53,99.06A49.53,49.53,0,1,1,99.06,49.53,49.59,49.59,0,0,1,49.53,99.06Zm0-96.62A47.09,47.09,0,1,0,96.62,49.53,47.14,47.14,0,0,0,49.53,2.44Z"/><path class="cls-1" d="M22.23,37.28a3.37,3.37,0,0,1,.94-1.53,29.2,29.2,0,0,1,2.12-2.27c.79-.77,1.52-1.43,2.21-2s1.09-.84,1.21-.8a1.25,1.25,0,0,1,.41.29,4,4,0,0,1,.44.54c.14.19.27.38.38.56a.82.82,0,0,1,.18.44c0,.82,0,1.7-.12,2.62a8.72,8.72,0,0,1-.59,2.56,4.83,4.83,0,0,1-1.41,2,3.8,3.8,0,0,1-2.53.8Q22.23,40.46,22.23,37.28Zm14,24c.15,0,.47.15.94.32s.95.39,1.44.62a12.69,12.69,0,0,1,1.3.71c.37.24.56.41.56.53s-.11.27-.32.44l-.68.56a5.46,5.46,0,0,0-.68.68,1.2,1.2,0,0,0-.32.79,1.26,1.26,0,0,0,.79,1.21c.53.26,1.11.52,1.74.8a8,8,0,0,1,1.74,1,2.19,2.19,0,0,1,.79,1.85,2.27,2.27,0,0,1-2.59,2.54c-.31,0-.74,0-1.27-.06a.87.87,0,0,1-.91-.71L38,68.32a.41.41,0,0,0-.29-.32,1.17,1.17,0,0,0-.41-.09c-.28,0-.72.31-1.33.94s-1.33,1.31-2.18,2a19.55,19.55,0,0,1-2.82,2,6.35,6.35,0,0,1-3.33,1l-.12-.24a31.45,31.45,0,0,0,2.12-2.68,34.23,34.23,0,0,0,2.09-3.3,23.4,23.4,0,0,0,1.62-3.5,9.69,9.69,0,0,0,.65-3.3c0-.31-.2-.52-.59-.62a5.16,5.16,0,0,0-1.44-.12q-.86,0-1.86.12l-1.85.15a6.74,6.74,0,0,1-1.45,0c-.39-.06-.59-.23-.59-.5s.19-1.37.46-1.37H64A1.6,1.6,0,0,0,65,58,6.35,6.35,0,0,0,66,57c.32-.42,0,.18.25-.25a2.66,2.66,0,0,0,.32-1.06.93.93,0,0,0-.44-.83,1.66,1.66,0,0,0-.91-.29,2.53,2.53,0,0,0-1.33.38c-.41.26-.82.53-1.23.82a12,12,0,0,1-1.36.83,3.65,3.65,0,0,1-1.68.38,1.42,1.42,0,0,1-.59-.09c-.12-.06-.21-.22-.29-.5a7.17,7.17,0,0,1-.15-1.76q0-.95,0-1.83c-.12-2.47-.18-5-.18-7.48a.73.73,0,0,1,.09-.35.34.34,0,0,1,.33-.18,3.65,3.65,0,0,1,1.56.38c.53.26,1.05.53,1.56.83s1,.56,1.53.79a3.45,3.45,0,0,0,1.47.36,2.21,2.21,0,0,0,1.24-.39,5.64,5.64,0,0,0,1.06-.88l.82-.88c.24-.26.44-.39.59-.39a2.29,2.29,0,0,1,.92.47c.45.32.93.68,1.44,1.09s1,.82,1.35,1.21.59.65.59.77a.85.85,0,0,1-.35.61,5,5,0,0,0-.53.56,2.37,2.37,0,0,0-.15,1c0,.51,0,1.09,0,1.73s0,1.26,0,1.83,0,1,0,1.21a.49.49,0,0,1-.23.44l-.5.29a1.44,1.44,0,0,0-.47.42,1.13,1.13,0,0,0-.21.73,1.19,1.19,0,0,0,.44.92,7.74,7.74,0,0,0,1,.7c.36.22.68.44,1,.65a.92.92,0,0,1,.45.74c0,.19-.11.31-.33.35a4.13,4.13,0,0,0-.5.12,10.65,10.65,0,0,1-2.33,0c-1.15-.08-2.35-.15-3.59-.21a22,22,0,0,0-3.3.06c-1,.1-1.44.37-1.44.8a1,1,0,0,0,.65,1,8.09,8.09,0,0,0,1.41.53c.51.14,1,.25,1.42.35s.64.27.64.5-.11.3-.32.41-.46.27-.74.45a3,3,0,0,0-.73.65A1.59,1.59,0,0,0,63.87,66c0,.28.27.52.8.71s1.12.45,1.77.77A6.47,6.47,0,0,1,68.2,68.7,3.08,3.08,0,0,1,69,71a2.19,2.19,0,0,1-.83,1.83,3,3,0,0,1-1.94.65c-1.22,0-2-.37-2.33-1.09a6.33,6.33,0,0,1-.5-2.63c0-.07,0-.21,0-.41a6,6,0,0,0,0-.62,1.6,1.6,0,0,0-.09-.56c-.06-.15-.14-.23-.26-.23a2.77,2.77,0,0,1-.53,0c-.08,0-.24.07-.47.26a3.32,3.32,0,0,0-.53.53,7.23,7.23,0,0,1-.53.59A13.9,13.9,0,0,1,60,70.35c-.46.42-.93.83-1.42,1.24a8.73,8.73,0,0,1-1.5,1,2.94,2.94,0,0,1-1.41.41c-.28,0-.42-.12-.42-.35a5.84,5.84,0,0,1,.59-1.94c.39-.91.84-1.91,1.33-3s.93-2.24,1.32-3.41A10.14,10.14,0,0,0,59,61.08a.52.52,0,0,0-.59-.59H53.39a.52.52,0,0,0-.59.59c0,.86,0,2,.09,3.35s.09,2.78.11,4.21,0,2.81,0,4.13a11.58,11.58,0,0,1-.45,3,.88.88,0,0,1-.94.77H23.82c-.32,0-.47-.13-.47-.39s.2-1.3.51-1.3H45.25a.52.52,0,0,0,.59-.58l-.05-13.22a.52.52,0,0,0-.59-.59H36.78a.77.77,0,0,0-.83.59Zm4.53-13.25-.11.35-.56.56a.91.91,0,0,0-.33.62v5.95l-.17.35a7,7,0,0,1-1.77.71,15.26,15.26,0,0,1-2,.35l-.41-.17A1.49,1.49,0,0,1,35,56.1a4.57,4.57,0,0,0-.24-.74,1.71,1.71,0,0,0-.38-.59,1.09,1.09,0,0,0-.77-.23,2,2,0,0,0-1.38.5c-.37.33-.76.7-1.15,1.09a8.19,8.19,0,0,1-1.38,1.09,3.79,3.79,0,0,1-2,.5,1.3,1.3,0,0,1-.36-.53,8.62,8.62,0,0,1-.23-2.12q-.06-1.65-.12-3.57c0-1.27-.06-2.51-.06-3.71v-2.5a.73.73,0,0,1,.09-.35.32.32,0,0,1,.32-.18,3.12,3.12,0,0,1,1.36.35c.47.24,1,.5,1.47.8s1,.56,1.53.79a3.57,3.57,0,0,0,1.53.36,2.15,2.15,0,0,0,1.18-.3,3.28,3.28,0,0,0,.82-.71c.24-.27.46-.53.65-.79a1.34,1.34,0,0,1,.71-.5c.12,0,.37.07.77.32A14,14,0,0,1,38.6,46c.43.35.84.7,1.21,1.06a8.46,8.46,0,0,0,.8.7ZM66,22.49a4,4,0,0,1,1.06.56c.51.34,1.06.72,1.65,1.15s1.13.86,1.62,1.27l1,.85a2.15,2.15,0,0,1,.53.74,3.69,3.69,0,0,1,.18.65l.12.64a1.53,1.53,0,0,0,.35.68,10.29,10.29,0,0,0,.92.94l1.44,1.39q.77.73,1.35,1.35c.4.42.59.7.59.86s-.35.57-1.06,1.12a28.63,28.63,0,0,1-2.41,1.67c-.91.57-1.78,1.07-2.62,1.51a5.09,5.09,0,0,1-1.68.64,1.12,1.12,0,0,1-.92-.32.83.83,0,0,0-.67-.32H55.63c-.28,0-.72-.57-.72-.85s.55-.82.83-.82l5.65,0c.28,0,.6-.22,1-.67a9.21,9.21,0,0,0,1-1.48c.27-.53.15-.09.21-.54s-.09-.68-.44-.68H54.86a.94.94,0,0,1-.68-.73c0-.28.34-.77.62-.77h4.09l3.06,0c1.08,0,2.08,0,3,0l2.3-.06c.62,0,1.54,0,1.62,0a2.53,2.53,0,0,0,.65-.56c.31-.34.65-.71,1-1.12a4.06,4.06,0,0,0,.41-.53,1.72,1.72,0,0,0,.39-.71.86.86,0,0,0-.27-.53.74.74,0,0,0-.5-.29H53.45a.52.52,0,0,0-.59.59V42.4c0,.55-.36,1-1.06,1.18a9.35,9.35,0,0,1-2.33.44,13.14,13.14,0,0,1-2.36,0c-.72-.08-1.1-.15-1.14-.23a1.65,1.65,0,0,1-.09-.21,1.13,1.13,0,0,0-.09-.2q-.12-2.66-.24-5.25c-.08-1.73-.11-3.47-.11-5.24,0-.27,0-.65,0-1.12s0-1,.08-1.47a11.49,11.49,0,0,0,0-1.42,8.92,8.92,0,0,0-.09-1c-.07-.39-.27-.59-.58-.59H28.18c-.2,0-.3-.07-.3-.23a5.25,5.25,0,0,1,.12-1.5.68.68,0,0,1,.38-.15H62c.15,0,2.28-1.56,2.72-1.87a3,3,0,0,0,.9-1ZM39.72,39.34a4.26,4.26,0,0,1,.86.44c.41.26.83.55,1.26.88s.82.65,1.15,1,.5.5.5.62-.17.29-.53.41a2.68,2.68,0,0,1-.7.17H30.89c-.2,0-.34-.16-.42-.5s.14-1.23.53-1.23h5.6a2.07,2.07,0,0,0,1-.25c.26-.21.51-.43.81-.69s.81-.56.93-.68ZM31,31.68a.35.35,0,0,1,.24-.12H44a.27.27,0,0,1,.3.3c0,.19-.18,1-.53,1a11,11,0,0,1-1.21.06c-.45,0-.89,0-1.33-.06s-.72-.06-.88-.06-.26.09-.32.27a1.37,1.37,0,0,0-.09.44,1.71,1.71,0,0,0,.56,1.29,6.34,6.34,0,0,0,1.21.92c.43.25.83.51,1.2.76a1.05,1.05,0,0,1,.56.86c0,.23-.15.35-.47.35H32a.26.26,0,0,1-.3-.29c0-.24.44-1.06.92-1.08s1,0,1.61,0l1.77.12a2.18,2.18,0,0,0,1.15-.12,4.62,4.62,0,0,0,1.06-.9,7.94,7.94,0,0,0,.65-1,1.78,1.78,0,0,0,.26-.68,1,1,0,0,0-.29-.59c-.2-.23-.37-.35-.53-.35H31.59a.68.68,0,0,1-.38-.15C31.07,32.56,31,31.8,31,31.68ZM32.06,53c0,.15.15.27.45.35a2.87,2.87,0,0,0,.94.09,4.62,4.62,0,0,0,.94-.15c.3-.08.44-.18.44-.29v-4.3c0-.2-.14-.34-.44-.42a3.56,3.56,0,0,0-.94-.12,3.14,3.14,0,0,0-.94.15q-.45.15-.45.39Zm10.61,3.41V45.82a1.27,1.27,0,0,1,.09-.47.35.35,0,0,1,.38-.24,2.63,2.63,0,0,1,1,.33c.45.21,1,.44,1.53.67s1.15.47,1.74.68a4.61,4.61,0,0,0,1.59.33,2,2,0,0,0,1.12-.36A5.18,5.18,0,0,0,51,46c.28-.3.52-.57.74-.83a.87.87,0,0,1,.62-.38,2.67,2.67,0,0,1,1.09.35A7.65,7.65,0,0,1,54.8,46,8.15,8.15,0,0,1,56,47.12a1.7,1.7,0,0,1,.5,1,.74.74,0,0,1-.18.41,2.43,2.43,0,0,1-.29.35l-.18.41v6.07c0,.2-.18.38-.56.53a6,6,0,0,1-1.29.38c-.49.1-1,.18-1.45.24a9.24,9.24,0,0,1-.94.09.67.67,0,0,1-.68-.33c-.09-.21-.18-.45-.26-.7a2.61,2.61,0,0,0-.35-.71,1.15,1.15,0,0,0-1-.32,2.16,2.16,0,0,0-1.29.38l-1.12.82a11.58,11.58,0,0,1-1.27.83A3.42,3.42,0,0,1,44,57h-.53a1.16,1.16,0,0,1-.53-.17Zm7.77-7.48a.81.81,0,0,0-.41-.68,2.25,2.25,0,0,0-.91-.32,2,2,0,0,0-.92.09.52.52,0,0,0-.41.5v4.53a.56.56,0,0,0,.41.53,2,2,0,0,0,.92.15,2.49,2.49,0,0,0,.91-.23.68.68,0,0,0,.41-.62Zm25.92,26.8q.3.12.24.27a.62.62,0,0,1-.27.26,3,3,0,0,1-.44.21,1.17,1.17,0,0,1-.35.09H54.33a.82.82,0,0,1-.32-.09.29.29,0,0,1-.21-.27c0-.07.29-1,.51-1.15a1.45,1.45,0,0,1,.44-.14L67.9,75a1.63,1.63,0,0,0,1.15-.74,15.36,15.36,0,0,0,1.18-1.64c.37-.61.06-.35.42-.84s.66-.74.94-.74l.06.06c.78.75,1.6,1.49,2.44,2.24A17.17,17.17,0,0,1,76.36,75.74ZM54.78,42.43a2.12,2.12,0,0,1-.13-1.35c.14-.18,1-.06,1.17-.06l7.35,0a1,1,0,0,0,.61-.39,10.29,10.29,0,0,0,.8-.88c.27-.33-.18.14.06-.12a1,1,0,0,1,.65-.38h.53a1.73,1.73,0,0,1,.7.41c.36.28.74.58,1.15.92a12.37,12.37,0,0,1,1.12,1,6.2,6.2,0,0,1,.62.67l-.24.36-.41.17H55.86Zm9.68,5.86a.52.52,0,0,0-.59.59v3.95a.52.52,0,0,0,.59.59h1.59a.52.52,0,0,0,.59-.59V48.88a.52.52,0,0,0-.59-.59ZM65.29,33a5.87,5.87,0,0,0-.53.29.54.54,0,0,0-.3.47c0,.12.17.37.5.74s.73.77,1.18,1.18.87.77,1.27,1.09a2,2,0,0,0,.76.47c.24,0,.42-.16.53-.47A5.3,5.3,0,0,0,69,35.69a11.79,11.79,0,0,0,.12-1.18c0-.39,0-.67,0-.83,0-.47-.2-.7-.59-.7Z"/></g></g></svg>