<svg xmlns="http://www.w3.org/2000/svg" viewBox="0 0 99.06 99.06"><defs><style>.cls-1{fill:#fff;}</style></defs><g id="圖層_2" data-name="圖層 2"><g id="圖層_1-2" data-name="圖層 1"><path class="cls-1" d="M49.53,99.06A49.53,49.53,0,1,1,99.06,49.53,49.59,49.59,0,0,1,49.53,99.06Zm0-96.62A47.09,47.09,0,1,0,96.62,49.53,47.14,47.14,0,0,0,49.53,2.44Z"/><path class="cls-1" d="M23.2,41.83H35.39l.63,1-.63.94H23.2l-.76-.94ZM70.38,50.4a.64.64,0,0,1-.32.39l-.56.29a2.23,2.23,0,0,0-.53.38.88.88,0,0,0-.24.65V74.73c0,.36-.29.66-.88.91a9.71,9.71,0,0,1-2,.62c-.77.16-1.53.28-2.27.36s-1.26.11-1.53.11a.45.45,0,0,1-.39-.14l-.2-.39a5.6,5.6,0,0,1-.33-1.88c0-.75,0-1.39,0-1.94V51.72a.52.52,0,0,0-.59-.59H44a.52.52,0,0,0-.59.59v18a.52.52,0,0,0,.59.59H59.43c.31,0,.42,1.57.32,1.85a.6.6,0,0,1-.62.41H44.46c-.35,0-.59.26-.7.77a4.51,4.51,0,0,1-.42,1.18,3.58,3.58,0,0,1-1.26,1.38,5.55,5.55,0,0,1-1.74.71,13.72,13.72,0,0,1-1.94.26q-1,.06-1.89.06a.52.52,0,0,1-.59-.59V58.77a7.65,7.65,0,0,1,.12-1c.08-.49.15-1,.21-1.51a6.24,6.24,0,0,0,0-1.35c0-.39-.2-.59-.48-.59a3.62,3.62,0,0,0-.67.44c-.34.26-.69.54-1.06.86s-.74.63-1.09.94-.61.53-.77.65a45.81,45.81,0,0,1-4.15,2.94,31.17,31.17,0,0,1-4.51,2.36l-.17-.18a8,8,0,0,1,.76-.88c.28-.28.55-.57.83-.89C25.52,60.05,26,59.5,26.5,59s1-1.1,1.47-1.65c1.45-1.69,3-3.61,4.57-5.75a64.76,64.76,0,0,0,4.36-6.71,45.83,45.83,0,0,0,3.26-7.16,21.08,21.08,0,0,0,1.3-7.13c0-.39-.18-.59-.53-.59-1.45,0-2.91.07-4.36.21s-2.91.21-4.36.21h-.62l-.94,0a5.2,5.2,0,0,1-.88-.12q-.39-.09-.39-.27c0-.11.21-.22.62-.32s.68-.17.8-.21q5.06-1,10.07-1.79t10-2c1.57-.39,3.13-.79,4.66-1.2l4.65-1.27,2.06-.62a12.58,12.58,0,0,1,2.07-.44,1.94,1.94,0,0,1,.55,0,1.79,1.79,0,0,1,.39.32l1,1.06L68,25.25q.89.95,1.56,1.74a2.93,2.93,0,0,1,.67,1c0,.2-.11.32-.35.36a4.72,4.72,0,0,1-.53.05q-3.52,0-6.92.27c-2.26.18-4.55.4-6.86.68-.28,0-.66.08-1.15.11l-1.53.15a14.11,14.11,0,0,0-1.47.24,4.63,4.63,0,0,0-1,.32,21.76,21.76,0,0,0-1.26,2.45c-.38.84-.76,1.67-1.15,2.5q-1.06,2.35-2.09,4.68T43.7,44.4A8.78,8.78,0,0,1,43,45.66a6.64,6.64,0,0,0-.65,1.27,3.13,3.13,0,0,0-.11.76.88.88,0,0,0,.7.92,4.41,4.41,0,0,0,1.24.2H60.31c.16,0,.4-.16.74-.5s.67-.7,1-1.12a10,10,0,0,0,.65-1,2,2,0,0,0,.41-.83,1.18,1.18,0,0,0-.21-.62,2,2,0,0,0-.44-.5c-.12-.11-.29-.37-1.09-.39s-1.79,0-2.95,0l-3.77.09-3.8.08c-1.17,0-2.2,0-3.06,0a4.33,4.33,0,0,1-1.59-.2c.08-.12.69-1.82,1-2a1.58,1.58,0,0,1,.68-.24l17.87.24c.27,0,.62-.22,1-.68A11.77,11.77,0,0,0,68,39.59c.37-.59-.06.15.19-.44a3.67,3.67,0,0,0,.39-1.29c0-.16,0-.37,0-.62a.35.35,0,0,0-.39-.38H49.82a.27.27,0,0,1-.29-.18.8.8,0,0,1,.15-.21c.06-.06.31-1.17.39-1.25l.41-.18,11.77.12c.31,0,.68-.24,1.09-.73a19.67,19.67,0,0,0,1.23-1.65c.42-.61,0-.23.39-.72s.63-.74.83-.74A3,3,0,0,1,67,32c.58.43,1.2.92,1.85,1.47L70.71,35,72,36.09l.12.35-.18.24c-1.14.12-1.81.33-2,.65A.92.92,0,0,0,70,38.45a7.16,7.16,0,0,0,1.47,1.41c.67.51,1.35,1,2,1.47s1.29.92,1.8,1.33.77.73.77,1a.27.27,0,0,1-.3.3H65c-.16,0-.3.1-.44.32s0,.59-.12.71v.35a2.59,2.59,0,0,0,.94,1q.91.7,1.95,1.47c.68.51,1.32,1,1.91,1.48A5,5,0,0,1,70.38,50.4ZM27.15,35l2.38,0c1.16,0,2.38,0,3.65,0s2.45,0,3.51,0a16.9,16.9,0,0,1,1.88.09L39,36l-.92.72H27.15l-.74-.89ZM44.82,64.36l.11-1.51a.24.24,0,0,1,.18-.06h1.65l2.86,0c1.08,0,2.22,0,3.41,0s2.3,0,3.3,0l2.54,0a5.16,5.16,0,0,1,1.14.06l-.35,1.51-.41.18h-14Zm1.06-9.19H59a1,1,0,0,1,.39.09c.13.06.24,1.27.32,1.39a.24.24,0,0,1-.18.06H57.81l-2.77,0q-1.56,0-3.3,0t-3.21,0l-2.48,0a5,5,0,0,1-1.12-.06Z"/></g></g></svg>