<svg xmlns="http://www.w3.org/2000/svg" viewBox="0 0 99.06 99.06"><defs><style>.cls-1{fill:#fff;}</style></defs><g id="圖層_2" data-name="圖層 2"><g id="圖層_1-2" data-name="圖層 1"><path class="cls-1" d="M49.53,99.06A49.53,49.53,0,1,1,99.06,49.53,49.59,49.59,0,0,1,49.53,99.06Zm0-96.62A47.09,47.09,0,1,0,96.62,49.53,47.14,47.14,0,0,0,49.53,2.44Z"/><path class="cls-1" d="M42.49,40a6.46,6.46,0,0,0-1.32-.47c-.69-.2-1.44-.39-2.24-.59s-1.58-.37-2.33-.53L35,38l-.24.17c-.11,3.46-.34,6.9-.67,10.34s-.5,6.88-.5,10.34a1.69,1.69,0,0,0,.06.41.27.27,0,0,0,.29.24c.2,0,.42-.21.68-.62a12.47,12.47,0,0,0,.73-1.42c.24-.53.45-1,.65-1.53s.33-.83.41-1c.79-1.92,1.56-3.85,2.33-5.77s1.46-3.89,2.09-5.89a9,9,0,0,0,.24-.89,1.88,1.88,0,0,1,.35-.82,1.38,1.38,0,0,1,.5-.41,4.31,4.31,0,0,0,.59-.39.82.82,0,0,0,.32-.38C42.88,40.25,42.77,40.12,42.49,40Z"/><path class="cls-1" d="M41,58.75a4.11,4.11,0,0,0-1.71.41c-.59.28-1.2.57-1.83.89s-1.25.6-1.88.88a4.77,4.77,0,0,1-1.89.41,2.77,2.77,0,0,1-.53-.06,1.18,1.18,0,0,0-.53,0l-10.3,2.53a.54.54,0,0,0-.48.54,4.1,4.1,0,0,0,.48,1.26c.31.65.66,1.36,1.06,2.12s.77,1.48,1.14,2.15.64,1.12.8,1.36a.66.66,0,0,0,.15.26c.09.14.18.21.26.21a3.46,3.46,0,0,0,.62-.44l1.27-1c.47-.38.92-.73,1.35-1.06s.71-.54.83-.62l2.88-2c1.06-.72,2.12-1.47,3.18-2.24s2.07-1.56,3-2.38a14.56,14.56,0,0,0,2.32-2.47,2.15,2.15,0,0,0,.24-.53C41.53,58.83,41.37,58.75,41,58.75Z"/><path class="cls-1" d="M23.29,34.89h19.5l.41-.17.23-.3a4.1,4.1,0,0,0-.7-1.15c-.44-.57-.92-1.15-1.45-1.73S40.23,30.42,39.72,30a3.05,3.05,0,0,0-1.06-.77l-.29.12a4.47,4.47,0,0,0-.74,1.21,1.34,1.34,0,0,1-1,.85l-.41-.18L36,30.83V24.94a.83.83,0,0,1,.44-.74.76.76,0,0,0,.44-.68c0-.35-.33-.6-1-.76a12.14,12.14,0,0,0-2.26-.3c-.85,0-1.67,0-2.48,0s-1.34,0-1.62,0l-.35.11a7.14,7.14,0,0,0-.15,1.8q0,1.56,0,3.48c0,1.27,0,2.48,0,3.62s0,.84,0,1.23-.31.66-.94.68A19.09,19.09,0,0,1,26,33.27l-2.1-.15c-.62,0-.93,1.16-.93,1.48S23.09,34.89,23.29,34.89Z"/><path class="cls-1" d="M25.29,39.84a.66.66,0,0,0-.47-.23.24.24,0,0,0-.24.2,1.29,1.29,0,0,0-.06.33c0,1.25.07,2.49.19,3.71s.22,2.45.29,3.71.14,2.66.2,4,.09,2.65.09,4a.88.88,0,0,0,.27.59,4,4,0,0,0,.65.56,5.12,5.12,0,0,0,.78.44,1.61,1.61,0,0,0,.68.18,2.81,2.81,0,0,0,1.78-.56,3.94,3.94,0,0,0,1.13-1.42,6.14,6.14,0,0,0,.57-1.82,12.25,12.25,0,0,0,.15-1.86,12.91,12.91,0,0,0-1.74-6.51A20.71,20.71,0,0,0,25.29,39.84Z"/><path class="cls-1" d="M76.1,52.68q-.85-.82-1.89-1.65c-.69-.55-1.33-1-1.94-1.44s-1-.6-1.15-.56l-.35.12L67.94,52l-.42.18-1.7,0-2.68.09a22.88,22.88,0,0,0-2.54.24c-.54.08-2.62,0-3.78,0a2.05,2.05,0,0,0,.4.49.89.89,0,0,1,.35.62v.66c1,0,3.13-.32,3.13-.08V75c0,.23.25.38.74.44a5.62,5.62,0,0,0,1.62-.06,5.32,5.32,0,0,0,1.62-.53,1.15,1.15,0,0,0,.73-1V55.22a.72.72,0,0,1,.5-.68A3.46,3.46,0,0,1,67,54.31a3.39,3.39,0,0,1,1.06.11c.33.1.5.23.5.39V68.65c0,.31-.21.55-.62.7a.93.93,0,0,0-.68.77,18.21,18.21,0,0,1,.77,3c.15,1,.33,2,.53,3.09a2.33,2.33,0,0,1,.08.36c0,.12.13.17.33.17a5.87,5.87,0,0,0,1.74-.32,9.66,9.66,0,0,0,2-.91,7.22,7.22,0,0,0,1.65-1.36A2.39,2.39,0,0,0,75,72.59V55.33a.53.53,0,0,1,.32-.47c.22-.12.45-.23.71-.35l.7-.33c.22-.09.33-.22.33-.38A5.28,5.28,0,0,0,76.1,52.68Z"/><path class="cls-1" d="M57,54.22c-.34-.14-.79-1.48-1-1.72a2.37,2.37,0,0,1,.79,0c0-.05-.06-.09-.07-.13a1.6,1.6,0,0,1,.47-.59c.19-.16.39-.33.59-.53a11.18,11.18,0,0,0,.85-.83c.25-.27.52-.56.8-.88a24.52,24.52,0,0,0,1.67-2.15,19,19,0,0,1,1.74-2.15.86.86,0,0,1,.47-.29H76.42l.59-.42.18-.41a1.71,1.71,0,0,0-.77-1.23,16.35,16.35,0,0,0-1.5-1,13.54,13.54,0,0,1-1.45-1,1.52,1.52,0,0,1-.64-1.26,1,1,0,0,1,.29-.83,2.87,2.87,0,0,1,.62-.38l.62-.3a.51.51,0,0,0,.29-.5V27.35a.57.57,0,0,1,.18-.41c.12-.12.24-.22.35-.32a1.22,1.22,0,0,0,.27-.3.19.19,0,0,0,0-.26,5.39,5.39,0,0,0-1.21-.27c-.65-.1-1.36-.19-2.15-.29l-2.24-.27c-.7-.08-1.18-.12-1.41-.12s-.47.18-.47.54v10.6a.52.52,0,0,1-.59.59h-.86l-1.38,0-1.27-.06c-.37,0-.58-.07-.61-.15l-.18-.35c0-.39,0-1.21,0-2.45s.06-2.54.11-3.91.12-2.63.18-3.77a8.88,8.88,0,0,1,.21-1.95c.08-.12.15-.24.23-.38a.86.86,0,0,0,.12-.44c0-.16-.14-.28-.41-.36a14.36,14.36,0,0,0-3.36-.58c-1.22-.08-2.35-.12-3.41-.12a.52.52,0,0,0-.59.59V36.25a.52.52,0,0,1-.59.59H51.86a.52.52,0,0,1-.59-.59V27.82a1,1,0,0,1,.59-.88A1.21,1.21,0,0,0,52.5,26l-.23-.18c-1.18-.19-2.36-.37-3.54-.53a27.78,27.78,0,0,0-3.53-.23c-.39,0-.59.17-.59.53q0,2.23.18,4.47c.12,1.5.17,3,.17,4.48a9.65,9.65,0,0,1-.38,2.74A10,10,0,0,0,44.2,40a.65.65,0,0,0,.23.53,1.24,1.24,0,0,0,.59.23,4.44,4.44,0,0,0,.74.06h.62a5.18,5.18,0,0,0,3-.91c.89-.61,1.47-.58,2.22-1.37l.41-.18H66.77a2,2,0,0,1,1.4.81.94.94,0,0,0,.44.33l.53.17a1.89,1.89,0,0,1,.45.21.56.56,0,0,1,.17.47,2,2,0,0,1-.35.83c-.24.39-.07,0-.37.36a9.81,9.81,0,0,1-.91,1.07c-.32.31-.55.47-.71.47H43.67l-.41.18-.12.23.12,1v.06l.41.18H54.62a.52.52,0,0,1,.59.59v6.83c0,.2-.11.32-.35.36a3.5,3.5,0,0,1-.59.05,8.23,8.23,0,0,1-2.71-.44c-.86-.29-1.72-.61-2.56-.94s-1.7-.65-2.56-.94a8.23,8.23,0,0,0-2.71-.44c-.4,0-.59.17-.59.53q0,2.3.15,4.59c.09,1.53.14,3.06.14,4.6q0,4.17.06,8.27t.06,8.28a.52.52,0,0,0,.59.59,8.68,8.68,0,0,0,1.15-.12q.8-.12,1.65-.33a6.43,6.43,0,0,0,1.5-.53c.43-.21.65-.46.65-.73V55.64a.79.79,0,0,1,.41-.76,2.41,2.41,0,0,1,1-.3,5.24,5.24,0,0,1,1.12,0,2.16,2.16,0,0,1,.86.24l.17.23V75.24c0,.39.26.59.77.59l1,0a8.92,8.92,0,0,0,1.24-.15,3.35,3.35,0,0,0,1.09-.38.82.82,0,0,0,.47-.73l.4-20.31A2.75,2.75,0,0,1,57,54.22Z"/><path class="cls-1" d="M57.22,53a2.05,2.05,0,0,1-.4-.49,2.37,2.37,0,0,0-.79,0c.19.24.64,1.58,1,1.72a2.75,2.75,0,0,0,.55,0v-.66A.89.89,0,0,0,57.22,53Z"/></g></g></svg>