<svg xmlns="http://www.w3.org/2000/svg" viewBox="0 0 99.06 99.06"><defs><style>.cls-1{fill:#fff;}</style></defs><g id="圖層_2" data-name="圖層 2"><g id="圖層_1-2" data-name="圖層 1"><path class="cls-1" d="M49.53,99.06A49.53,49.53,0,1,1,99.06,49.53,49.59,49.59,0,0,1,49.53,99.06Zm0-96.62A47.09,47.09,0,1,0,96.62,49.53,47.14,47.14,0,0,0,49.53,2.44Z"/><path class="cls-1" d="M26.13,62.28l-.05-.06-.18-.41q0-9.6-.18-19.05T25.55,23.7c0-.31.19-.47.58-.47a4.51,4.51,0,0,1,1.71.47c.71.32,1.44.67,2.18,1.06s1.48.75,2.18,1.06a4.42,4.42,0,0,0,1.71.47H41.8l.42-.17q.7-.77,1.38-1.59T45,22.94l.42-.18a7,7,0,0,1,1.53.74,22.9,22.9,0,0,1,2.12,1.41,15.09,15.09,0,0,1,1.85,1.62,2.29,2.29,0,0,1,.8,1.35.53.53,0,0,1-.27.47c-.17.12-.36.24-.56.36l-.56.35a.52.52,0,0,0-.26.41V59.28c0,.31-.26.57-.77.77a10.54,10.54,0,0,1-1.73.47c-.65.11-1.28.2-1.89.26s-1,.09-1.26.09h-1c-.41,0-.62-.2-.62-.59a8.46,8.46,0,0,0-.14-1.38.89.89,0,0,0-1-.8l-1.83,0c-.83,0-1.68.06-2.56.12s-1.72.13-2.51.2a11,11,0,0,0-1.59.24,3.68,3.68,0,0,0-.23.88,7.57,7.57,0,0,0-.06,1,1.78,1.78,0,0,0,.2.91,2.19,2.19,0,0,0,.68.62,8.13,8.13,0,0,0,1.27.68c.65.29,1.31.61,2,1s1.3.69,1.83,1,.79.58.79.73-.19.36-.59.36a3,3,0,0,1-.76-.06l-.41.18-3,2.91c-1.18,1.16-2.43,2.28-3.77,3.36a29.91,29.91,0,0,1-4,2.77,7.9,7.9,0,0,1-3.8,1.15q-.48,0-.48-.36a3.18,3.18,0,0,1,.56-1c.38-.53.86-1.19,1.45-2s1.21-1.64,1.85-2.56,1.27-1.84,1.86-2.74A23,23,0,0,0,30.05,65a4.52,4.52,0,0,0,.56-1.79c0-.12,0-.28,0-.47a.29.29,0,0,0-.32-.3H26.55ZM42.45,37.07a.83.83,0,0,1,.21-.38.56.56,0,0,0,.14-.38V29a.51.51,0,0,0-.58-.58H33.56A.51.51,0,0,0,33,29V55.17a.52.52,0,0,0,.59.59h8.66a.52.52,0,0,0,.58-.59V38.25a1.42,1.42,0,0,0-.14-.59A2.19,2.19,0,0,1,42.45,37.07Zm-8.07.5c0-.08.15-1.15.33-1.23a1,1,0,0,1,.38-.12l8.19,0a1.46,1.46,0,0,1,.38.09c.17.06.28,1.14.32,1.25a5.81,5.81,0,0,1-1.18.09c-.7,0-4.06,0-4.88,0s-1.6,0-2.3,0A7.21,7.21,0,0,1,34.38,37.57Zm.18,9.93c0-.2.11-1.14.42-1.2a4.21,4.21,0,0,1,.71-.09l1.15,0c.53,0,2.32,0,2.89,0a11.8,11.8,0,0,1,1.56.15c.48.08.82,1,.93,1.17s-.13.22-.41.3a3.83,3.83,0,0,1-1,.14l-1.06,0H37.86l-.77,0a8.33,8.33,0,0,1-1,0,6.76,6.76,0,0,1-1-.12A.68.68,0,0,1,34.56,47.5ZM48.75,75.42a8.48,8.48,0,0,1-1.53-.12,2.62,2.62,0,0,1-1.29-.71,7.26,7.26,0,0,1-.48-.91c-.27-.57-.6-1.29-1-2.15s-.82-1.8-1.29-2.8-.9-1.94-1.27-2.82S41.2,64.29,41,63.7a5.2,5.2,0,0,1-.38-1c0-.28.19-.42.59-.42a9.11,9.11,0,0,1,2.68.45,14.39,14.39,0,0,1,2.82,1.2,17.93,17.93,0,0,1,2.57,1.71,10,10,0,0,1,1.88,1.94A7,7,0,0,1,52.2,72.5a3.78,3.78,0,0,1-1,2.06A3.22,3.22,0,0,1,48.75,75.42ZM64.07,27.71a.79.79,0,0,1-.32.53l-.56.32a2.56,2.56,0,0,0-.53.35.71.71,0,0,0-.24.56v31a1.62,1.62,0,0,1-.68,1.38,4.47,4.47,0,0,1-1.65.74,9.33,9.33,0,0,1-2,.26l-1.59,0-.5,0c-.18,0-.27-.14-.27-.38q0-2.53,0-5c0-1.66,0-3.34-.08-5q-.12-6.42-.18-12.73t-.12-12.72c0-.12.09-.24.15-.38a.36.36,0,0,1,.38-.21,5.83,5.83,0,0,1,1.3.15c.43.1.86.19,1.29.26.91.12,1.79.22,2.65.3s1.75.2,2.65.35Zm1.65,40.41a3.31,3.31,0,0,0,.76-.51c.32-.25.48-.48.48-.67V23.05c0-.39.21-.59.64-.59s.82,0,1.62.12l2.54.27c.88.1,1.7.2,2.47.32a10.9,10.9,0,0,1,1.5.3c.36.11.49.25.41.41a1.34,1.34,0,0,1-.44.47c-.21.16-.45.33-.7.53a.83.83,0,0,0-.39.65V69.12a6.3,6.3,0,0,1-.82,3.27,7.68,7.68,0,0,1-2.15,2.32,9.77,9.77,0,0,1-3,1.42,12.12,12.12,0,0,1-3.3.47c-.07,0-.17-.14-.29-.41s-.23-.58-.35-.92-.23-.66-.33-1-.16-.53-.2-.65c-.2-.55-.37-1-.5-1.44a7.52,7.52,0,0,0-.5-1.15,6.34,6.34,0,0,0-.74-1,8,8,0,0,0-1.15-1,4.35,4.35,0,0,0-.47-.32,1.29,1.29,0,0,1-.41-.45,1.91,1.91,0,0,1,.85-.14q.73,0,1.62,0t1.71,0Z"/></g></g></svg>