<svg xmlns="http://www.w3.org/2000/svg" viewBox="0 0 99.06 99.06"><defs><style>.cls-1{fill:#fff;}</style></defs><g id="圖層_2" data-name="圖層 2"><g id="圖層_1-2" data-name="圖層 1"><path class="cls-1" d="M49.53,99.06A49.53,49.53,0,1,1,99.06,49.53,49.59,49.59,0,0,1,49.53,99.06Zm0-96.62A47.09,47.09,0,1,0,96.62,49.53,47.14,47.14,0,0,0,49.53,2.44Z"/><path class="cls-1" d="M54.5,23.47a4.57,4.57,0,0,1-1,.94c-.45.32-.68.63-.68.95a64.76,64.76,0,0,0,.8,10.1,49.14,49.14,0,0,0,2.56,9.72A41.52,41.52,0,0,0,60.77,54a32.56,32.56,0,0,0,7,7.34,21.21,21.21,0,0,0,5,2.85c1.79.73,3.54,1.54,5.27,2.45.32.15.47.33.47.53s-.15.41-.47.65a25.58,25.58,0,0,0-2.53,2.29,14,14,0,0,0-2,2.77,11.22,11.22,0,0,0-.8,1.53,4.5,4.5,0,0,1-1,1.42.6.6,0,0,1-.29-.06,33.66,33.66,0,0,1-9-8.25,45,45,0,0,1-6-10.66c-.19-.51-.44-1.17-.73-2s-.61-1.62-.94-2.45-.67-1.61-1-2.36a7.67,7.67,0,0,0-1-1.7.87.87,0,0,0-.94.29,6.92,6.92,0,0,0-.62,1,10.46,10.46,0,0,1-.56,1c-.39.67-.77,1.34-1.15,2s-.77,1.33-1.2,2c-1.38,2.16-2.74,4.15-4.1,6a52.46,52.46,0,0,1-4.33,5.12,46.43,46.43,0,0,1-5,4.48,53.08,53.08,0,0,1-6,4c-.44.27-1,.58-1.65.94a6.1,6.1,0,0,1-1.71.65l-.06-.12A67.21,67.21,0,0,0,34.83,65a50.66,50.66,0,0,0,5.74-11.22,57.14,57.14,0,0,0,2.89-12.31,117.1,117.1,0,0,0,.79-14.2c0-.16,0-.51-.06-1.06s-.06-1.12-.06-1.71a12.65,12.65,0,0,1,.09-1.59c.06-.47.21-.71.44-.71h.12q2.36.3,4.71.48a44.93,44.93,0,0,1,4.66.58Z"/></g></g></svg>