<svg xmlns="http://www.w3.org/2000/svg" viewBox="0 0 99.06 99.06"><defs><style>.cls-1{fill:#fff;}</style></defs><g id="圖層_2" data-name="圖層 2"><g id="圖層_1-2" data-name="圖層 1"><path class="cls-1" d="M49.53,99.06A49.53,49.53,0,1,1,99.06,49.53,49.59,49.59,0,0,1,49.53,99.06Zm0-96.62A47.09,47.09,0,1,0,96.62,49.53,47.14,47.14,0,0,0,49.53,2.44Z"/><path class="cls-1" d="M22.2,58.57a4.6,4.6,0,0,1,.53-2.21A10.57,10.57,0,0,1,24,54.54c.5-.57,1-1.14,1.57-1.71A8.64,8.64,0,0,0,26.91,51a17.34,17.34,0,0,0,1.77-4.39q.59-2.32,1.23-4.62A2.2,2.2,0,0,0,30,41.7a.28.28,0,0,1,.3-.21.38.38,0,0,1,.35.24,9.5,9.5,0,0,1,1.38,3.12,20.54,20.54,0,0,1,.71,4.3,24.58,24.58,0,0,1-.15,4.68,17,17,0,0,1-1.06,4.3,8.27,8.27,0,0,1-2.12,3.15,4.69,4.69,0,0,1-3.3,1.24,3.83,3.83,0,0,1-3.94-4ZM47.06,75.42l-2.83,0A14,14,0,0,1,41.08,75a6.07,6.07,0,0,1-2.54-1.3,3.34,3.34,0,0,1-1-2.62q0-8.78-.17-17.38t-.18-17.37a.52.52,0,0,1,.59-.59l1.74.06c.88,0,1.79.11,2.74.2a16.69,16.69,0,0,1,2.53.45c.74.19,1.12.43,1.12.7a1.09,1.09,0,0,1-.44.8,1,1,0,0,0-.45.73V65.58a2.22,2.22,0,0,0,.48,1.27,1.35,1.35,0,0,0,1.12.68H59.13a2.14,2.14,0,0,0,2-1.21,13.34,13.34,0,0,0,1.07-2.65c.27-1,.53-1.85.79-2.65s.64-1.21,1.15-1.21c.08,0,.15.07.2.21a.82.82,0,0,1,.09.32v5.6a1.4,1.4,0,0,0,.47,1c.32.29.66.6,1,.91a8,8,0,0,1,1,1.06,2.39,2.39,0,0,1,.47,1.53,3.44,3.44,0,0,1-1,2.56A6.8,6.8,0,0,1,64,74.57a14.36,14.36,0,0,1-3.42.76,34.43,34.43,0,0,1-3.77.21c-1.23,0-2.39,0-3.47-.06s-1.95-.06-2.62-.06ZM39.22,23.94l.12-.24.41-.18a13.61,13.61,0,0,1,1.59.09l1.59.21c1.3.16,2.81.4,4.54.74a22.35,22.35,0,0,1,4.92,1.53,12.23,12.23,0,0,1,3.94,2.71A5.82,5.82,0,0,1,58,33a5.36,5.36,0,0,1-1.26,3.56,4.29,4.29,0,0,1-3.45,1.5,7.23,7.23,0,0,1-1,0,2.72,2.72,0,0,1-.94-.36,2.91,2.91,0,0,1-1.18-1,14,14,0,0,1-1-1.62c-.32-.59-.62-1.18-.91-1.77a12.23,12.23,0,0,0-.86-1.47,13.73,13.73,0,0,0-1.85-2q-1-.91-2.16-1.77c-.74-.57-1.47-1.16-2.17-1.77a11.73,11.73,0,0,1-1.89-2ZM68.14,59a41.87,41.87,0,0,0-1-9.1A34.66,34.66,0,0,0,64,41.31l-.12-.2a.36.36,0,0,1-.05-.21c0-.19.06-.31.2-.35a1.61,1.61,0,0,1,.44-.06,7.55,7.55,0,0,1,4.3,1.5,19.67,19.67,0,0,1,4,3.71,21.44,21.44,0,0,1,3,4.68,10.76,10.76,0,0,1,1.15,4.48,9.2,9.2,0,0,1-.29,2.21,6.42,6.42,0,0,1-.92,2.06,5.75,5.75,0,0,1-1.5,1.53,3.54,3.54,0,0,1-2.12.62,4.13,4.13,0,0,1-2-.53,6.37,6.37,0,0,1-1.68-1.29Z"/></g></g></svg>