<svg xmlns="http://www.w3.org/2000/svg" viewBox="0 0 99.06 99.06"><defs><style>.cls-1{fill:#fff;}</style></defs><g id="圖層_2" data-name="圖層 2"><g id="圖層_1-2" data-name="圖層 1"><path class="cls-1" d="M49.53,99.06A49.53,49.53,0,1,1,99.06,49.53,49.59,49.59,0,0,1,49.53,99.06Zm0-96.62A47.09,47.09,0,1,0,96.62,49.53,47.14,47.14,0,0,0,49.53,2.44Z"/><path class="cls-1" d="M39.56,75.92a3.76,3.76,0,0,1,.21-1,13.38,13.38,0,0,0,.32-1.36,4.07,4.07,0,0,0,.06-1.18c0-.33-.2-.5-.47-.5a4.77,4.77,0,0,0-2.24.56A4.68,4.68,0,0,1,35.2,73a1.62,1.62,0,0,1-.88-.17.76.76,0,0,1-.3-.45,4.42,4.42,0,0,1-.09-.61,1.58,1.58,0,0,0-.26-.71,1,1,0,0,0-.62-.32,7,7,0,0,0-1-.12,9.91,9.91,0,0,0-1.09,0l-.77,0c-.27,0-.46.17-.56.53a4.53,4.53,0,0,0-.14,1.23c0,.48,0,.93.05,1.36s.06.73.06.88-.22.41-.67.65a11.69,11.69,0,0,1-1.54.65c-.56.19-1.12.36-1.67.5a5.71,5.71,0,0,1-1.12.21c-.4,0-.6-.21-.62-.62s0-.74,0-1l-.18-6.71Q23.65,65.2,23.6,62t-.06-6.39a1.23,1.23,0,0,1,.08-.44A.38.38,0,0,1,24,55a3.84,3.84,0,0,1,1.06.38c.55.26,1.2.53,1.94.83s1.53.57,2.36.82a7.78,7.78,0,0,0,2.35.38h.62a3.12,3.12,0,0,0,.62,0l.65-.68c.27-.3.57-.6.88-.91a11.11,11.11,0,0,1,.92-.83,1.29,1.29,0,0,1,.73-.35,3.16,3.16,0,0,1,1.39.44,11,11,0,0,1,1.7,1.09,8.63,8.63,0,0,1,1.45,1.35,2.14,2.14,0,0,1,.59,1.3c0,.2-.14.38-.42.56a.76.76,0,0,0-.41.62V70.38a1,1,0,0,0,.06.3c0,.11.1.17.18.17.47,0,.86-.46,1.18-1.38a20.67,20.67,0,0,0,.76-3.18A34.09,34.09,0,0,0,43,62.78c.08-1.13.12-1.9.12-2.29V35.33a.51.51,0,0,0-.59-.58H22.3a.55.55,0,0,1-.59-.39c-.08-.25.39-1.4.66-1.4H33.5l.42-.18a10.39,10.39,0,0,0,.76-1l1.12-1.53a3.66,3.66,0,0,1,1.46-1,1.81,1.81,0,0,1,.68.32c.33.22.69.46,1.06.74l1.09.79.76.56a25.06,25.06,0,0,0,7.22,3.18,31.3,31.3,0,0,0,7.81,1l.58,0c.28,0,.55,0,.83,0a1.1,1.1,0,0,1,.52,0c.21.08.52.91.52,1.06A3.44,3.44,0,0,1,57,37c-.79,0-1.65,0-2.59,0s-1.83,0-2.65,0L50.2,37c-.2,0-.31.13-.33.38s0,.45,0,.56c0,.59,0,.61,0,1.31s0,1.43,0,2.15.06,1.44.12,2.12a13.24,13.24,0,0,0,.26,1.86c.08.39.28.59.6.59h1a2.73,2.73,0,0,0,1-.12,5.81,5.81,0,0,0,.59-.5c.28-.26.57-.53.86-.83a10.52,10.52,0,0,1,.89-.79,1.31,1.31,0,0,1,.68-.36,1.33,1.33,0,0,1,.71.42c.32.27.65.59,1,.94s.71.69,1.07,1a3.25,3.25,0,0,0,1,.65c.32,0,.48-.12.48-.35q0-5.78-.38-11.52T59.29,23a.52.52,0,0,1,.59-.58c.27,0,.86,0,1.76.08s1.82.16,2.77.3a18.33,18.33,0,0,1,2.55.53c.74.21,1.11.46,1.11.73a.42.42,0,0,1-.27.42,2.41,2.41,0,0,1-.59.17,4.07,4.07,0,0,0-.58.15.37.37,0,0,0-.27.38v9.43c0,.27.18.41.53.41a2,2,0,0,0,1.27-.44,4.65,4.65,0,0,0,1-1.09,5.27,5.27,0,0,0,.62-1.39,5.41,5.41,0,0,0,.2-1.38,5.61,5.61,0,0,0-.2-1.44c-.14-.49-.3-1-.47-1.42s-.34-.87-.47-1.26a3,3,0,0,1-.21-.95.39.39,0,0,1,.23-.35,1,1,0,0,1,.42-.12,11,11,0,0,1,2,.21A9,9,0,0,1,73.4,26a4.94,4.94,0,0,1,1.71,1.23,2.77,2.77,0,0,1,.67,1.89,2.17,2.17,0,0,1-.32,1.21,4.8,4.8,0,0,1-.71.88,8.71,8.71,0,0,0-.7.8,1.44,1.44,0,0,0-.33.94,1.14,1.14,0,0,0,.45.94,6.31,6.31,0,0,0,1,.65,10.09,10.09,0,0,1,1,.62,1,1,0,0,1,.44.85q0,.12-.18.21a.64.64,0,0,1-.29.09H67c-.24,0-.39.13-.47.41a4.2,4.2,0,0,0-.15.94,9.37,9.37,0,0,0,0,1.06c0,.35,0,.61,0,.77v2.15q0,1.44.09,3c.06,1,.16,2,.29,2.89a3.78,3.78,0,0,0,.62,1.79h.24c.47,0,.81-.35,1-1.06a13.73,13.73,0,0,0,.47-2.41c.1-.9.17-1.8.21-2.68a10,10,0,0,1,.17-1.8c.08-.35.26-.53.53-.53a5,5,0,0,1,1.33.35c.65.24,1.33.51,2.06.8s1.4.6,2,.91a8.6,8.6,0,0,1,1.24.71l.12.29a1.58,1.58,0,0,1-.65.86,3,3,0,0,0-.83.85,6.89,6.89,0,0,0-.47,1.09c-.11.38-.23.76-.35,1.15-.35,1.06-.71,2.13-1.06,3.21s-.75,2.13-1.18,3.15a33.29,33.29,0,0,1-1.59,3.42,26.21,26.21,0,0,0-1.53,3.42,6,6,0,0,0,.32,1.56,13.27,13.27,0,0,0,.86,2.06,7.77,7.77,0,0,0,1.2,1.76,1.88,1.88,0,0,0,1.33.74,1.2,1.2,0,0,0,1-.65,13.27,13.27,0,0,0,.83-1.38c.25-.49.49-1,.7-1.38s.39-.65.5-.65.14.08.18.23a4,4,0,0,1,.09.5,5.12,5.12,0,0,1,0,.56v5.36a2.13,2.13,0,0,0,.2.77c.14.31.28.66.42,1s.27.75.41,1.12a2.83,2.83,0,0,1,.21,1,2,2,0,0,1-1.09,2,5.6,5.6,0,0,1-2.39.5,5.06,5.06,0,0,1-3.74-1.32,11.6,11.6,0,0,1-2.15-3c-.55-1.09-1.07-2.11-1.56-3a2.67,2.67,0,0,0-2-1.56,2,2,0,0,0-.65.47L62.5,69l-1.76,1.62q-1,.88-1.92,1.62T57.05,73.5A2.69,2.69,0,0,1,55.7,74l-.12-.12a5.21,5.21,0,0,1,1.18-1.59c.74-.83,1.57-1.77,2.47-2.83a32.31,32.31,0,0,0,2.48-3.3,5.89,5.89,0,0,0,1.12-3.12,12.79,12.79,0,0,0-.18-1.59c-.12-.79-.27-1.69-.44-2.71s-.38-2.09-.59-3.21-.44-2.18-.68-3.18-.45-1.86-.65-2.57a6.48,6.48,0,0,0-.47-1.35.5.5,0,0,0-.41-.24.51.51,0,0,0-.56.56c0,.38,0,.68,0,.92,0,.74,0,1.49,0,2.24s0,1.49-.09,2.23-.07,1.81-.09,3-.08,2.32-.2,3.53a35,35,0,0,1-.56,3.65,12.21,12.21,0,0,1-1.15,3.25,6.87,6.87,0,0,1-2,2.29,5,5,0,0,1-3,.89c-.39,0-.61-.32-.64-.95s-.1-1.31-.18-2.06a6.6,6.6,0,0,0-.56-2.06,1.78,1.78,0,0,0-1.8-.94l-.35.23c-.51,1.18-1,2.16-1.39,3a23.65,23.65,0,0,1-1.29,2.18,22.18,22.18,0,0,1-1.53,2c-.57.67-1.29,1.47-2.15,2.42-.08.07-.21.21-.39.41s-.36.39-.56.59a5.16,5.16,0,0,1-.58.5.56.56,0,0,1-.48.14Zm-4-37.82a3.05,3.05,0,0,1,.92.5c.41.3.84.63,1.29,1s.88.74,1.27,1.09.67.61.82.77l.18.41a1.13,1.13,0,0,1-.06.36.28.28,0,0,1-.29.17H24.6c-.2,0-.3-.09-.3-.29s.38-1.18.57-1.18h7.72c.08,0,.25-.17.53-.5L34,39.31c.34-.41,1.09-1,1.17-1.09Zm0,7.84a5.59,5.59,0,0,1,1,.67c.5.38,1,.79,1.51,1.24a15.52,15.52,0,0,1,1.35,1.33c.39.43.59.72.59.88l-.18.18H24.6a.27.27,0,0,1-.3-.3c0-.19.41-1.19.6-1.19h7.66c.16,0,.37-.16.65-.48s.57-.67.88-1.09,1-.91,1.11-1.07ZM24.81,26l.42-.18h6.42a1.37,1.37,0,0,0,1.15-.62,12.39,12.39,0,0,0,.82-1.35,2.56,2.56,0,0,1,1.52-1.1,2.42,2.42,0,0,1,1,.59q.73.59,1.53,1.35c.53.51,1,1,1.45,1.47s.65.77.65.89-.12.29-.36.41a3.06,3.06,0,0,1-.79.27c-.3.05-.58.09-.86.11l-.59,0c-1.88,0-3.77-.06-5.65-.2s-3.77-.21-5.66-.21l-.76,0a.6.6,0,0,1-.65-.38Zm5.62,33.11a.52.52,0,0,0-.59.59V68.5a.55.55,0,0,0,.29.48,1.24,1.24,0,0,0,.59.17h2.12a1.18,1.18,0,0,0,.59-.17.54.54,0,0,0,.3-.48V59.68a.52.52,0,0,0-.59-.59Zm23-10.68c0-.75-.11-.84-.32-.92a5.23,5.23,0,0,0-1.33-.11c-.94,0-1.45.15-1.53.47a4.49,4.49,0,0,0-.12,1.32c0,1.64-.05,3.27-.14,4.87a48.44,48.44,0,0,1-.56,4.87A9.72,9.72,0,0,1,49,60.76a6.4,6.4,0,0,0-.29,1.91.77.77,0,0,0,.5.79,2.5,2.5,0,0,0,1,.21,2.87,2.87,0,0,0,1.89-.59,3.63,3.63,0,0,0,1.06-1.5,8,8,0,0,0,.47-1.93,16.58,16.58,0,0,0,.12-1.91,27.21,27.21,0,0,0-.15-2.88A27,27,0,0,1,53.4,52Z"/></g></g></svg>