<svg xmlns="http://www.w3.org/2000/svg" viewBox="0 0 63.55 63.55"><defs><style>.cls-1{fill:#74ccbb;}</style></defs><g id="圖層_2" data-name="圖層 2"><g id="圖層_1-2" data-name="圖層 1"><path class="cls-1" d="M31.77,0A31.78,31.78,0,1,0,63.55,31.77,31.78,31.78,0,0,0,31.77,0Zm19,32.26c0,.14,0,.29-.08.43s-.11.27-.16.41a3.27,3.27,0,0,1-.14.33,3.47,3.47,0,0,1-.45.7L35,52.82a4.13,4.13,0,0,1-6.46-5.15l9.56-12H16.88a4.13,4.13,0,0,1,0-8.26h21L28.3,16a4.13,4.13,0,0,1,6.35-5.29L49.84,28.9a3.83,3.83,0,0,1,.47.69c0,.1.08.19.12.29a3.57,3.57,0,0,1,.19.45c0,.14.06.28.09.42s.06.24.07.36a2.64,2.64,0,0,1,0,.4c0,.13,0,.26,0,.4S50.75,32.14,50.73,32.26Z"/></g></g></svg>