<svg xmlns="http://www.w3.org/2000/svg" viewBox="0 0 358.43 116.4"><defs><style>.cls-1{fill:#b79d9d;}.cls-2{fill:#ccb8b8;}</style></defs><g id="圖層_2" data-name="圖層 2"><g id="圖層_1-2" data-name="圖層 1"><path class="cls-1" d="M182.78,91.16c.24.27.43-.12.53-.14C182.8,90.68,182.72,91.25,182.78,91.16Z"/><polygon class="cls-1" points="177.76 87.8 177.95 87.75 177.02 87.45 177.76 87.8"/><path class="cls-1" d="M173.67,84c-.1.88,1.56,1.29,2.12,2.16v.23l.72-.12A16.77,16.77,0,0,1,173.67,84Z"/><path class="cls-1" d="M172.56,80.83c-.06.33-.64-.27.44.54a.63.63,0,0,1,0-.14A4.8,4.8,0,0,1,172.56,80.83Z"/><path class="cls-1" d="M173,81.23c.44.39-.12-.43,0,0Z"/><path class="cls-1" d="M170.87,79.49l.74.35c0-.23-.48-.73-.22-.64C170.72,78.75,170.73,79,170.87,79.49Z"/><path class="cls-1" d="M170,79.37l.37.19C170.34,79.47,170.28,79.38,170,79.37Z"/><path class="cls-1" d="M171.12,80l-.77-.43c0,.17-.15.34.34.21C170.49,79.88,170.75,79.85,171.12,80Z"/><path class="cls-1" d="M171.39,80.39c.21.41.56.87-.18.52C172.36,81.85,172.54,81.33,171.39,80.39Z"/><path class="cls-1" d="M173,84.33l.28.55.54.17C173.51,85,173.09,84.14,173,84.33Z"/><path class="cls-1" d="M167.63,75.91c-.14.08-.09.48-.18.66l.53.26C167.84,76.56,167.5,76.1,167.63,75.91Z"/><path class="cls-1" d="M167.45,76.57l-.8-.4C167.18,76.72,167.37,76.72,167.45,76.57Z"/><polygon class="cls-1" points="169.34 79.85 170.74 80.41 169.14 79.67 169.34 79.85"/><polygon class="cls-1" points="165.28 73.65 165.87 73.73 164.88 73.52 165.28 73.65"/><path class="cls-1" d="M163.68,72.2c.46,0,0-.69.38-.56a4.37,4.37,0,0,0-1.47-.69A2.74,2.74,0,0,1,163.68,72.2Z"/><path class="cls-1" d="M161.82,70.66a4.28,4.28,0,0,0,.77.29A2.62,2.62,0,0,0,161.82,70.66Z"/><path class="cls-1" d="M165.64,75.11a.93.93,0,0,0-.18-.78l-.06.55Z"/><path class="cls-1" d="M165.4,74.89h0l-.5-.52Z"/><path class="cls-1" d="M165.7,75.17l-.06-.06C165.64,75.17,165.64,75.19,165.7,75.17Z"/><path class="cls-1" d="M168,78c-.53-.17-1.46-.71-1,.25C167.46,78.32,167.18,77.77,168,78Z"/><path class="cls-1" d="M165.64,75.85l.59.69c.06-.09.06-.32.32-.24Z"/><polygon class="cls-1" points="165.22 75.64 165.64 75.85 165.42 75.59 165.22 75.64"/><path class="cls-1" d="M162.66,72a3.5,3.5,0,0,1-1.1-.74,9.68,9.68,0,0,0,1,1.18C162.74,72.42,163.07,72.4,162.66,72Z"/><path class="cls-1" d="M164,73.45l-.08,0C163.9,73.47,163.92,73.51,164,73.45Z"/><polygon class="cls-1" points="158.15 67.96 158.15 68.07 158.22 68.03 158.15 67.96"/><path class="cls-1" d="M162.6,72.58a1.09,1.09,0,0,0,.72.48,9,9,0,0,1-.73-.59C162.53,72.49,162.5,72.51,162.6,72.58Z"/><path class="cls-1" d="M160.73,69.88a4.16,4.16,0,0,0,.32.63C161,70.28,160.86,69.85,160.73,69.88Z"/><path class="cls-1" d="M163.87,73.23l.06,0C163.9,73.1,163.88,73.14,163.87,73.23Z"/><path class="cls-1" d="M163.87,73.23a2,2,0,0,0-.55-.17,3.11,3.11,0,0,0,.56.34A1,1,0,0,1,163.87,73.23Z"/><path class="cls-1" d="M155.2,68.89c.33-.23,1.31.23,1.65,1.16.83.4,1.33-.93,1.3-2-.14.1-.25.21-1.05-.25.07.38,1.06,1.76.27,1.48-1-.69-.6-.78-.86-1.34,0,.7-1.58-.55-1.91.15l.92.55C155.46,68.75,155.06,68.62,155.2,68.89Z"/><path class="cls-1" d="M159.34,69.29l.3.22a3.71,3.71,0,0,1-.54-1.27c-.57-.29-.76-.28-.88-.21l1.25,1.31Z"/><path class="cls-1" d="M160.83,70.67c-.51.1-1.27-.38-1.21.33.8.73.8.27,1.39.59-1.33-1.14.53.18-.21-.88a6.27,6.27,0,0,1,.76.58,8.65,8.65,0,0,1-.51-.78v0h0c0,.09,0,.13,0,.05l0,0a.35.35,0,0,1-.17.06c-.3-.41,0-.13.17-.06s0,0,.06,0h0l-1.42-1A7.73,7.73,0,0,0,160.83,70.67Z"/><path class="cls-1" d="M165.68,78.31c0-.06,0-.08,0-.11S165.53,78.16,165.68,78.31Z"/><path class="cls-1" d="M165.33,77.63a.79.79,0,0,1,.6.31c.17.34-.14.15-.23.26.26.09.85.38.43-.31l-.13,0c-.41-.59-.7-1.6-.57-1.56A2.89,2.89,0,0,0,165.33,77.63Z"/><path class="cls-1" d="M163,74.19l-1.2-.85.27.78.13-.19C162.7,74.57,162.76,74.25,163,74.19Z"/><polygon class="cls-1" points="158.18 67.69 158.64 67.5 157.59 67.37 158.18 67.69"/><polygon class="cls-1" points="156.8 66.4 157.13 66.17 156.61 65.98 156.8 66.4"/><path class="cls-1" d="M71,40.07l-.29.33A1.82,1.82,0,0,0,71,40.07Z"/><path class="cls-1" d="M73.62,38.47l0-.21C73.51,38.43,73.51,38.52,73.62,38.47Z"/><path class="cls-1" d="M125.73,31.89c-.14-.73-.22-1.66-.5-1.31l-.18.44A2.26,2.26,0,0,1,125.73,31.89Z"/><path class="cls-1" d="M95.41,25.76l.22.07.28-.52Z"/><path class="cls-1" d="M95.53,27.6l-.85,0A3.59,3.59,0,0,0,95.53,27.6Z"/><path class="cls-1" d="M57.63,50.15l-.12.65C58.12,50.33,57.72,50.36,57.63,50.15Z"/><path class="cls-1" d="M143.24,52.61a5.32,5.32,0,0,0-.72-1.16C142.78,52.09,142.86,52.73,143.24,52.61Z"/><path class="cls-1" d="M69.57,35.53c-.18.21-.23.35-.17.42C69.59,35.74,69.67,35.59,69.57,35.53Z"/><path class="cls-1" d="M141.49,50.3c0,.1.07.18.11.28a5,5,0,0,1,.92.87A1.73,1.73,0,0,0,141.49,50.3Z"/><path class="cls-1" d="M15.81,93.91a.87.87,0,0,1-.11.09S15.77,94,15.81,93.91Z"/><path class="cls-1" d="M2.66,106.83c.07-.17.2-.42.33-.67A2.1,2.1,0,0,0,2.66,106.83Z"/><path class="cls-1" d="M151.58,60.87c.29.27.07,0,0,0Z"/><path class="cls-1" d="M151.72,63.47a.29.29,0,0,0-.27,0A.38.38,0,0,1,151.72,63.47Z"/><path class="cls-1" d="M136.81,49.12l0,0C136.8,49.24,136.8,49.22,136.81,49.12Z"/><path class="cls-1" d="M151.85,61.44a2.35,2.35,0,0,0-.26-.45A2.89,2.89,0,0,0,151.85,61.44Z"/><path class="cls-1" d="M151.94,61.24l.22.28C152.25,61.51,152.25,61.44,151.94,61.24Z"/><path class="cls-1" d="M151.17,60.49a3.84,3.84,0,0,1,.42.5c0-.08,0-.12,0-.12Z"/><path class="cls-1" d="M35.59,67.91a.32.32,0,0,1-.09,0C35.35,68.36,35.45,68.21,35.59,67.91Z"/><path class="cls-1" d="M115,28.26h0l0,0Z"/><path class="cls-1" d="M113.73,27.89a1.08,1.08,0,0,1,1.3.33c.1-.44.18-.87.26-1.3C114.75,27.23,114.23,27.55,113.73,27.89Z"/><path class="cls-1" d="M65,44.28,66,44c-.61,1.23-1.44,1.56-.37,1.46-.67-1.21,3.1-2.33,2.46-3.52l.71-.13c-.16.09-.14.17-.31.27,1.43-.18.25-1.36,1.75-2.1.54-.23,1-.28.74.07l.9-1c.34-.18.38.07,0,.25l1.61-1.13v0A9.12,9.12,0,0,1,74.27,37c.53-.09-.14.26.06.33l.76-.83c.56.08,0,.82-.71,1.17,1.56.64.6-.76,2.88-1.17l-.79.66c1,.33,1.5-.3,2.73-.44-.35-.09-2.6.07-1.74-.8a1.88,1.88,0,0,0,1.16-.79c.23.42.72,0,1.39-.37l.25.59c.65-.55.43-.81.74-1.29a1.38,1.38,0,0,1,1.63.26c1.36-.58-1.27-.25.24-1.15a7.83,7.83,0,0,0,3.07-1.9c.88-.16,0,.42.38.46l.49-.78c.18-.06.19.1.19.19.52-.44-.21-.61.66-1.17,0-.77,2.33.14,3.2-1.05.36.06,0,.42.18.62a13.81,13.81,0,0,0,2.35-2h1.29c-1-.17-.1-1.08.73-1.81a8.17,8.17,0,0,0-.9-.28L96,24.67c.22,0,.12.3,0,.64l.24-.24c.62.06.43.5.14,1l-.66-.2c-.27.49-.49,1-.3,1.34a1.28,1.28,0,0,1,.44-.32c-.06.13-.1.24,0,.29s.18-.14.39-.37l.55.58v-.3c.7-.06,1.4-.1,2.09-.13,1.22-1,2.25-2.4,4.61-3-.53.59,0,.86,0,1.48-.71-.59-1.71.52-2.89.63.62-.06.55.26.41.39.65-.33,1.3-.64,2-.94,0,.51.5.32,1.05.47-.51-1,1.49-.82,2.34-1.09,0,.34-.16.67-1.17.63,1.11.71,1.46-1.22,2.58-.5-.26,0-.39-.07-.5.09.62-.28,2,.14,1.64.39l-.25,0,3,.65a9,9,0,0,0,1.42.26,1,1,0,0,0,.86-.16,6.12,6.12,0,0,1-.81,1,14.72,14.72,0,0,1,2-.59,20.66,20.66,0,0,1,2.11-.38c-.61.47-.75,2.46-2.12,2.06a3,3,0,0,0,1.42.93c-.15-.24.07-1.26.41-1.09a12.69,12.69,0,0,0,.89,2.12c-.22-.38.87-1,1.36-.51-.19.06-.71.89-1,.82.64.08,1.31.15,2,.28-.44-.14-.71.65-.67,1.12,0-.28,1,1,1.36,1.26l-.3-.69c1.16,1.46,2.44.28,3.66,1.77-.33,0-1.45.5-.94,1.32.71-.05,3.39-.27,4.81.79l0,.46,1.1.79a29.61,29.61,0,0,1-5.35-1.22c.25.72-.18.4.52,1.21,0,.48-.73-.15-.94-.39l1.41,2.06c.46-.51,1.73,1.08,2.11.66l-2.25-1.7c.45-.51,2.47,0,3.51,1.51.08.52-1.15.48-1.3.65.32,0,1.42,1.05,1.4,1.28l-.76-.37c.43.94,1.72.71,2,2,.22.35.13,1.5.48,1.3A4.4,4.4,0,0,1,132.56,42a16,16,0,0,1,.85,2.73c0,.91-1.75.14-1.77.92.15-.1.57,0,.73.11.16.44-.55.24.12.91.62-.32,1.21,1.49.73,0,.75.58.54.84,1.28,1.64.1-.55,1.77-.25,2.52.31-.17.07-.2.38-.21.52,1.2,1.46,1.66,2.41,2.83,3.73,0,.23.41,1,0,.93a2.07,2.07,0,0,1,1,.51c.29,1.17-.89-.83-.86.24.33-.22,1.36.66,2.06,1.06.29-.59-1.13-1.39-1.84-1.79.62-.57,2.19-.18,3.72.9,1.15.93,0,.84.3.94,1.77,2.1,2.67.68,3.79,2.75.24,1-.74.77-.88,1.19-1-.73-1-1.57-1.59-2.14l.5.9a2.66,2.66,0,0,1-1.22-1.06c.17.89,3.13,3.44,4.3,5.26.39.14,1,.48.92.11l-.53-.43c-.11-.75,1.31.48.87-.27a6,6,0,0,1,2.6,1.89l-.26.6c.1-.15-.33-.85-.71-1,.56.18.78,2,1.75,1.81l-.32-.93c.86.42,2.09.75,2.75,1.67.07-.78-.23-.13-.29-1.19-.14,1.11-2-2-1.87-.62,0-1.15-.74-1.24-1-2.49-.12.16,0,.54-.6-.2a1.23,1.23,0,0,1-.27,0l0-.06,0,.06c-.05,0-.05,0,0,0a1.19,1.19,0,0,1,.12.55c-.66,0-1.69-1.09-2.22-1.28-.32-.47.33,0,.28-.36l-.79-.29c.27-.37-.49-1.58.61-.83l-.81-.85a4,4,0,0,0-1.42-1.74c-.31-.47-1.33-.67-.74-.56L145.43,55l.07-.09c-1.19-1.38-3.11-2.24-3.9-4.34A6.54,6.54,0,0,1,140,49l.15-.4c-.63-.49-1.27-2-1.8-2,.23-1.32-2.33-3-3.07-4.2l-.42.29a16.22,16.22,0,0,0-2.21-2.13l-.3.34c-.93-.55-1.41-2.23-2.46-3.45.2,0,.42.32.52.61-.42-2.13-3.13-2.74-3.72-4.58a1.48,1.48,0,0,1-.69-.84.16.16,0,0,0,.09.07l-.12-.14c-.07-.2-.14-.42-.23-.63a2.26,2.26,0,0,0,.16.55,8,8,0,0,0-1-.93l.21-.49-.1-.08c-.21-.5-.44-.15-.53.3a2.48,2.48,0,0,0-.67-.31c.27-.84-1.12-.81-1-1.8-.52,0-2.15-1.62-2.93-1.13.06-.09,0-.23.2-.06a2.73,2.73,0,0,0-1.35-1l.16-.64c-.52,0-1-.08-1.53-.08-.44-.73-.62-1.11.31-1.07a15.16,15.16,0,0,1-1.72-.46,4.23,4.23,0,0,0-1.54-.23l.24-.32c-.53-.27-1.59-.09-1.8-.52-.47-.57-2-1.14-3.94-1.39s-4-.23-5.69-.39c.77,1.07-1.6-.33-1.6.6-.23-.24-.72-.31-.23-.64-1.61.55-2.59.07-3.52,1.09-.25-.22.24-.48,0-.6-.12.09-.45.36-.66.25s.17-.29.4-.47c-1.65.48-1.56,1.36-1.45,2.16a1.42,1.42,0,0,0-1.71.73c-.36-.16-.91-.27,0-.67-.56.11-3.48.76-3.31,1.39-.23-.09-.78.24-.89.36a17.55,17.55,0,0,0-2.51.95l.37,0c-.18.9-.91.55-1.81,1.05v-.09c-2.38.42-.82.65-3.19,1l.32.38c.26,1-2.1.32-3.12,1.3l.55,0c-.48.64-2.46-.32-3.18-.07-.18,0,.16-.25.33-.42-2,.39.07.68-1.13,1.49-.39-.17-.11-.93-1-.51-.57,0-1.91,2.35-3.37,2.46.38.08.76.16.29.67-.82.6-2.88.59-3.22,1.79-.15,0-.22,0-.26-.08-.56.59-1.94,1.68-2.09,2.3-1.53-1-3.54,3.37-4.38,2.12L61,41.83l0-.16a3.36,3.36,0,0,0-1.74,2c-.35.12-.23-.14-.25-.22a5.73,5.73,0,0,0-3.13,3l-.46-.27a6.39,6.39,0,0,1-1.78,1.1A8.23,8.23,0,0,0,51,49.44a.34.34,0,0,1,.05-.32c-1.56,2-5.43,2.75-4.94,4.71l-.93,1.39c1.68-1.26.28.79,1.13.46-.56.6-2,1-1.27.25l.18,0c-.35-1-2.14,1.51-2.53,1-1.52,1.41-3.11,2.7-4.62,4s-3.06,2.59-4.41,4l.83.19-1,1c-.37.13-.74-.06-.05-.73-.65.08-.88,1.4-.78,1.53-1.53,1.15-.1-1.12-.52-.71l-.51.6.19-.07c-.23.67-.05.91-.85,1.75-.61.44-.59,0-.8.17,0,0-.12,0-.32.31l-1.2,1.22.89-.12c-.3.75-1.1,1.17-.09,1-1.56.15-4.46,4.54-5.15,4.87a8.7,8.7,0,0,1-1.89,2.84c.3-.17.92.09.16.91-.78-1.16-1.73,1.21-3.06,1.32,1-.25-1.8,2.62-.31,2.17-.65.67-.44-.26-1.11.11A11.69,11.69,0,0,1,16,86.14a24.79,24.79,0,0,0-2.51,3.15c.12.13.61-.09.48.54l-1.56.68c-.24.49.56,1-.5,1.46.2,0,.5-.08.34.25a26.09,26.09,0,0,0-2.48,3.23C9,96.58,8.37,97.8,7.67,99a30,30,0,0,1-4.86,6.72c.67-.48.45,0,.18.46.25-.28.37.22.62.28l-1.67,1.68c.38.68-1.13,2.18-.68,2.68l.24-.69c.21,1.2,2.1-.39,2.88.19-.23-1.34,2.4-1.85,2.23-3.94.37-.23.11.44.4.37-.13-.58.06-1.09.72-1.85l0,.15c1.29-2.45,2.29-3.23,4.16-5.72l-.52-.06a2.71,2.71,0,0,1,.87-.77c-.2-1-1,1.57-1.33.55,1.25-.25,2.59-3.94,3.83-3.83.58-.85-.62-.06,0-.91l.39-.06L15,93.8c.43-.52.92-.59,1.14-.47a3.12,3.12,0,0,0-.28.58c.77-.53,1.32-2.07,1.58-2.25l-.72.69c.7-1.21,1.63-2.46,2.51-3.72a23.19,23.19,0,0,0,2.38-3.75l-.3,0c.92-1.91,1.19-1.18,2.47-3.06V82a3.62,3.62,0,0,1,.81-1.51c-.15.61,1.08-.51.83.25,1.07-2,.41-1.09.74-2.75l.5,0a2.42,2.42,0,0,1,.64-1.67c-.37.91.9-.19.54.88,2.17-1.27,1.68-3.23,3.31-3.24,0-1.5-1.81,1.14-1.55.55-.6.16,0-1.19.61-1.67s1.85-.08,3.12-1.5c-.13.14-.08.2-.22.33.68-.34.68-1.28,1.6-1.62-.11-.78.82-.79.35-1.44l-1.09,1.39c.54-.86.52-2.17,2-3a2.75,2.75,0,0,1-.31,1c.5-.18.53-.77,1-1,.46.65-1.37,1.65-1.67,2.83.6-.13,1-1.84,1.23-.86-.25-1.31,1.41-1.25,1.71-2.76l.28.39a2.57,2.57,0,0,1,.51-.91l-.05.91c.37-1.11,1.76-1.08,2.28-2-1.49,1.47-.74-.08-1.62.29,1.42-2.26,1.94-.15,3.85-2.33-.23.32-1.25.82-1,.24A4.06,4.06,0,0,1,43.74,62c1.34-1.37-.55-.16-.15-.92.88,0,.53-.81,1-1.52L45,60c1.83-1.25-.24-1.14,1.47-2.2l-.17,1.07.64-.83.21.56a3.87,3.87,0,0,1,1.83-1.79c-.41-.09-.46-.76.26-1.41.69-.21,0,.6,1-.36,0,.44-.05.95-.79,1,0,.16,0,.43,0,.59.75-.22,1.4-1.11,1.77-1.44a1.53,1.53,0,0,1-.48.26c.36-.6.71-1.21,1.09-1.8.36-.05.26.21.16.48a11.93,11.93,0,0,1,.79-1c.13.4.42.69-.12,1.36l1.2-1.53c.2,0,1-.25.95,0,1-.48,1.51-2.23,2.82-2.82a.94.94,0,0,1,.28-.48c1.1-.72,2.3-1,3.21-2.41l1.14,0c.89-.84-1.5,0,0-1.41,1-1,.79.17,1.31,0,.37-.69,1-2,2.37-2.31A6.88,6.88,0,0,1,65,44.28ZM77.43,36c-.21.23-.55.78-.87.65C76.56,36,76.92,36.07,77.43,36ZM97.8,26c-.17.21-.51.22-.92.15A1.86,1.86,0,0,1,97.8,26Zm50.44,32h0C147.89,57.38,148,57.6,148.24,58Zm.79,1.13c.14.05.18,0,.19-.09-.15,0-.37-.2-.59-.47C148.61,58.71,148.67,58.9,149,59.12ZM30.26,68.81l.28-.11C30.23,69.24,30.25,69,30.26,68.81Z"/><path class="cls-1" d="M95.52,27.38a.42.42,0,0,1-.19-.21C95.24,27.28,95.27,27.37,95.52,27.38Z"/><path class="cls-1" d="M57.65,50l0,0a.14.14,0,0,0,0,.09Z"/><path class="cls-1" d="M131.8,46.25a1.27,1.27,0,0,1-.16-.58C131.54,45.73,131.54,45.9,131.8,46.25Z"/><path class="cls-1" d="M154.64,63.67l-.7-.53a1.46,1.46,0,0,1,.44.67C154.45,63.71,154.45,63.48,154.64,63.67Z"/><path class="cls-1" d="M157.91,71.11c.13,0,.2.18.33.23l.13-.19C158,70.78,157.58,70.65,157.91,71.11Z"/><path class="cls-1" d="M154.07,65.37c-.23.34.25.63.73,1l-.07-.08C155.26,66,154.66,65.7,154.07,65.37Z"/><path class="cls-1" d="M154.91,66.47a2.13,2.13,0,0,1,.41.38C155.53,66.74,155.19,66.66,154.91,66.47Z"/><path class="cls-1" d="M150.42,60.16c.13.28.5-.23.49,0C151.51,60,149.12,59.22,150.42,60.16Z"/><polygon class="cls-1" points="153.48 66.67 153.68 66.16 153.15 66.2 153.48 66.67"/><path class="cls-1" d="M150.34,63l.59.79c0-.07.17,0,.3.07C150.82,63.4,150.43,62.86,150.34,63Z"/><path class="cls-1" d="M151.23,63.84a2,2,0,0,0,.62.5A5.14,5.14,0,0,0,151.23,63.84Z"/><polygon class="cls-1" points="152.43 65.83 152.3 65.55 151.84 65.03 152.43 65.83"/><path class="cls-1" d="M143.16,55.33l-.83-.68c-.2,0-.08.32.24.56S143.15,55.56,143.16,55.33Z"/><path class="cls-1" d="M144.37,58.62a1,1,0,0,1-.05-.6l-.47.4Z"/><path class="cls-1" d="M142.13,56.45c-.2,0-1.42-.81-.47.16C141.86,56.58,142.69,57.27,142.13,56.45Z"/><polygon class="cls-1" points="132.03 43.88 132.21 44.09 132.97 43.4 132.03 43.88"/><path class="cls-1" d="M121.2,34.61c.62,1.06.66-.21,1.16.82.37.06-.41-.84-.06-.76C121.63,34.28,121.47,33.91,121.2,34.61Z"/><path class="cls-1" d="M122.3,34.67a2.55,2.55,0,0,0,.37.19A1.4,1.4,0,0,0,122.3,34.67Z"/><polygon class="cls-1" points="0.75 109.22 0.17 109.84 0.73 109.54 0.75 109.22"/><path class="cls-1" d="M.67,111,0,110.83l.29.7C.35,111.36.47,111,.67,111Z"/><path class="cls-1" d="M80,36l0-.16c-.19-.09-.36,0-.7.14Z"/><polygon class="cls-1" points="70.51 41.15 70.67 41.06 70.06 40.76 70.51 41.15"/><path class="cls-1" d="M63.47,46.93c.31-.19.59-.55.9-.75C63.78,46.74,63,46.4,63.47,46.93Z"/><path class="cls-1" d="M272.49,75.09c.2.17.35-.23.42-.27C272.48,74.65,272.44,75.18,272.49,75.09Z"/><polygon class="cls-1" points="268.2 73.44 268.36 73.34 267.58 73.33 268.2 73.44"/><path class="cls-1" d="M264.71,71.11c-.07.81,1.33.76,1.81,1.38v.2l.6-.29A9.22,9.22,0,0,1,264.71,71.11Z"/><path class="cls-1" d="M263.74,68.58c-.05.3-.54-.08.38.36a.3.3,0,0,1,0-.11A3.35,3.35,0,0,1,263.74,68.58Z"/><path class="cls-1" d="M264.08,68.83c.37.23-.11-.35,0,0Z"/><path class="cls-1" d="M262.32,67.81l.61.13c0-.21-.4-.53-.18-.52C262.19,67.19,262.19,67.4,262.32,67.81Z"/><path class="cls-1" d="M261.57,67.92l.3.09C261.87,67.92,261.82,67.86,261.57,67.92Z"/><path class="cls-1" d="M262.52,68.19l-.65-.18c0,.14-.12.34.29.1C262,68.25,262.22,68.16,262.52,68.19Z"/><path class="cls-1" d="M262.76,68.49c.18.31.47.63-.15.5C263.58,69.54,263.73,69,262.76,68.49Z"/><path class="cls-1" d="M264.12,71.6l.25.42h.44C264.59,72,264.22,71.4,264.12,71.6Z"/><path class="cls-1" d="M259.59,65.43c-.12.1-.08.44-.16.63l.45.1C259.76,66,259.48,65.63,259.59,65.43Z"/><path class="cls-1" d="M259.43,66.06l-.67-.16C259.21,66.25,259.36,66.21,259.43,66.06Z"/><polygon class="cls-1" points="261.03 68.52 262.21 68.67 260.86 68.4 261.03 68.52"/><polygon class="cls-1" points="257.63 63.99 258.13 63.92 257.29 63.97 257.63 63.99"/><path class="cls-1" d="M256.29,63.08c.39-.08,0-.62.33-.59a2.82,2.82,0,0,0-1.23-.27A1.55,1.55,0,0,1,256.29,63.08Z"/><path class="cls-1" d="M254.74,62.14a2.57,2.57,0,0,0,.65.08A1.87,1.87,0,0,0,254.74,62.14Z"/><path class="cls-1" d="M257.92,65.2a.76.76,0,0,0-.15-.65l0,.49Z"/><path class="cls-1" d="M257.72,65.06v0l-.43-.34Z"/><path class="cls-1" d="M258,65.24l-.05,0S257.92,65.26,258,65.24Z"/><path class="cls-1" d="M259.87,67.23c-.44,0-1.23-.27-.82.47C259.44,67.62,259.2,67.2,259.87,67.23Z"/><path class="cls-1" d="M257.91,65.85l.5.48c0-.1,0-.3.27-.29Z"/><polygon class="cls-1" points="257.56 65.77 257.91 65.85 257.73 65.67 257.56 65.77"/><path class="cls-1" d="M255.43,63.16a2.09,2.09,0,0,1-.92-.4,5.47,5.47,0,0,0,.86.81C255.49,63.49,255.77,63.4,255.43,63.16Z"/><path class="cls-1" d="M256.52,64.12l-.07,0C256.46,64.15,256.48,64.18,256.52,64.12Z"/><polygon class="cls-1" points="251.69 60.58 251.68 60.68 251.74 60.63 251.69 60.58"/><path class="cls-1" d="M255.37,63.67a.63.63,0,0,0,.6.25,3.73,3.73,0,0,1-.6-.35C255.31,63.6,255.28,63.63,255.37,63.67Z"/><path class="cls-1" d="M253.83,61.7a3.29,3.29,0,0,0,.26.49C254.05,62,253.94,61.65,253.83,61.7Z"/><path class="cls-1" d="M256.44,63.94l.05,0C256.46,63.82,256.45,63.87,256.44,63.94Z"/><path class="cls-1" d="M256.44,63.94a1.87,1.87,0,0,0-.47,0,2.88,2.88,0,0,0,.48.18A.86.86,0,0,1,256.44,63.94Z"/><path class="cls-1" d="M249.13,62.06c.29-.28,1.12-.08,1.39.66.7.18,1.16-1.12,1.16-2-.12.12-.22.25-.89,0,.05.32.86,1.33.19,1.26-.83-.4-.49-.57-.7-1,0,.62-1.34-.14-1.64.54l.78.29C249.36,61.88,249,61.85,249.13,62.06Z"/><path class="cls-1" d="M252.67,61.49l.24.13a2.55,2.55,0,0,1-.42-1c-.48-.13-.65-.08-.75,0l1,.88Z"/><path class="cls-1" d="M253.9,62.38c-.44.21-1.07-.05-1,.57.66.47.67.06,1.17.2-1.11-.7.44,0-.16-.73a3.71,3.71,0,0,1,.63.34,4.39,4.39,0,0,1-.42-.57v0h0c0,.08,0,.11,0,0h0l-.15.1c-.25-.3,0-.13.15-.1l0,0h0l-1.19-.61A4.73,4.73,0,0,0,253.9,62.38Z"/><path class="cls-1" d="M257.94,68a.13.13,0,0,1,0-.11C257.86,67.93,257.81,67.94,257.94,68Z"/><path class="cls-1" d="M257.65,67.51a.55.55,0,0,1,.5.13c.15.27-.12.17-.19.29.22,0,.72.14.36-.38h-.11c-.35-.43-.59-1.27-.48-1.26A2.84,2.84,0,0,0,257.65,67.51Z"/><path class="cls-1" d="M255.65,65l-1-.49.22.64L255,65C255.43,65.41,255.49,65.11,255.65,65Z"/><polygon class="cls-1" points="251.72 60.34 252.11 60.07 251.22 60.18 251.72 60.34"/><polygon class="cls-1" points="250.57 59.5 250.86 59.22 250.42 59.18 250.57 59.5"/><path class="cls-1" d="M189.27,7.16,189,7.05A1.17,1.17,0,0,0,189.27,7.16Z"/><path class="cls-1" d="M191,8.7l.17-.11C191,8.6,190.92,8.63,191,8.7Z"/><path class="cls-1" d="M225.08,35.72c-.07-.59,0-1.37-.3-1l-.21.41A1.3,1.3,0,0,1,225.08,35.72Z"/><path class="cls-1" d="M206.45,20.19v.19l.52-.06Z"/><path class="cls-1" d="M204.94,21.22l-.24-.64A2.48,2.48,0,0,0,204.94,21.22Z"/><path class="cls-1" d="M180,5.71l-.19.54C180.39,6.05,180.07,5.93,180,5.71Z"/><path class="cls-1" d="M239.5,50.14a3,3,0,0,0-.56-.88C239.13,49.77,239.16,50.32,239.5,50.14Z"/><path class="cls-1" d="M193,4.26c-.2-.07-.33-.06-.38,0C192.78,4.36,192.92,4.37,193,4.26Z"/><path class="cls-1" d="M238.09,48.47a2,2,0,0,0,.09.22,2.8,2.8,0,0,1,.76.57A1,1,0,0,0,238.09,48.47Z"/><path class="cls-1" d="M140.42,27.81l-.11,0C140.33,27.88,140.37,27.86,140.42,27.81Z"/><path class="cls-1" d="M127.46,33.61a3.27,3.27,0,0,1,.38-.41A1.08,1.08,0,0,0,127.46,33.61Z"/><path class="cls-1" d="M246.32,55.73c.24.17.06,0,0,0Z"/><path class="cls-1" d="M246.32,58a.28.28,0,0,0-.22.08A.37.37,0,0,1,246.32,58Z"/><path class="cls-1" d="M234.05,48.34l0,0C234,48.45,234,48.42,234.05,48.34Z"/><path class="cls-1" d="M246.53,56.17a1.9,1.9,0,0,0-.21-.35A2,2,0,0,0,246.53,56.17Z"/><path class="cls-1" d="M246.62,56l.17.2C246.87,56.15,246.87,56.09,246.62,56Z"/><path class="cls-1" d="M246,55.48a1.56,1.56,0,0,1,.34.34c0-.06,0-.09,0-.09Z"/><path class="cls-1" d="M160.09,13.1H160C159.83,13.4,159.93,13.31,160.09,13.1Z"/><path class="cls-1" d="M216.34,33.15h0l0,0Z"/><path class="cls-1" d="M215.36,32.58c.71,0,.84.2,1,.54L217,32Z"/><path class="cls-1" d="M185.26,4.72a6.65,6.65,0,0,1,.36.56c-.84.34-1,.08-.85.7.22-.64.69-.52,1.18-.3s1,.54,1.43,0l.2.49c-.1-.09-.16,0-.25-.12.29,1,1.09-.43,1.91.48.25.35.35.69,0,.63l.94.37c.2.21,0,.34-.2.14l1.18.9,0,0a6.15,6.15,0,0,1,1.15.1c.16.4-.24,0-.28.17l.84.3c0,.49-.72.29-1.11-.12-.33,1.52.74.19,1.45,1.88l-.7-.38c-.14.89.49,1.1.81,2.05,0-.33-.47-2.09.41-1.74a1.16,1.16,0,0,0,.87.64c-.33.36.1.59.55,1l-.46.44c.59.29.77,0,1.25.06.47.53.24,1,.08,1.41.76.85,0-1.12,1-.28a4.47,4.47,0,0,0,2.26,1.61c.33.61-.35.2-.31.49l.78,0c.1.11-.05.19-.12.23.5.2.47-.43,1.16,0,.64-.35.42,1.87,1.67,2,0,.3-.36.2-.48.43a8,8,0,0,0,2.35.79l.35.95c-.14-.82.88-.6,1.75-.39a7.27,7.27,0,0,0,0-.79l1.11.63c0,.17-.22.24-.55.29l.27.05c.14.48-.28.57-.76.6l0-.59a1.81,1.81,0,0,0-1.21.47.89.89,0,0,1,.4.17c-.13,0-.23.05-.25.12s.17.06.43.09l-.31.7.25-.15.8,1.44c1.31.31,2.76.29,4.23,1.38-.68,0-.68.53-1.14.94.13-.81-1.17-.81-1.73-1.58.29.4,0,.53-.16.52l1.6.78c-.39.32,0,.52.13,1,.48-.94,1.35.42,2,.71-.21.26-.57.38-1.09-.27.09,1.18,1.67,0,1.83,1.13-.15-.14-.19-.26-.36-.2.54.14,1.17,1.14.77,1.14l-.14-.14c.85,1.05,2.84,3,3.59,2.53a6.65,6.65,0,0,1-1,.64l3.73-.24c-.67.35-1.36,2.14-2.44,1.62a1.87,1.87,0,0,0,1,1c-.07-.23.39-1.12.64-1a6,6,0,0,0,.29,1.92c-.12-.34,1-.87,1.3-.47-.18.06-.79.81-1,.76l1.71.15c-.37-.09-.73.62-.75,1.05.06-.25.76.82,1.08,1l-.2-.58c.9,1.17,2.15-.06,3.11,1-.29,0-1.33.68-.92,1.31.66-.16,3-.85,4.24-.25l-.06.41,1,.43A20.09,20.09,0,0,1,223,40c.19.58-.17.38.42,1,0,.42-.65,0-.83-.16l1.19,1.51c.43-.53,1.51.57,1.86.13l-2-1c.42-.53,2.2-.48,3.06.56.06.44-1,.66-1.17.84.29,0,1.22.6,1.19.81l-.66-.16c.35.72,1.49.25,1.68,1.34.19.25,0,1.28.37,1A5.71,5.71,0,0,1,230.64,43a10.07,10.07,0,0,1,.62,2.19c0,.79-1.55.48-1.6,1.15a1,1,0,0,1,.64,0c.12.34-.5.31.06.75.57-.4,1,1.07.65-.17.63.35.43.62,1,1.17.12-.5,1.57-.57,2.21-.22-.15.09-.19.36-.21.49,1,1,1.32,1.79,2.29,2.7,0,.21.31.79-.09.82a1.3,1.3,0,0,1,.82.26c.19,1-.73-.56-.77.38.31-.26,1.15.32,1.75.54.28-.57-.91-1-1.51-1.23.58-.62,1.92-.57,3.2.09.95.58,0,.72.21.76,1.44,1.49,2.29.07,3.16,1.67.15.86-.69.82-.83,1.21-.8-.44-.8-1.17-1.27-1.56l.39.69a1.57,1.57,0,0,1-1-.69c.11.74,2.54,2.42,3.49,3.77.33,0,.82.23.79-.09l-.44-.27c-.07-.63,1.12.16.76-.41a3.42,3.42,0,0,1,2.16,1.14l-.25.58c.09-.15-.24-.68-.57-.71.47,0,.59,1.58,1.44,1.23l-.24-.75c.72.19,1.77.22,2.3.89.08-.71-.19-.07-.21-1-.16,1-1.63-1.38-1.58-.14.05-1-.59-.95-.75-2-.11.17,0,.48-.5,0a.91.91,0,0,1-.23,0l0,0,0,0c-.05,0-.05,0,0,0a.86.86,0,0,1,.08.47c-.57.13-1.41-.61-1.86-.68-.26-.34.29-.06.25-.37l-.66-.1c.25-.37-.36-1.28.56-.84l-.66-.59a2.22,2.22,0,0,0-1.14-1.24c-.24-.35-1.12-.33-.61-.35l-1.22-.72.06-.09c-1-.95-2.57-1.38-3.17-3a3.47,3.47,0,0,1-1.33-1.09l.15-.38c-.52-.32-1-1.52-1.47-1.41.26-1.19-1.91-2.16-2.52-3l-.38.33a8.74,8.74,0,0,0-1.86-1.39l-.28.35c-.81-.28-1.17-1.64-2.06-2.47.18-.06.37.19.45.42-.31-1.75-2.69-1.68-3.09-3.15a.85.85,0,0,1-.55-.58l.07,0-.09-.1c0-.16-.08-.33-.14-.5a1.32,1.32,0,0,0,.09.45,3.89,3.89,0,0,0-.84-.61l.24-.45-.07-.06c-.13-.39-.37,0-.5.34a2.07,2.07,0,0,0-.56-.16c.35-.75-.87-.53-.56-1.4-.47.09-1.54-1.17-2.3-.73.07-.08,0-.2.18-.06a1.56,1.56,0,0,0-.88-.85l.32-.55-1.24-.1c-.12-.66-.12-1,.6-.9-1.45-.48-.95-.6-2.26-.93l.32-.24c-.29-.28-1.13-.39-1.06-.79-.1-1.18-3.06-3.35-4.21-5.52-.52,1.14-.39-1.15-1.1-.59.1-.29,0-.64.42-.53-1-.67-.95-1.61-2.08-1.66.1-.29.47-.1.5-.3-.11,0-.44-.11-.41-.31s.29,0,.51,0c-.9-.84-1.59-.33-2.22.16-.17-.7-.43-.89-1.12-.84,0-.34,0-.79.58-.31-.27-.34-1.59-2.13-2.07-1.71,0-.21-.4-.45-.53-.48a13.52,13.52,0,0,0-1.4-1.43l.12.26c-.81.29-.68-.43-1.29-.89l.07,0c-.88-1.61-.73-.33-1.55-2l-.26.41c-.83.64-.68-1.5-1.69-1.9l.08.45c-.64-.12-.17-2.07-.49-2.54,0-.15.24,0,.41.09-.66-1.43-.57.33-1.46-.29.08-.39.77-.46.28-1-.08-.46-2.29-.61-2.61-1.74,0,.34,0,.67-.53.49-.63-.44-.9-2.12-2-2a.26.26,0,0,1,0-.24c-.58-.23-1.74-1-2.31-.86.28-.83-.65-1.28-1.57-1.57s-1.8-.4-1.52-1.1A9.08,9.08,0,0,0,185,.24l.08-.15a2.25,2.25,0,0,0-2.4.59c-.32-.07-.11-.24-.1-.32a4.37,4.37,0,0,0-2,.27,4.21,4.21,0,0,0-1.33,1.12L179,1.33c-.26.4-2.56.13-3.92,1.26a.37.37,0,0,1,.09-.28c-1.51,1.23-4.7.42-4.61,2.37l-.94.9c1.5-.51.1.82.82.83-.53.34-1.69.15-1-.24l.14,0c-.12-1-1.94.49-2.16-.1-2.81,1.38-5.79,2.28-8.4,3.67l.65.48-.91.46c-.32,0-.6-.33.06-.66-.54-.17-.91.9-.85,1-1.4.44.07-1-.32-.82l-.5.34h.16c-.27.5-.16.78-.93,1.2-.56.15-.48-.25-.68-.16,0-.05-.1,0-.3.15l-1.14.61.74.23c-.35.54-1.06.59-.22.85-1.29-.45-4.26,2.24-4.89,2.25a4.74,4.74,0,0,1-1.93,1.74c.27,0,.75.42,0,.82-.5-1.28-1.61.38-2.71,0,.87.17-1.86,1.54-.55,1.71-.64.33-.33-.38-.95-.32-1.05,1.4-3.17,1.95-4.7,3.38.08.15.52.15.33.63H138c-.26.32.35,1-.62,1,.18.05.44.12.26.34-3.69,1.95-5.81,5.9-9.85,7.66.64-.15.39.14.1.45.25-.14.3.31.5.44-.57.24-1.12.5-1.68.76.25.69-1.26,1.36-.93,1.93l.3-.47c0,1,1.89.43,2.5,1.17,0-1.17,2.35-.61,2.45-2.38.34-.06,0,.4.3.45-.05-.53.18-.87.84-1.25V34c1.43-1.51,2.39-1.8,4.29-3.16l-.44-.24a1.76,1.76,0,0,1,.85-.3c0-.92-1.09.88-1.22-.05,1.14.29,2.7-2.31,3.75-1.76.6-.48-.53-.28.08-.76l.34.1-.09-.42a.85.85,0,0,1,1,0c-.11.06-.22.28-.31.38.72-.14,1.35-1.26,1.6-1.31l-.69.32a21.56,21.56,0,0,1,2.58-2.17,15.4,15.4,0,0,0,2.46-2.27l-.26-.1c1-1.24,1.15-.53,2.44-1.67l0,.08a2.1,2.1,0,0,1,.87-1c-.21.45,1,0,.65.52,1.15-1.31.5-.75,1-2.07l.42.17a1.57,1.57,0,0,1,.75-1.19c-.43.64.76.18.32.95,1.95-.26,1.81-2.13,3.14-1.53.17-1.3-1.62.32-1.34-.1-.5-.08.17-1,.72-1.22s1.52.63,2.74-.12c-.13.07-.1.14-.22.21.59,0,.72-.85,1.51-.8,0-.72.77-.38.48-1.12l-1.07.8c.55-.54.72-1.7,2-1.9a2.15,2.15,0,0,1-.39.77c.43,0,.53-.47,1-.44.29.74-1.32.93-1.72,1.84.5.11,1-1.23,1.11-.29,0-1.23,1.29-.57,1.75-1.75l.17.44c.1-.13.28-.48.54-.6l-.17.78c.45-.82,1.55-.28,2.09-.88-1.39.73-.58-.35-1.33-.35,1.45-1.45,1.55.56,3.4-.58-.24.19-1.12.23-.8-.17a3,3,0,0,1,1.32,0c1.25-.71-.41-.34,0-.87.69.31.53-.52,1-1l.21.44c1.62-.41,0-1.1,1.48-1.37l-.29.87.63-.47.08.56a2.31,2.31,0,0,1,1.7-.91c-.31-.23-.26-.86.41-1.15.58.07-.08.52.85.07-.1.37-.18.81-.77.57,0,.16-.09.37-.08.53.62.09,1.27-.44,1.61-.59a.87.87,0,0,1-.41,0L175,6.63c.28.07.17.28,0,.48.26-.16.37-.45.77-.65,0,.4.21.77-.3,1.18l1.15-.94c.16.13.86.18.73.38C178.24,7,179,5.69,180,5.61a.67.67,0,0,1,.29-.32c.95-.24,1.78,0,2.52-.69a4.5,4.5,0,0,1,.53.64c.27-.1.13-.31,0-.54s-.2-.48.34-.63c.77-.18.24.62.45.83a1.74,1.74,0,0,1,.78-.46.82.82,0,0,1,.93.45C185.62,4.91,185.49,4.75,185.26,4.72Zm8.45,6.11c-.23-.07-.76-.13-.69-.45C193.58,10.13,193.54,10.46,193.71,10.83ZM207,22c-.23,0-.36-.24-.43-.57A1.13,1.13,0,0,1,207,22Zm36.59,31.84h0C243.29,53.41,243.37,53.58,243.57,53.88Zm.62.83c.12,0,.16,0,.17-.12s-.31-.09-.48-.29C243.85,54.44,243.89,54.6,244.19,54.71ZM155.65,11.88h.24C155.57,12.24,155.61,12.07,155.65,11.88Z"/><path class="cls-1" d="M205.12,21.11a.57.57,0,0,1,.12-.26C205.12,20.85,205.05,20.91,205.12,21.11Z"/><path class="cls-1" d="M180.08,5.6h0v.1Z"/><path class="cls-1" d="M229.77,46.83a.87.87,0,0,1-.11-.47C229.57,46.44,229.56,46.58,229.77,46.83Z"/><path class="cls-1" d="M248.82,57.56l-.58-.32a.9.9,0,0,1,.35.5C248.66,57.64,248.66,57.44,248.82,57.56Z"/><path class="cls-1" d="M251.41,63.43c.11,0,.16.12.27.13l.12-.2C251.47,63.13,251.13,63.09,251.41,63.43Z"/><path class="cls-1" d="M248.28,59.18c-.22.35.18.5.59.73a.15.15,0,0,1-.06,0C249.27,59.5,248.77,59.35,248.28,59.18Z"/><path class="cls-1" d="M249,60a1.4,1.4,0,0,1,.34.26C249.48,60.08,249.19,60.08,249,60Z"/><path class="cls-1" d="M245.35,55.34c.1.22.44-.3.43-.1C246.3,55,244.27,54.78,245.35,55.34Z"/><polygon class="cls-1" points="247.72 60.45 247.91 59.96 247.45 60.11 247.72 60.45"/><path class="cls-1" d="M245.16,57.84l.47.58c.05-.07.15-.05.26,0C245.56,58.11,245.24,57.71,245.16,57.84Z"/><path class="cls-1" d="M245.89,58.42a1.08,1.08,0,0,0,.51.32A2.64,2.64,0,0,0,245.89,58.42Z"/><polygon class="cls-1" points="246.84 59.93 246.74 59.71 246.36 59.35 246.84 59.93"/><path class="cls-1" d="M239.28,52.54l-.68-.44c-.18.07-.09.3.17.45S239.26,52.75,239.28,52.54Z"/><path class="cls-1" d="M240.17,55.19a.87.87,0,0,1,0-.53l-.43.45Z"/><path class="cls-1" d="M238.32,53.72c-.18.07-1.19-.44-.42.24C238.08,53.89,238.78,54.32,238.32,53.72Z"/><polygon class="cls-1" points="230.09 44.74 230.24 44.88 230.93 44.14 230.09 44.74"/><path class="cls-1" d="M220.83,38.81c.49.86.61-.28,1,.56.33,0-.32-.68,0-.66C221.24,38.47,221.13,38.15,220.83,38.81Z"/><path class="cls-1" d="M221.82,38.71l.32.1A.89.89,0,0,0,221.82,38.71Z"/><polygon class="cls-1" points="125.47 34.87 124.88 35.17 125.41 35.12 125.47 34.87"/><path class="cls-1" d="M125.18,36.25l-.57-.35.17.68C124.85,36.46,125,36.22,125.18,36.25Z"/><path class="cls-1" d="M194.07,12.94l.14-.08c0-.19-.05-.3-.24-.51Z"/><polygon class="cls-1" points="188.31 7.19 188.4 7.28 188.58 6.67 188.31 7.19"/><path class="cls-1" d="M183.85,5.71c.12,0,.28-.09.42,0C184,5.73,183.85,5,183.85,5.71Z"/><path class="cls-1" d="M358,116.33c.14.22.4-.12.48-.14C358.07,115.91,357.87,116.4,358,116.33Z"/><polygon class="cls-1" points="354.39 113.59 354.57 113.54 353.84 113.31 354.39 113.59"/><path class="cls-1" d="M351.76,110.46c-.3.75,1,1.05,1.32,1.77l-.05.2.65-.12C353,111.69,352,111.06,351.76,110.46Z"/><path class="cls-1" d="M351.51,107.79c-.12.29-.49-.2.27.45a.57.57,0,0,1,0-.12A2.68,2.68,0,0,1,351.51,107.79Z"/><path class="cls-1" d="M351.77,108.12c.29.32,0-.36,0,0Z"/><path class="cls-1" d="M350.35,106.71l.56.27c0-.2-.25-.61,0-.54C350.39,106.09,350.34,106.28,350.35,106.71Z"/><path class="cls-1" d="M349.61,106.64l.27.15C349.9,106.71,349.86,106.64,349.61,106.64Z"/><path class="cls-1" d="M350.45,107.13l-.57-.34c0,.14-.21.3.24.17C349.93,107.06,350.16,107,350.45,107.13Z"/><path class="cls-1" d="M350.6,107.46c.09.35.28.72-.28.45C351.1,108.67,351.38,108.23,350.6,107.46Z"/><path class="cls-1" d="M351.06,110.78l.11.45.43.13C351.39,111.3,351.21,110.61,351.06,110.78Z"/><path class="cls-1" d="M348.33,103.78c-.14.07-.18.41-.3.56l.4.21C348.37,104.32,348.18,103.94,348.33,103.78Z"/><path class="cls-1" d="M348,104.34l-.61-.3C347.76,104.48,347.92,104.48,348,104.34Z"/><polygon class="cls-1" points="348.94 107.08 350.02 107.5 348.8 106.93 348.94 107.08"/><polygon class="cls-1" points="346.77 101.95 347.27 101.99 346.45 101.86 346.77 101.95"/><path class="cls-1" d="M345.68,100.79c.39,0,.13-.6.45-.51a2.73,2.73,0,0,0-1.14-.51A1.5,1.5,0,0,1,345.68,100.79Z"/><path class="cls-1" d="M344.38,99.57a3.64,3.64,0,0,0,.61.2A1.57,1.57,0,0,0,344.38,99.57Z"/><path class="cls-1" d="M346.77,103.18a.74.74,0,0,0,0-.66l-.16.47Z"/><path class="cls-1" d="M346.61,103v0l-.34-.42Z"/><path class="cls-1" d="M346.81,103.23l0,0S346.76,103.25,346.81,103.23Z"/><path class="cls-1" d="M348.16,105.58c-.42-.13-1.11-.55-.91.26C347.65,105.85,347.53,105.39,348.16,105.58Z"/><path class="cls-1" d="M346.61,103.81l.36.57c.08-.08.13-.28.34-.22Z"/><polygon class="cls-1" points="346.29 103.65 346.61 103.81 346.48 103.6 346.29 103.65"/><path class="cls-1" d="M344.82,100.69a2,2,0,0,1-.8-.57,5.36,5.36,0,0,0,.66.95C344.81,101,345.1,101,344.82,100.69Z"/><path class="cls-1" d="M345.66,101.84l-.06,0S345.61,101.89,345.66,101.84Z"/><polygon class="cls-1" points="341.72 97.47 341.7 97.57 341.76 97.53 341.72 97.47"/><path class="cls-1" d="M344.66,101.17a.63.63,0,0,0,.52.37,3.63,3.63,0,0,1-.5-.47C344.62,101.09,344.58,101.12,344.66,101.17Z"/><path class="cls-1" d="M343.58,99c0,.17.09.35.15.53C343.74,99.29,343.7,98.92,343.58,99Z"/><path class="cls-1" d="M345.63,101.66l0,0C345.68,101.55,345.65,101.59,345.63,101.66Z"/><path class="cls-1" d="M345.63,101.66a1.76,1.76,0,0,0-.45-.12,2.47,2.47,0,0,0,.42.27A.66.66,0,0,1,345.63,101.66Z"/><path class="cls-1" d="M339,98.48c.34-.22,1.11.1,1.22.87.64.29,1.35-.88,1.53-1.78-.15.09-.27.2-.88-.14,0,.32.59,1.43-.05,1.25-.73-.52-.37-.63-.49-1.09-.13.6-1.27-.36-1.69.27l.7.4C339.21,98.35,338.89,98.26,339,98.48Z"/><path class="cls-1" d="M342.5,98.54l.21.17a2.38,2.38,0,0,1-.21-1.06c-.45-.21-.62-.19-.74-.12l.84,1Z"/><path class="cls-1" d="M343.51,99.63c-.46.12-1-.25-1.12.36.55.58.64.18,1.09.42-.92-.9.42.12,0-.74a3.14,3.14,0,0,1,.54.45,5.89,5.89,0,0,1-.29-.63v0h0c0,.08,0,.12,0,0l0,0a.46.46,0,0,1-.16.07c-.17-.34.05-.12.16-.07l.06,0h0l-1-.82A4.68,4.68,0,0,0,343.51,99.63Z"/><path class="cls-1" d="M346.11,105.92a.13.13,0,0,1,0-.1C346.06,105.79,346,105.79,346.11,105.92Z"/><path class="cls-1" d="M346,105.35c.1,0,.29,0,.45.24s-.16.13-.26.23c.21.07.66.29.44-.28l-.1,0c-.23-.48-.26-1.34-.15-1.31A2.84,2.84,0,0,0,346,105.35Z"/><path class="cls-1" d="M344.63,102.54l-.86-.68.07.66.15-.17C344.33,102.87,344.45,102.59,344.63,102.54Z"/><polygon class="cls-1" points="341.8 97.24 342.24 97.05 341.34 97 341.8 97.24"/><polygon class="cls-1" points="340.84 96.23 341.17 96.01 340.75 95.89 340.84 96.23"/><path class="cls-1" d="M283.52,42.45l-.3-.14A1.08,1.08,0,0,0,283.52,42.45Z"/><path class="cls-1" d="M285.11,44.07l.18-.1C285.14,44,285.05,44,285.11,44.07Z"/><path class="cls-1" d="M317.85,70.88c0-.58,0-1.35-.26-1l-.22.4A1.22,1.22,0,0,1,317.85,70.88Z"/><path class="cls-1" d="M299.83,55.71v.19l.52-.07Z"/><path class="cls-1" d="M298.32,56.73l-.22-.63A2.65,2.65,0,0,0,298.32,56.73Z"/><path class="cls-1" d="M274.35,34.09l-.57.07C274.19,34.55,274.16,34.22,274.35,34.09Z"/><path class="cls-1" d="M331.24,85.67a3.05,3.05,0,0,0-.47-.91C330.91,85.28,330.89,85.82,331.24,85.67Z"/><path class="cls-1" d="M287.4,39.81c-.19-.08-.31-.07-.38,0C287.22,39.9,287.35,39.92,287.4,39.81Z"/><path class="cls-1" d="M330,83.91c0,.08.05.15.07.23a2.52,2.52,0,0,1,.7.62A1,1,0,0,0,330,83.91Z"/><path class="cls-1" d="M238.2,29.13h-.12C238.1,29.18,238.14,29.16,238.2,29.13Z"/><path class="cls-1" d="M224.54,31.24A2.86,2.86,0,0,1,225,31,1.1,1.1,0,0,0,224.54,31.24Z"/><path class="cls-1" d="M337.27,91.9c.22.2.07,0,0,0Z"/><path class="cls-1" d="M336.94,94.11a.3.3,0,0,0-.24,0A.4.4,0,0,1,336.94,94.11Z"/><path class="cls-1" d="M326,83.55l0,0C326,83.65,326,83.63,326,83.55Z"/><path class="cls-1" d="M337.42,92.36a1.6,1.6,0,0,0-.15-.37A1.71,1.71,0,0,0,337.42,92.36Z"/><path class="cls-1" d="M337.54,92.18l.13.22C337.75,92.38,337.77,92.33,337.54,92.18Z"/><path class="cls-1" d="M337,91.6a2.46,2.46,0,0,1,.29.39c0-.06,0-.1,0-.09Z"/><path class="cls-1" d="M259.73,21l-.06-.05C259.39,21.11,259.51,21.1,259.73,21Z"/><path class="cls-1" d="M309.31,68.37h0l0,0Z"/><path class="cls-1" d="M308.35,67.82c.7,0,.83.19,1,.52l.67-1.12Z"/><path class="cls-1" d="M279.56,38.72l.26.8c-1.09-.17-1.4-.79-1.28.09,1-.89,2.14,1.93,3.17,1l.15.54c-.09-.1-.17-.06-.25-.17.21,1.13,1.19-.2,1.93.8.23.37.3.72,0,.63l.91.43c.18.22,0,.34-.21.12l1.1,1,0,0a6.72,6.72,0,0,1,1.12.16c.12.4-.23,0-.29.16l.81.33c0,.49-.73.26-1.09-.17-.43,1.49.71.23,1.3,1.93l-.66-.41c-.2.89.42,1.11.68,2.06,0-.32-.36-2.07.5-1.69a1.1,1.1,0,0,0,.82.65c-.34.34.07.58.5,1l-.48.42c.57.31.76,0,1.23.1.44.54.19,1,0,1.4.7.86,0-1.1,1-.25.47.83,1.11,1.1,2.16,1.62.3.62-.36.2-.32.49l.76,0c.09.11-.05.19-.12.23.48.2.48-.42,1.14,0,.64-.34.35,1.84,1.58,2,0,.29-.35.19-.48.41a7.1,7.1,0,0,0,2.29.79l.32.94c-.11-.81.88-.6,1.73-.39a6.19,6.19,0,0,0,0-.78l1.07.61c0,.18-.22.25-.54.29l.26.05c.12.47-.29.57-.76.6l0-.58a1.74,1.74,0,0,0-1.2.47.87.87,0,0,1,.39.16c-.13,0-.23,0-.25.12s.16.06.42.09l-.33.69.25-.15.76,1.42c1.29.29,2.72.25,4.15,1.32-.68,0-.68.52-1.15.93.14-.8-1.14-.79-1.68-1.53.29.39,0,.52-.16.5l1.56.76c-.39.32,0,.51.1,1,.5-.92,1.32.42,2,.68-.21.26-.57.39-1.07-.25.07,1.16,1.65,0,1.79,1.09-.15-.14-.18-.25-.36-.19.54.13,1.14,1.1.75,1.11l-.14-.13c.82,1,2.74,2.88,3.49,2.44a6.38,6.38,0,0,1-1,.64l3.68-.26c-.67.35-1.4,2.12-2.44,1.61a1.72,1.72,0,0,0,.95,1c-.07-.22.4-1.11.65-.94a6,6,0,0,0,.24,1.89c-.11-.34,1-.87,1.29-.48-.18.06-.8.81-1,.76l1.68.14c-.36-.09-.73.61-.77,1,.07-.25.72.81,1,1l-.17-.56c.83,1.15,2.1-.06,3,1-.29,0-1.34.67-.95,1.28.64-.15,3-.82,4.19-.21l-.08.4.92.44a21.91,21.91,0,0,1-4.65,0c.17.57-.18.37.38.93,0,.42-.64,0-.81-.15l1.11,1.48c.44-.52,1.45.57,1.82.14l-1.88-1c.44-.51,2.19-.45,3,.59,0,.43-1.05.63-1.19.8.28,0,1.16.62,1.12.82l-.64-.17c.31.71,1.46.27,1.58,1.35.17.25,0,1.25.3,1a5.81,5.81,0,0,1,2.56-2.7,9.8,9.8,0,0,1,.49,2.17c-.11.78-1.56.42-1.66,1.08a.91.91,0,0,1,.63,0c.1.33-.51.28,0,.73.58-.37.91,1.07.65-.14.6.36.38.61.93,1.18.16-.48,1.59-.48,2.19-.11-.16.09-.22.35-.25.48.88,1.06,1.15,1.82,2,2.78,0,.2.23.79-.17.79a1.29,1.29,0,0,1,.78.32c.08,1-.66-.6-.8.31.33-.23,1.1.4,1.66.65.34-.54-.79-1.05-1.35-1.3.62-.57,1.95-.43,3.14.31.87.66-.1.71.11.77,1.23,1.6,2.24.3,2.9,1.95.05.86-.77.74-1,1.11-.73-.52-.63-1.23-1-1.66l.29.71a1.44,1.44,0,0,1-.9-.77c0,.74,2.19,2.6,2.89,4,.32.09.78.32.79,0l-.38-.32c0-.62,1.06.29.8-.3a3.28,3.28,0,0,1,1.94,1.38l-.34.54c.12-.13-.13-.7-.44-.77.46.11.32,1.62,1.2,1.41l-.11-.77c.67.29,1.7.48,2.09,1.22.21-.68-.17-.09,0-1-.32,1-1.36-1.61-1.52-.38.22-1-.42-1-.42-2.07-.13.15-.1.47-.49-.12a.59.59,0,0,1-.23,0l0,0v0s-.05,0,0,0a.83.83,0,0,1,0,.47c-.57,0-1.29-.78-1.72-.9-.2-.37.29,0,.3-.34l-.63-.17c.29-.34-.17-1.31.67-.76l-.57-.67a2.16,2.16,0,0,0-1-1.34c-.2-.37-1.06-.44-.56-.41l-1.11-.83.07-.09c-.85-1-2.4-1.56-2.83-3.24A3.55,3.55,0,0,1,328.85,83l.19-.37c-.49-.34-.89-1.55-1.36-1.47C328,80,326,78.89,325.39,78l-.4.32a8.35,8.35,0,0,0-1.76-1.45l-.29.34c-.78-.3-1.08-1.64-1.92-2.49.18,0,.36.2.42.43-.22-1.74-2.58-1.7-2.92-3.15a.8.8,0,0,1-.53-.58.13.13,0,0,0,.07,0l-.08-.1c0-.15-.08-.32-.13-.49a1.28,1.28,0,0,0,.08.44,4.25,4.25,0,0,0-.81-.6l.25-.45-.07,0c-.12-.39-.37-.06-.5.33a1.94,1.94,0,0,0-.54-.16c.36-.74-.86-.53-.52-1.39-.47.09-1.5-1.14-2.25-.7.07-.09,0-.2.18-.06-.22-.37-.43-.73-.86-.84l.33-.54-1.22-.09c-.1-.65-.1-1,.62-.9-1.43-.45-.93-.58-2.21-.9l.32-.23c-.28-.28-1.1-.37-1-.77-.07-1.17-3-3.26-4-5.39-.53,1.13-.36-1.13-1.07-.57.1-.29,0-.62.42-.52-1-.66-.9-1.56-2-1.61.11-.29.47-.11.5-.3-.11,0-.43-.1-.39-.31s.28,0,.5,0c-.87-.82-1.56-.31-2.19.18-.15-.7-.4-.87-1.08-.82,0-.33,0-.78.58-.31-.27-.33-1.5-2.09-2-1.68,0-.2-.37-.45-.5-.47A12.73,12.73,0,0,0,297,50.77l.11.26c-.81.28-.66-.42-1.25-.88l.07,0c-.79-1.59-.7-.33-1.42-2l-.28.41c-.84.61-.6-1.49-1.56-1.9l.05.44c-.62-.13-.05-2-.34-2.51,0-.14.24,0,.4.1-.56-1.42-.58.32-1.41-.32.1-.37.78-.43.33-1-.05-.44-2.21-.66-2.42-1.79,0,.33-.08.66-.56.46-.58-.45-.71-2.12-1.77-2a.32.32,0,0,1,0-.24c-.55-.24-1.55-1-2.11-1,.79-1.55-3.06-1.89-2-3l-1.3-1.17.15-.08a2.07,2.07,0,0,0-1.8-.87c-.12-.25.12-.22.19-.26a3.3,3.3,0,0,0-2.62-1.83l.25-.45c-.47,0-1.14-2.2-2.69-2.89a.37.37,0,0,1,.28,0c-1.7-.82-2.14-4-3.87-3.11l-1.16-.5c1,1.16-.7.41-.45,1.06-.51-.34-.75-1.47-.15-1l0,.14c.85-.49-1.15-1.55-.69-2a43.84,43.84,0,0,0-3.63-3.14,11.77,11.77,0,0,0-4.59-2l.23.79a8.09,8.09,0,0,0-1.07-.21c-.27-.2-.34-.62.47-.49-.38-.47-1.39.19-1.4.37-1.53-.37.65-.83.19-.87l-.67,0,.15.09c-.55.27-.59.6-1.52.59-.59-.11-.33-.43-.56-.44,0-.05-.08-.07-.36,0-.47,0-.91.07-1.37.11l.62.5c-.55.36-1.23.17-.53.71-.51-.43-1.76-.29-2.88,0a15.49,15.49,0,0,1-2.46.7,4.94,4.94,0,0,1-2.23,1.24c.26,0,.63.57-.15.81-.24-1.36-1.61,0-2.59-.59.79.35-2.07,1.06-.86,1.53-.66.17-.23-.45-.84-.53-1.27,1.13-3.4,1.15-5.15,2.16.05.17.47.27.19.69l-1.33-.34c-.33.24.1,1.07-.81.83.15.09.39.23.17.39-3.92.93-6.84,4.19-11.1,4.69.64,0,.34.24,0,.45.27-.06.2.38.36.57l-1.78.23c.06.72-1.54.91-1.37,1.55l.4-.36c-.24,1,1.67,1,2,1.85.26-1.12,2.39.1,2.92-1.57.34,0-.06.38.18.51.09-.52.39-.78,1.11-1l0,.13c1.74-1,2.7-1.09,4.84-1.88l-.36-.34a1.7,1.7,0,0,1,.88-.08c.18-.89-1.24.59-1.14-.35,1,.56,3.1-1.53,4-.73.68-.32-.44-.4.24-.72l.31.18v-.43a.84.84,0,0,1,1,.29c-.12,0-.28.21-.38.29.72,0,1.57-.88,1.82-.87l-.73.14c1.74-1.13,4.17-1.8,5.75-3.14l-.23-.15c1.23-1,1.21-.26,2.67-1.08l0,.07a2.08,2.08,0,0,1,1-.75c-.29.39.91.18.51.65,1.33-1,.61-.61,1.32-1.76l.35.26c.23-.43.2-.62,1-1-.53.5.67.38.09,1,1.8.27,2.18-1.47,3.18-.47.53-1.17-1.52-.26-1.15-.55-.44-.23.44-.92,1-.91s1.13,1.1,2.36,1c-.12,0-.13.08-.25.09.48.21.9-.42,1.47,0,.33-.61.72.06.87-.72-.4.05-.79.07-1.18.15.63-.21,1.38-1.12,2.45-.48a2.53,2.53,0,0,1-.7.38c.28.26.62-.06.9.24-.24.75-1.38-.1-2.11.53.3.33,1.3-.48.88.35.29-.52.6-.46.91-.32a1.14,1.14,0,0,0,1.13,0l-.19.44c.14-.05.46-.19.66-.08-.2.15-.39.27-.58.44.37-.16.61.08.81.31s.36.52.68.54c-1.07-.54,0-.63-.3-1.19.87.07.94.49,1,.93a1.39,1.39,0,0,0,.81,1.37c-.23-.11-.58-.78-.14-.74a2.16,2.16,0,0,1,.5,1.06c1,.74.17-.5.77-.37,0,.72.64.24,1.21.51l-.32.36c.93,1.29,1-.46,1.78.81l-.9.06.66.4-.49.29c.88.27,1,.53,1.47,1.2.1-.38.68-.56,1.21-.07.15.54-.52.14.26.79-.37.06-.82.16-.83-.47-.14.09-.37.07-.51.15.15.6.9,1,1.17,1.22a.85.85,0,0,1-.21-.36l1.52.54c.05.29-.19.27-.42.24.25.17.56.16.9.43-.35.2-.61.51-1.19.22l1.31.65c-.05.19.2.84,0,.82.4.7,1.89.78,2.42,1.72a.63.63,0,0,1,.42.11c.63.74.91,1.69,2.1,2.1l0,1c.76.51,0-1.25,1.25-.39.91.58-.14.7,0,1.1.62.11,1.78.25,2.07,1.34C279.92,39.15,279.81,38.89,279.56,38.72Zm8.09,7.59c-.22-.08-.75-.16-.66-.47C287.56,45.62,287.51,45.94,287.65,46.31Zm12.66,11.22c-.23,0-.34-.23-.41-.56A1.07,1.07,0,0,1,300.31,57.53Zm34.51,32.21h0C334.61,89.25,334.67,89.43,334.82,89.74Zm.51.88c.12,0,.17,0,.19-.09-.14,0-.3-.13-.44-.35C335,90.32,335.05,90.47,335.33,90.62ZM256.58,17.74l.23.1C256.34,18,256.46,17.89,256.58,17.74Z"/><path class="cls-1" d="M298.5,56.62a.55.55,0,0,1,.13-.25C298.51,56.37,298.44,56.43,298.5,56.62Z"/><path class="cls-1" d="M274.45,34.08l0,0a.19.19,0,0,0-.08,0Z"/><path class="cls-1" d="M321.94,81.89a1,1,0,0,1-.08-.46C321.77,81.5,321.76,81.64,321.94,81.89Z"/><path class="cls-1" d="M339.46,94.05l-.52-.4a.88.88,0,0,1,.27.54C339.28,94.1,339.32,93.9,339.46,94.05Z"/><path class="cls-1" d="M340.88,100.19c.11,0,.14.14.24.17l.15-.16C341,99.91,340.68,99.81,340.88,100.19Z"/><path class="cls-1" d="M338.65,95.55c-.27.31.1.52.45.81l-.05-.06C339.56,96,339.1,95.79,338.65,95.55Z"/><path class="cls-1" d="M339.18,96.42a2.06,2.06,0,0,1,.28.31C339.66,96.62,339.38,96.57,339.18,96.42Z"/><path class="cls-1" d="M336.38,91.39c.06.23.48-.24.43,0C337.36,91.18,335.4,90.7,336.38,91.39Z"/><polygon class="cls-1" points="337.88 96.71 338.15 96.26 337.69 96.33 337.88 96.71"/><path class="cls-1" d="M335.83,93.81l.36.63c.06-.06.16,0,.26,0C336.17,94.13,335.93,93.7,335.83,93.81Z"/><path class="cls-1" d="M336.45,94.47a1.07,1.07,0,0,0,.44.38A2.19,2.19,0,0,0,336.45,94.47Z"/><polygon class="cls-1" points="337.13 96.07 337.06 95.85 336.76 95.44 337.13 96.07"/><path class="cls-1" d="M330.78,88l-.63-.49c-.18.06-.12.28.13.46S330.73,88.21,330.78,88Z"/><path class="cls-1" d="M331.33,90.68c-.07-.22,0-.31.05-.51l-.48.4Z"/><path class="cls-1" d="M329.7,89.08c-.18.06-1.12-.51-.43.2C329.45,89.23,330.08,89.71,329.7,89.08Z"/><polygon class="cls-1" points="322.39 79.85 322.53 79.99 323.26 79.28 322.39 79.85"/><path class="cls-1" d="M313.57,73.91c.45.84.61-.27.95.55.33,0-.28-.67,0-.65C314,73.57,313.88,73.26,313.57,73.91Z"/><path class="cls-1" d="M314.54,73.81a1.89,1.89,0,0,0,.31.1A.86.86,0,0,0,314.54,73.81Z"/><polygon class="cls-1" points="222.35 31.84 221.72 31.95 222.23 32.06 222.35 31.84"/><path class="cls-1" d="M221.72,33.07l-.45-.5,0,.69C221.36,33.17,221.56,33,221.72,33.07Z"/><path class="cls-1" d="M287.89,48.4l.14-.07c.06-.19,0-.3-.21-.51Z"/><polygon class="cls-1" points="282.54 42.38 282.63 42.48 282.86 41.88 282.54 42.38"/><path class="cls-1" d="M277.21,38.17c.18.21.5.34.68.55C277.39,38.38,277.67,37.6,277.21,38.17Z"/><path class="cls-2" d="M284.81,104c-.09,0-.19-.22-.23-.26C284.79,103.79,284.84,104.07,284.81,104Z"/><polygon class="cls-2" points="286.89 104.47 286.8 104.37 287.2 104.6 286.89 104.47"/><path class="cls-2" d="M288.53,104.37c.08.43-.63,0-.84.13v.1l-.32-.33C287.76,104.3,288.35,104.5,288.53,104.37Z"/><path class="cls-2" d="M288.9,103.42c0,.16.27.13-.17.06a.08.08,0,0,0,0,0Z"/><path class="cls-2" d="M288.74,103.44c-.18,0,0-.15,0,0Z"/><path class="cls-2" d="M289.59,103.48l-.31-.13c0-.1.18-.14.07-.2C289.63,103.21,289.63,103.31,289.59,103.48Z"/><path class="cls-2" d="M290,103.76l-.16-.05S289.85,103.65,290,103.76Z"/><path class="cls-2" d="M289.5,103.6l.32.11c0,.07.08.21-.14,0C289.77,103.8,289.66,103.68,289.5,103.6Z"/><path class="cls-2" d="M289.4,103.68c-.08.1-.21.17.1.29C289,103.94,288.93,103.65,289.4,103.68Z"/><path class="cls-2" d="M288.86,104.8l-.1.13-.23-.13C288.64,104.87,288.8,104.67,288.86,104.8Z"/><path class="cls-2" d="M290.88,103.15c.06.09.05.24.1.36l-.22-.09C290.81,103.35,290.94,103.28,290.88,103.15Z"/><path class="cls-2" d="M291,103.51l.34.13C291.1,103.68,291,103.61,291,103.51Z"/><polygon class="cls-2" points="290.28 104.22 289.69 103.94 290.36 104.22 290.28 104.22"/><polygon class="cls-2" points="291.82 103.06 291.56 102.87 291.99 103.16 291.82 103.06"/><path class="cls-2" d="M292.48,103.05c-.21-.16,0-.3-.19-.39a1.72,1.72,0,0,1,.62.27A.34.34,0,0,0,292.48,103.05Z"/><path class="cls-2" d="M293.24,103.1a2.09,2.09,0,0,1-.33-.17A1.15,1.15,0,0,1,293.24,103.1Z"/><path class="cls-2" d="M291.72,103.56s-.06-.19,0-.27l0,.26Z"/><path class="cls-2" d="M291.81,103.56h0l.21,0Z"/><path class="cls-2" d="M291.69,103.57h0S291.72,103.6,291.69,103.57Z"/><path class="cls-2" d="M290.81,104c.22.13.61.25.44.49C291,104.28,291.15,104.14,290.81,104Z"/><path class="cls-2" d="M291.75,103.89l-.23.08c0-.07,0-.17-.16-.23Z"/><polygon class="cls-2" points="291.92 103.96 291.75 103.89 291.83 103.86 291.92 103.96"/><path class="cls-2" d="M292.92,103.37a.94.94,0,0,0,.46.11,1.19,1.19,0,0,1-.42.11C292.9,103.51,292.75,103.38,292.92,103.37Z"/><path class="cls-2" d="M292.4,103.49h0S292.42,103.53,292.4,103.49Z"/><polygon class="cls-2" points="294.76 103.35 294.76 103.4 294.73 103.35 294.76 103.35"/><path class="cls-2" d="M293,103.64c-.08.06-.19,0-.29-.07a1,1,0,0,0,.29,0S293,103.65,293,103.64Z"/><path class="cls-2" d="M293.7,103.19a.44.44,0,0,1-.12.15C293.59,103.26,293.64,103.13,293.7,103.19Z"/><path class="cls-2" d="M292.43,103.43h0C292.41,103.36,292.42,103.39,292.43,103.43Z"/><path class="cls-2" d="M292.43,103.43a1.49,1.49,0,0,1,.24.14l-.24-.07Z"/><path class="cls-2" d="M296.09,104.91c-.15-.23-.57-.41-.68-.14-.36-.15-.62-.93-.65-1.37.07.1.12.19.46.3,0,.14-.41.35-.07.54s.23-.11.33-.25c0,.31.68.38.85.81l-.39-.12C296,104.75,296.14,104.84,296.09,104.91Z"/><path class="cls-2" d="M294.28,103.47l-.12,0c.1,0,.13-.15.19-.35a.74.74,0,0,1,.38.25l-.5.09Z"/><path class="cls-2" d="M293.68,103.5c.23.24.54.32.54.61-.32,0-.34-.19-.59-.28.55,0-.23-.13.06-.31a1.25,1.25,0,0,0-.31,0,.9.9,0,0,0,.2-.14v0h0s0,.06,0,0h0a.36.36,0,0,0,.08.09c.12-.06,0-.06-.08-.09l0,0h0l.59.09A1.09,1.09,0,0,1,293.68,103.5Z"/><path class="cls-2" d="M291.83,105a.14.14,0,0,0,0-.06C291.86,104.93,291.89,105,291.83,105Z"/><path class="cls-2" d="M292,104.79c-.06,0-.14-.13-.25-.09s.07.12.11.2c-.11-.06-.36-.16-.2-.3l.06,0c.15-.1.24-.44.19-.47A2,2,0,0,1,292,104.79Z"/><path class="cls-2" d="M292.87,104.21l.49.09-.09.23-.06-.13C293,104.47,293,104.31,292.87,104.21Z"/><polygon class="cls-2" points="294.74 103.22 294.53 102.96 294.99 103.31 294.74 103.22"/><polygon class="cls-2" points="295.3 103.19 295.15 102.97 295.37 103.09 295.3 103.19"/><path class="cls-2" d="M326.62,100.77l.15,0A.31.31,0,0,1,326.62,100.77Z"/><path class="cls-2" d="M325.81,101l-.09-.11C325.79,101,325.84,101,325.81,101Z"/><path class="cls-2" d="M308.53,101.48c.05-.24,0-.61.17-.35l.1.27C308.65,101.37,308.57,101.41,308.53,101.48Z"/><path class="cls-2" d="M318.18,101.3v.09l-.25-.22Z"/><path class="cls-2" d="M318.92,102.33l.12-.22A.44.44,0,0,1,318.92,102.33Z"/><path class="cls-2" d="M331.23,99.77l.29.22C331.31,100.05,331.32,99.9,331.23,99.77Z"/><path class="cls-2" d="M300.93,102.67a.53.53,0,0,1,.29-.2C301.12,102.64,301.1,102.88,300.93,102.67Z"/><path class="cls-2" d="M324.69,98.17a.28.28,0,0,1,.18.13A.22.22,0,0,1,324.69,98.17Z"/><path class="cls-2" d="M301.66,102.42a.43.43,0,0,0,0,.07.91.91,0,0,0-.4,0C301.3,102.34,301.41,102.26,301.66,102.42Z"/><path class="cls-2" d="M346.67,94s0,0,0,0S346.69,94,346.67,94Z"/><path class="cls-2" d="M349.44,89.6a.58.58,0,0,0-.19.06S349.33,89.6,349.44,89.6Z"/><path class="cls-2" d="M297.44,102.86c-.13,0,0,0,0,0Z"/><path class="cls-2" d="M297.45,103.93a.4.4,0,0,1,.12.11A.54.54,0,0,0,297.45,103.93Z"/><path class="cls-2" d="M303.71,103.85h0C303.72,103.9,303.72,103.89,303.71,103.85Z"/><path class="cls-2" d="M297.33,103a.24.24,0,0,1,.11-.09Z"/><path class="cls-2" d="M297.29,102.87l-.09,0S297.16,102.84,297.29,102.87Z"/><path class="cls-2" d="M297.61,102.86a.31.31,0,0,0-.17,0,0,0,0,0,0,0,0Z"/><path class="cls-2" d="M338,96.51s0,0,0,0C338.2,96.54,338.15,96.54,338,96.51Z"/><path class="cls-2" d="M313,103.61h0Z"/><path class="cls-2" d="M313.48,103.73c-.35-.29-.43-.23-.52-.14l-.29-.75Z"/><path class="cls-2" d="M328.28,100.35c.15-.43.73-.1,1.05.05.06-.15-.46-.56,0-.54.63,0,.25.61.63.6l0-.48c.6.2.74-.18,1.05-.33a.37.37,0,0,1,.21.08c.26-.29,1,.17,1.2,0-.11-.06,0-.3,0-.41l.65.1c-.28,0-.42-.28-.59-.5.17,0,.32.09.44.09-.11-.07-.23-.13-.21-.26l.76.23s-.06.08-.1.11c.13,0,.5,0,.56-.24-.07-.08-.18-.15-.25-.23,0,.31-.22.11-.41,0,.38-.08,0-.09.12-.32.26-.07.55.21.61.43.23-.19.28-.28.71-.13l-.25-.31.33,0-.45-.32c.38-.39.43.52.88.15l-.17-.28c.29,0,.65.48.62.09.31.1-.13.52.41.41a.66.66,0,0,1,.23-.44c.24.07.08.37,0,.36.83-.11-.12-1.11.77-1-.1.28.53.48,0,.65.36.08.26-.58.71-.37l-.39-.3c.09,0,.28,0,.36.08l-.19-.27c.62.37.47-.45,1.05.12-.44-.45.27-.06.28-.3-.49-.26-.77.28-1.09-.16,0-.19.29,0,.33-.18a1.31,1.31,0,0,1-.41-.2c.25-.41.82,0,1.15.08l-.51,0c.31.45.24,0,.59.32.07-.33.47,0,.56-.25-.05,0-.08,0-.13,0,.5-.16.17-1,.36-1s.66,0,.65.23c.24.07-.73.1-.08.59-.15-.79.73.06,1-.64-.41-.15-.09-.45-.44-.54.32-.06.4,0,.64.19l0-.25c.67.34.35.39,1.07.43-.29-.09,0-.4-.2-.49a.62.62,0,0,1,.53,0l0,0c.64-.11.3-.45,1-.41l0,.15c.9.09,1.61-.49,2.4-.62l-.18.21c0-.1.6,0,.69-.29-.05,0-.16,0-.19,0-.09-.15-.14-.4,0-.51l.2.2,0-.2c.25-.11.12.35.37.24-.24-.7,1-.54.91-1.19.46.38-.43.26,0,.6,0-.1,0-.2.16-.31l.12.3c.66-.48.8-.85,1.51-1.09l-.06,0c.17-.22.33-.22.59,0,0-.16-.25-.14-.23-.3.87.51.52-.89,1.09-.52-.38-.54-.16-1.31-.66-1.64h.21c-.29-.34-.55.23-.89-.11l-.3.63c-.07-.14-.29-.31-.23-.39-.14,0-.27.08-.22-.19-.71,1.52-2.61,1.21-3.61,2.24-.11,0-.14-.15-.16-.25,0,.46-.35-.09-.51-.08l0,.65c-.24-.09-.22-.29-.3-.39-.72.18-1.06,1-1.8.85-.06.25.3.4.11.55,0-.65-.82,0-.85-.44.12.65-.76.44-.18,1.18-.24.15-.43-.24-.39-.34a1.11,1.11,0,0,1-1,.11c-.06.26-1.58.36-1.51,1,0-.45-.14-.19-.43-.29l0-.4-.41.19c-.1,0-.12,0-.1,0s.14.19,0,.34-.4,0-.67-.17l0-.06-.22,0c-.14.07.72.16.35.5-.06-.09-.61-.44-.59-.15.23-.11.34.14.31.27l-.32.14-.15-.46c-.95.38-1.79,1-2.86,1.33.24.36-.73.26-.3.78v-.07c.29,0,.19.46-.06.46.11-.24-.73-.42-.24-.67l-.57-.13c-.87-1-1.05.45-1.9.3a.27.27,0,0,1,.14.11c-.76-.17-1.09.66-1.32.53l.12.31c-.75-.3-.82-.32-1.29,0,0,0,.15.11.1.19a.86.86,0,0,0-.9-.17l.07.09-.65.12c.54.89-1.4-.25-1,.76-.28-.22-.79-.18-1.07-.25a.15.15,0,0,1,0,.13c-.53-.41-.6.34-.9.36s-.26-.24-.28-.41c-.11.47-1.2-.19-1.23,0-.24.1.11.37.15.58-.43,0-.41-.82-.71-.34.08,0,.21,0,.2.09s.11,1.24-.2,1.08l0-.19c-.49-.15-.4.93-.82.34l-.13-.29c-.39.52-.32,0-.75.43l0,0c-.3,0-.24.39-.64,0l0-.08a2.67,2.67,0,0,0-.7.18c-.06,0-.27-.07-.26,0-.24-.37-.9,0-1,.06.3,0,.27.18.28.35-.34-.27-.47-.28-.56,0-.31-.46-.65-.94-1.1-.87.11,0,.24.07.25.17s-.15,0-.21,0,.2.15.25.32c-.56-.38-.54.08-1.06,0,.22.11.16.22.2.4-.34-.52-.32.58-.56-.14-.61.58-2.15.45-2.22,1,0,.21-.4-.06-.55,0l.16.23c-.67-.34-.42-.09-1.16-.42.37.23.36.38.28.64l-.62-.42.14.36a.39.39,0,0,0-.46.05c.07,0,.05,0,.08.1-.36-.49-.93-.32-1.17-.54.13.51-.48-.06-.32.42a1.11,1.11,0,0,0-.29-.14c-.05-.23-.16-.47-.23-.34h0l.1.29a1.44,1.44,0,0,0-.43,0,.41.41,0,0,0,.06-.17c0,.06-.06.12-.09.17h0c-.05.08-.12.13-.29,0-.24.52-1.43-.39-1.63.27a.14.14,0,0,1,.23,0c-.47,0-.69.51-1.11.34l-.13-.27a2.82,2.82,0,0,0-1-.06l-.19-.29c-.32.16-1.44-.19-1.33.45-.23-.22-.5.16-.77.1l.07.24a1.09,1.09,0,0,1-.69,0c-.33.54-1.15.14-1.65.24l0,.07-.62-.1c.25.19-.19-.13-.31,0a.49.49,0,0,0-.59.17l-.33.05c.46.11.16.33.29.6l-.34-.19c0,.14.26.19.13.27-.23-.13-.65-.08-.94-.34a.25.25,0,0,1,0-.19s0,0,0,0h0l-.12-.1c-.24.09-.2,0-.26-.15-.07.44-.4.18-.37.68,0-.57-.71.07-.8-.47,0,.44-.15,0-.09.41.26-.15.8.2,1.16.36l-.11.27c.43.45.47-.23.71-.09-.16-.1-.33,0-.28.14l-.13-.36c.28-.18.73.07,1.09.22-.17.14.42.19.39.46l-.22,0c0,.14.23.23.4.32.47-.32,1.7-.23,1.76-.54-.08.11-.35.05-.52,0l.2-.18c-.23,0-.23.36-.64.28-.07-.23-.5-.52-.42-.86.44-.44.87.52,1.61.34.11.06-.38-.35.11-.28a2.86,2.86,0,0,1,1.62,1.13c-.31-.12-.92-.35-.78,0,.31.12.74.16.89.39,0-.44-.49-.07-.39-.45.16,0,.31.12.42.18-.2-.16,0-.31,0-.41.49-.07.68-.27,1.19-.39a.59.59,0,0,0-.09-.31,2.2,2.2,0,0,1,1.1.92c.32,0,.22-.23.54-.15-.2.43.05-.08.32.32.3,0,0-.21.05-.32a1.25,1.25,0,0,1,.33.26c0-.32-.78-.74-.79-1.12a2.23,2.23,0,0,1,.37-.76,7,7,0,0,1,1.16,2.19c.15.23.1-.29.2-.33.12-.42.69.22.88,0l-.33-.18c0-.1.47,0,.62.09-.07-.13-.61-.65-.57-.82.46-.14,1.35.49,1.55.89l-1-.28c.16.34.73.24.93.64l.63-.23c-.09,0-.42,0-.41-.25.31,0,.12-.08.23-.27a21.14,21.14,0,0,1-2.36-1.78l.49.16,0-.21a8.54,8.54,0,0,1,2.12,1.71c.22-.13-.28-.82-.43-.94.52-.13,1.11.9,1.59.71l-.12.18c.17,0,.55-.17.57,0a1.11,1.11,0,0,0-.35-.76l.86.58a6.58,6.58,0,0,1-.48-.73c.18,0,.71.6.64.71.14-.47.17-.23.2-.76.13,0,.34.6.29.67.34.11.44,0,.52-.08-.55-.16-.84-1.23-1.17-1.64l1.85,1.5c-.08-.1-.47-.62-.5-.68.36.48,1.41.35,1.86.18l-.08,0c-.2-.16.14-.38.42-.24-.09-.09-.11,0-.19,0,.11-.44.87.67.95.16-.28.11-.46-.08-.56-.28.36.13.82-.18,1,.43.09-.15.28-.1.09-.4l.8.22c-.08,0-.22-.22-.06-.3-.3.16-.94-.32-.9.1-.22-.36-.21-.58-.55-.85a5.81,5.81,0,0,1,2.13.9l.42-.39.13.16-.15-.43c.13.07.22.15.21.1s-.06-.09-.12-.14a.43.43,0,0,1,.2.07,2,2,0,0,0-.6-.66l0,.27c-.23-.19-.44-.39-.37-.56l.14.07c-.17-.14-.29-.25-.27-.33l.56.11a2.25,2.25,0,0,0,0,.35c.43.22.94.48.86.81l.19-.32a4.19,4.19,0,0,0,1.18.46c-.06-.15-.26-.24-.23-.37.62.4.52-.73.84-.34.34,0,.33.33.57.4,0,0-.11-.13-.06-.15l.39.25c0-.13-.32-.16-.16-.35.54.13.87.22,1.12,0,.52,0,.15.65.52.49-.09-.26-.21-.56,0-.66.23.14.33.33.62.38l-.24-.37c.22,0,.43,0,.26-.29.27.12.37.06.43,0,.43.12.21.81.23,1,.14-.36.46-.25.37-.74l-.34,0c.32-.61.88.38.68-.48-.19.08-.55,0-.55-.29l.4.11c0-.1-.2,0-.14-.17a5.48,5.48,0,0,1,.57.31l0,0,.56-.08c-.09,0-.2-.09-.1-.13l.46.1c-.17-.07-.13-.21,0-.31.38-.24.86.74,1,.27,0,0-.08,0-.12,0l.07-.22c.52.78,1.09-.2,1.61.58.06-.39-.1-.2-.65-.48l.13-.3C328.5,100.31,328.44,100.39,328.28,100.35Zm-3.44.86c0,.18-.22,0-.34,0C324.58,101.08,324.56,100.91,324.84,101.21Zm-6.73.65c0,.13-.1.2-.22.12A.23.23,0,0,1,318.11,101.86ZM298.85,103v0C298.93,102.88,299,102.83,298.85,103Zm-.17.07a.23.23,0,0,1-.25,0,.16.16,0,0,0,.09.11C298.67,103.17,298.69,103.12,298.68,103Zm39.26-8.71,0-.1C338.05,94.3,338.14,94.36,337.94,94.33Z"/><path class="cls-2" d="M318.83,102.21a.52.52,0,0,0-.06-.16C318.83,102.09,318.87,102.14,318.83,102.21Z"/><path class="cls-2" d="M331.18,99.73h0l0,0Z"/><path class="cls-2" d="M305.89,104.74a.23.23,0,0,0,.07-.17C306,104.64,306,104.7,305.89,104.74Z"/><path class="cls-2" d="M296.17,102.86l.29,0c-.13,0-.14.06-.17.11S296.25,102.85,296.17,102.86Z"/><path class="cls-2" d="M295,104.82c-.06,0-.08,0-.14,0l-.06-.14C294.94,104.66,295.11,104.75,295,104.82Z"/><path class="cls-2" d="M296.47,103.82c.11.24-.09.17-.29.15h0C296,103.64,296.22,103.73,296.47,103.82Z"/><path class="cls-2" d="M296.13,104H296C295.87,103.84,296,103.94,296.13,104Z"/><path class="cls-2" d="M297.93,103c-.05.07-.22-.3-.22-.2C297.45,102.53,298.48,103.13,297.93,103Z"/><polygon class="cls-2" points="296.77 104.62 296.67 104.32 296.9 104.54 296.77 104.62"/><path class="cls-2" d="M298,104.26l-.23.11a.23.23,0,0,0-.14-.09C297.84,104.25,298,104.17,298,104.26Z"/><path class="cls-2" d="M297.67,104.28a.37.37,0,0,1-.25,0A.84.84,0,0,1,297.67,104.28Z"/><polygon class="cls-2" points="297.21 104.67 297.26 104.6 297.44 104.56 297.21 104.67"/><path class="cls-2" d="M301,103.86l.35,0c.09.1.05.17-.09.14S301,104,301,103.86Z"/><path class="cls-2" d="M300.55,104.77c.05-.07,0-.14,0-.24l.22.36Z"/><path class="cls-2" d="M301.49,104.75c.09.1.61.23.21.26C301.61,104.91,301.26,104.87,301.49,104.75Z"/><polygon class="cls-2" points="305.77 103.67 305.7 103.68 305.36 103.08 305.77 103.67"/><path class="cls-2" d="M310.57,104.47c-.27.21-.3-.35-.52-.12-.16-.12.18-.19,0-.29C310.37,104.17,310.43,104.07,310.57,104.47Z"/><path class="cls-2" d="M310.07,104.06l-.16-.08A.38.38,0,0,1,310.07,104.06Z"/><polygon class="cls-2" points="349.96 88.96 350.08 88.75 350.07 89 349.96 88.96"/><path class="cls-2" d="M350.61,89.23l-.19-.4.33.29C350.69,89.12,350.59,89.13,350.61,89.23Z"/><path class="cls-2" d="M324.35,102.11l-.07-.08c0-.11,0-.13.12-.17Z"/><polygon class="cls-2" points="327.11 101.07 327.06 101.09 326.95 100.72 327.11 101.07"/><path class="cls-2" d="M329.81,100.84c-.09,0-.25,0-.34,0C329.72,100.88,329.58,100.4,329.81,100.84Z"/><path class="cls-2" d="M279.55,95.6c-.06,0-.13-.16-.15-.19C279.53,95.44,279.57,95.65,279.55,95.6Z"/><polygon class="cls-2" points="280.89 95.93 280.83 95.86 281.09 96.02 280.89 95.93"/><path class="cls-2" d="M282,95.86c.05.31-.41,0-.54.09V96l-.21-.23C281.45,95.81,281.83,96,282,95.86Z"/><path class="cls-2" d="M282.19,95.18c0,.12.18.09-.11,0a0,0,0,0,1,0,0Z"/><path class="cls-2" d="M282.09,95.19c-.12,0,0-.1,0,0Z"/><path class="cls-2" d="M282.64,95.22l-.2-.09c0-.07.11-.1,0-.15C282.66,95,282.66,95.1,282.64,95.22Z"/><path class="cls-2" d="M282.89,95.43l-.1,0S282.8,95.35,282.89,95.43Z"/><path class="cls-2" d="M282.58,95.31l.21.08s0,.15-.09,0C282.75,95.45,282.68,95.37,282.58,95.31Z"/><path class="cls-2" d="M282.51,95.36c-.05.07-.13.12.07.22C282.27,95.55,282.21,95.34,282.51,95.36Z"/><path class="cls-2" d="M282.16,96.17l-.06.09-.15-.09C282,96.21,282.12,96.07,282.16,96.17Z"/><path class="cls-2" d="M283.47,95c0,.06,0,.17.06.25l-.14-.06C283.42,95.13,283.51,95.08,283.47,95Z"/><path class="cls-2" d="M283.53,95.24l.22.1C283.61,95.36,283.56,95.31,283.53,95.24Z"/><polygon class="cls-2" points="283.08 95.75 282.7 95.55 283.13 95.75 283.08 95.75"/><polygon class="cls-2" points="284.08 94.92 283.91 94.78 284.19 94.99 284.08 94.92"/><path class="cls-2" d="M284.5,94.92c-.13-.12,0-.22-.12-.29a1,1,0,0,1,.4.2A.2.2,0,0,0,284.5,94.92Z"/><path class="cls-2" d="M285,95a1.2,1.2,0,0,1-.21-.12A.78.78,0,0,1,285,95Z"/><path class="cls-2" d="M284,95.28s0-.14,0-.19l0,.18Z"/><path class="cls-2" d="M284.07,95.28h0l.13,0Z"/><path class="cls-2" d="M284,95.28h0S284,95.31,284,95.28Z"/><path class="cls-2" d="M283.42,95.56c.15.09.4.18.29.35C283.58,95.79,283.64,95.7,283.42,95.56Z"/><path class="cls-2" d="M284,95.52l-.15,0a.26.26,0,0,0-.1-.16Z"/><polygon class="cls-2" points="284.14 95.56 284.03 95.52 284.09 95.5 284.14 95.56"/><path class="cls-2" d="M284.79,95.15a.48.48,0,0,0,.29.07.61.61,0,0,1-.27.08S284.68,95.15,284.79,95.15Z"/><path class="cls-2" d="M284.45,95.23h0S284.46,95.26,284.45,95.23Z"/><polygon class="cls-2" points="285.98 95.13 285.98 95.16 285.96 95.13 285.98 95.13"/><path class="cls-2" d="M284.82,95.34c-.06,0-.13,0-.2-.06a.65.65,0,0,0,.19,0S284.84,95.34,284.82,95.34Z"/><path class="cls-2" d="M285.29,95a.31.31,0,0,1-.08.11C285.22,95.07,285.25,95,285.29,95Z"/><path class="cls-2" d="M284.47,95.18h0S284.47,95.16,284.47,95.18Z"/><path class="cls-2" d="M284.47,95.18l.15.1-.15,0Z"/><path class="cls-2" d="M286.84,96.25c-.1-.17-.37-.3-.45-.1-.22-.11-.4-.67-.41-1,0,.07.07.14.29.22,0,.1-.26.25,0,.39s.15-.08.21-.18c0,.22.44.27.55.58l-.25-.09S286.87,96.2,286.84,96.25Z"/><path class="cls-2" d="M285.67,95.21h-.08c.06,0,.08-.11.12-.25a.56.56,0,0,1,.25.18l-.33.06Z"/><path class="cls-2" d="M285.28,95.23c.15.18.35.24.35.44-.21,0-.22-.13-.38-.2.35,0-.15-.09,0-.22l-.21,0,.13-.1v0h0s0,0,0,0h0l0,.06c.07,0,0,0,0-.06s0,0,0,0h0l.38.06A.63.63,0,0,1,285.28,95.23Z"/><path class="cls-2" d="M284.08,96.28a.06.06,0,0,0,0,0S284.12,96.27,284.08,96.28Z"/><path class="cls-2" d="M284.16,96.16s-.09-.09-.16-.07,0,.09.07.15-.23-.12-.13-.22l0,0c.1-.08.16-.32.12-.34A1.4,1.4,0,0,1,284.16,96.16Z"/><path class="cls-2" d="M284.75,95.74l.32.07L285,96l0-.1C284.83,95.93,284.81,95.81,284.75,95.74Z"/><polygon class="cls-2" points="285.96 95.03 285.83 94.85 286.12 95.1 285.96 95.03"/><polygon class="cls-2" points="286.32 95.02 286.23 94.85 286.37 94.94 286.32 95.02"/><path class="cls-2" d="M306.56,93.28l.09,0Z"/><path class="cls-2" d="M306,93.45l0-.07S306.05,93.44,306,93.45Z"/><path class="cls-2" d="M294.87,93.79c0-.17,0-.44.11-.25l.07.19C295,93.71,294.9,93.74,294.87,93.79Z"/><path class="cls-2" d="M301.1,93.66v.07l-.16-.16Z"/><path class="cls-2" d="M301.58,94.4l.08-.16A.34.34,0,0,1,301.58,94.4Z"/><path class="cls-2" d="M309.54,92.57l.18.16C309.59,92.77,309.6,92.66,309.54,92.57Z"/><path class="cls-2" d="M290,94.64a.35.35,0,0,1,.19-.14C290.08,94.62,290.07,94.79,290,94.64Z"/><path class="cls-2" d="M305.31,91.42a.19.19,0,0,1,.12.09A.13.13,0,0,1,305.31,91.42Z"/><path class="cls-2" d="M290.44,94.46l0,.05a.58.58,0,0,0-.26,0C290.2,94.41,290.27,94.35,290.44,94.46Z"/><path class="cls-2" d="M319.51,88.45s0,0,0,0S319.53,88.45,319.51,88.45Z"/><path class="cls-2" d="M321.3,85.29a.34.34,0,0,0-.12,0S321.23,85.29,321.3,85.29Z"/><path class="cls-2" d="M287.71,94.78c-.08,0,0,0,0,0Z"/><path class="cls-2" d="M287.71,95.54a.24.24,0,0,1,.08.09A.38.38,0,0,0,287.71,95.54Z"/><path class="cls-2" d="M291.76,95.49h0S291.76,95.52,291.76,95.49Z"/><path class="cls-2" d="M287.64,94.88s0,0,.06-.07S287.68,94.85,287.64,94.88Z"/><path class="cls-2" d="M287.61,94.79l-.06,0S287.52,94.76,287.61,94.79Z"/><path class="cls-2" d="M287.82,94.78a.24.24,0,0,0-.12,0,0,0,0,0,0,0,0Z"/><path class="cls-2" d="M313.93,90.23s0,0,0,0S314,90.26,313.93,90.23Z"/><path class="cls-2" d="M297.74,95.32h0Z"/><path class="cls-2" d="M298.07,95.4c-.23-.2-.28-.16-.33-.1l-.2-.54Z"/><path class="cls-2" d="M322.68,90.37c.1-.31.48-.07.68,0,0-.11-.3-.4,0-.39s.16.44.4.43v-.34c.39.14.48-.13.68-.24a.23.23,0,0,1,.13.06c.17-.21.66.12.78,0-.07,0,0-.22,0-.29l.42.07c-.19,0-.27-.2-.39-.35.11,0,.21.06.29.06s-.15-.1-.14-.19l.49.16s0,.06-.06.08.32,0,.37-.17-.12-.1-.17-.16c0,.22-.14.08-.26,0,.24,0,0-.06.08-.22s.35.15.39.3c.14-.13.18-.19.46-.09l-.16-.22h.21l-.29-.22c.24-.28.27.37.57.1l-.11-.2c.18,0,.42.35.39.07.21.07-.07.37.27.29a.53.53,0,0,1,.15-.32c.15.06.05.27,0,.26.54-.08-.07-.79.5-.69-.06.21.34.35,0,.47.23.06.17-.41.46-.26l-.25-.22c.05,0,.18,0,.23.06l-.13-.19c.41.26.31-.32.69.08-.29-.32.17,0,.18-.22-.32-.18-.5.21-.71-.11,0-.13.19,0,.21-.13a.6.6,0,0,1-.26-.14c.16-.29.53,0,.74,0l-.33,0c.2.32.16,0,.38.23.05-.23.31,0,.36-.17,0,0-.05,0-.08,0,.32-.11.11-.68.23-.74s.43,0,.43.17c.15,0-.48.06-.06.42-.09-.57.48,0,.67-.46-.26-.11-.05-.32-.28-.39.21,0,.26,0,.42.13l0-.17c.43.24.22.28.69.31-.19-.07,0-.29-.13-.36a.37.37,0,0,1,.34,0h0c.41-.08.19-.33.62-.3l0,.11c.58.07,1-.35,1.55-.44l-.12.15c0-.07.39,0,.44-.2,0,0-.1,0-.12,0s-.09-.28,0-.36l.13.14,0-.14c.16-.08.08.25.24.17-.16-.5.68-.39.59-.85.3.28-.28.19,0,.43a.33.33,0,0,1,.1-.22l.07.21c.44-.34.52-.61,1-.78l0,0c.11-.16.22-.16.38,0,0-.11-.16-.1-.14-.21.56.37.33-.64.7-.37-.25-.38-.1-.94-.43-1.17h.14c-.18-.25-.35.16-.57-.08l-.2.45c0-.1-.18-.22-.15-.28s-.17.06-.14-.14c-.46,1.09-1.69.87-2.33,1.61-.07,0-.09-.11-.11-.18,0,.33-.22-.06-.32-.06l0,.47c-.15-.07-.14-.21-.19-.28-.47.13-.68.68-1.16.61,0,.18.19.28.07.39,0-.46-.53,0-.55-.31.08.46-.49.31-.11.84-.16.11-.28-.17-.26-.25a.61.61,0,0,1-.62.08c0,.19-1,.26-1,.75,0-.32-.09-.14-.28-.21l0-.28-.26.13c-.07,0-.08,0-.07,0s.09.14,0,.24-.26,0-.44-.12v0l-.14,0c-.09,0,.47.11.23.35,0-.06-.4-.31-.38-.1.15-.08.22.1.2.19l-.21.11-.09-.34c-.62.27-1.16.72-1.85,1,.15.27-.47.19-.2.56v0c.19,0,.12.33,0,.34.07-.18-.47-.31-.16-.49l-.37-.09c-.55-.69-.67.32-1.22.21a.18.18,0,0,1,.09.08c-.49-.12-.7.48-.85.38l.08.22c-.49-.21-.54-.23-.84,0,0,0,.1.08.06.14-.17-.12-.34-.24-.57-.12l0,.06-.42.09c.35.64-.9-.18-.65.55-.18-.17-.51-.14-.68-.18a.13.13,0,0,1,0,.09c-.34-.3-.39.24-.58.25s-.17-.17-.18-.29c-.07.34-.78-.13-.8,0s.07.26.1.41c-.27,0-.27-.59-.46-.25.06,0,.14,0,.13.07s.08.88-.13.77l0-.14c-.31-.1-.26.67-.53.25l-.08-.21c-.25.37-.21,0-.48.31l0,0c-.2,0-.16.29-.42,0l0,0a1.36,1.36,0,0,0-.45.12s-.18,0-.17,0c-.16-.26-.58,0-.68,0,.2,0,.18.14.19.26-.22-.2-.31-.2-.37,0-.2-.33-.41-.68-.71-.63.07,0,.16.06.17.13s-.1,0-.14,0,.13.1.16.23c-.36-.27-.34.06-.68,0,.14.08.1.16.13.29-.22-.38-.21.41-.36-.1-.4.41-1.39.32-1.44.68,0,.15-.26,0-.36,0l.11.16c-.43-.24-.27-.07-.75-.3.24.17.23.27.18.46l-.4-.31.09.27a.25.25,0,0,0-.3,0c.05,0,0,0,.06.07-.24-.34-.61-.23-.76-.39.09.37-.31,0-.21.3a.76.76,0,0,0-.18-.09c0-.17-.11-.34-.16-.25h0l.07.21a.78.78,0,0,0-.28,0,.3.3,0,0,0,0-.12l-.05.12h0c0,.06-.07.09-.19,0-.15.36-.92-.29-1.05.19a.09.09,0,0,1,.15,0c-.3,0-.45.37-.71.24l-.09-.19a1.58,1.58,0,0,0-.63,0l-.12-.21c-.21.12-.93-.14-.86.33-.15-.16-.32.11-.5.07l.05.17a.69.69,0,0,1-.45,0c-.21.39-.74.11-1.07.18l0,0-.41-.07c.17.14-.12-.09-.2,0a.31.31,0,0,0-.38.13l-.21,0c.3.07.1.23.19.42l-.22-.13c0,.1.17.14.08.19s-.42,0-.61-.24a.22.22,0,0,1,0-.14s0,0,0,0h0a.23.23,0,0,1-.07-.07c-.16.07-.13,0-.17-.1-.05.31-.26.13-.24.49,0-.41-.46,0-.52-.34,0,.31-.09,0-.06.29.17-.1.52.15.75.26l-.07.19c.28.33.31-.16.46-.06-.1-.07-.21,0-.18.1l-.09-.26c.19-.13.48,0,.71.16-.11.1.27.13.25.32h-.14c0,.09.15.16.26.23.3-.23,1.1-.17,1.13-.39,0,.07-.22,0-.33,0l.13-.13c-.15,0-.15.26-.42.2,0-.17-.32-.37-.27-.62.29-.31.57.38,1,.25.07,0-.24-.25.07-.2a1.77,1.77,0,0,1,1.05.81c-.2-.09-.59-.26-.5,0,.2.08.47.11.57.28,0-.32-.31-.06-.25-.33.11,0,.2.08.27.13-.13-.12,0-.22,0-.29a7.94,7.94,0,0,0,.77-.28.41.41,0,0,0-.06-.22,1.41,1.41,0,0,1,.71.65c.21,0,.15-.16.36-.1-.13.3,0-.06.2.22.19,0,0-.14,0-.22a.65.65,0,0,1,.2.18c0-.23-.5-.53-.5-.8a1.65,1.65,0,0,1,.23-.54,4.9,4.9,0,0,1,.75,1.56c.1.17.07-.2.14-.23.07-.3.44.16.56,0l-.21-.13c0-.07.3,0,.4.06-.05-.09-.39-.46-.37-.58.3-.1.87.35,1,.64l-.65-.2c.11.24.48.17.61.45l.41-.16c-.06,0-.28,0-.27-.18.2,0,.08-.06.15-.19A15.26,15.26,0,0,1,309,91.83l.32.11V91.8A5.2,5.2,0,0,1,310.65,93c.15-.09-.18-.58-.27-.67.33-.09.71.64,1,.5l-.07.14c.11,0,.35-.13.37,0a.84.84,0,0,0-.23-.54l.56.41a5.1,5.1,0,0,1-.31-.52c.11,0,.45.43.41.51.09-.34.11-.17.13-.54.08,0,.22.42.19.48.22.07.28,0,.33-.06-.35-.11-.54-.88-.75-1.18l1.19,1.08c-.05-.07-.3-.44-.32-.49.23.34.91.25,1.2.13h-.05c-.13-.11.09-.27.27-.16-.06-.07-.07,0-.12,0,.07-.31.56.48.61.12-.18.08-.3-.06-.36-.2.23.09.53-.13.67.31.06-.11.18-.08.06-.29l.52.16c-.05,0-.14-.16-.05-.21-.19.1-.6-.23-.57.07-.15-.26-.14-.42-.36-.61a3.47,3.47,0,0,1,1.38.64l.27-.28.08.12-.1-.32c.09.06.15.11.14.08s0-.06-.08-.1a.19.19,0,0,1,.13,0,1.64,1.64,0,0,0-.38-.47l0,.19c-.15-.13-.28-.28-.24-.4l.09,0c-.11-.1-.18-.18-.17-.24l.36.08a1.38,1.38,0,0,0,0,.25c.28.16.61.34.56.58l.12-.22a2.63,2.63,0,0,0,.76.32c0-.1-.17-.17-.15-.26.4.28.34-.53.54-.25.22,0,.22.24.37.29,0,0-.06-.09,0-.11l.25.18c0-.09-.21-.11-.11-.25.35.09.56.16.73,0,.33,0,.09.46.33.34,0-.18-.13-.4,0-.47.15.1.21.24.4.28l-.15-.27c.14,0,.28,0,.17-.21.17.09.24,0,.27,0,.28.08.14.58.15.7.09-.26.3-.18.24-.53l-.22,0c.21-.43.57.28.44-.34a.27.27,0,0,1-.36-.2l.27.08c0-.08-.14,0-.1-.13a3.13,3.13,0,0,1,.37.23v0l.36-.06c-.06,0-.13-.06-.07-.09l.3.07c-.1,0-.08-.15,0-.22.24-.17.55.53.63.19,0,0-.06,0-.09,0l.05-.15c.33.56.71-.15,1,.41,0-.28-.06-.14-.42-.34l.09-.22C322.82,90.34,322.79,90.4,322.68,90.37Zm-2.22.61c0,.13-.14,0-.22,0S320.28,90.77,320.46,91Zm-4.34.47c0,.1-.07.14-.15.09A.16.16,0,0,1,316.12,91.45Zm-12.45.79h0C303.73,92.19,303.75,92.15,303.67,92.24Zm-.11.06a.14.14,0,0,1-.16,0,.12.12,0,0,0,.06.09C303.56,92.39,303.57,92.35,303.56,92.3Zm25.37-6.24V86C329,86,329.05,86.08,328.93,86.06Z"/><path class="cls-2" d="M301.53,94.31a.49.49,0,0,0,0-.11S301.55,94.26,301.53,94.31Z"/><path class="cls-2" d="M309.5,92.54h0l0,0Z"/><path class="cls-2" d="M293.16,96.12a.15.15,0,0,0,0-.12S293.24,96.1,293.16,96.12Z"/><path class="cls-2" d="M286.88,94.78l.19,0c-.08,0-.09,0-.11.08S286.94,94.77,286.88,94.78Z"/><path class="cls-2" d="M286.12,96.18s-.06,0-.09,0l0-.09C286.09,96.06,286.2,96.13,286.12,96.18Z"/><path class="cls-2" d="M287.08,95.46c.07.18-.06.13-.19.11h0C286.76,95.33,286.92,95.4,287.08,95.46Z"/><path class="cls-2" d="M286.86,95.57a.11.11,0,0,0-.1,0C286.69,95.48,286.79,95.55,286.86,95.57Z"/><path class="cls-2" d="M288,94.89s-.15-.21-.15-.14C287.71,94.54,288.38,95,288,94.89Z"/><polygon class="cls-2" points="287.27 96.03 287.21 95.82 287.36 95.98 287.27 96.03"/><path class="cls-2" d="M288.1,95.78l-.16.08s-.05,0-.08-.07S288.07,95.72,288.1,95.78Z"/><path class="cls-2" d="M287.86,95.79a.25.25,0,0,1-.17,0A.34.34,0,0,1,287.86,95.79Z"/><polygon class="cls-2" points="287.56 96.07 287.59 96.02 287.71 95.99 287.56 96.07"/><path class="cls-2" d="M290,95.49l.23,0c.06.07,0,.12-.06.11S290,95.56,290,95.49Z"/><path class="cls-2" d="M289.72,96.15c0-.05,0-.1,0-.18l.14.26Z"/><path class="cls-2" d="M290.32,96.13c.06.07.4.17.14.19C290.4,96.25,290.17,96.21,290.32,96.13Z"/><polygon class="cls-2" points="293.09 95.36 293.04 95.37 292.82 94.94 293.09 95.36"/><path class="cls-2" d="M296.19,95.93c-.18.15-.2-.25-.33-.08-.11-.09.11-.14,0-.22C296.06,95.71,296.1,95.64,296.19,95.93Z"/><path class="cls-2" d="M295.87,95.63a.34.34,0,0,1-.11,0Z"/><polygon class="cls-2" points="321.64 84.83 321.71 84.68 321.71 84.86 321.64 84.83"/><path class="cls-2" d="M322.06,85l-.13-.28.22.2S322,85,322.06,85Z"/><path class="cls-2" d="M305.09,94.24l0-.06c0-.07,0-.09.07-.12Z"/><polygon class="cls-2" points="306.87 93.49 306.84 93.51 306.77 93.25 306.87 93.49"/><path class="cls-2" d="M308.62,93.33c-.06,0-.16,0-.22,0C308.56,93.36,308.47,93,308.62,93.33Z"/></g></g></svg>