<svg xmlns="http://www.w3.org/2000/svg" viewBox="0 0 1516.57 99.29"><defs><style>.cls-1,.cls-10,.cls-11,.cls-12,.cls-13,.cls-14,.cls-15,.cls-16,.cls-17,.cls-18,.cls-19,.cls-2,.cls-20,.cls-21,.cls-22,.cls-23,.cls-24,.cls-25,.cls-26,.cls-27,.cls-28,.cls-29,.cls-3,.cls-30,.cls-31,.cls-32,.cls-4,.cls-5,.cls-6,.cls-7,.cls-8,.cls-9{fill:none;stroke:#2e5469;stroke-linecap:round;stroke-linejoin:round;}.cls-1{stroke-width:2.7px;}.cls-2{stroke-width:2.73px;}.cls-3{stroke-width:2.76px;}.cls-4{stroke-width:2.79px;}.cls-5{stroke-width:2.82px;}.cls-6{stroke-width:2.85px;}.cls-7{stroke-width:2.88px;}.cls-8{stroke-width:2.91px;}.cls-9{stroke-width:2.94px;}.cls-10{stroke-width:2.97px;}.cls-11{stroke-width:2.99px;}.cls-12{stroke-width:3.02px;}.cls-13{stroke-width:3.05px;}.cls-14{stroke-width:3.08px;}.cls-15{stroke-width:3.11px;}.cls-16{stroke-width:3.14px;}.cls-17{stroke-width:3.17px;}.cls-18{stroke-width:3.2px;}.cls-19{stroke-width:3.23px;}.cls-20{stroke-width:3.26px;}.cls-21{stroke-width:3.29px;}.cls-22{stroke-width:3.32px;}.cls-23{stroke-width:3.35px;}.cls-24{stroke-width:3.38px;}.cls-25{stroke-width:3.41px;}.cls-26{stroke-width:3.44px;}.cls-27{stroke-width:3.47px;}.cls-28{stroke-width:3.5px;}.cls-29{stroke-width:3.53px;}.cls-30{stroke-width:3.56px;}.cls-31{stroke-width:3.59px;}.cls-32{stroke-width:3.62px;}</style></defs><g id="圖層_2" data-name="圖層 2"><g id="圖層_1-2" data-name="圖層 1"><g id="圖層_2-2" data-name="圖層 2"><g id="圖層_1-2-2" data-name="圖層 1-2"><line class="cls-1" x1="903.82" y1="3.16" x2="872.51" y2="47.83"/><line class="cls-1" x1="927.24" y1="3.05" x2="896.78" y2="46.24"/><line class="cls-1" x1="950.79" y1="3.05" x2="921.05" y2="44.77"/><line class="cls-1" x1="974.33" y1="2.94" x2="945.2" y2="43.29"/><line class="cls-1" x1="997.87" y1="2.82" x2="969.47" y2="41.71"/><line class="cls-1" x1="1021.29" y1="2.82" x2="993.75" y2="40.23"/><line class="cls-1" x1="1044.84" y1="2.71" x2="1017.9" y2="38.65"/><line class="cls-1" x1="1068.38" y1="2.71" x2="1042.17" y2="37.17"/><line class="cls-1" x1="1091.92" y1="2.6" x2="1066.32" y2="35.7"/><line class="cls-1" x1="1115.35" y1="2.48" x2="1090.59" y2="34.11"/><line class="cls-1" x1="1138.89" y1="2.48" x2="1114.86" y2="32.64"/><line class="cls-1" x1="1162.43" y1="2.37" x2="1139.01" y2="31.05"/><line class="cls-1" x1="1185.98" y1="2.37" x2="1163.28" y2="29.58"/><line class="cls-1" x1="1209.52" y1="2.26" x2="1187.55" y2="28.1"/><line class="cls-1" x1="1232.94" y1="2.26" x2="1211.7" y2="26.52"/><line class="cls-1" x1="1256.49" y1="2.14" x2="1235.98" y2="25.04"/><line class="cls-1" x1="1280.03" y1="2.03" x2="1260.13" y2="23.57"/><line class="cls-1" x1="1303.57" y1="2.03" x2="1284.4" y2="21.98"/><line class="cls-1" x1="1326.99" y1="1.92" x2="1308.67" y2="20.51"/><line class="cls-1" x1="1350.54" y1="1.92" x2="1332.82" y2="18.92"/><line class="cls-1" x1="1374.08" y1="1.8" x2="1357.09" y2="17.45"/><line class="cls-1" x1="1397.63" y1="1.69" x2="1381.24" y2="15.97"/><line class="cls-1" x1="1421.05" y1="1.69" x2="1405.51" y2="14.39"/><line class="cls-1" x1="1444.59" y1="1.58" x2="1429.79" y2="12.91"/><line class="cls-1" x1="1468.13" y1="1.58" x2="1453.94" y2="11.33"/><line class="cls-1" x1="1491.68" y1="1.46" x2="1478.21" y2="9.85"/><line class="cls-1" x1="1515.22" y1="1.35" x2="1502.48" y2="8.38"/></g></g><line class="cls-1" x1="876.96" y1="3.16" x2="845.65" y2="47.83"/><line class="cls-2" x1="850.36" y1="3.16" x2="818.43" y2="49.43"/><line class="cls-3" x1="823.77" y1="3.16" x2="791.21" y2="51.03"/><line class="cls-4" x1="797.17" y1="3.16" x2="763.99" y2="52.63"/><line class="cls-5" x1="770.57" y1="3.16" x2="736.77" y2="54.24"/><line class="cls-6" x1="743.98" y1="3.16" x2="709.55" y2="55.84"/><line class="cls-7" x1="717.38" y1="3.16" x2="682.32" y2="57.44"/><line class="cls-8" x1="690.78" y1="3.16" x2="655.1" y2="59.04"/><line class="cls-9" x1="664.19" y1="3.16" x2="627.88" y2="60.64"/><line class="cls-10" x1="637.59" y1="3.16" x2="600.66" y2="62.25"/><line class="cls-11" x1="610.99" y1="3.16" x2="573.44" y2="63.85"/><line class="cls-12" x1="584.4" y1="3.16" x2="546.22" y2="65.45"/><line class="cls-13" x1="557.8" y1="3.16" x2="519" y2="67.05"/><line class="cls-14" x1="531.2" y1="3.16" x2="491.78" y2="68.65"/><line class="cls-15" x1="504.61" y1="3.16" x2="464.56" y2="70.25"/><line class="cls-16" x1="478.01" y1="3.16" x2="437.34" y2="71.86"/><line class="cls-17" x1="451.41" y1="3.16" x2="410.12" y2="73.46"/><line class="cls-18" x1="424.82" y1="3.16" x2="382.9" y2="75.06"/><line class="cls-19" x1="398.22" y1="3.16" x2="355.68" y2="76.66"/><line class="cls-20" x1="371.62" y1="3.16" x2="328.46" y2="78.26"/><line class="cls-21" x1="345.03" y1="3.16" x2="301.24" y2="79.87"/><line class="cls-22" x1="318.43" y1="3.16" x2="274.02" y2="81.47"/><line class="cls-23" x1="291.83" y1="3.16" x2="246.79" y2="83.07"/><line class="cls-24" x1="265.24" y1="3.16" x2="219.57" y2="84.67"/><line class="cls-25" x1="238.64" y1="3.16" x2="192.35" y2="86.27"/><line class="cls-26" x1="212.04" y1="3.16" x2="165.13" y2="87.87"/><line class="cls-27" x1="185.45" y1="3.16" x2="137.91" y2="89.48"/><line class="cls-28" x1="158.85" y1="3.16" x2="110.69" y2="91.08"/><line class="cls-29" x1="132.25" y1="3.16" x2="83.47" y2="92.68"/><line class="cls-30" x1="105.66" y1="3.16" x2="56.25" y2="94.28"/><line class="cls-31" x1="79.06" y1="3.16" x2="29.03" y2="95.88"/><line class="cls-32" x1="52.46" y1="3.16" x2="1.81" y2="97.49"/></g></g></svg>