<svg xmlns="http://www.w3.org/2000/svg" viewBox="0 0 135.87 128.82"><defs><style>.cls-1{fill:#680303;}</style></defs><g id="圖層_2" data-name="圖層 2"><g id="圖層_1-2" data-name="圖層 1"><path class="cls-1" d="M10.13,45.88a15.7,15.7,0,0,0-7.93,19c.42,1.28,2.46.73,2-.57a13.77,13.77,0,0,1,.58-10.13A14,14,0,0,1,11.2,47.7c1.22-.6.15-2.43-1.07-1.82Z"/><path class="cls-1" d="M2.76,64.49c-.36,3.11-1.16,6.1-.89,9.25.22,2.51.73,6.18,2.1,8.33a6.34,6.34,0,0,0,3,2.6c.85.33,1.31-2,.47-2.37a5.55,5.55,0,0,1-2.65-2.85,15.7,15.7,0,0,1-1.33-4.39,18.77,18.77,0,0,1-.12-5c.2-1.86.63-3.69.85-5.55.1-.89-1.31-.89-1.41,0Z"/><path class="cls-1" d="M7.12,83.15c-1.3,4,1.93,8.43,4.12,11.26a12.63,12.63,0,0,0,6.28,4.77c1.66.61,2,.39,3.78.59.9.11.89-1.3,0-1.4C17.81,98,15.91,96.54,13.48,94a24,24,0,0,1-5-10.42c-.21-.88-1.21-1.27-1.36-.38Z"/><path class="cls-1" d="M20.37,99c-.14,3.2,3.49,5.12,5.72,7a25.4,25.4,0,0,0,4.54,2.47,43.54,43.54,0,0,0,5.43,1q3.25.47,6.53.66c.91.05.9-1.36,0-1.41-2.28-.14-4.57-.36-6.83-.7a20,20,0,0,1-5.49-1.59A20.23,20.23,0,0,1,25,103.12S21.7,100.9,21.77,99c0-.9-1.37-.9-1.4,0Z"/><path class="cls-1" d="M42.09,109.73a12.07,12.07,0,0,0,8.64,4.93,32.83,32.83,0,0,0,6.11.15,37.1,37.1,0,0,0,5.15-.5,8.66,8.66,0,0,0,4.75-2.43c.62-.66-.37-1.66-1-1a8.11,8.11,0,0,1-4.93,2.2,46.26,46.26,0,0,1-6.45.39c-4,0-8.68-.82-11.06-4.46-.49-.76-1.71-.06-1.22.71Z"/><path class="cls-1" d="M66.52,112a10.12,10.12,0,0,1,3,1,19,19,0,0,0,3,.87,20.35,20.35,0,0,0,6.23.33,20.17,20.17,0,0,0,14.84-9.14c.49-.77-1.66-1.38-2.15-.62-4.13,6.39-11,9.61-18.45,8.09a19.4,19.4,0,0,1-3.16-.93,10.45,10.45,0,0,0-3.25-1c-.91,0-.9,1.36,0,1.41Z"/><path class="cls-1" d="M92.89,105.39a24.72,24.72,0,0,0,6-2,44.2,44.2,0,0,0,4.37-2,15.23,15.23,0,0,0,6-6.34,39.32,39.32,0,0,1,3.06-5.35c.53-.74-.69-1.44-1.22-.71a34.21,34.21,0,0,0-2.73,4.68,14.9,14.9,0,0,1-2.2,3.49,13.88,13.88,0,0,1-3.2,2.77,29.94,29.94,0,0,1-3.91,1.89A27.39,27.39,0,0,1,92.52,104c-.89.13-.52,1.49.37,1.36Z"/><path class="cls-1" d="M111.92,90c3.54-.52,5.92-3.11,8.11-5.72a12.41,12.41,0,0,0,1.58-2.1,12.24,12.24,0,0,0,.87-2.3c.55-1.84,2.29-4.43,2.21-6.38,0-.9-1.73-.92-1.7,0,.07,1.57-1,3.2-1.84,5.93a10.75,10.75,0,0,1-.76,2,11.66,11.66,0,0,1-1.47,2c-2,2.38-4.13,4.74-7.37,5.21-.9.13-.52,1.49.37,1.36Z"/><path class="cls-1" d="M123.74,74.5c4.1.93,7.63-3.21,9.25-6.48a16.13,16.13,0,0,0,1.24-11.11,1.06,1.06,0,0,0-2,.56,13.71,13.71,0,0,1-.87,9.16,13.94,13.94,0,0,1-2.62,3.83c-1.11,1.12-2.71,2.39-4.4,2-1.32-.3-1.89,1.73-.56,2Z"/><path class="cls-1" d="M130.47,40a16.22,16.22,0,0,1,3.22,8.16,15.59,15.59,0,0,1-.18,4.42c-.13.7-.28,1.39-.43,2.09a4.75,4.75,0,0,1-.79,2,1.05,1.05,0,0,0,.38,1.44,1.07,1.07,0,0,0,1.44-.38c1-1.25,1.15-3.05,1.44-4.57a17.67,17.67,0,0,0,.25-5,18.31,18.31,0,0,0-3.5-9.23c-.35-.45-1.45-1-2-.73s-.19,1.34.15,1.8Z"/><path class="cls-1" d="M123,26.51c1.73,1.12,4.11,1.8,5.28,3.59,1.32,2,2.37,4.79,1.77,7.2a1.06,1.06,0,0,0,2,.56c.74-3-.35-6.15-1.89-8.67-1.4-2.3-4-3.11-6.13-4.5-1.14-.74-2.2,1.09-1.07,1.82Z"/><path class="cls-1" d="M132.65,63.58a124.45,124.45,0,0,1-3.75,18.69c-.4,1.3,1.63,1.85,2,.56,1.9-6.11,3.78-12,3.78-18.56,0-3.72-.26-1.29-.76-1.43a1.08,1.08,0,0,0-1.3.74Z"/><path class="cls-1" d="M121.49,89.6a11.23,11.23,0,0,0,5.28-2.41c1.49-1.07,3.29-2.42,4.06-4.15a1.09,1.09,0,0,0-.38-1.44A1.06,1.06,0,0,0,129,82a5.1,5.1,0,0,1-1.2,1.61,17,17,0,0,1-2.1,1.78,19.38,19.38,0,0,1-2.39,1.47,7.15,7.15,0,0,1-1,.45l-.47.14-.24,0c-.23,0,.16,0-.08,0a1.09,1.09,0,0,0-1.06,1.06,1.06,1.06,0,0,0,1.06,1Z"/><path class="cls-1" d="M123,73.48c0,4.48-1.18,9-2.41,13.26-.56,2-1.17,3.91-1.85,5.84a23,23,0,0,1-3.41,6.94,7.87,7.87,0,0,1-6.83,3.21,1.06,1.06,0,0,0-1,1.06,1.08,1.08,0,0,0,1,1,9.36,9.36,0,0,0,7.22-2.67,18.23,18.23,0,0,0,4.35-7.12,89.44,89.44,0,0,0,4-13.59,39.81,39.81,0,0,0,1-8,1.06,1.06,0,0,0-2.12,0Z"/><path class="cls-1" d="M110.72,91.14c-1.34,4.37-2.51,8.79-3.8,13.18a23.47,23.47,0,0,1-2.66,6.76,13,13,0,0,1-4.7,4.07,18,18,0,0,1-7.12,2,1.08,1.08,0,0,0-1.06,1,1.07,1.07,0,0,0,1.06,1.06c4.69-.34,9.54-2.16,12.66-5.82a19.07,19.07,0,0,0,3.45-7.2c.68-2.25,1.32-4.5,2-6.76.73-2.6,1.86-5.11,2.24-7.78.65-4.55-1.64-1.86-2-.56Z"/><path class="cls-1" d="M66,111.71c.57,4.16,1.42,8.83,1.75,13a1.08,1.08,0,0,0,1.06,1c.53,0,1.25.35,1.2-.22q-.51-6.57-1.42-13.08a1.06,1.06,0,0,0-1.3-.74c-.6.17-1.37-.6-1.29,0Z"/><path class="cls-1" d="M68.77,126.37A22.76,22.76,0,0,0,88.61,123a21.31,21.31,0,0,0,4.22-4,1.08,1.08,0,0,0,0-1.49,1.07,1.07,0,0,0-1.5,0,20.76,20.76,0,0,1-16.7,7.8,19.1,19.1,0,0,1-5.3-.88c-1.3-.4-1.86,1.64-.56,2Z"/><path class="cls-1" d="M92.07,104.89c0,1.77.23,5.91,0,7.67a41.87,41.87,0,0,1-1,5.09c-.3,1.33,1.74,1.89,2,.56a48.66,48.66,0,0,0,1-5.49c.2-1.81,0-6,0-7.83,0-1.36-2,1-1.92,2.37Z"/><path class="cls-1" d="M40.92,109.7a118.47,118.47,0,0,0,1.64,14.78,1.06,1.06,0,0,0,1.3.74,1.09,1.09,0,0,0,.74-1.3A115.16,115.16,0,0,1,43,109.7a1.06,1.06,0,0,0-2.11,0Z"/><path class="cls-1" d="M43,124.87a23.63,23.63,0,0,0,4.31,2.91,12.1,12.1,0,0,0,5.41,1c1.92,0,3.85,0,5.77,0a14.25,14.25,0,0,0,5.3-.86,23.87,23.87,0,0,0,5.08-2.4,1.09,1.09,0,0,0,.38-1.44,1.07,1.07,0,0,0-1.45-.38,19.7,19.7,0,0,1-5.13,2.39,19.87,19.87,0,0,1-6.43.6l-3.41,0a11.66,11.66,0,0,1-3.22-.3,15.3,15.3,0,0,1-5.12-3,1.08,1.08,0,0,0-1.49,0,1.06,1.06,0,0,0,0,1.49Z"/><path class="cls-1" d="M19.3,100.1c.24,5.14,1.54,10.11,2.68,15.1.31,1.32,2.34.76,2-.57-1.1-4.8-2.38-9.58-2.61-14.53-.06-1.35-2.11-2.75-2.11,0Z"/><path class="cls-1" d="M22.17,115.7c5.44,5.54,13.24,9.42,21,9.16,1.36,0,1.37-2.16,0-2.11-7.22.24-14.44-3.38-19.51-8.55-.95-1-2.44.53-1.49,1.5Z"/><path class="cls-1" d="M6.79,85.72c.57,3.2,1,6.42,1.46,9.63a53.6,53.6,0,0,0,2.08,9.46c.45,1.28,2.49.73,2-.56a54.53,54.53,0,0,1-2.09-9.46c-.5-3.21-.88-6.43-1.46-9.63a1.05,1.05,0,1,0-2,.56Z"/><path class="cls-1" d="M10.24,104.84a10.45,10.45,0,0,0,4.27,5.46c2.18,1.57,4.62,2.81,6.94,4.16a1.06,1.06,0,0,0,1.06-1.83c-2.17-1.26-4.42-2.44-6.5-3.86a8.52,8.52,0,0,1-3.73-4.49,1.06,1.06,0,0,0-2,.56Z"/><path class="cls-1" d="M2,64.14C0,70.53-.22,72.92.13,77.42a66,66,0,0,0,1.14,7.67c.47,2.25.89,4.51,1.37,6.75C3.23,94.6,6,95.76,8.1,97.16c1.14.74,2.2-1.08,1.06-1.82-1.49-1-3.85-1.86-4.4-3.74-.29-1-.4-2-.6-3s-.48-2.23-.71-3.34c-.85-4-1.82-8.89-1-13,.42-2.2.07-1.11.65-3.74,0,0,.67-4.89-.31-4Z"/><path class="cls-1" d="M11.57,46.63a42.71,42.71,0,0,1,3.73-5.39c1.05-1.29,2.5-3.46,4.37-3.35,1.36.08,1.36-2,0-2.11-2.43-.14-4.18,1.94-5.59,3.63a46,46,0,0,0-4.33,6.15,1.06,1.06,0,0,0,1.82,1.07Z"/><path class="cls-1" d="M20,36.73c.38-2.9,2.38-5.31,4.51-7.17A31.1,31.1,0,0,1,33,24.43a1.08,1.08,0,0,0,.74-1.29,1.06,1.06,0,0,0-1.3-.74,33.91,33.91,0,0,0-9.57,5.79,14,14,0,0,0-5,8.54,1.06,1.06,0,0,0,1.06,1.05,1.07,1.07,0,0,0,1-1.05Z"/><path class="cls-1" d="M33.85,23.4c.39-2.13,2.14-3.46,3.91-4.49,1-.59,2.11-1.12,3.2-1.61A10.48,10.48,0,0,1,45,16.18c1.35-.05,1.36-2.16,0-2.12a12.86,12.86,0,0,0-4.74,1.24,35.18,35.18,0,0,0-3.73,1.88c-2.16,1.27-4.27,3.07-4.74,5.66a1.09,1.09,0,0,0,.74,1.3,1.07,1.07,0,0,0,1.3-.74Z"/><path class="cls-1" d="M45.41,14.87C47,10.05,52.93,9.09,57.25,8.41A1.06,1.06,0,0,0,58,7.12a1.08,1.08,0,0,0-1.3-.74,25.28,25.28,0,0,0-8.37,2.33,10.16,10.16,0,0,0-5,5.6c-.43,1.29,1.61,1.85,2,.56Z"/><path class="cls-1" d="M58,8.09A49.12,49.12,0,0,1,69.79,3.63c1.32-.32.76-2.36-.56-2a51.56,51.56,0,0,0-12.3,4.67c-1.2.64-.13,2.47,1.07,1.83Z"/><path class="cls-1" d="M70.06,3.59A98.14,98.14,0,0,1,96.24,2.53a1.06,1.06,0,0,0,1.05-1A1.07,1.07,0,0,0,96.24.42,99.85,99.85,0,0,0,69.5,1.56a1.06,1.06,0,0,0-.74,1.29,1.08,1.08,0,0,0,1.3.74Z"/><path class="cls-1" d="M95.86,2.68a57,57,0,0,1,5.92,3c.94.56,1.86,1.14,2.77,1.75.57.38,1.47.89,1.44,1.68-.06,1.35,2.06,1.35,2.11,0a3.46,3.46,0,0,0-1.43-2.74,26.65,26.65,0,0,0-3.08-2.06A57.11,57.11,0,0,0,96.92.86a1.07,1.07,0,0,0-1.44.37,1.08,1.08,0,0,0,.38,1.45Z"/><path class="cls-1" d="M107.41,10.37a11.42,11.42,0,0,1,8.78,7.31c.45,1.27,2.49.72,2-.57A13.51,13.51,0,0,0,108,8.34a1.08,1.08,0,0,0-1.3.74,1.06,1.06,0,0,0,.74,1.29Z"/><path class="cls-1" d="M116.94,18.9s.28.11.09,0l.23.12a6.53,6.53,0,0,1,.56.35,12,12,0,0,1,1.05.83c.34.3.67.61,1,.92.16.16.37.48.57.58s-.12-.25-.11-.13.13.19.16.24c.21.33.41.66.6,1a5.67,5.67,0,0,1,.87,2.55,1.06,1.06,0,0,0,2.11,0A7.16,7.16,0,0,0,123,22a8.75,8.75,0,0,0-1-1.7,16.08,16.08,0,0,0-1.69-1.61,7.91,7.91,0,0,0-2.76-1.77,1.05,1.05,0,0,0-.56,2Z"/><path class="cls-1" d="M33.41,32.1C42.47,24.16,52,16.84,61.73,9.69Q65.87,6.63,70,3.59c.72-.53,0-1.75-.72-1.22-9.81,7.19-19.62,14.38-29,22.08q-4,3.26-7.86,6.65c-.68.6.31,1.59,1,1Z"/><path class="cls-1" d="M31.82,32.4a219.68,219.68,0,0,0,2.89,23.84c.16.89,1.51.51,1.36-.38A215.16,215.16,0,0,1,33.23,32.4c-.06-.9-1.47-.91-1.41,0Z"/><path class="cls-1" d="M35.23,57c7.78-1,15.64-1.32,23.46-1.83l6.78-.44c.9-.06.91-1.47,0-1.41-7.85.51-15.7.92-23.54,1.59-2.24.19-4.47.41-6.7.69-.89.11-.9,1.51,0,1.4Z"/><path class="cls-1" d="M66,53.82Q80.14,41.73,93.33,28.53,97,24.81,100.65,21c.63-.66-.36-1.66-1-1Q86.79,33.51,72.86,45.93q-3.92,3.49-7.9,6.9c-.7.59.3,1.58,1,1Z"/><path class="cls-1" d="M95.49,2.56a36.92,36.92,0,0,1,4.17,17.29.71.71,0,0,0,1.41,0,38.52,38.52,0,0,0-4.36-18c-.42-.8-1.64-.09-1.22.71Z"/><path class="cls-1" d="M64.91,54.36c6.21,12.28,11.66,25.07,15.15,38.4,1,3.65,1.74,7.33,2.34,11,.14.89,1.49.51,1.35-.37-2.17-13.66-7-26.82-12.63-39.38q-2.39-5.27-5-10.41c-.41-.81-1.62-.1-1.21.71Z"/><path class="cls-1" d="M100.37,18.84A65.81,65.81,0,0,1,125,42.68a64,64,0,0,1,4.33,8.69c.34.83,1.7.47,1.36-.37A67.34,67.34,0,0,0,109.5,23.15a65.25,65.25,0,0,0-8.42-5.52c-.79-.44-1.51.77-.71,1.21Z"/><path class="cls-1" d="M130.59,51.44a53.52,53.52,0,0,0-.09-14.08.7.7,0,0,0-.86-.49.71.71,0,0,0-.49.86,52.44,52.44,0,0,1,0,13.71c-.11.89,1.3.88,1.41,0Z"/><path class="cls-1" d="M107.27,18.25A64.58,64.58,0,0,1,128.9,37.88c.52.74,1.74,0,1.22-.71a66.43,66.43,0,0,0-16.53-16.62A65.1,65.1,0,0,0,108,17c-.79-.44-1.5.78-.71,1.22Z"/><path class="cls-1" d="M108.24,17.28c-1.53-3-1.43-6.64-2.16-9.89-.2-.88-1.55-.51-1.36.38.76,3.39.7,7.06,2.3,10.23.41.8,1.62.09,1.22-.72Z"/><path class="cls-1" d="M107,15.06a9.63,9.63,0,0,1,1.89.53,14.88,14.88,0,0,1,1.94.79c2.23,1.15,4.44,2.32,6.67,3.48.8.42,1.51-.79.71-1.21-2.29-1.2-4.56-2.46-6.88-3.59A13.67,13.67,0,0,0,107,13.65c-.9-.09-.89,1.32,0,1.41Z"/><path class="cls-1" d="M71.5,102.33c3.83.17,7.48,1.55,11.18,2.42.88.21,1.26-1.15.37-1.36-3.82-.9-7.59-2.29-11.55-2.47-.91,0-.91,1.37,0,1.41Z"/><path class="cls-1" d="M83.62,104.48a44.28,44.28,0,0,1,7.47-8.3c.68-.59-.31-1.58-1-1a45.8,45.8,0,0,0-7.69,8.58c-.52.74.7,1.45,1.22.71Z"/><path class="cls-1" d="M90.5,96a104.34,104.34,0,0,1,10.9.32c.9.07.9-1.33,0-1.41a104.34,104.34,0,0,0-10.9-.32.71.71,0,0,0,0,1.41Z"/><path class="cls-1" d="M102.39,95.39c.37-1.1,1.48-3.55,2-5.39s-.07-4.36,0-6.4c0-.91-1.38-.91-1.41,0-.07,2.14.29,4.34-.31,6.4s-2,3.73-1.6,5.77c.18.88,1.54.51,1.36-.38Z"/><path class="cls-1" d="M103.54,83.63a60.7,60.7,0,0,1,11.21-1.84c.9-.06.9-1.47,0-1.41a63.87,63.87,0,0,0-11.58,1.89.71.71,0,0,0,.37,1.36Z"/><path class="cls-1" d="M115.18,81.31c1.4-5,1.72-10.21,2.18-15.34.09-.9-1.32-.9-1.4,0-.46,5-.77,10.1-2.14,15a.71.71,0,0,0,1.36.37Z"/><path class="cls-1" d="M116.78,67.26c3-.19,5.61-.11,8.57-.31.9,0,.91-1.46,0-1.4-3,.19-5.61.11-8.57.3-.9.06-.91,1.47,0,1.41Z"/><path class="cls-1" d="M126.08,66.73a24.79,24.79,0,0,0,.28-12.88.71.71,0,0,0-1.36.37,23.26,23.26,0,0,1-.27,12.14.7.7,0,0,0,1.35.37Z"/><path class="cls-1" d="M126.13,54.17a7.37,7.37,0,0,0,4.43-2.66c.56-.7-.43-1.7-1-1a6.23,6.23,0,0,1-3.81,2.29c-.89.16-.52,1.52.37,1.36Z"/><path class="cls-1" d="M10.39,47a43.44,43.44,0,0,1-.71,6.45c-.14.88,1.21,1.26,1.35.37A43,43,0,0,0,11.79,47c0-.91-1.07-1.71-1.06-.81Z"/><path class="cls-1" d="M10.41,54.34a.71.71,0,0,0,0-1.41.71.71,0,0,0,0,1.41Z"/><path class="cls-1" d="M7.57,65a20.1,20.1,0,0,1,3.19-10.19,30.87,30.87,0,0,1,4-4.34A22.32,22.32,0,0,1,19.41,47,10.26,10.26,0,0,1,26,45.72c.89.16,1.27-1.2.38-1.36-4.41-.8-8.44,1.42-11.65,4.24a37.29,37.29,0,0,0-4.47,4.59,16.6,16.6,0,0,0-2.81,5.24A26.61,26.61,0,0,0,6.16,65c-.06.9,1.35.9,1.41,0Z"/><path class="cls-1" d="M25.42,44.92a55.7,55.7,0,0,0,3.52,15.22c.32.83,1.69.47,1.36-.38a53.74,53.74,0,0,1-3.47-14.84c-.08-.89-1.49-.9-1.41,0Z"/><path class="cls-1" d="M29.92,59.32l-7.84-1.64c-.89-.19-1.27,1.17-.38,1.35l7.84,1.65c.89.19,1.26-1.17.38-1.36Z"/><path class="cls-1" d="M22.17,58.42l1.19-3.18c.36-.94,1-2,.49-3s-1.17-2-1.75-2.91l-1.89-3.11A.7.7,0,0,0,19,47l3.34,5.52c.09.15.3.37.32.55a1.54,1.54,0,0,1-.18.56l-.55,1.48c-.38,1-.75,2-1.12,3s1,1.21,1.36.37Z"/><path class="cls-1" d="M21,58c-2.79,2.44-4.39,5.86-5.62,9.3a66.3,66.3,0,0,0-3.23,12.32,41.1,41.1,0,0,0-.5,7.26.71.71,0,0,0,1.41,0,45,45,0,0,1,1.57-12.32,51.62,51.62,0,0,1,3.78-10.82A15.61,15.61,0,0,1,22,59c.68-.6-.32-1.59-1-1Z"/><path class="cls-1" d="M12.14,87.45c2.62.44,4.78,2.11,7.32,2.78a.71.71,0,0,0,.38-1.36c-2.55-.67-4.7-2.33-7.32-2.77-.89-.15-1.27,1.2-.38,1.35Z"/><path class="cls-1" d="M29.58,59.65c-2.31,3.3-5.25,6.28-6.49,10.08-1.35,4.12-1.62,4.88-2.74,9.08-.61,2.33-.68,8.92-.6,11.34,0,.9,1.44.91,1.41,0a45.83,45.83,0,0,1,1.07-11.89c1.1-4,1.28-5.61,2.83-9.42.83-2.06,4.46-6.66,5.74-8.48.52-.74-.7-1.45-1.22-.71Z"/><path class="cls-1" d="M19.75,89.74l2.7,5.32c.41.81,1.63.1,1.22-.71-.9-1.77-1.81-3.54-2.71-5.32-.41-.8-1.62-.09-1.21.71Z"/><path class="cls-1" d="M23.22,95.78a27.36,27.36,0,0,1,8.82,1,.7.7,0,0,0,.37-1.35,28.26,28.26,0,0,0-9.19-1c-.91,0-.91,1.46,0,1.41Z"/><path class="cls-1" d="M31.67,96.34a30.36,30.36,0,0,0,2.71,8c.4.81,1.62.1,1.21-.71A29.29,29.29,0,0,1,33,96c-.17-.89-1.52-.52-1.36.37Z"/><path class="cls-1" d="M35.2,105.07a15,15,0,0,0,8.17-2.72c.74-.52,0-1.74-.71-1.22a13.51,13.51,0,0,1-7.46,2.53c-.9,0-.91,1.44,0,1.41Z"/><path class="cls-1" d="M42.49,102.21a34.11,34.11,0,0,0,6,6.79c.69.59,1.69-.4,1-1a32.57,32.57,0,0,1-5.79-6.5c-.51-.75-1.73,0-1.22.71Z"/><path class="cls-1" d="M49.49,109.06l7.64-5.72c.71-.53,0-1.76-.71-1.21l-7.64,5.71c-.71.54,0,1.76.71,1.22Z"/><path class="cls-1" d="M56.6,103.38c2.73,1.72,5.08,4.11,8.14,5.26.85.32,1.22-1,.38-1.36-2.92-1.1-5.21-3.47-7.81-5.12-.77-.48-1.48.74-.71,1.22Z"/><path class="cls-1" d="M65.23,108.49a31.06,31.06,0,0,1,6.58-6.27c.74-.52,0-1.74-.71-1.21a32.5,32.5,0,0,0-6.87,6.48c-.55.71.44,1.71,1,1Z"/><path class="cls-1" d="M38.84,68.54a9.91,9.91,0,0,0,3.39,4.74.71.71,0,0,0,.71-1.22,8.2,8.2,0,0,1-2.74-3.89c-.28-.86-1.64-.49-1.36.37Z"/><path class="cls-1" d="M42.7,73.16a44.09,44.09,0,0,1,7.1-2.86c.86-.27.49-1.63-.37-1.36a47.43,47.43,0,0,0-7.44,3c-.81.41-.1,1.62.71,1.22Z"/><path class="cls-1" d="M49.5,70.24a17.92,17.92,0,0,1,5.59,3.29c.68.59,1.68-.4,1-1a19.78,19.78,0,0,0-6.2-3.64c-.86-.32-1.22,1-.38,1.35Z"/><path class="cls-1" d="M56.44,73.28l4.72-7c.51-.75-.71-1.46-1.21-.71l-4.73,7c-.51.75.71,1.46,1.22.71Z"/><path class="cls-1" d="M59.83,65.62c.05,4.73,1.88,9.11,3.63,13.43A72.69,72.69,0,0,1,65.92,86c.72,2.45,1.33,4.94,2,7.42l2.22,8.68a.71.71,0,0,0,1.36-.37c-1.28-5-2.49-10-3.88-15a69.84,69.84,0,0,0-2.34-6.94c-.86-2.16-1.78-4.3-2.53-6.5a24.59,24.59,0,0,1-1.48-7.62.71.71,0,0,0-1.41,0Z"/><path class="cls-1" d="M39.8,68.43a68.08,68.08,0,0,1,20.2-2c.91,0,.9-1.36,0-1.4a68.88,68.88,0,0,0-20.57,2,.71.71,0,0,0,.37,1.36Z"/><path class="cls-1" d="M55.08,72.89a9.18,9.18,0,0,0,.74,2.82c.44,1,.83,2.05,1.2,3.1.8,2.26,1.55,4.55,2.23,6.85q2,6.81,3.38,13.79c.51,2.66.94,5.32,1.3,8a.71.71,0,0,0,.87.49.73.73,0,0,0,.49-.87,142.37,142.37,0,0,0-6.48-27.38C58.39,78.45,58,77.2,57.47,76a10.65,10.65,0,0,1-1-3.11c-.08-.9-1.49-.9-1.4,0Z"/><path class="cls-1" d="M38.41,67.41c-3.6,6.74-5.16,14.28-6.13,21.81-.28,2.14-.51,4.28-.72,6.42-.09.91,1.32.9,1.41,0,.74-7.33,1.62-14.75,4.1-21.74a42,42,0,0,1,2.56-5.78c.42-.8-.79-1.51-1.22-.71Z"/><path class="cls-1" d="M36,104.3a92.25,92.25,0,0,1,4.23-24.84,55.79,55.79,0,0,1,2.67-6.57c.39-.81-.82-1.52-1.22-.71-3.76,7.76-5.6,16.28-6.52,24.82-.26,2.42-.45,4.86-.57,7.3-.05.9,1.36.9,1.41,0Z"/><path class="cls-1" d="M46.09,77.07c.61.7,1.22,3.59,1.84,4.3.45.51,1,1.26,1.78.88.59-.28.91-1.54,1.26-2.06s1-3.06,1.31-3.78a.72.72,0,0,0-.61-1.06l-5-.42c-.91-.07-.9,1.34,0,1.41l5,.42c-.2-.36-.4-.71-.61-1.06-.49,1-1.1,4.26-1.86,5.15-.05.07-.32.32,0,.12s.11-.14-.06-.33a16.3,16.3,0,0,1-.91-2,17.53,17.53,0,0,0-1.16-2.57c-.59-.68-1.58.32-1,1Z"/><path class="cls-1" d="M45.91,75.94C44.9,85,42,92.56,43,101.72c.09.89,1.5.9,1.41,0-1-9.16,1.92-16.72,2.93-25.78.1-.9-1.31-.89-1.41,0Z"/><path class="cls-1" d="M48.45,81.65c-1,7.45-1.74,12.62-1.21,20.15a48.58,48.58,0,0,0,.82,6.25c.18.89,1.54.51,1.36-.37-1.44-7.2-1-14.65-.18-21.89.23-2.05.29-1.72.57-3.77a.73.73,0,0,0-.49-.86c-.33-.1-.53-.38-.58,0Z"/><path class="cls-1" d="M51,76.06c-.33,9,1.62,18,4.52,26.53.29.85,1.65.48,1.35-.38C54,93.84,52.05,84.94,52.38,76.06c0-.91-1.38-.91-1.41,0Z"/><path class="cls-1" d="M78.57,57.62a6.06,6.06,0,0,1,1.83-2.35l2.42-2.39q2.46-2.41,5-4.8,5-4.76,10.15-9.37,2.94-2.64,5.94-5.24c.69-.59-.31-1.58-1-1Q92.15,41.78,82,51.73c-.95.92-1.89,1.85-2.82,2.78a6.47,6.47,0,0,0-2,2.74.7.7,0,0,0,1.35.37Z"/><path class="cls-1" d="M103.58,33.91a10.35,10.35,0,0,1,7,3.77c.58.7,1.57-.3,1-1a11.76,11.76,0,0,0-8-4.17c-.9-.09-.9,1.32,0,1.4Z"/><path class="cls-1" d="M110.93,36.5l-7.08.31c-.9,0-.91,1.45,0,1.41l7.08-.32c.91,0,.91-1.44,0-1.4Z"/><path class="cls-1" d="M103.1,37C98.1,42.93,91.18,47,87,53.69c-.48.78.74,1.48,1.22.71C92.32,47.86,99.18,43.82,104.09,38c.58-.69-.41-1.69-1-1Z"/><path class="cls-1" d="M86.74,53.91,87,61.38l1.06-.61a46,46,0,0,0-10.13-3.91.71.71,0,0,0-.38,1.36A43.65,43.65,0,0,1,87.36,62a.72.72,0,0,0,1.06-.61l-.27-7.47c0-.91-1.44-.91-1.41,0Z"/><path class="cls-1" d="M76.52,57.17A121.25,121.25,0,0,1,86.85,87.81q.86,4.43,1.37,8.89c.1.89,1.51.9,1.4,0a120.73,120.73,0,0,0-8.13-31.88q-1.72-4.24-3.75-8.36c-.41-.81-1.62-.1-1.22.71Z"/><path class="cls-1" d="M87,60.81c2.17,4.23,5,9.87,7.18,14.1a50.61,50.61,0,0,1,3,6.4A37.73,37.73,0,0,1,98.6,87.8c.42,2.66.83,5.32,1.25,8,.14.9,1.5.52,1.36-.37l-1.11-7.07a50.48,50.48,0,0,0-1.34-6.78,39.47,39.47,0,0,0-2.86-6.32l-3.3-6.45c-1.24-2.43-3.17-6.26-4.41-8.69-.41-.8-.94,1.31-.52,2.12Z"/><path class="cls-1" d="M87.26,54.9a56.93,56.93,0,0,1,7.6,10.64c1,1.83,1.83,3.72,2.68,5.6s1.73,3.79,2.48,5.73c.83,2.15,2.18,4.14,2.49,6.42a.71.71,0,0,0,.87.49.73.73,0,0,0,.49-.86c-.56-4.16-3-7.78-4.7-11.58a72.3,72.3,0,0,0-5.93-11.25,64.19,64.19,0,0,0-5-6.18c-.6-.68-.91,1-.3,1.71Z"/><path class="cls-1" d="M95.18,55a128.59,128.59,0,0,0,11.63-9.32c.67-.61-.33-1.6-1-1a124.07,124.07,0,0,1-11.34,9.1c-.73.52,0,1.74.71,1.22Z"/><path class="cls-1" d="M106.57,45.56a16.14,16.14,0,0,1-.62,4.78c-.19.75-.39,1.5-.56,2.26-.09.41-.17.82-.25,1.23a2.56,2.56,0,0,1,0,.27c.2,0,.24-.07.1-.1s-.44-.12-.56-.16c-3.19-.85-6.56-.57-9.79-.19-.89.11-.9,1.52,0,1.41a40.59,40.59,0,0,1,5.62-.36,17.49,17.49,0,0,1,2.7.25c.4.08.8.17,1.19.28a2.58,2.58,0,0,0,1.23.18c.89-.22.91-1.2,1.06-1.93s.4-1.72.62-2.57a18,18,0,0,0,.72-5.35c0-.9-1.45-.91-1.41,0Z"/><path class="cls-1" d="M94.23,54.71a74.88,74.88,0,0,1,10.18,20.8c.64,2.13,1.16,4.3,1.6,6.48.18.89,1.53.51,1.36-.37a71.84,71.84,0,0,0-8.29-21.88Q97.37,56.8,95.45,54c-.51-.74-1.73,0-1.22.71Z"/><path class="cls-1" d="M105,55.21c2.54,2.17,4,5.54,5.09,8.63a39.47,39.47,0,0,1,1.36,4.78c.41,1.86.86,3.67,1.41,5.48a18.72,18.72,0,0,1,1,6.3c0,.9,1.38.9,1.41,0a18.52,18.52,0,0,0-.77-5.87c-.55-1.91-1.15-3.78-1.53-5.73a36.67,36.67,0,0,0-3.53-10.07A15.44,15.44,0,0,0,106,54.21c-.68-.59-1.68.41-1,1Z"/><path class="cls-1" d="M106.15,45.39c5.08,5.47,11.16,12.22,9.78,20.33-.15.89,1.21,1.27,1.36.38,1.48-8.71-4.65-15.8-10.15-21.71-.61-.66-1.61.33-1,1Z"/><path class="cls-1" d="M110.61,37.86c1.68,1.3,3.43,2.55,5,3.94a18.74,18.74,0,0,1,3.23,3.25c1,1.45,2.07,2.79,3.2,4.14a14.18,14.18,0,0,1,3,4.86c.27.87,1.63.5,1.36-.37a15.08,15.08,0,0,0-3-5c-.6-.73-1.22-1.43-1.82-2.16s-1-1.41-1.52-2.13a19.36,19.36,0,0,0-3.34-3.43c-1.63-1.44-3.43-2.71-5.15-4-.71-.55-1.71.44-1,1Z"/><path class="cls-1" d="M103.61,32.79a24.47,24.47,0,0,0-2.7-12.74.71.71,0,0,0-1.22.71,23,23,0,0,1,2.51,12c0,.9,1.46.22,1.51-.68Z"/><path class="cls-1" d="M65.84,54.08A68.57,68.57,0,0,1,76.9,57.46c.85.33,1.21-1,.38-1.36a70.22,70.22,0,0,0-11.06-3.38c-.89-.19-1.26,1.17-.38,1.36Z"/><path class="cls-1" d="M61.45,66.45a7.7,7.7,0,0,1,.75-2.93c.4-1,.82-1.89,1.22-2.84l2.49-5.81c.36-.82-.85-1.54-1.21-.71Q63.37,57.28,62,60.4c-.81,1.9-2,3.92-2,6.05a.71.71,0,0,0,1.41,0Z"/><path class="cls-1" d="M23.82,93.9C25.64,83.59,27.53,73,33,63.84a38.27,38.27,0,0,1,4.93-6.61c.62-.66-.37-1.66-1-1C29.73,63.9,26.34,74.11,24.22,84.19c-.66,3.1-1.21,6.22-1.76,9.34-.16.89,1.2,1.27,1.36.37Z"/><path class="cls-1" d="M36.27,56.87c1.31,3.66,1,7.67,2.71,11.21.4.82,1.61.11,1.22-.71C38.56,64,38.89,60,37.63,56.5c-.3-.85-1.66-.48-1.36.37Z"/><path class="cls-1" d="M30.92,60a18.44,18.44,0,0,1,5.56-2.63A.71.71,0,0,0,36.11,56a19.83,19.83,0,0,0-5.9,2.78c-.74.51,0,1.73.71,1.21Z"/><path class="cls-1" d="M26.93,45.51c-.25-5,3.86-8.83,6-13,.41-.81-.8-1.52-1.22-.71-2.26,4.45-6.45,8.36-6.18,13.73.05.9,1.46.9,1.41,0Z"/><path class="cls-1" d="M20.14,37.82A33.47,33.47,0,0,1,31.84,33c.89-.16.51-1.51-.38-1.36a34.27,34.27,0,0,0-12,5c-.76.48-.06,1.7.71,1.21Z"/><path class="cls-1" d="M33.58,31.41a54.36,54.36,0,0,1-1-7.19c-.1-.89-1.51-.9-1.41,0a56.8,56.8,0,0,0,1.09,7.57.7.7,0,0,0,1.35-.38Z"/><path class="cls-1" d="M31.93,24.91a.7.7,0,0,0,0-1.4.7.7,0,0,0,0,1.4Z"/><path class="cls-1" d="M32.14,25q5.19-1,10.34-2.27c.88-.21.51-1.57-.37-1.35Q37,22.64,31.77,23.66c-.89.17-.51,1.53.37,1.35Z"/><path class="cls-1" d="M43.09,21.92a15.91,15.91,0,0,1,2.49-6.46c.52-.75-.7-1.45-1.21-.71a16.28,16.28,0,0,0-2.64,6.8c-.15.88,1.21,1.27,1.36.37Z"/><path class="cls-1" d="M45.13,16c3.36-.89,7.76-2.11,11.22-2.63.9-.13.52-1.49-.37-1.35a112.73,112.73,0,0,0-11.22,2.62c-.88.24-.61,1.22.27,1Z"/><path class="cls-1" d="M56.83,12.67c.43-1.74.12-3.53,1.38-4.81.63-.65-.36-1.65-1-1C55.79,8.32,56,10.32,55.47,12.3a.71.71,0,0,0,1.36.37Z"/><path class="cls-1" d="M6.87,65.76a9.69,9.69,0,0,1,2.74.18A.7.7,0,0,0,10,64.59a10.49,10.49,0,0,0-3.11-.23.7.7,0,0,0,0,1.4Z"/><path class="cls-1" d="M8.33,75.7c-.09-4.11,1.68-7.91,3.5-11.5,1-1.89,1.93-3.77,2.89-5.65a16,16,0,0,1,3.22-4.75c.68-.61-.32-1.6-1-1a16.17,16.17,0,0,0-3.35,4.86q-1.54,3-3.08,6c-1.9,3.75-3.69,7.73-3.6,12a.71.71,0,0,0,1.41,0Z"/><path class="cls-1" d="M17.35,53.91a4.88,4.88,0,0,1,3,3.19.71.71,0,0,0,1.36-.37,6.38,6.38,0,0,0-4-4.18c-.85-.31-1.21,1.05-.37,1.36Z"/><path class="cls-1" d="M21,57.88a.71.71,0,0,0,0-1.41.71.71,0,0,0,0,1.41Z"/><path class="cls-1" d="M21,56.52c-2.08-.25-5.19,1.64-7.29,1.67a.71.71,0,0,0,0,1.41c2.1,0,5.21-1.93,7.29-1.67.89.11.89-1.3,0-1.41Z"/><path class="cls-1" d="M7.69,76.9A7.2,7.2,0,0,1,12,79.13c.61.68,1.6-.32,1-1a8.62,8.62,0,0,0-5.3-2.65c-.9-.09-.9,1.32,0,1.41Z"/><path class="cls-1" d="M71.78,5.21a3.71,3.71,0,0,1-.36,2.73c-.36.64-1.89,1.25-1.93.5a20.54,20.54,0,0,1-.07-2.16c0-.07-.18-.46-.15-.52l-.07.14s.11-.46.07-.23,0-.14,0-.18,0-.08,0,.11a1.55,1.55,0,0,0,0-.21c-.18-.72,0-1,.8-1.17a1.43,1.43,0,0,1,1.73,1Z"/><path class="cls-1" d="M76,9.85a.92.92,0,0,0-.33.19,4.93,4.93,0,0,1-1.22.83,1.18,1.18,0,0,0,1.4,1.29h0a8.65,8.65,0,0,0,4-1.11c.73-.52.25-1.49-.4-2s-.93-.8-1.71-.25c-.07.05-1,.47-1,.51"/><path class="cls-1" d="M76.28,4.88A198.94,198.94,0,0,0,58.25,20c-1.32,1.24.67,3.23,2,2A194.46,194.46,0,0,1,77.7,7.31a1.46,1.46,0,0,0,.5-1.93,1.41,1.41,0,0,0-1.92-.5Z"/><path class="cls-1" d="M64.8,10a19.88,19.88,0,0,1,8.87,4.87c1.31,1.25,3.3-.73,2-2A22.78,22.78,0,0,0,65.55,7.3C63.79,6.86,63,9.57,64.8,10Z"/><path class="cls-1" d="M56.4,18.23a23.52,23.52,0,0,0,8.54-5.61c1.3-1.27-.7-3.24-2-2-2.33,2.25-2.1,3.15-5.13,4.31-.71.27-3.38,1.79-3.17,2.58s.2,1.31.91,1Z"/><path class="cls-1" d="M66.77,21.52c1.37-1.08,2.38-4.44,3.75-5.52.6-.47,1.61-1,1.12-1.54a1.44,1.44,0,0,0-2,0c-1.37,1.08-3.77,3.36-5.14,4.43-.6.48-.28,2.17.21,2.66a1.52,1.52,0,0,0,2,0Z"/><path class="cls-1" d="M94,15.6c-2.09,2.4-5.12.1-7.58-2.19A5,5,0,0,0,81.29,12a15.62,15.62,0,0,0-4.87,3.13c-5.51,4.46-10.14,9.83-15.27,14.69a53.06,53.06,0,0,1-9,7.05,1.41,1.41,0,0,0,1.42,2.43C59.44,35.75,64.22,30.83,69,26c2.4-2.46,4.82-4.9,7.41-7.16a39.61,39.61,0,0,1,4.24-3.39,4.85,4.85,0,0,1,2-.88,2,2,0,0,1,1.6.65,29.5,29.5,0,0,0,4.55,3.56A6.93,6.93,0,0,0,92.42,20c1.81,0,8.3-3.58,6.07-5.89S96.08,13.21,94,15.6Z"/><path class="cls-1" d="M80.64,18.47c0,1.6,1.28,2.33,2.47,3.08,0,0,.39.27.29.18s.19.19.22.22c-.18-.18,0,0,.06.11-.09-.21,0,0,0,0a1.52,1.52,0,0,1-.21.33,2.3,2.3,0,0,1-1.07.41,25.35,25.35,0,0,1-6,.09,10.59,10.59,0,0,1-4.64-1.33A1.41,1.41,0,0,0,70.33,24a13.67,13.67,0,0,0,6.06,1.72,33.93,33.93,0,0,0,4,.14,14.94,14.94,0,0,0,3.06-.42A4.17,4.17,0,0,0,86,23.57a3,3,0,0,0,0-3.14,5.33,5.33,0,0,0-1.79-1.51c-.15-.09-.3-.17-.44-.27s-.47-.33-.21-.13c0-.05-.11-.1-.16-.16q.15.23,0,0c.06.18.07.19,0,0,0,.2.12.18,0,0-1.24-1.67-2.82-1.82-2.82,0Z"/><path class="cls-1" d="M75.06,19.53l5,4.07,1.26,1a5.37,5.37,0,0,1,.82.71c.15.22.15.3,0,.59a2.43,2.43,0,0,1-.65.81c-.65.61-1.38,1.13-2,1.77a14.63,14.63,0,0,0-1.72,2.2,13.7,13.7,0,0,0-2,5.11,1.47,1.47,0,0,0,1,1.74,1.43,1.43,0,0,0,1.74-1,11.61,11.61,0,0,1,2-5,11.35,11.35,0,0,1,1.81-1.92,8.52,8.52,0,0,0,2.16-2.24,3.52,3.52,0,0,0,.13-3.29A7.36,7.36,0,0,0,82.53,22l-5.48-4.44a1.44,1.44,0,0,0-2,0,1.41,1.41,0,0,0,0,2Z"/><path class="cls-1" d="M59.13,31.86c2,2.44,7.25,5.28,10.4,5.36,1.81,0,1.81-2.78,0-2.82-2.44-.06-6.84-2.64-8.41-4.53a1.42,1.42,0,0,0-2,0,1.44,1.44,0,0,0,0,2Z"/><path class="cls-1" d="M37.21,32.58,49.71,39a56.49,56.49,0,0,1,9.73,5.86,23,23,0,0,1,4.43,4.54,1.43,1.43,0,0,0,1.92.5A1.42,1.42,0,0,0,66.3,48c-4.91-6.87-13-10.31-20.3-14l-7.37-3.77a1.44,1.44,0,0,0-1.92.51,1.41,1.41,0,0,0,.5,1.92Z"/><path class="cls-1" d="M36.09,36.12A80.34,80.34,0,0,1,36.92,52c-.05.9,1.84,1,1.88.08a82.61,82.61,0,0,0-.87-16.25c-.14-.89-2-.6-1.84.29Z"/><path class="cls-1" d="M37.88,53.07A56.6,56.6,0,0,1,59.46,51c.9.09,1-2.22.09-2.3a57.6,57.6,0,0,0-22,2.14c-.86.26-.58,2.51.29,2.25Z"/><path class="cls-1" d="M41.93,29.34a87.93,87.93,0,0,0,9.6-7.59c.67-.62-.32-1.61-1-1a85.08,85.08,0,0,1-9.32,7.38c-.74.5,0,1.72.71,1.21Z"/><path class="cls-1" d="M80.7,5.45H92.41c.91,0,.91-1.83,0-1.83H80.7c-.91,0-.91,1.83,0,1.83Z"/><path class="cls-1" d="M91.08,4.55c.61,4.11.86,4,2,8,.25.87,2,.49,1.8-.39-1.15-4-1.4-3.91-2-8-.13-.9-1.49-.52-1.36.37Z"/><path class="cls-1" d="M68.92,45.65a9,9,0,0,0,5-3.95c.47-.77-1-2.19-1.49-1.41a7.2,7.2,0,0,1-4,3.27c-.86.27-.38,2.37.49,2.09Z"/></g></g></svg>