<svg xmlns="http://www.w3.org/2000/svg" viewBox="0 0 136.16 113.9"><defs><style>.cls-1{fill:#680303;}</style></defs><g id="圖層_2" data-name="圖層 2"><g id="圖層_1-2" data-name="圖層 1"><path class="cls-1" d="M123.26,96.28C112,100.88,99.09,98,89.52,91A53,53,0,0,1,76.86,77.21a62.84,62.84,0,0,1-8.18-17.38C67.2,54.41,67.28,48.11,72,44.26a7.36,7.36,0,0,1,6.16-1.73,10.62,10.62,0,0,1,6,4.42c2,2.7,3.19,5.83,4.68,8.8a28.94,28.94,0,0,0,5.63,7.88c4.38,4.25,10,6.87,15.6,9.07,5.82,2.27,13.71,3.63,16.64,9.86,2.83,6-.14,12.79-5.72,15.86-2.63,1.45-.21,5.44,2.42,4,5.86-3.22,9.78-9.87,9-16.63a16.32,16.32,0,0,0-4.46-9.56c-2.49-2.54-5.78-4-9.05-5.25-6.1-2.3-12.36-4.24-17.8-8a22.78,22.78,0,0,1-6.44-6.5c-2.09-3.27-3.37-7-5.36-10.29-3.22-5.4-9.09-10.06-15.71-8S63.3,46.81,63.13,53.32c-.19,7.24,3.14,14.44,6.45,20.7A64.43,64.43,0,0,0,82.13,90.83c10,9.35,24.14,14.64,37.74,11.44a33.28,33.28,0,0,0,4.66-1.5,2.41,2.41,0,0,0,1.61-2.88,2.35,2.35,0,0,0-2.88-1.61Z"/><path class="cls-1" d="M77.13,63.82A15.34,15.34,0,0,1,90.76,64c1.53.79,2.83-1.54,1.3-2.33a18.18,18.18,0,0,0-16.31-.1,1.34,1.34,0,0,0-.45,1.83,1.36,1.36,0,0,0,1.83.45Z"/><path class="cls-1" d="M87.56,75.68A26.42,26.42,0,0,1,100.77,75c1.68.34,2.35-2.24.67-2.59a29.15,29.15,0,0,0-14.6.7c-1.64.51-.92,3.08.72,2.56Z"/><path class="cls-1" d="M99.43,85.91a19.69,19.69,0,0,1,15-.15,1.33,1.33,0,0,0,1.62-1,1.37,1.37,0,0,0-1-1.62,21.8,21.8,0,0,0-16.42.16A1.38,1.38,0,0,0,97.79,85a1.33,1.33,0,0,0,1.64.92Z"/><path class="cls-1" d="M72.38,36.45c-.33-.21.52.42.11.07s.37.56.1.12c-.14-.23-.06-.34.09.25,0-.11-.07-.22-.1-.34-.09-.36,0,.71,0,.17a2.53,2.53,0,0,1,0-.28c0-.37-.13.67,0,.13,0-.1.07-.21.09-.31s-.28.61-.06.16a3.54,3.54,0,0,1,.19-.33c.18-.32-.39.44-.13.18L73,36c-.45.49-.34.27-.11.12s-.61.2-.25.1l.17-.05c.24,0,.12,0-.35.05.13,0,.25,0,.38,0l-2.26-1.7c.22,1.38.43,2.77.63,4.16,0,.16,0,.33.08.5s.09.7,0,0l.15,1c.1.73.19,1.45.29,2.17a2.6,2.6,0,0,0,.72,1.67,2.33,2.33,0,0,0,3.3-.07,2.22,2.22,0,0,0,.65-1.63q-.61-4.56-1.33-9.11a2.18,2.18,0,0,0-.87-1.23,2.52,2.52,0,0,0-1.39-.47c-2.19-.21-3.94,1.58-4.57,3.51a4.63,4.63,0,0,0,1.9,5.43,2.34,2.34,0,0,0,3.17-.9,2.38,2.38,0,0,0-.89-3.17Z"/><path class="cls-1" d="M125.58,99.33a19.29,19.29,0,0,1,2.21,2.31l-.37-.47c.41.52.8,1.06,1.16,1.62.16.26.33.53.48.8s.15.3.24.43a2.47,2.47,0,0,0,1.52,1.08,4.11,4.11,0,0,0,2.78-.34,4.48,4.48,0,0,0,1.69-1.57,5.09,5.09,0,0,0,.71-4.12,5.48,5.48,0,0,0-2.86-3.34,9.56,9.56,0,0,0-4.43-.94,2.34,2.34,0,0,0,0,4.67,8.51,8.51,0,0,1,1.24.06l-.6-.07a6.66,6.66,0,0,1,1.64.4l-.55-.22a4.57,4.57,0,0,1,1,.53L131,99.8a4.13,4.13,0,0,1,.68.64l-.38-.48a3.46,3.46,0,0,1,.39.63l-.25-.57a2.38,2.38,0,0,1,.16.58l-.08-.62a3.86,3.86,0,0,1,0,.68l.07-.6a2.76,2.76,0,0,1-.19.75l.23-.56a3,3,0,0,1-.37.66l.36-.48a2.87,2.87,0,0,1-.45.47l.47-.38a2.22,2.22,0,0,1-.42.25l.58-.25a1.9,1.9,0,0,1-.39.11l.62-.09a2,2,0,0,1-.42,0l.6.07c-.1,0-.19,0-.29-.06l1.41,1A20.94,20.94,0,0,0,128.82,96a2.56,2.56,0,0,0-1.64-.65,2.41,2.41,0,0,0-1.66.72,2.36,2.36,0,0,0,.06,3.3Z"/><path class="cls-1" d="M37.81,20a32,32,0,0,1,7.83,2.82A34.11,34.11,0,0,1,49.27,25c.3.19.58.4.87.6s.36.26.53.4c.35.26-.22-.18.12.09.59.47,1.16.95,1.72,1.45A2.5,2.5,0,1,0,56.05,24a38.1,38.1,0,0,0-16.91-8.82A2.5,2.5,0,1,0,37.81,20Z"/><path class="cls-1" d="M63.55,3.76,68,12.48a2.52,2.52,0,0,0,3.42.9A2.57,2.57,0,0,0,72.3,10L67.87,1.24a2.52,2.52,0,0,0-3.42-.9,2.55,2.55,0,0,0-.9,3.42Z"/><path class="cls-1" d="M97.4,4.7a14.13,14.13,0,0,0-8.42,4,14.14,14.14,0,0,0-4.19,7.77,2.73,2.73,0,0,0,.26,1.92,2.49,2.49,0,0,0,1.49,1.15c1.2.27,2.86-.36,3.08-1.75a10.28,10.28,0,0,1,.44-1.82c0-.14.09-.28.14-.41s.3-.59,0,.06c.13-.26.24-.52.38-.78a15.1,15.1,0,0,1,1-1.53c.15-.2-.38.48,0,.05l.33-.39q.28-.33.6-.63c.21-.2.42-.4.64-.59a2.3,2.3,0,0,0,.34-.28c-.41.48-.23.18,0,.05a11.53,11.53,0,0,1,1.61-1l.39-.19c.17-.08.62-.21-.07,0,.28-.09.54-.21.82-.29s.56-.17.84-.23l.49-.11c.18,0,.79-.11,0,0A2.77,2.77,0,0,0,99.17,9,2.48,2.48,0,0,0,99.9,7.2C99.85,6,98.79,4.52,97.4,4.7Z"/><path class="cls-1" d="M45.14,55.85a33.06,33.06,0,0,0-25,10.31C13.72,73.08,10.44,82.33,9,91.54a167.23,167.23,0,0,0-1.59,18.17c-.12,2.49,3.75,2.48,3.87,0,.48-9.54,1-19.24,4.26-28.31,2.91-8,8.15-15,15.89-18.77a29.05,29.05,0,0,1,13.75-2.91c2.5.08,2.49-3.79,0-3.87Z"/><path class="cls-1" d="M1.42,106.83a10.27,10.27,0,0,1,3.91,2.77c1.18,1.33,1.74,3.56,3.65,4.16,2.45.77,4.08-1.73,5.44-3.31L19,105.16a2,2,0,0,0,0-2.73,1.94,1.94,0,0,0-2.73,0l-4.09,4.71c-.66.77-1.32,1.54-2,2.3-.12.15-.56.61-.55.61l.72.14q.08.14,0,0l-.17-.28a16.1,16.1,0,0,0-3-3.94,14.5,14.5,0,0,0-4.7-2.84,2,2,0,0,0-2.38,1.35,2,2,0,0,0,1.35,2.38Z"/></g></g></svg>