<svg xmlns="http://www.w3.org/2000/svg" viewBox="0 0 149.22 112.98"><defs><style>.cls-1{fill:#680303;}</style></defs><g id="圖層_2" data-name="圖層 2"><g id="圖層_1-2" data-name="圖層 1"><path class="cls-1" d="M90.62,75.2c-5.34-.57-11.42-.57-14.89,4.23a9.09,9.09,0,0,0-1.64,6.7A7.31,7.31,0,0,0,79,91.66a17.23,17.23,0,0,0,3.74.81c1.72.24,3.44.46,5.16.65,3,.32,5.93.56,8.9.7a149.72,149.72,0,0,0,17.85-.17,156.2,156.2,0,0,0,18.42-2.38c2.93-.55,5.85-1.16,8.72-1.92a11.58,11.58,0,0,0,6-3.3,5.9,5.9,0,0,0-.09-7.83c-1.78-2.06-4.69-3-7.21-3.73a42.4,42.4,0,0,0-8.8-1.63c-2.28-.19-5,.32-7-1.14a27.17,27.17,0,0,0-3.78-2.8,18.14,18.14,0,0,0-4.41-1.58A56.53,56.53,0,0,0,107,66.27c-6-.27-13.24,1.3-15.91,7.39a2.83,2.83,0,0,0,1,3.75,2.76,2.76,0,0,0,3.75-1c1.67-3.82,5.88-4.76,9.93-4.71a61.09,61.09,0,0,1,7.52.57A14.73,14.73,0,0,1,118.77,74c2.16,1.3,3.64,3.23,6.22,3.83s5,.33,7.51.59a35.22,35.22,0,0,1,7.31,1.6,15.37,15.37,0,0,1,2.73,1.07c.18.11.37.21.55.33.52.35.28.21.2.13s.6.61.4.39a.39.39,0,0,1,.1.24c.1.43,0-.28,0,.13v.14c0-.3,0-.29-.07,0l0-.09c.06-.18,0-.14-.11.12.24-.11.05-.09-.08.06-.55.59.18-.09-.21.2a5,5,0,0,1-.62.39,6.56,6.56,0,0,1-1,.48,52.33,52.33,0,0,1-7,1.72,142.47,142.47,0,0,1-15.22,2.39,151.26,151.26,0,0,1-31.41-.09c-1.37-.15-2.75-.31-4.12-.51a13.88,13.88,0,0,1-3.19-.64,3.13,3.13,0,0,1-.76-.42s-.44-.46-.26-.24-.23-.4-.22-.37c.22.4,0-.17-.07-.31s0-.5,0,0a7,7,0,0,1,0-.79c0,.14-.12.47,0-.06.07-.27.13-.53.22-.79.18-.53.09-.22,0-.11a6.65,6.65,0,0,1,.41-.74c.43-.73-.16.15.15-.23a5.49,5.49,0,0,1,.57-.61s.48-.4.26-.23.45-.27.57-.33a6.48,6.48,0,0,1,1.54-.57c2.37-.6,5-.25,7.38,0a2.76,2.76,0,0,0,2.74-2.74,2.8,2.8,0,0,0-2.74-2.74Z"/><path class="cls-1" d="M100.84,64.93c-1.57-9.28-4.23-19.22-11.38-25.84C82.9,33,73.32,30.36,65.12,34.78c-7.23,3.9-11.34,12-13.43,19.65-2.35,8.56-3.26,19,1.77,26.78,4.92,7.63,16,11.2,23.51,5.16a2.76,2.76,0,0,0,0-3.88,2.81,2.81,0,0,0-3.88,0l-.13.1-.47.31a9.33,9.33,0,0,1-1,.52c.31-.14-.46.16-.64.22a11.86,11.86,0,0,1-1.34.31c.48-.08-.55,0-.65,0a10.46,10.46,0,0,1-1.12,0c-.18,0-1-.09-.68,0a10.42,10.42,0,0,1-1.26-.26,11.66,11.66,0,0,1-4-1.75,8.62,8.62,0,0,1-1.55-1.17c-.29-.27-.57-.54-.84-.82l-.4-.44s-.52-.64-.3-.35c-4.64-6.11-3.77-14.9-2.07-21.9a37.66,37.66,0,0,1,3.61-9.58,21.16,21.16,0,0,1,5.9-7.07A13.18,13.18,0,0,1,75.25,38a17.78,17.78,0,0,1,9.3,4c7.2,5.89,9.52,15.53,11,24.33a2.76,2.76,0,0,0,3.37,1.91,2.8,2.8,0,0,0,1.91-3.37Z"/><path class="cls-1" d="M64.26,61.59a13.84,13.84,0,0,1,3.79-10.16c1-1.09-.61-2.76-1.66-1.66a16.14,16.14,0,0,0-4.47,11.82c.06,1.5,2.41,1.51,2.34,0Z"/><path class="cls-1" d="M69.81,45.11a1.18,1.18,0,0,0,0-2.35,1.18,1.18,0,0,0,0,2.35Z"/><path class="cls-1" d="M93.45,79.66a33.25,33.25,0,0,0,32.7.22c1.32-.74.13-2.77-1.19-2a30.82,30.82,0,0,1-30.32-.22,1.18,1.18,0,0,0-1.19,2Z"/><path class="cls-1" d="M43.39,12a22.84,22.84,0,0,1,3.35.76c.55.17,1.09.37,1.62.58,0,0,.46.19.17.06s.12.06.17.08c.27.12.55.25.82.39a23.86,23.86,0,0,1,2.87,1.71c.24.17.49.35.73.54-.41-.32.15.13.28.24.47.39.92.8,1.35,1.22a2.5,2.5,0,1,0,3.53-3.53A24.82,24.82,0,0,0,44.72,7.18a2.57,2.57,0,0,0-3.08,1.75c-.27,1.19.37,2.86,1.75,3.07Z"/><path class="cls-1" d="M69.89,3.17l1.58,7.24a2.51,2.51,0,0,0,3.07,1.74,2.55,2.55,0,0,0,1.75-3.07L74.71,1.84A2.52,2.52,0,0,0,71.64.1a2.55,2.55,0,0,0-1.75,3.07Z"/><path class="cls-1" d="M103.69.17a13.72,13.72,0,0,0-9.84,8.88,2.51,2.51,0,0,0,1.75,3.07,2.56,2.56,0,0,0,3.07-1.74c.08-.23.17-.45.26-.67l-.25.6A11.28,11.28,0,0,1,100.05,8l-.39.51a11.49,11.49,0,0,1,2.09-2.09l-.51.39a12.26,12.26,0,0,1,2.45-1.43l-.59.26A10.69,10.69,0,0,1,105,5a2.52,2.52,0,0,0,1.74-3.08A2.56,2.56,0,0,0,103.69.17Z"/><path class="cls-1" d="M39.93,54.93A27.59,27.59,0,0,0,17.84,65.24c-5.71,6.92-8.61,16.17-9.91,25.38-.85,6-1.14,12.09-1.41,18.17a1.72,1.72,0,1,0,3.42,0c.42-9.54.85-19.25,3.77-28.31,2.58-8,7.21-15,14.05-18.78a23.37,23.37,0,0,1,12.17-2.9c2.2.08,2.2-3.79,0-3.87Z"/><path class="cls-1" d="M1.26,105.91a9.23,9.23,0,0,1,3.46,2.77c1,1.33,1.54,3.56,3.22,4.16,2.17.76,3.62-1.73,4.82-3.31l4-5.29a2.18,2.18,0,0,0,0-2.74,1.6,1.6,0,0,0-2.42,0l-3.61,4.72c-.59.77-1.17,1.54-1.76,2.3-.12.15-.51.61-.5.61l.64.14c.05.09,0,.08,0,0S9,109.05,9,109A15.87,15.87,0,0,0,6.32,105a12.6,12.6,0,0,0-4.15-2.84c-.86-.38-1.88.41-2.11,1.35a2,2,0,0,0,1.2,2.38Z"/></g></g></svg>