<svg xmlns="http://www.w3.org/2000/svg" viewBox="0 0 127.08 113.9"><defs><style>.cls-1{fill:#680303;}</style></defs><g id="圖層_2" data-name="圖層 2"><g id="圖層_1-2" data-name="圖層 1"><path class="cls-1" d="M37.81,20a32,32,0,0,1,7.83,2.82A34.11,34.11,0,0,1,49.27,25c.3.19.58.4.87.6s.36.26.53.4c.35.26-.22-.18.12.09.59.47,1.16.95,1.72,1.45A2.5,2.5,0,1,0,56.05,24a38.1,38.1,0,0,0-16.91-8.82A2.5,2.5,0,1,0,37.81,20Z"/><path class="cls-1" d="M63.55,3.76,68,12.48a2.52,2.52,0,0,0,3.42.9A2.57,2.57,0,0,0,72.3,10L67.87,1.24a2.52,2.52,0,0,0-3.42-.9,2.55,2.55,0,0,0-.9,3.42Z"/><path class="cls-1" d="M97.4,4.7a14.13,14.13,0,0,0-8.42,4,14.14,14.14,0,0,0-4.19,7.77,2.73,2.73,0,0,0,.26,1.92,2.49,2.49,0,0,0,1.49,1.15c1.2.27,2.86-.36,3.08-1.75a10.28,10.28,0,0,1,.44-1.82c0-.14.09-.28.14-.41s.3-.59,0,.06c.13-.26.24-.52.38-.78a15.1,15.1,0,0,1,1-1.53c.15-.2-.38.48,0,.05l.33-.39q.28-.33.6-.63c.21-.2.42-.4.64-.59a2.3,2.3,0,0,0,.34-.28c-.41.48-.23.18,0,.05a11.53,11.53,0,0,1,1.61-1l.39-.19c.17-.08.62-.21-.07,0,.28-.09.54-.21.82-.29s.56-.17.84-.23l.49-.11c.18,0,.79-.11,0,0A2.77,2.77,0,0,0,99.17,9,2.48,2.48,0,0,0,99.9,7.2C99.85,6,98.79,4.52,97.4,4.7Z"/><path class="cls-1" d="M45.14,55.85a33.06,33.06,0,0,0-25,10.31C13.72,73.08,10.44,82.33,9,91.54a167.23,167.23,0,0,0-1.59,18.17c-.12,2.49,3.75,2.48,3.87,0,.48-9.54,1-19.24,4.26-28.31,2.91-8,8.15-15,15.89-18.77a29.05,29.05,0,0,1,13.75-2.91c2.5.08,2.49-3.79,0-3.87Z"/><path class="cls-1" d="M1.42,106.83a10.27,10.27,0,0,1,3.91,2.77c1.18,1.33,1.74,3.56,3.65,4.16,2.45.77,4.08-1.73,5.44-3.31L19,105.16a2,2,0,0,0,0-2.73,1.94,1.94,0,0,0-2.73,0l-4.09,4.71c-.66.77-1.32,1.54-2,2.3-.12.15-.56.61-.55.61l.72.14q.08.14,0,0l-.17-.28a16.1,16.1,0,0,0-3-3.94,14.5,14.5,0,0,0-4.7-2.84,2,2,0,0,0-2.38,1.35,2,2,0,0,0,1.35,2.38Z"/><path class="cls-1" d="M80.34,34.67c2.1,5.93,4.2,12,4.62,18.35a29.61,29.61,0,0,1-3.63,16c-4.31,8.35-13.12,22.25-2,29.23a19.78,19.78,0,0,0,27.78-7.86c2.74-5.46,2.47-11.36.84-17.12A38.5,38.5,0,0,0,104.64,65c-1.47-2.61-3.62-4.61-5.41-7-3.77-5-3.33-11.41-3.75-17.3-.24-3.32-1.25-6.25-4-8.29-2.27-1.69-5.14-2.38-7.88-2.92s-3.92,3.66-1.16,4.21a17.28,17.28,0,0,1,6.27,2.09C90.64,37,91,39.12,91.15,41.29c.27,5.21.26,10.54,2.35,15.42A24.43,24.43,0,0,0,98,63.24a23.78,23.78,0,0,1,4.12,6.48c2,4.77,3.65,10.57,2.26,15.71a15.2,15.2,0,0,1-21.81,9.65C80.44,94,78.73,92.49,78.42,90a16.09,16.09,0,0,1,.89-6.84c1.48-4.58,4.2-8.64,6.33-12.92A33.19,33.19,0,0,0,89.3,52.57c-.52-6.58-2.55-12.88-4.74-19.06-.94-2.63-5.16-1.5-4.22,1.16Z"/><path class="cls-1" d="M83.19,55.05c-1,3.83-4.94,5.87-8,7.82a51.46,51.46,0,0,0-11.44,9.72c-3.16,3.63-5.93,8.06-6.11,13s2.86,9.14,6.59,12.17c2.06,1.67,4.34,3.42,7,4a8,8,0,0,0,7.5-1.9c2-2-1.08-5.07-3.09-3.09-2.81,2.78-7.43-1.26-9.52-3.15-2.94-2.66-4.82-6-3.8-10s4-7.56,6.92-10.5a58,58,0,0,1,10-7.61c3.56-2.28,7.14-5,8.22-9.3.69-2.73-3.52-3.89-4.21-1.16Z"/><path class="cls-1" d="M96.89,58.15c9.3,1,17.63,7.09,22.16,15.12,4.32,7.66,6.51,21-3.66,25a20.23,20.23,0,0,1-8.08,1.29c-2.63-.1-5.27-.73-7-2.86a2.2,2.2,0,0,0-3.1,0,2.24,2.24,0,0,0,0,3.09c3.83,4.78,11.43,4.75,16.86,3.45,6-1.44,11-5.54,12.38-11.74,2.57-11.26-3.43-23.5-12.14-30.48a33.08,33.08,0,0,0-17.45-7.29A2.2,2.2,0,0,0,94.7,56a2.24,2.24,0,0,0,2.19,2.19Z"/><path class="cls-1" d="M87.66,101.13c2.81,0,2.81-4.37,0-4.37s-2.82,4.37,0,4.37Z"/><path class="cls-1" d="M86.88,99.91a15.06,15.06,0,0,1-1.23,2.18c-.11.17-.23.34-.35.5l-.09.12c-.1.13,0,0,.07-.08l-.21.25a10.76,10.76,0,0,1-.84,1A1.25,1.25,0,0,0,86,105.6a16.21,16.21,0,0,0,3-4.43,1.33,1.33,0,0,0,.13-1,1.26,1.26,0,0,0-.58-.74,1.25,1.25,0,0,0-1.7.44Z"/><path class="cls-1" d="M88.57,100.06a42.42,42.42,0,0,0,.23,8.87,1.29,1.29,0,0,0,1.25,1.25c.6,0,1.34-.58,1.25-1.25a41.75,41.75,0,0,1-.23-8.87,1.25,1.25,0,0,0-2.5,0Z"/><path class="cls-1" d="M90.24,110.62a1.25,1.25,0,0,0,0-2.5,1.25,1.25,0,0,0,0,2.5Z"/><path class="cls-1" d="M91.58,102.05a13.19,13.19,0,0,0,4.91,5.75,1.25,1.25,0,0,0,1.71-.45,1.28,1.28,0,0,0-.45-1.71l-.35-.23a3,3,0,0,1-.34-.25l.08.06-.1-.08-.13-.1-.32-.28a11.81,11.81,0,0,1-1.21-1.24l-.14-.17s-.17-.23-.06-.07,0-.06-.05-.08L95,103c-.16-.23-.32-.46-.47-.7a12.61,12.61,0,0,1-.8-1.55,1.25,1.25,0,0,0-.74-.57,1.32,1.32,0,0,0-1,.13,1.25,1.25,0,0,0-.57.74,1.43,1.43,0,0,0,.13,1Z"/></g></g></svg>