<svg xmlns="http://www.w3.org/2000/svg" viewBox="0 0 141 113.9"><defs><style>.cls-1{fill:#680303;}</style></defs><g id="圖層_2" data-name="圖層 2"><g id="圖層_1-2" data-name="圖層 1"><path class="cls-1" d="M37.81,20a32,32,0,0,1,7.83,2.82A34.11,34.11,0,0,1,49.27,25c.3.19.58.4.87.6s.36.26.53.4c.35.26-.22-.18.12.09.59.47,1.16.95,1.72,1.45A2.5,2.5,0,1,0,56.05,24a38.1,38.1,0,0,0-16.91-8.82A2.5,2.5,0,1,0,37.81,20Z"/><path class="cls-1" d="M63.55,3.76,68,12.48a2.52,2.52,0,0,0,3.42.9A2.57,2.57,0,0,0,72.3,10L67.87,1.24a2.52,2.52,0,0,0-3.42-.9,2.55,2.55,0,0,0-.9,3.42Z"/><path class="cls-1" d="M97.4,4.7a14.13,14.13,0,0,0-8.42,4,14.14,14.14,0,0,0-4.19,7.77,2.73,2.73,0,0,0,.26,1.92,2.49,2.49,0,0,0,1.49,1.15c1.2.27,2.86-.36,3.08-1.75a10.28,10.28,0,0,1,.44-1.82c0-.14.09-.28.14-.41s.3-.59,0,.06c.13-.26.24-.52.38-.78a15.1,15.1,0,0,1,1-1.53c.15-.2-.38.48,0,.05l.33-.39q.28-.33.6-.63c.21-.2.42-.4.64-.59a2.3,2.3,0,0,0,.34-.28c-.41.48-.23.18,0,.05a11.53,11.53,0,0,1,1.61-1l.39-.19c.17-.08.62-.21-.07,0,.28-.09.54-.21.82-.29s.56-.17.84-.23l.49-.11c.18,0,.79-.11,0,0A2.77,2.77,0,0,0,99.17,9,2.48,2.48,0,0,0,99.9,7.2C99.85,6,98.79,4.52,97.4,4.7Z"/><path class="cls-1" d="M45.14,55.85a33.06,33.06,0,0,0-25,10.31C13.72,73.08,10.44,82.33,9,91.54a167.23,167.23,0,0,0-1.59,18.17c-.12,2.49,3.75,2.48,3.87,0,.48-9.54,1-19.24,4.26-28.31,2.91-8,8.15-15,15.89-18.77a29.05,29.05,0,0,1,13.75-2.91c2.5.08,2.49-3.79,0-3.87Z"/><path class="cls-1" d="M1.42,106.83a10.27,10.27,0,0,1,3.91,2.77c1.18,1.33,1.74,3.56,3.65,4.16,2.45.77,4.08-1.73,5.44-3.31L19,105.16a2,2,0,0,0,0-2.73,1.94,1.94,0,0,0-2.73,0l-4.09,4.71c-.66.77-1.32,1.54-2,2.3-.12.15-.56.61-.55.61l.72.14q.08.14,0,0l-.17-.28a16.1,16.1,0,0,0-3-3.94,14.5,14.5,0,0,0-4.7-2.84,2,2,0,0,0-2.38,1.35,2,2,0,0,0,1.35,2.38Z"/><path class="cls-1" d="M107.63,92.48c-5,2.46-10.6,3.26-16,4.36-4.63.94-9.23,2.8-14,2.48a7.63,7.63,0,0,1-4.66-1.73,6.22,6.22,0,0,1-1.73-5.39c.59-4.84,4.88-8,8.77-10.22,10-5.84,21-10.06,32.09-13.5,5.24-1.62,11.31-3.94,16.84-2.51,3.8,1,7.52,4.07,6.86,8.38-.8,5.25-6.3,9-10.48,11.47a51.49,51.49,0,0,1-17,6.4,2.62,2.62,0,0,0-1.82,3.21,2.67,2.67,0,0,0,3.22,1.83,55.94,55.94,0,0,0,17.72-6.59c5.11-3,10.31-6.84,12.65-12.46s.23-11.75-4.86-15.14c-5.48-3.66-12.35-3-18.41-1.41a168.74,168.74,0,0,0-37.2,14.57c-5.31,2.87-10.66,6.41-12.81,12.33-1.95,5.37-.27,12,5.12,14.57,5.67,2.74,11.75,1,17.5-.44,7-1.73,14.31-2.44,20.91-5.69a2.64,2.64,0,0,0,.94-3.58,2.67,2.67,0,0,0-3.58-.94Z"/><path class="cls-1" d="M67.5,87.53C61.74,88.87,54.65,86.41,51.77,81a4.39,4.39,0,0,1-.47-3.82c.59-1.29,2-2.13,3.16-2.88q4.86-3.18,9.94-6a152.86,152.86,0,0,1,21.1-9.68c3.63-1.34,7.32-2.55,11-3.61a79.9,79.9,0,0,1,11.51-2.73c3.29-.43,7.51-.14,9.65,2.81a3.92,3.92,0,0,1,.73,3.24,3.39,3.39,0,0,1-.7,1.61,2.92,2.92,0,0,1-1,.75,2.67,2.67,0,0,0-1.82,3.22,2.64,2.64,0,0,0,3.22,1.82,8.6,8.6,0,0,0,5.6-8.86c-.35-4.37-3.67-7.55-7.6-9-4.44-1.69-9.36-.77-13.84.28S93.34,50.44,89,51.89a160.6,160.6,0,0,0-25.43,11c-4.07,2.18-8.05,4.54-11.9,7.09A14.45,14.45,0,0,0,47,74.19a8.68,8.68,0,0,0-.87,6.63c1.11,4.52,5,8.23,9.12,10.19a20.63,20.63,0,0,0,13.65,1.57c3.28-.76,1.9-5.81-1.39-5Z"/><path class="cls-1" d="M79,90.41a1.5,1.5,0,0,0,0-3,1.5,1.5,0,0,0,0,3Z"/><path class="cls-1" d="M88.06,85.57a1.5,1.5,0,0,0,0-3,1.5,1.5,0,0,0,0,3Z"/><path class="cls-1" d="M83.29,94.15a1.5,1.5,0,0,0,0-3,1.5,1.5,0,0,0,0,3Z"/><path class="cls-1" d="M94.73,89.78a1.5,1.5,0,0,0,0-3,1.5,1.5,0,0,0,0,3Z"/><path class="cls-1" d="M99.22,82.15a1.5,1.5,0,0,0,0-3,1.5,1.5,0,0,0,0,3Z"/><path class="cls-1" d="M106.05,87.24a1.5,1.5,0,0,0,0-3,1.5,1.5,0,0,0,0,3Z"/><path class="cls-1" d="M106.07,80a1.5,1.5,0,0,0,0-3,1.5,1.5,0,0,0,0,3Z"/><path class="cls-1" d="M116.32,79a1.5,1.5,0,0,0,0-3,1.5,1.5,0,0,0,0,3Z"/><path class="cls-1" d="M113.48,75.89a1.5,1.5,0,0,0,0-3,1.5,1.5,0,0,0,0,3Z"/><path class="cls-1" d="M121.24,83.53a1.5,1.5,0,0,0,0-3,1.5,1.5,0,0,0,0,3Z"/><path class="cls-1" d="M127.76,74.62a1.5,1.5,0,0,0,0-3,1.5,1.5,0,0,0,0,3Z"/><path class="cls-1" d="M67.23,80.79a1.5,1.5,0,0,0,0-3,1.5,1.5,0,0,0,0,3Z"/><path class="cls-1" d="M72,74.91a1.5,1.5,0,0,0,0-3,1.5,1.5,0,0,0,0,3Z"/><path class="cls-1" d="M63.55,75.57a1.5,1.5,0,0,0,0-3,1.5,1.5,0,0,0,0,3Z"/><path class="cls-1" d="M57.06,82.21a1.5,1.5,0,0,0,0-3,1.5,1.5,0,0,0,0,3Z"/><path class="cls-1" d="M81.33,73.66a1.5,1.5,0,0,0,0-3,1.5,1.5,0,0,0,0,3Z"/><path class="cls-1" d="M77.37,69.4a1.5,1.5,0,0,0,0-3,1.5,1.5,0,0,0,0,3Z"/><path class="cls-1" d="M90.53,67a1.5,1.5,0,0,0,0-3,1.5,1.5,0,0,0,0,3Z"/><path class="cls-1" d="M98.77,60a1.5,1.5,0,0,0,0-3,1.5,1.5,0,0,0,0,3Z"/><path class="cls-1" d="M86.57,62.71a1.5,1.5,0,0,0,0-3,1.5,1.5,0,0,0,0,3Z"/><path class="cls-1" d="M101.25,63.64a1.5,1.5,0,0,0,0-3,1.5,1.5,0,0,0,0,3Z"/><path class="cls-1" d="M109.34,60.79a1.5,1.5,0,0,0,0-3,1.5,1.5,0,0,0,0,3Z"/></g></g></svg>