<svg xmlns="http://www.w3.org/2000/svg" viewBox="0 0 149.22 113.09"><defs><style>.cls-1{fill:#680303;}</style></defs><g id="圖層_2" data-name="圖層 2"><g id="圖層_1-2" data-name="圖層 1"><path class="cls-1" d="M45.14,55a33,33,0,0,0-25,10.32C13.72,72.27,10.44,81.52,9,90.72a167.67,167.67,0,0,0-1.59,18.17c-.12,2.5,3.75,2.49,3.87,0,.48-9.53,1-19.24,4.26-28.3,2.91-8,8.15-15,15.89-18.78a29.16,29.16,0,0,1,13.75-2.9c2.5.08,2.49-3.8,0-3.88Z"/><path class="cls-1" d="M1.42,106a10.16,10.16,0,0,1,3.91,2.77C6.51,110.11,7.07,112.35,9,113c2.45.76,4.08-1.74,5.44-3.31L19,104.35a2,2,0,0,0,0-2.74,2,2,0,0,0-2.73,0l-4.09,4.72-2,2.3c-.12.14-.56.6-.55.61s.73.13.72.14,0,.08,0,0-.12-.19-.17-.29a16.48,16.48,0,0,0-3-3.94,14.85,14.85,0,0,0-4.7-2.84,2,2,0,0,0-2.38,1.36A2,2,0,0,0,1.42,106Z"/><path class="cls-1" d="M46.79,17.33l13.42,7.15a2.51,2.51,0,1,0,2.53-4.34L49.33,13a2.51,2.51,0,1,0-2.54,4.34Z"/><path class="cls-1" d="M78.21,2.52l-.81,9.31a2.53,2.53,0,0,0,2.52,2.51,2.57,2.57,0,0,0,2.51-2.51l.81-9.31A2.53,2.53,0,0,0,80.72,0a2.58,2.58,0,0,0-2.51,2.52Z"/><path class="cls-1" d="M106,9.6a19.37,19.37,0,0,0-8.18,7,2.51,2.51,0,0,0,4.34,2.54c.22-.33.45-.64.69-.95l-.39.51a16.67,16.67,0,0,1,3.06-3l-.51.39a17.34,17.34,0,0,1,3.52-2.08,2.5,2.5,0,0,0,1.16-1.5,2.63,2.63,0,0,0-.25-1.94A2.56,2.56,0,0,0,108,9.35l-.66-.09A2.44,2.44,0,0,0,106,9.6Z"/><path class="cls-1" d="M49.73,78.3v9.07a2.44,2.44,0,1,0,4.87,0V78.3a2.44,2.44,0,1,0-4.87,0Z"/><path class="cls-1" d="M52.73,80.35a95.75,95.75,0,0,0,21.83-9.86c6.79-4,13.58-7.95,20.94-10.86a116,116,0,0,1,12.71-4.2c3-.81,1.75-5.51-1.29-4.7a119.18,119.18,0,0,0-22.15,8.39C77.6,62.69,71,67.32,63.84,70.85a77.69,77.69,0,0,1-12.4,4.79c-3,.89-1.73,5.6,1.29,4.71Z"/><path class="cls-1" d="M106.83,54.46a358.41,358.41,0,0,1,39,11.64l-1.79-2.35.24,10c.07,3.13,4.95,3.14,4.87,0l-.24-10a2.53,2.53,0,0,0-1.79-2.35,357.58,357.58,0,0,0-39-11.64c-3-.72-4.35,4-1.3,4.7Z"/><path class="cls-1" d="M145.58,72.62l-47,27c-2.72,1.56-.26,5.77,2.46,4.21l47-27c2.72-1.56.26-5.78-2.46-4.21Z"/><path class="cls-1" d="M52.51,89.9A224.69,224.69,0,0,1,74,100.13,2.46,2.46,0,0,0,77.67,98,1.65,1.65,0,0,1,80,96.36a2.5,2.5,0,0,1,1,1.35,7,7,0,0,0,2.13,3.09c1.91,1.4,4.25,1.07,6.41.55a4.37,4.37,0,0,1,1.92-.25c.27.06.51.19.64.22s.1.38,0-.07c0-.16-.21-.3-.16-.51a2.47,2.47,0,0,0,3,3,18.32,18.32,0,0,1,4.79-.32c3.14.18,3.13-4.7,0-4.87a23,23,0,0,0-6.08.49l3,3c.88-3.3-2.06-5.5-5-5.81a12.12,12.12,0,0,0-4,.55c-1.12.24-1.6.43-2.11-.66a8,8,0,0,0-2.68-3.66A6.47,6.47,0,0,0,72.79,98l3.67-2.11A239,239,0,0,0,53.81,85.19a2.46,2.46,0,0,0-3,1.71,2.5,2.5,0,0,0,1.7,3Z"/><path class="cls-1" d="M54.05,80.87a36.68,36.68,0,0,1,12.09,4c1.9,1,3.58,2.33,5.36,3.53A3.64,3.64,0,0,0,76,88.15c.52-.39,1.12-1,1.82-1a4,4,0,0,1,1.79,1C81,89.15,82.26,90,84,89.9a9.9,9.9,0,0,1,2.39-.33c.71.14.65,1.06.91,1.68.75,1.86,2.53,2.22,4.32,1.71,2.1-.59,4.15-.94,6.06.43a4.88,4.88,0,0,1,1.75,5.51c-.57,1.71,2.12,2.44,2.68.74a7.69,7.69,0,0,0-4.7-9.5,9.15,9.15,0,0,0-6,0c-.29.09-1.11.49-1.4.32s-.26-.6-.34-.84a3.81,3.81,0,0,0-1.44-2.31c-1.71-1.11-3.42.27-5.14-.23-1.54-.45-2.57-2-4.13-2.48-1.85-.6-3.13.36-4.56,1.37-.91.64-1.29.22-2.12-.41-1-.73-2-1.43-3-2.07a38.77,38.77,0,0,0-14.44-5.28c-1.76-.27-2.51,2.42-.74,2.69Z"/><path class="cls-1" d="M100.83,94.39Q122.48,81.18,145.3,70c1.61-.78.2-3.19-1.4-2.4Q121.1,78.76,99.42,92c-1.53.94-.13,3.35,1.41,2.41Z"/><path class="cls-1" d="M69.54,74.31c3.29,0,6.19,1.55,9,3.11A101.24,101.24,0,0,0,87.66,82,94,94,0,0,0,107,88c1.76.35,2.51-2.34.74-2.68A90.85,90.85,0,0,1,87.81,79c-3.1-1.4-6-3-9-4.66s-5.9-2.89-9.24-2.85a1.39,1.39,0,0,0,0,2.78Z"/><path class="cls-1" d="M83.81,65.34l37.73,14.6c1.67.65,2.4-2,.74-2.69L84.56,62.65c-1.68-.65-2.4,2.05-.75,2.69Z"/><path class="cls-1" d="M98.79,58.53A78.71,78.71,0,0,1,133.9,73.82c1.4,1.09,3.38-.87,2-2a81.4,81.4,0,0,0-36.34-16c-1.75-.3-2.51,2.39-.74,2.68Z"/><path class="cls-1" d="M65.92,82.12a355.62,355.62,0,0,1,53.4-24.48c1.68-.61,1-3.3-.74-2.69A360.39,360.39,0,0,0,64.52,79.71a1.39,1.39,0,0,0,1.4,2.41Z"/><path class="cls-1" d="M76.37,87.47c4.71-.44,9-2.32,13.07-4.6,4.24-2.36,8.39-4.89,12.63-7.25q13.26-7.4,27-13.87c1.62-.76.21-3.16-1.4-2.4q-13.31,6.27-26.16,13.39C97.37,75,93.3,77.45,89.2,79.81S81,84.25,76.37,84.68c-1.77.17-1.78,3,0,2.79Z"/><path class="cls-1" d="M91.35,92.92l25.59-15.79c4-2.45,7.88-5.07,12.07-7.12,3.63-1.76,8.18-2.21,11.19-5.05,1.3-1.23-.67-3.2-2-2-1.5,1.41-3.5,1.92-5.41,2.53a38.43,38.43,0,0,0-6,2.49c-4,2.07-7.84,4.6-11.7,7L89.94,90.52c-1.52.94-.12,3.35,1.41,2.4Z"/></g></g></svg>