<svg xmlns="http://www.w3.org/2000/svg" viewBox="0 0 124.82 113.9"><defs><style>.cls-1{fill:#680303;}</style></defs><g id="圖層_2" data-name="圖層 2"><g id="圖層_1-2" data-name="圖層 1"><path class="cls-1" d="M37.81,20a32,32,0,0,1,7.83,2.82A34.11,34.11,0,0,1,49.27,25c.3.19.58.4.87.6s.36.26.53.4c.35.26-.22-.18.12.09.59.47,1.16.95,1.72,1.45A2.5,2.5,0,1,0,56.05,24a38.1,38.1,0,0,0-16.91-8.82A2.5,2.5,0,1,0,37.81,20Z"/><path class="cls-1" d="M63.55,3.76,68,12.48a2.52,2.52,0,0,0,3.42.9A2.57,2.57,0,0,0,72.3,10L67.87,1.24a2.52,2.52,0,0,0-3.42-.9,2.55,2.55,0,0,0-.9,3.42Z"/><path class="cls-1" d="M97.4,4.7a14.13,14.13,0,0,0-8.42,4,14.14,14.14,0,0,0-4.19,7.77,2.73,2.73,0,0,0,.26,1.92,2.49,2.49,0,0,0,1.49,1.15c1.2.27,2.86-.36,3.08-1.75a10.28,10.28,0,0,1,.44-1.82c0-.14.09-.28.14-.41s.3-.59,0,.06c.13-.26.24-.52.38-.78a15.1,15.1,0,0,1,1-1.53c.15-.2-.38.48,0,.05l.33-.39q.28-.33.6-.63c.21-.2.42-.4.64-.59a2.3,2.3,0,0,0,.34-.28c-.41.48-.23.18,0,.05a11.53,11.53,0,0,1,1.61-1l.39-.19c.17-.08.62-.21-.07,0,.28-.09.54-.21.82-.29s.56-.17.84-.23l.49-.11c.18,0,.79-.11,0,0A2.77,2.77,0,0,0,99.17,9,2.48,2.48,0,0,0,99.9,7.2C99.85,6,98.79,4.52,97.4,4.7Z"/><path class="cls-1" d="M45.14,55.85a33.06,33.06,0,0,0-25,10.31C13.72,73.08,10.44,82.33,9,91.54a167.23,167.23,0,0,0-1.59,18.17c-.12,2.49,3.75,2.48,3.87,0,.48-9.54,1-19.24,4.26-28.31,2.91-8,8.15-15,15.89-18.77a29.05,29.05,0,0,1,13.75-2.91c2.5.08,2.49-3.79,0-3.87Z"/><path class="cls-1" d="M1.42,106.83a10.27,10.27,0,0,1,3.91,2.77c1.18,1.33,1.74,3.56,3.65,4.16,2.45.77,4.08-1.73,5.44-3.31L19,105.16a2,2,0,0,0,0-2.73,1.94,1.94,0,0,0-2.73,0l-4.09,4.71c-.66.77-1.32,1.54-2,2.3-.12.15-.56.61-.55.61l.72.14q.08.14,0,0l-.17-.28a16.1,16.1,0,0,0-3-3.94,14.5,14.5,0,0,0-4.7-2.84,2,2,0,0,0-2.38,1.35,2,2,0,0,0,1.35,2.38Z"/><path class="cls-1" d="M76.58,69.57a4.71,4.71,0,1,0-4.71-4.71,4.76,4.76,0,0,0,4.71,4.71Z"/><path class="cls-1" d="M89.5,70.93a4.71,4.71,0,1,0-4.71-4.71,4.76,4.76,0,0,0,4.71,4.71Z"/><path class="cls-1" d="M104.45,73.34a4.71,4.71,0,1,0-4.72-4.71,4.76,4.76,0,0,0,4.72,4.71Z"/><path class="cls-1" d="M120.1,75.87a4.71,4.71,0,1,0-4.71-4.71,4.76,4.76,0,0,0,4.71,4.71Z"/><path class="cls-1" d="M81.86,82.11a4.71,4.71,0,1,0-4.71-4.71,4.77,4.77,0,0,0,4.71,4.71Z"/><path class="cls-1" d="M97.51,84.63a4.71,4.71,0,1,0-4.71-4.71,4.75,4.75,0,0,0,4.71,4.71Z"/><path class="cls-1" d="M110.32,86.7A4.71,4.71,0,1,0,105.61,82a4.76,4.76,0,0,0,4.71,4.71Z"/><path class="cls-1" d="M87.85,94.76a4.72,4.72,0,1,0-4.72-4.71,4.77,4.77,0,0,0,4.72,4.71Z"/><path class="cls-1" d="M102,97.77a4.72,4.72,0,1,0-4.71-4.72A4.76,4.76,0,0,0,102,97.77Z"/><path class="cls-1" d="M93,108a4.71,4.71,0,1,0-4.71-4.71A4.76,4.76,0,0,0,93,108Z"/><path class="cls-1" d="M98.77,58.45c.16-.5.33-1,.53-1.48.07-.17.26-.39,0,0,.06-.09.09-.21.14-.3s.2-.46.31-.68a22.4,22.4,0,0,1,1.6-2.71l.44-.6c.18-.25,0,0-.07.08a1.59,1.59,0,0,0,.26-.32c.33-.41.68-.8,1-1.18a23.23,23.23,0,0,1,2.33-2.11,2.34,2.34,0,0,0,.69-1.67,2.37,2.37,0,0,0-.69-1.66,2.34,2.34,0,0,0-1.66-.69,2.74,2.74,0,0,0-1.67.69A23.41,23.41,0,0,0,94.23,57.2a2.37,2.37,0,0,0,1.64,2.9,2.41,2.41,0,0,0,2.9-1.65Z"/><path class="cls-1" d="M90,37.6c3.61,4,6.58,8.76,11.16,11.83,4.34,2.91,10.1,4,14.83,1.42,2.66-1.47.29-5.54-2.37-4.07-3.52,1.93-7.92.33-10.86-2-3.72-2.92-6.32-7-9.43-10.54C91.31,32,88,35.34,90,37.6Z"/><path class="cls-1" d="M90,48.74c1.63-4.19-1.72-8-5.3-9.68a36.75,36.75,0,0,0-14-3.16,1.35,1.35,0,0,0-1.17,2,26.91,26.91,0,0,1,3.61,7.5l1.3-1.7a29,29,0,0,0-10.17,1.49,1.37,1.37,0,0,0-.6,2.25c1.81,2.3,4.7,3,7.46,3.38.74.11,1.49.2,2.24.3a7.56,7.56,0,0,0,2,.37c-.11-.46-.2-.54-.27-.23s-.14.4-.23.6c-.16.43-.33.85-.5,1.28l-1.18,3c-.41,1,.76,1.83,1.66,1.66A27.56,27.56,0,0,0,89.82,49.5c1.19-1.27-.71-3.17-1.9-1.9A25.13,25.13,0,0,1,74,55.19l1.66,1.66,1.17-3a8.08,8.08,0,0,0,.91-2.76c0-2-2.08-2.31-3.61-2.54-3-.44-6.64-.43-8.67-3l-.6,2.25a26.89,26.89,0,0,1,9.46-1.4,1.35,1.35,0,0,0,1.3-1.7,29.79,29.79,0,0,0-3.88-8.15l-1.16,2a36,36,0,0,1,11.56,2.33C85,42,88.75,44.44,87.36,48c-.63,1.61,2,2.31,2.59.71Z"/></g></g></svg>