<svg xmlns="http://www.w3.org/2000/svg" viewBox="0 0 139.07 113.9"><defs><style>.cls-1{fill:#680303;}</style></defs><g id="圖層_2" data-name="圖層 2"><g id="圖層_1-2" data-name="圖層 1"><path class="cls-1" d="M37.81,20a32,32,0,0,1,7.83,2.82A34.11,34.11,0,0,1,49.27,25c.3.19.58.4.87.6s.36.26.53.4c.35.26-.22-.18.12.09.59.47,1.16.95,1.72,1.45A2.5,2.5,0,1,0,56.05,24a38.1,38.1,0,0,0-16.91-8.82A2.5,2.5,0,1,0,37.81,20Z"/><path class="cls-1" d="M63.55,3.76,68,12.48a2.52,2.52,0,0,0,3.42.9A2.57,2.57,0,0,0,72.3,10L67.87,1.24a2.52,2.52,0,0,0-3.42-.9,2.55,2.55,0,0,0-.9,3.42Z"/><path class="cls-1" d="M97.4,4.7a14.13,14.13,0,0,0-8.42,4,14.14,14.14,0,0,0-4.19,7.77,2.73,2.73,0,0,0,.26,1.92,2.49,2.49,0,0,0,1.49,1.15c1.2.27,2.86-.36,3.08-1.75a10.28,10.28,0,0,1,.44-1.82c0-.14.09-.28.14-.41s.3-.59,0,.06c.13-.26.24-.52.38-.78a15.1,15.1,0,0,1,1-1.53c.15-.2-.38.48,0,.05l.33-.39q.28-.33.6-.63c.21-.2.42-.4.64-.59a2.3,2.3,0,0,0,.34-.28c-.41.48-.23.18,0,.05a11.53,11.53,0,0,1,1.61-1l.39-.19c.17-.08.62-.21-.07,0,.28-.09.54-.21.82-.29s.56-.17.84-.23l.49-.11c.18,0,.79-.11,0,0A2.77,2.77,0,0,0,99.17,9,2.48,2.48,0,0,0,99.9,7.2C99.85,6,98.79,4.52,97.4,4.7Z"/><path class="cls-1" d="M45.14,55.85a33.06,33.06,0,0,0-25,10.31C13.72,73.08,10.44,82.33,9,91.54a167.23,167.23,0,0,0-1.59,18.17c-.12,2.49,3.75,2.48,3.87,0,.48-9.54,1-19.24,4.26-28.31,2.91-8,8.15-15,15.89-18.77a29.05,29.05,0,0,1,13.75-2.91c2.5.08,2.49-3.79,0-3.87Z"/><path class="cls-1" d="M1.42,106.83a10.27,10.27,0,0,1,3.91,2.77c1.18,1.33,1.74,3.56,3.65,4.16,2.45.77,4.08-1.73,5.44-3.31L19,105.16a2,2,0,0,0,0-2.73,1.94,1.94,0,0,0-2.73,0l-4.09,4.71c-.66.77-1.32,1.54-2,2.3-.12.15-.56.61-.55.61l.72.14q.08.14,0,0l-.17-.28a16.1,16.1,0,0,0-3-3.94,14.5,14.5,0,0,0-4.7-2.84,2,2,0,0,0-2.38,1.35,2,2,0,0,0,1.35,2.38Z"/><path class="cls-1" d="M116.13,55A118.24,118.24,0,0,0,88.6,48.69c-8.38-.9-17.37-1.33-25.26,2.12-3.55,1.56-8,4.37-8.19,8.71-.19,4.76,5,6.46,8.63,7.72a61.57,61.57,0,0,0,24.46,3.15,63.23,63.23,0,0,0,27-8.23c2.67-1.54.26-5.68-2.41-4.13A58.24,58.24,0,0,1,70.42,64.2c-1.81-.44-3.61-1-5.37-1.57a15.65,15.65,0,0,1-4.5-1.94c-2.54-2,3.5-5,4.83-5.58,6.72-3,14.69-2.46,21.82-1.77a113.19,113.19,0,0,1,27.66,6.31A2.4,2.4,0,0,0,117.8,58,2.43,2.43,0,0,0,116.13,55Z"/><path class="cls-1" d="M55.67,63.48c1.3,7,3.07,14.15,6.57,20.45a29.66,29.66,0,0,0,6.52,8.2,29.34,29.34,0,0,0,10.83,5.61c7,2.08,14.86,2.56,21.8.1a26,26,0,0,0,15.17-14.55c3.32-7.7,4-16.18,4.59-24.46a2.42,2.42,0,0,0-2.39-2.39,2.45,2.45,0,0,0-2.4,2.39c-.78,12.07-2,27.65-14.41,33.64-5.78,2.8-12.73,2.71-18.86,1.26a27.62,27.62,0,0,1-10-4.27,23.09,23.09,0,0,1-5.86-6.55c-3.86-6.23-5.59-13.57-6.91-20.7a2.39,2.39,0,1,0-4.61,1.27Z"/><path class="cls-1" d="M121.63,67.74a7.31,7.31,0,0,1,3.11-1.35c.1,0,.81-.16.44-.11.32,0,.65-.06,1-.07a8,8,0,0,1,1,0c.13,0,1,.08.57,0a10.56,10.56,0,0,1,1.77.4c.27.09.54.18.79.28-.33-.13,0,0,.09,0l.53.27c.24.14.48.28.71.43l.38.27c-.28-.21,0,0,.07.07a8.08,8.08,0,0,1,.6.57c.11.11.21.23.32.35s-.1-.16.13.16a5.85,5.85,0,0,1,1.2,3,8,8,0,0,1-.56,3.79,9.64,9.64,0,0,1-6,5.59c-3.81,1.22-7.85.4-11.48-1a2.42,2.42,0,0,0-2.94,1.68A2.45,2.45,0,0,0,115,85.08a21.63,21.63,0,0,0,13.35,1.22,14.48,14.48,0,0,0,9.25-7.44,12.29,12.29,0,0,0,.18-11.27,12,12,0,0,0-7.63-5.73,13.65,13.65,0,0,0-10.94,1.75,2.45,2.45,0,0,0-.86,3.27,2.41,2.41,0,0,0,3.27.86Z"/><path class="cls-1" d="M96.86,66.52v9.32a1,1,0,0,0,2.06,0V66.52a1,1,0,0,0-2.06,0Z"/><path class="cls-1" d="M92.81,77.67l.33,6.45a1,1,0,1,0,2,0l-.33-6.45a1,1,0,0,0-1-1,1,1,0,0,0-1,1Z"/><path class="cls-1" d="M94.23,78.57l3.26-.64,1.67-.33.72-.14c.15,0,.29-.07.44-.09-.08,0-.08,0,0,0,.27,0,.12-.14-.46-.42,0-.12,0,.12,0,.17l0,.45.07.81.15,1.63.15,1.62.09.89c0,.15,0,.3,0,.45v.1c0,.18,0,.14,0-.14l.37-.37s.31,0,.08,0H94.47a1,1,0,0,0,0,2h5.83a4,4,0,0,0,1.15-.07,1.37,1.37,0,0,0,.93-.88,2.81,2.81,0,0,0,0-1.19L102,77.87c-.08-.8,0-1.86-.81-2.33s-1.6-.1-2.35,0l-5.15,1A1,1,0,0,0,93,77.86a1,1,0,0,0,1.26.71Z"/></g></g></svg>