<svg xmlns="http://www.w3.org/2000/svg" viewBox="0 0 140.86 113.9"><defs><style>.cls-1{fill:#680303;}</style></defs><g id="圖層_2" data-name="圖層 2"><g id="圖層_1-2" data-name="圖層 1"><path class="cls-1" d="M37.81,20a32,32,0,0,1,7.83,2.82A34.11,34.11,0,0,1,49.27,25c.3.19.58.4.87.6s.36.26.53.4c.35.26-.22-.18.12.09.59.47,1.16.95,1.72,1.45A2.5,2.5,0,1,0,56.05,24a38.1,38.1,0,0,0-16.91-8.82A2.5,2.5,0,1,0,37.81,20Z"/><path class="cls-1" d="M63.55,3.76,68,12.48a2.52,2.52,0,0,0,3.42.9A2.57,2.57,0,0,0,72.3,10L67.87,1.24a2.52,2.52,0,0,0-3.42-.9,2.55,2.55,0,0,0-.9,3.42Z"/><path class="cls-1" d="M97.4,4.7a14.13,14.13,0,0,0-8.42,4,14.14,14.14,0,0,0-4.19,7.77,2.73,2.73,0,0,0,.26,1.92,2.49,2.49,0,0,0,1.49,1.15c1.2.27,2.86-.36,3.08-1.75a10.28,10.28,0,0,1,.44-1.82c0-.14.09-.28.14-.41s.3-.59,0,.06c.13-.26.24-.52.38-.78a15.1,15.1,0,0,1,1-1.53c.15-.2-.38.48,0,.05l.33-.39q.28-.33.6-.63c.21-.2.42-.4.64-.59a2.3,2.3,0,0,0,.34-.28c-.41.48-.23.18,0,.05a11.53,11.53,0,0,1,1.61-1l.39-.19c.17-.08.62-.21-.07,0,.28-.09.54-.21.82-.29s.56-.17.84-.23l.49-.11c.18,0,.79-.11,0,0A2.77,2.77,0,0,0,99.17,9,2.48,2.48,0,0,0,99.9,7.2C99.85,6,98.79,4.52,97.4,4.7Z"/><path class="cls-1" d="M45.14,55.85a33.06,33.06,0,0,0-25,10.31C13.72,73.08,10.44,82.33,9,91.54a167.23,167.23,0,0,0-1.59,18.17c-.12,2.49,3.75,2.48,3.87,0,.48-9.54,1-19.24,4.26-28.31,2.91-8,8.15-15,15.89-18.77a29.05,29.05,0,0,1,13.75-2.91c2.5.08,2.49-3.79,0-3.87Z"/><path class="cls-1" d="M1.42,106.83a10.27,10.27,0,0,1,3.91,2.77c1.18,1.33,1.74,3.56,3.65,4.16,2.45.77,4.08-1.73,5.44-3.31L19,105.16a2,2,0,0,0,0-2.73,1.94,1.94,0,0,0-2.73,0l-4.09,4.71c-.66.77-1.32,1.54-2,2.3-.12.15-.56.61-.55.61l.72.14q.08.14,0,0l-.17-.28a16.1,16.1,0,0,0-3-3.94,14.5,14.5,0,0,0-4.7-2.84,2,2,0,0,0-2.38,1.35,2,2,0,0,0,1.35,2.38Z"/><path class="cls-1" d="M130.18,104.55a44,44,0,0,0-1.41-9.73,73,73,0,0,0-2.84-9.5c-3-7.94-6.13-15.86-11.46-22.54C105.84,52,92.56,45.37,78.91,43.89a49,49,0,0,0-22.66,2.82A2.18,2.18,0,0,0,55,49.86C67.05,73,91.09,93.06,118.5,91.37A47.79,47.79,0,0,0,139.82,85c2.38-1.4.23-5.11-2.16-3.71-10.81,6.36-24.08,7.31-36,3.92-11.7-3.32-22-10.5-30.21-19.36A83.45,83.45,0,0,1,58.67,47.69l-1.28,3.16a48.6,48.6,0,0,1,52.37,13c5.17,5.76,8.34,12.91,11.07,20.06a90.13,90.13,0,0,1,3.42,10.47,42.92,42.92,0,0,1,1.64,10.18c0,2.76,4.3,2.77,4.29,0Z"/><path class="cls-1" d="M70.07,57.58c2.76,0,2.77-4.29,0-4.29s-2.77,4.29,0,4.29Z"/><path class="cls-1" d="M87.88,47.4a7.94,7.94,0,0,1,5.87-2.95,8.29,8.29,0,0,1,6.64,3c2.17,2.32,3.78,5.21,5.52,7.85l6.3,9.56c1.52,2.3,5.24.15,3.71-2.17q-3.7-5.61-7.4-11.22c-2-3-3.94-6.37-6.85-8.67a12.39,12.39,0,0,0-17.49,2.47A2.16,2.16,0,0,0,85,48.17a2.19,2.19,0,0,0,2.93-.77Z"/><path class="cls-1" d="M74.93,76.41a11.78,11.78,0,0,0-1.47,8.42,1.25,1.25,0,0,0,1.8.74,18.58,18.58,0,0,0,5.87-4.38,1.23,1.23,0,0,0-1.74-1.73,16.14,16.14,0,0,1-1.23,1.25c-.22.2-.44.4-.67.58a4.25,4.25,0,0,1-.5.39,17.13,17.13,0,0,1-3,1.77l1.8.73-.09-.49c0,.21,0-.26,0-.3,0-.29,0-.59,0-.88s0-.58,0-.88c0,0,.06-.51,0-.29,0-.15,0-.29.07-.44a10.84,10.84,0,0,1,.49-1.75l.09-.23c0,.1,0,.08,0,0s.11-.23.16-.34a8.29,8.29,0,0,1,.49-.88,1.23,1.23,0,1,0-2.12-1.24Z"/><path class="cls-1" d="M101.8,88.71a3.55,3.55,0,0,0-.4,3.51c.14.51.33,1,.5,1.51.08.24.16.49.23.73a2.14,2.14,0,0,1,.09.34c0,.12.09.52,0,0a1.3,1.3,0,0,0,.61,1.06,1.22,1.22,0,0,0,1.24,0,14.34,14.34,0,0,0,4.48-4.69A1.22,1.22,0,1,0,106.46,90a13.73,13.73,0,0,1-.8,1.19l0,0,0,0-.23.27c-.16.19-.32.37-.49.55a13,13,0,0,1-1,1l-.27.22-.08.06-.05,0c-.2.15-.4.29-.61.42l1.85,1.06a17.79,17.79,0,0,0-.84-2.93c-.07-.24-.14-.47-.2-.72a2.82,2.82,0,0,1-.07-.31l0-.18c0,.1,0,.31,0,.09a2.81,2.81,0,0,1,0-.29s0-.15,0-.16-.07.36,0,.15l0-.12c.06-.23-.06.09,0,.11s.06-.1.07-.12-.21.24-.08.1a1.26,1.26,0,0,0,0-1.74,1.24,1.24,0,0,0-1.73,0Z"/><path class="cls-1" d="M120.48,73.94a5.78,5.78,0,0,1,1.44,0l-.32,0a6.16,6.16,0,0,1,1.46.38c.11,0,.17.13-.06,0l.16.07.35.18a5.74,5.74,0,0,1,.66.43l.29-2.24-2.81,1a1.23,1.23,0,0,0,.66,2.37l2.81-1a1.24,1.24,0,0,0,.88-1,1.28,1.28,0,0,0-.59-1.22,7.07,7.07,0,0,0-4.93-1.32,1.41,1.41,0,0,0-.87.36,1.27,1.27,0,0,0-.36.87,1.29,1.29,0,0,0,.36.87,1.17,1.17,0,0,0,.87.35Z"/><path class="cls-1" d="M82.69,49.44A121.48,121.48,0,0,1,79.5,61.35c-1.18,3.24-3.37,6.4-6.91,7.2-1.54.34-.89,2.71.65,2.36,3.89-.87,6.61-4.1,8.11-7.63,1.79-4.17,2.6-8.8,3.71-13.19a1.23,1.23,0,0,0-2.37-.65Z"/></g></g></svg>