<svg xmlns="http://www.w3.org/2000/svg" viewBox="0 0 133.33 113.9"><defs><style>.cls-1{fill:#680303;}</style></defs><g id="圖層_2" data-name="圖層 2"><g id="圖層_1-2" data-name="圖層 1"><path class="cls-1" d="M37.81,20a32,32,0,0,1,7.83,2.82A34.11,34.11,0,0,1,49.27,25c.3.19.58.4.87.6s.36.26.53.4c.35.26-.22-.18.12.09.59.47,1.16.95,1.72,1.45A2.5,2.5,0,1,0,56.05,24a38.1,38.1,0,0,0-16.91-8.82A2.5,2.5,0,1,0,37.81,20Z"/><path class="cls-1" d="M63.55,3.76,68,12.48a2.52,2.52,0,0,0,3.42.9A2.57,2.57,0,0,0,72.3,10L67.87,1.24a2.52,2.52,0,0,0-3.42-.9,2.55,2.55,0,0,0-.9,3.42Z"/><path class="cls-1" d="M97.4,4.7a14.13,14.13,0,0,0-8.42,4,14.14,14.14,0,0,0-4.19,7.77,2.73,2.73,0,0,0,.26,1.92,2.49,2.49,0,0,0,1.49,1.15c1.2.27,2.86-.36,3.08-1.75a10.28,10.28,0,0,1,.44-1.82c0-.14.09-.28.14-.41s.3-.59,0,.06c.13-.26.24-.52.38-.78a15.1,15.1,0,0,1,1-1.53c.15-.2-.38.48,0,.05l.33-.39q.28-.33.6-.63c.21-.2.42-.4.64-.59a2.3,2.3,0,0,0,.34-.28c-.41.48-.23.18,0,.05a11.53,11.53,0,0,1,1.61-1l.39-.19c.17-.08.62-.21-.07,0,.28-.09.54-.21.82-.29s.56-.17.84-.23l.49-.11c.18,0,.79-.11,0,0A2.77,2.77,0,0,0,99.17,9,2.48,2.48,0,0,0,99.9,7.2C99.85,6,98.79,4.52,97.4,4.7Z"/><path class="cls-1" d="M45.14,55.85a33.06,33.06,0,0,0-25,10.31C13.72,73.08,10.44,82.33,9,91.54a167.23,167.23,0,0,0-1.59,18.17c-.12,2.49,3.75,2.48,3.87,0,.48-9.54,1-19.24,4.26-28.31,2.91-8,8.15-15,15.89-18.77a29.05,29.05,0,0,1,13.75-2.91c2.5.08,2.49-3.79,0-3.87Z"/><path class="cls-1" d="M1.42,106.83a10.27,10.27,0,0,1,3.91,2.77c1.18,1.33,1.74,3.56,3.65,4.16,2.45.77,4.08-1.73,5.44-3.31L19,105.16a2,2,0,0,0,0-2.73,1.94,1.94,0,0,0-2.73,0l-4.09,4.71c-.66.77-1.32,1.54-2,2.3-.12.15-.56.61-.55.61l.72.14q.08.14,0,0l-.17-.28a16.1,16.1,0,0,0-3-3.94,14.5,14.5,0,0,0-4.7-2.84,2,2,0,0,0-2.38,1.35,2,2,0,0,0,1.35,2.38Z"/><path class="cls-1" d="M101.55,99.21c-6.74,1-14.29,2-20.5-1.51a11.3,11.3,0,0,1-5.42-6.31,8.39,8.39,0,0,1,1-7.58c1.79-2.27,4.79-3.15,7.49-3.75a37.07,37.07,0,0,1,9.79-.94c5.87.29,12,3,14.46,8.73a7.75,7.75,0,0,1,.76,4.06c-.3,1.48-1.86,2.78-2.8,3.89a18.7,18.7,0,0,1-2,2.27c.37-.32-.08.05-.15.09a7.79,7.79,0,0,1-.76.39c-.41.18-1.3.46-1.89.66-2.63.86-1.51,5,1.15,4.17a15.29,15.29,0,0,0,3.91-1.64,11.1,11.1,0,0,0,2.3-2.29,43.18,43.18,0,0,0,3.42-4.22,7.41,7.41,0,0,0,1-5.2c-1-7.75-7.87-13.29-15.21-14.72a35.26,35.26,0,0,0-12.71.1c-3.73.63-7.55,1.6-10.54,4-6.08,5-4.77,14.5.56,19.48,7.4,6.93,18,5.78,27.23,4.45a2.18,2.18,0,0,0,1.51-2.66,2.21,2.21,0,0,0-2.66-1.51Z"/><path class="cls-1" d="M81.22,88l.9,4.4a2.25,2.25,0,0,0,1,1.29,2.22,2.22,0,0,0,1.67.22,2.15,2.15,0,0,0,1.29-1,2.37,2.37,0,0,0,.22-1.67l-.9-4.4a2.19,2.19,0,0,0-1-1.3,2.22,2.22,0,0,0-1.67-.21,2.14,2.14,0,0,0-1.29,1A2.41,2.41,0,0,0,81.22,88Z"/><path class="cls-1" d="M95.35,85.32v5.29A2.24,2.24,0,0,0,96,92.14a2.16,2.16,0,0,0,3.69-1.53V85.32a2.17,2.17,0,0,0-4.33,0Z"/><path class="cls-1" d="M80.05,77.21,78.94,54.26a37.72,37.72,0,0,1-.18-5.09c.12-1.41,1.09-1.86,2.26-2.46a44.84,44.84,0,0,1,9.56-3.83,19.47,19.47,0,0,1,16.72,3.34,19,19,0,0,1,7.18,15.34c-.15,7.22-4.79,13.22-9,18.71a2.17,2.17,0,0,0,.77,3,2.21,2.21,0,0,0,3-.78c4.42-5.77,8.76-11.85,9.48-19.3A23.08,23.08,0,0,0,92.87,38.08a38.08,38.08,0,0,0-11.18,3.5,23,23,0,0,0-5,2.72A6.38,6.38,0,0,0,74.44,49a54.82,54.82,0,0,0,.25,6.78l.34,7q.34,7.23.7,14.47c.13,2.77,4.46,2.79,4.32,0Z"/><path class="cls-1" d="M77,46.08,63.68,40.73c-3.6-1.45-8.2-4.18-11.73-1.19a2.17,2.17,0,0,0-.34,2.62C55.27,47,56.38,53.34,61.69,56.83A10,10,0,0,0,70.17,58c3-1,5.53-3,7.92-5a2.17,2.17,0,0,0,0-3.06A2.2,2.2,0,0,0,75,50c-3.3,2.77-7.76,6-11.8,2.64-3.87-3.26-4.88-8.71-7.88-12.64L55,42.6c.79-.67,2.92.45,3.67.75l5.56,2.25L75.8,50.25a2.18,2.18,0,0,0,2.66-1.51A2.22,2.22,0,0,0,77,46.08Z"/><path class="cls-1" d="M114.91,50.1l8.78-4.71a25.72,25.72,0,0,1,3.77-1.92,7.56,7.56,0,0,1,.75-.21c-.07,0,.63.06.4,0s.12,0,.17.07c-.1-.08-.07-.08.1.13-.08-.1,0,.13,0,.24A4.71,4.71,0,0,1,129,45a13.56,13.56,0,0,1-.27,1.45c-.13.55-.29,1.09-.47,1.63a9.14,9.14,0,0,1-.56,1.34c-.25.49-.52,1-.81,1.43-.17.26-.34.52-.52.77s-.14.19-.37.47a13.55,13.55,0,0,1-1.11,1.16l-.59.53a3.1,3.1,0,0,1-.46.35,10.33,10.33,0,0,1-6.61,2,2.17,2.17,0,0,0,0,4.33,15.53,15.53,0,0,0,14.1-8.62c1.35-2.64,2.49-6.08,1.85-9.06a4.8,4.8,0,0,0-3.39-3.69,7.76,7.76,0,0,0-5.37,1c-3.93,2-7.78,4.16-11.66,6.24a2.16,2.16,0,0,0,2.18,3.74Z"/><path class="cls-1" d="M78.94,43.73V37.56a2.17,2.17,0,0,0-4.33,0v6.17a2.17,2.17,0,1,0,4.33,0Z"/><path class="cls-1" d="M100.83,39.88l1.75-5.29a2.18,2.18,0,0,0-1.51-2.66,2.21,2.21,0,0,0-2.66,1.51c-.59,1.76-1.17,3.53-1.75,5.29a2.17,2.17,0,0,0,1.51,2.66,2.21,2.21,0,0,0,2.66-1.51Z"/><path class="cls-1" d="M81.18,59.12c2.79,0,2.79-4.33,0-4.33s-2.79,4.33,0,4.33Z"/><path class="cls-1" d="M94.4,58.23c2.79,0,2.79-4.32,0-4.32s-2.79,4.32,0,4.32Z"/></g></g></svg>