<svg xmlns="http://www.w3.org/2000/svg" viewBox="0 0 1506.23 110.66"><defs><style>.cls-1{fill:none;stroke:#680303;stroke-linecap:round;stroke-linejoin:round;stroke-width:2.7px;}</style></defs><g id="圖層_2" data-name="圖層 2"><g id="圖層_1-2" data-name="圖層 1"><g id="圖層_2-2" data-name="圖層 2"><g id="圖層_1-2-2" data-name="圖層 1-2"><line class="cls-1" x1="612.75" y1="3.16" x2="644.06" y2="47.83"/><line class="cls-1" x1="589.33" y1="3.05" x2="619.79" y2="46.24"/><line class="cls-1" x1="565.78" y1="3.05" x2="595.52" y2="44.77"/><line class="cls-1" x1="542.24" y1="2.94" x2="571.37" y2="43.29"/><line class="cls-1" x1="518.7" y1="2.82" x2="547.1" y2="41.71"/><line class="cls-1" x1="495.28" y1="2.82" x2="522.82" y2="40.23"/><line class="cls-1" x1="471.73" y1="2.71" x2="498.67" y2="38.65"/><line class="cls-1" x1="448.19" y1="2.71" x2="474.4" y2="37.17"/><line class="cls-1" x1="424.65" y1="2.6" x2="450.25" y2="35.7"/><line class="cls-1" x1="401.22" y1="2.48" x2="425.98" y2="34.11"/><line class="cls-1" x1="377.68" y1="2.48" x2="401.71" y2="32.64"/><line class="cls-1" x1="354.14" y1="2.37" x2="377.56" y2="31.05"/><line class="cls-1" x1="330.59" y1="2.37" x2="353.29" y2="29.58"/><line class="cls-1" x1="307.05" y1="2.26" x2="329.02" y2="28.1"/><line class="cls-1" x1="283.63" y1="2.26" x2="304.87" y2="26.52"/><line class="cls-1" x1="260.08" y1="2.14" x2="280.59" y2="25.04"/><line class="cls-1" x1="236.54" y1="2.03" x2="256.44" y2="23.57"/><line class="cls-1" x1="213" y1="2.03" x2="232.17" y2="21.98"/><line class="cls-1" x1="189.58" y1="1.92" x2="207.9" y2="20.51"/><line class="cls-1" x1="166.03" y1="1.92" x2="183.75" y2="18.92"/><line class="cls-1" x1="142.49" y1="1.8" x2="159.48" y2="17.45"/><line class="cls-1" x1="118.94" y1="1.69" x2="135.33" y2="15.97"/><line class="cls-1" x1="95.52" y1="1.69" x2="111.06" y2="14.39"/><line class="cls-1" x1="71.98" y1="1.58" x2="86.78" y2="12.91"/><line class="cls-1" x1="48.44" y1="1.58" x2="62.63" y2="11.33"/><line class="cls-1" x1="24.89" y1="1.46" x2="38.36" y2="9.85"/><line class="cls-1" x1="1.35" y1="1.35" x2="14.09" y2="8.38"/></g></g><line class="cls-1" x1="639.61" y1="3.16" x2="670.92" y2="47.83"/><line class="cls-1" x1="667.58" y1="3.16" x2="699.68" y2="49.95"/><line class="cls-1" x1="695.54" y1="3.16" x2="728.44" y2="52.07"/><line class="cls-1" x1="723.51" y1="3.16" x2="757.19" y2="54.19"/><line class="cls-1" x1="751.47" y1="3.16" x2="785.95" y2="56.31"/><line class="cls-1" x1="779.43" y1="3.16" x2="814.71" y2="58.43"/><line class="cls-1" x1="807.4" y1="3.16" x2="843.47" y2="60.55"/><line class="cls-1" x1="835.36" y1="3.16" x2="872.22" y2="62.67"/><line class="cls-1" x1="863.33" y1="3.16" x2="900.98" y2="64.79"/><line class="cls-1" x1="891.29" y1="3.16" x2="929.74" y2="66.91"/><line class="cls-1" x1="919.26" y1="3.16" x2="958.49" y2="69.03"/><line class="cls-1" x1="947.22" y1="3.16" x2="987.25" y2="71.15"/><line class="cls-1" x1="975.19" y1="3.16" x2="1016.01" y2="73.27"/><line class="cls-1" x1="1003.15" y1="3.16" x2="1044.77" y2="75.39"/><line class="cls-1" x1="1031.12" y1="3.16" x2="1073.52" y2="77.51"/><line class="cls-1" x1="1059.08" y1="3.16" x2="1102.28" y2="79.63"/><line class="cls-1" x1="1087.05" y1="3.16" x2="1131.04" y2="81.75"/><line class="cls-1" x1="1115.01" y1="3.16" x2="1159.79" y2="83.87"/><line class="cls-1" x1="1142.98" y1="3.16" x2="1188.55" y2="85.99"/><line class="cls-1" x1="1170.94" y1="3.16" x2="1217.31" y2="88.11"/><line class="cls-1" x1="1198.9" y1="3.16" x2="1246.07" y2="90.23"/><line class="cls-1" x1="1226.87" y1="3.16" x2="1274.82" y2="92.35"/><line class="cls-1" x1="1254.83" y1="3.16" x2="1303.58" y2="94.47"/><line class="cls-1" x1="1282.8" y1="3.16" x2="1332.34" y2="96.59"/><line class="cls-1" x1="1310.76" y1="3.16" x2="1361.09" y2="98.71"/><line class="cls-1" x1="1338.73" y1="3.16" x2="1389.85" y2="100.83"/><line class="cls-1" x1="1366.69" y1="3.16" x2="1418.61" y2="102.95"/><line class="cls-1" x1="1394.66" y1="3.16" x2="1447.37" y2="105.07"/><line class="cls-1" x1="1422.62" y1="3.16" x2="1476.12" y2="107.19"/><line class="cls-1" x1="1450.59" y1="3.16" x2="1504.88" y2="109.31"/></g></g></svg>